<svg width="210" height="208" viewBox="0 0 210 208" fill="none" xmlns="http://www.w3.org/2000/svg">
<path d="M208.487 32.6453V130.259C208.487 131.75 207.278 132.958 205.788 132.958H141.857C140.367 132.958 139.158 134.167 139.158 135.658V156.257C139.158 157.748 137.949 158.957 136.459 158.957H72.5285C71.0376 158.957 69.829 160.165 69.829 161.656V182.256C69.829 183.747 68.6204 184.955 67.1296 184.955H3.19943C1.70858 184.955 0.5 186.164 0.5 187.655V207.5" stroke="#040036" stroke-linecap="round"/>
<path d="M93.1194 69.0452L68.7459 67.9622C68.7459 67.9622 56.7981 90.2136 49.7888 104.793C42.4815 119.992 33.2617 141.995 28.9419 152.457C27.4135 156.158 26.4985 158.415 26.4985 158.415L43.5171 162.094C45.3014 162.48 47.1225 161.625 47.9647 160.006C48.3569 159.252 48.8233 158.355 49.3554 157.331C55.6258 145.273 71.0275 115.654 81.7451 95.0435C91.052 99.4855 105.577 106.418 105.577 106.418L75.2454 141.081L89.3194 142.525C93.7647 142.982 98.1701 141.349 101.244 138.105L124.225 113.854C130.396 107.924 129.894 97.9062 123.161 92.6223C123.161 92.6223 114.721 84.5004 108.827 79.8778C102.963 75.2793 93.1194 69.0452 93.1194 69.0452Z" fill="white"/>
<path d="M68.7459 67.9622L68.7681 67.4627C68.5761 67.4541 68.3963 67.5563 68.3054 67.7256L68.7459 67.9622ZM93.1194 69.0452L93.3869 68.6227C93.3132 68.5761 93.2287 68.5495 93.1416 68.5457L93.1194 69.0452ZM26.4985 158.415L26.0352 158.227C25.9797 158.364 25.9875 158.518 26.0565 158.649C26.1255 158.779 26.2486 158.872 26.3929 158.904L26.4985 158.415ZM81.7451 95.0435L81.9605 94.5923L81.7451 95.0435ZM75.2454 141.081L74.8692 140.752C74.746 140.892 74.7117 141.09 74.7802 141.264C74.8486 141.438 75.0084 141.559 75.1944 141.578L75.2454 141.081ZM124.225 113.854L123.878 113.494C123.873 113.499 123.867 113.505 123.862 113.51L124.225 113.854ZM123.161 92.6223L122.815 92.9826C122.827 92.9943 122.839 93.0053 122.853 93.0157L123.161 92.6223ZM75.7454 84.7525C75.7454 84.4764 75.5216 84.2525 75.2454 84.2525C74.9693 84.2525 74.7454 84.4764 74.7454 84.7525H75.7454ZM111.453 106.911C111.725 106.956 111.983 106.772 112.028 106.5C112.074 106.228 111.889 105.97 111.617 105.925L111.453 106.911ZM49.7888 104.793L50.2394 105.01L49.7888 104.793ZM108.827 79.8778L108.518 80.2713L108.827 79.8778ZM49.3554 157.331L49.7991 157.562L49.3554 157.331ZM101.244 138.105L101.607 138.449L101.244 138.105ZM43.5171 162.094L43.6228 161.606L43.5171 162.094ZM47.9647 160.006L48.4083 160.237L47.9647 160.006ZM68.7237 68.4617L93.0972 69.5447L93.1416 68.5457L68.7681 67.4627L68.7237 68.4617ZM43.6228 161.606L26.6042 157.926L26.3929 158.904L43.4115 162.583L43.6228 161.606ZM81.5297 95.4948C86.1832 97.7158 92.1412 100.559 96.9358 102.848C99.3331 103.992 101.44 104.997 102.947 105.716C103.7 106.076 104.304 106.364 104.719 106.563C104.927 106.662 105.088 106.738 105.196 106.79C105.251 106.816 105.292 106.836 105.32 106.849C105.334 106.856 105.344 106.861 105.351 106.864C105.354 106.866 105.357 106.867 105.359 106.868C105.36 106.868 105.361 106.869 105.361 106.869C105.361 106.869 105.361 106.869 105.361 106.869C105.362 106.869 105.362 106.869 105.577 106.418C105.792 105.967 105.792 105.967 105.792 105.967C105.792 105.966 105.792 105.966 105.792 105.966C105.791 105.966 105.79 105.966 105.79 105.965C105.788 105.964 105.785 105.963 105.782 105.962C105.775 105.958 105.764 105.953 105.75 105.947C105.723 105.933 105.681 105.914 105.627 105.888C105.518 105.836 105.358 105.759 105.15 105.66C104.735 105.462 104.131 105.174 103.377 104.814C101.87 104.095 99.7638 103.089 97.3665 101.945C92.5719 99.6568 86.6139 96.8133 81.9605 94.5923L81.5297 95.4948ZM105.201 106.089L74.8692 140.752L75.6217 141.41L105.953 106.747L105.201 106.089ZM75.1944 141.578L89.2683 143.023L89.3704 142.028L75.2965 140.584L75.1944 141.578ZM124.571 114.215C130.961 108.074 130.442 97.7004 123.47 92.229L122.853 93.0157C129.346 98.1119 129.83 107.774 123.878 113.494L124.571 114.215ZM81.9605 94.5923C78.8594 93.1122 77.3076 90.661 76.5265 88.5605C76.1356 87.509 75.9399 86.5499 75.8421 85.8547C75.7933 85.5075 75.7691 85.2274 75.7572 85.0362C75.7512 84.9406 75.7482 84.8674 75.7468 84.8192C75.7461 84.7951 75.7457 84.7772 75.7456 84.766C75.7455 84.7604 75.7455 84.7564 75.7454 84.7542C75.7454 84.753 75.7454 84.7523 75.7454 84.7521C75.7454 84.7519 75.7454 84.7519 75.7454 84.752C75.7454 84.752 75.7454 84.7521 75.7454 84.7522C75.7454 84.7523 75.7454 84.7525 75.2454 84.7525C74.7454 84.7525 74.7454 84.7528 74.7454 84.753C74.7454 84.7532 74.7454 84.7535 74.7454 84.7537C74.7454 84.7542 74.7454 84.7549 74.7454 84.7556C74.7454 84.7571 74.7455 84.759 74.7455 84.7613C74.7455 84.766 74.7456 84.7724 74.7457 84.7805C74.7459 84.7966 74.7464 84.8196 74.7472 84.8489C74.749 84.9075 74.7524 84.9917 74.7591 85.0987C74.7725 85.3128 74.7991 85.6186 74.8519 85.9939C74.9572 86.7435 75.1678 87.7755 75.5892 88.909C76.4331 91.1784 78.1312 93.8727 81.5297 95.4948L81.9605 94.5923ZM105.577 106.418C105.675 106.908 105.675 106.908 105.675 106.908C105.675 106.908 105.675 106.908 105.675 106.908C105.675 106.908 105.675 106.908 105.675 106.908C105.675 106.908 105.675 106.908 105.675 106.908C105.676 106.908 105.678 106.908 105.68 106.907C105.684 106.906 105.69 106.905 105.7 106.903C105.718 106.9 105.746 106.895 105.784 106.888C105.86 106.876 105.973 106.857 106.12 106.837C106.413 106.796 106.841 106.747 107.368 106.714C108.425 106.648 109.875 106.648 111.453 106.911L111.617 105.925C109.945 105.646 108.416 105.646 107.306 105.716C106.75 105.75 106.298 105.803 105.982 105.846C105.824 105.868 105.701 105.888 105.615 105.903C105.573 105.91 105.54 105.916 105.517 105.92C105.505 105.922 105.496 105.924 105.49 105.925C105.487 105.926 105.484 105.926 105.482 105.927C105.482 105.927 105.481 105.927 105.48 105.927C105.48 105.927 105.48 105.927 105.479 105.927C105.479 105.927 105.479 105.927 105.479 105.928C105.479 105.928 105.479 105.928 105.577 106.418ZM50.2394 105.01C53.7402 97.7279 58.4762 88.5264 62.3389 81.1421C64.2698 77.4506 65.9818 74.2145 67.2111 71.9014C67.8257 70.7448 68.3196 69.819 68.6598 69.1824C68.8299 68.8641 68.9616 68.6181 69.0507 68.4517C69.0953 68.3685 69.1293 68.3052 69.152 68.2628C69.1634 68.2415 69.172 68.2255 69.1778 68.2148C69.1807 68.2094 69.1828 68.2054 69.1843 68.2027C69.185 68.2014 69.1855 68.2004 69.1859 68.1997C69.1861 68.1993 69.1862 68.1991 69.1863 68.1989C69.1864 68.1988 69.1864 68.1987 68.7459 67.9622C68.3054 67.7256 68.3053 67.7257 68.3052 67.7259C68.3052 67.7261 68.305 67.7263 68.3048 67.7267C68.3045 67.7274 68.3039 67.7284 68.3032 67.7297C68.3017 67.7325 68.2995 67.7365 68.2966 67.7419C68.2909 67.7527 68.2822 67.7688 68.2708 67.7901C68.2479 67.8327 68.2139 67.8962 68.1693 67.9795C68.08 68.1462 67.9481 68.3925 67.7779 68.7111C67.4373 69.3483 66.943 70.2748 66.328 71.4321C65.098 73.7467 63.385 76.9847 61.4528 80.6785C57.5892 88.0648 52.8466 97.2786 49.3381 104.576L50.2394 105.01ZM123.161 92.6223C123.508 92.262 123.508 92.262 123.508 92.2619C123.508 92.2619 123.508 92.2618 123.508 92.2616C123.507 92.2614 123.507 92.261 123.506 92.2605C123.505 92.2595 123.504 92.2579 123.502 92.256C123.498 92.252 123.491 92.2461 123.483 92.2382C123.467 92.2226 123.443 92.1994 123.411 92.169C123.347 92.1081 123.254 92.0183 123.132 91.9025C122.889 91.6708 122.536 91.3349 122.094 90.9174C121.209 90.0825 119.968 88.9211 118.542 87.6149C115.693 85.005 112.098 81.8081 109.135 79.4844L108.518 80.2713C111.449 82.5702 115.021 85.7455 117.867 88.3522C119.288 89.6544 120.525 90.8123 121.407 91.6447C121.848 92.0609 122.2 92.3956 122.442 92.6261C122.563 92.7414 122.656 92.8306 122.719 92.891C122.751 92.9212 122.775 92.9441 122.791 92.9595C122.799 92.9672 122.805 92.973 122.809 92.9769C122.811 92.9788 122.812 92.9803 122.813 92.9812C122.814 92.9817 122.814 92.9821 122.814 92.9823C122.814 92.9824 122.814 92.9825 122.815 92.9825C122.815 92.9826 122.815 92.9826 123.161 92.6223ZM109.135 79.4844C106.188 77.1728 102.248 74.4559 99.0521 72.3213C97.4526 71.253 96.0368 70.3286 95.0207 69.6713C94.5127 69.3426 94.1045 69.0807 93.8232 68.9008C93.6825 68.8108 93.5736 68.7414 93.4998 68.6944C93.4629 68.6709 93.4347 68.6531 93.4157 68.641C93.4063 68.635 93.3991 68.6305 93.3943 68.6274C93.3919 68.6259 93.39 68.6247 93.3888 68.6239C93.3882 68.6236 93.3877 68.6233 93.3874 68.6231C93.3872 68.623 93.3871 68.6229 93.387 68.6228C93.387 68.6228 93.3869 68.6227 93.1194 69.0452C92.8519 69.4676 92.8519 69.4676 92.852 69.4676C92.852 69.4677 92.8521 69.4677 92.8523 69.4678C92.8526 69.468 92.853 69.4683 92.8536 69.4686C92.8547 69.4694 92.8565 69.4705 92.8588 69.472C92.8635 69.4749 92.8705 69.4794 92.8799 69.4853C92.8985 69.4972 92.9264 69.5149 92.963 69.5382C93.0362 69.5847 93.1445 69.6537 93.2845 69.7433C93.5644 69.9223 93.9711 70.1833 94.4776 70.5109C95.4905 71.1662 96.9021 72.0878 98.4966 73.1528C101.689 75.2849 105.602 77.9844 108.518 80.2713L109.135 79.4844ZM26.4985 158.415C26.9619 158.603 26.9619 158.603 26.9619 158.603C26.9619 158.603 26.9619 158.603 26.9619 158.603C26.962 158.603 26.962 158.602 26.9621 158.602C26.9622 158.602 26.9623 158.602 26.9626 158.601C26.963 158.6 26.9637 158.598 26.9645 158.596C26.9663 158.592 26.969 158.585 26.9725 158.577C26.9795 158.559 26.9901 158.533 27.0041 158.499C27.032 158.43 27.0737 158.327 27.1285 158.193C27.2381 157.924 27.4001 157.526 27.6099 157.013C28.0295 155.987 28.6401 154.498 29.404 152.647L28.4797 152.266C27.7153 154.117 27.1042 155.607 26.6843 156.635C26.4743 157.148 26.312 157.546 26.2023 157.816C26.1474 157.951 26.1056 158.053 26.0776 158.122C26.0636 158.157 26.053 158.183 26.0459 158.201C26.0423 158.209 26.0397 158.216 26.0379 158.22C26.037 158.223 26.0363 158.224 26.0359 158.225C26.0356 158.226 26.0355 158.226 26.0353 158.227C26.0353 158.227 26.0352 158.227 26.0352 158.227C26.0352 158.227 26.0352 158.227 26.0352 158.227C26.0352 158.227 26.0352 158.227 26.4985 158.415ZM29.404 152.647C33.7241 142.185 42.9391 120.194 50.2394 105.01L49.3381 104.576C42.024 119.79 32.7993 141.804 28.4797 152.266L29.404 152.647ZM81.3015 94.8129C70.5839 115.424 55.1822 145.042 48.9118 157.101L49.7991 157.562C56.0695 145.504 71.4711 115.885 82.1887 95.2742L81.3015 94.8129ZM48.9118 157.101C48.3797 158.124 47.9133 159.021 47.5211 159.775L48.4083 160.237C48.8005 159.482 49.2669 158.585 49.7991 157.562L48.9118 157.101ZM28.8257 152.943L49.2393 157.818L49.4716 156.845L29.058 151.97L28.8257 152.943ZM101.607 138.449L124.588 114.198L123.862 113.51L100.881 137.761L101.607 138.449ZM79.5226 136.163L101.188 138.602L101.3 137.608L79.6345 135.169L79.5226 136.163ZM89.2683 143.023C93.868 143.495 98.4263 141.805 101.607 138.449L100.881 137.761C97.9138 140.892 93.6615 142.468 89.3704 142.028L89.2683 143.023ZM43.4115 162.583C45.4159 163.016 47.4621 162.056 48.4083 160.237L47.5211 159.775C46.783 161.195 45.1869 161.944 43.6228 161.606L43.4115 162.583Z" fill="#040036"/>
<path d="M82.2863 147.324L89.6486 146.798C89.7678 146.789 89.8692 146.884 89.8692 147.003V147.003C89.8692 149.257 91.394 151.225 93.5761 151.788L104.261 154.543C105.673 154.908 106.66 156.181 106.66 157.639V158.953H78.4949C79.0703 156.076 82.2863 147.324 82.2863 147.324Z" stroke="#040036" stroke-linejoin="round"/>
<path d="M35.7061 184.335L35.4191 184.744C35.5032 184.803 35.6034 184.835 35.7061 184.835L35.7061 184.335ZM23.2485 175.602L22.8485 175.302C22.7673 175.411 22.7335 175.547 22.7548 175.681C22.776 175.815 22.8507 175.934 22.9615 176.012L23.2485 175.602ZM38.9559 168.414L39.4559 168.414L38.9559 168.414ZM38.9559 179.066L39.4559 179.066L38.9559 179.066ZM41.3698 182.77L41.5717 182.313L41.3698 182.77ZM44.9139 184.335L44.9139 184.835C45.1502 184.835 45.3543 184.669 45.4031 184.438C45.4519 184.207 45.332 183.973 45.1158 183.878L44.9139 184.335ZM39.6004 165.248L40.0606 165.443L39.6004 165.248ZM34.6949 167.26C34.9682 167.22 35.1574 166.966 35.1176 166.693C35.0777 166.42 34.8239 166.23 34.5507 166.27L34.6949 167.26ZM35.9931 183.926L23.5355 175.193L22.9615 176.012L35.4191 184.744L35.9931 183.926ZM23.6485 175.902L30.2771 167.065L29.4772 166.465L22.8485 175.302L23.6485 175.902ZM38.4559 168.414L38.4559 179.066L39.4559 179.066L39.4559 168.414L38.4559 168.414ZM41.1679 183.228L44.7119 184.792L45.1158 183.878L41.5717 182.313L41.1679 183.228ZM44.9139 183.835L35.7061 183.835L35.7061 184.835L44.9139 184.835L44.9139 183.835ZM30.3163 167.004L33.9787 160.279L33.1005 159.8L29.438 166.526L30.3163 167.004ZM40.0606 165.443L41.5826 161.86L40.6622 161.469L39.1402 165.052L40.0606 165.443ZM29.8164 167.261C31.141 167.423 32.3566 167.423 33.24 167.383C33.6823 167.363 34.043 167.332 34.2944 167.307C34.4202 167.294 34.5187 167.283 34.5866 167.274C34.6205 167.27 34.6468 167.266 34.665 167.264C34.6741 167.263 34.6812 167.262 34.6862 167.261C34.6887 167.261 34.6907 167.26 34.6921 167.26C34.6929 167.26 34.6935 167.26 34.6939 167.26C34.6942 167.26 34.6944 167.26 34.6945 167.26C34.6946 167.26 34.6947 167.26 34.6947 167.26C34.6948 167.26 34.6949 167.26 34.6228 166.765C34.5507 166.27 34.5507 166.27 34.5508 166.27C34.5508 166.27 34.5509 166.27 34.5509 166.27C34.5509 166.27 34.5509 166.27 34.5509 166.27C34.5508 166.27 34.5506 166.27 34.5503 166.27C34.5497 166.27 34.5485 166.27 34.5468 166.271C34.5435 166.271 34.5381 166.272 34.5307 166.273C34.5159 166.275 34.4931 166.278 34.4628 166.282C34.4021 166.289 34.3112 166.3 34.1936 166.312C33.9582 166.336 33.616 166.365 33.1943 166.384C32.3497 166.422 31.1924 166.422 29.9379 166.269L29.8164 167.261ZM39.4559 168.414C39.4559 167.393 39.6616 166.383 40.0606 165.443L39.1402 165.052C38.6886 166.115 38.4559 167.259 38.4559 168.414L39.4559 168.414ZM38.4559 179.066C38.4559 180.868 39.5194 182.5 41.1679 183.228L41.5717 182.313C40.2856 181.745 39.4559 180.472 39.4559 179.066L38.4559 179.066Z" fill="#040036"/>
<rect x="18.7988" y="35.135" width="160.323" height="9.74939" transform="rotate(-2.3258 18.7988 35.135)" fill="#040036"/>
<path d="M192.066 30.2661L206.848 31.2986C208.138 31.3887 208.214 33.2558 206.935 33.4502L192.286 35.678L192.066 30.2661Z" fill="#040036"/>
<path d="M191.566 30.2786L191.567 30.2864L191.787 35.6983L191.787 35.7061L179.862 37.7799L179.513 29.1787L191.566 30.2786ZM192.763 35.0997L192.589 30.8038L206.813 31.7974C207.507 31.8459 207.548 32.8512 206.86 32.9559L192.763 35.0997Z" stroke="#040036"/>
<path d="M79.5787 21.9233C87.515 22.6171 94.7933 26.6176 99.6325 32.9459L102.641 36.8802C104.816 39.7245 108.26 41.3056 111.834 41.1013L125.076 40.3447L144.033 39.2614C144.033 39.2614 125.076 49.5524 101.244 51.1381C99.0775 63.9128 94.0243 73.2629 94.0243 73.2629L66.4412 69.2459C66.4412 69.2459 67.6628 43.8724 71.753 32.7715L51.4138 34.3809C51.4138 34.3809 61.2457 22.022 79.5787 21.9233Z" fill="white"/>
<path d="M101.244 51.1381C99.0775 63.9128 94.0243 73.2629 94.0243 73.2629L66.4412 69.2459C66.4412 69.2459 67.6628 43.8724 71.753 32.7715L51.4138 34.3809C51.4138 34.3809 61.2457 22.022 79.5787 21.9233V21.9233C87.515 22.6171 94.7933 26.6176 99.6325 32.9459L102.641 36.8802C104.816 39.7245 108.26 41.3056 111.834 41.1013L125.076 40.3447L144.033 39.2614C144.033 39.2614 125.076 49.5524 101.244 51.1381ZM101.244 51.1381C94.0243 49.0108 89.8698 41.9696 89.8698 41.9696" stroke="#040036" stroke-linejoin="round"/>
<path d="M102.285 10.8503C101.472 19.1713 97.528 19.6369 92.7645 19.1713C88.0011 18.7056 84.5406 14.2253 85.0353 9.16408C85.5301 4.1029 89.7927 0.377482 94.5562 0.84313C99.3196 1.30878 102.78 5.78916 102.285 10.8503Z" fill="white" stroke="#040036" stroke-linejoin="round"/>
<path d="M85.0353 9.16408C85.5301 4.1029 89.7927 0.377482 94.5562 0.84313C98.6125 1.23965 99.8538 5.10442 101.243 6.75745C97.4518 12.0869 86.0775 17.5901 85.0353 9.16408Z" fill="#040036" stroke="#040036" stroke-linejoin="round"/>
</svg>
