<svg width="210" height="208" viewBox="0 0 210 208" fill="none" xmlns="http://www.w3.org/2000/svg">
<path d="M1.51295 32.6453V130.259C1.51295 131.75 2.72153 132.958 4.21238 132.958H68.1425C69.6334 132.958 70.842 134.167 70.842 135.658V156.257C70.842 157.748 72.0505 158.957 73.5414 158.957H137.472C138.962 158.957 140.171 160.165 140.171 161.656V182.256C140.171 183.747 141.38 184.955 142.87 184.955H206.801C208.291 184.955 209.5 186.164 209.5 187.655V207.5" stroke="#040036" stroke-linecap="round"/>
<path d="M116.881 69.0452L141.254 67.9622C141.254 67.9622 153.202 90.2136 160.211 104.793C167.518 119.992 176.738 141.995 181.058 152.457C182.586 156.158 183.501 158.415 183.501 158.415L166.483 162.094C164.699 162.48 162.877 161.625 162.035 160.006C161.643 159.252 161.177 158.355 160.645 157.331C154.374 145.273 138.972 115.654 128.255 95.0435C118.948 99.4855 104.423 106.418 104.423 106.418L134.755 141.081L120.681 142.525C116.235 142.982 111.83 141.349 108.756 138.105L85.7751 113.854C79.6043 107.924 80.1062 97.9062 86.8387 92.6223C86.8387 92.6223 95.2792 84.5004 101.173 79.8778C107.037 75.2793 116.881 69.0452 116.881 69.0452Z" fill="white"/>
<path d="M141.254 67.9622L141.232 67.4627C141.424 67.4541 141.604 67.5563 141.695 67.7256L141.254 67.9622ZM116.881 69.0452L116.613 68.6227C116.687 68.5761 116.771 68.5495 116.858 68.5457L116.881 69.0452ZM183.501 158.415L183.965 158.227C184.02 158.364 184.012 158.518 183.943 158.649C183.875 158.779 183.751 158.872 183.607 158.904L183.501 158.415ZM128.255 95.0435L128.04 94.5923L128.255 95.0435ZM134.755 141.081L135.131 140.752C135.254 140.892 135.288 141.09 135.22 141.264C135.151 141.438 134.992 141.559 134.806 141.578L134.755 141.081ZM85.7751 113.854L86.1216 113.494C86.1272 113.499 86.1327 113.505 86.1381 113.51L85.7751 113.854ZM86.8387 92.6223L87.1854 92.9826C87.1733 92.9943 87.1606 93.0053 87.1474 93.0157L86.8387 92.6223ZM134.255 84.7525C134.255 84.4764 134.478 84.2525 134.755 84.2525C135.031 84.2525 135.255 84.4764 135.255 84.7525H134.255ZM98.5473 106.911C98.2749 106.956 98.0173 106.772 97.9719 106.5C97.9265 106.228 98.1105 105.97 98.3829 105.925L98.5473 106.911ZM160.211 104.793L159.761 105.01L160.211 104.793ZM101.173 79.8778L101.482 80.2713L101.173 79.8778ZM160.645 157.331L160.201 157.562L160.645 157.331ZM108.756 138.105L108.393 138.449L108.756 138.105ZM166.483 162.094L166.377 161.606L166.483 162.094ZM162.035 160.006L161.592 160.237L162.035 160.006ZM141.276 68.4617L116.903 69.5447L116.858 68.5457L141.232 67.4627L141.276 68.4617ZM166.377 161.606L183.396 157.926L183.607 158.904L166.589 162.583L166.377 161.606ZM128.47 95.4948C123.817 97.7158 117.859 100.559 113.064 102.848C110.667 103.992 108.56 104.997 107.053 105.716C106.3 106.076 105.696 106.364 105.281 106.563C105.073 106.662 104.912 106.738 104.804 106.79C104.749 106.816 104.708 106.836 104.68 106.849C104.666 106.856 104.656 106.861 104.649 106.864C104.646 106.866 104.643 106.867 104.641 106.868C104.64 106.868 104.639 106.869 104.639 106.869C104.639 106.869 104.639 106.869 104.639 106.869C104.638 106.869 104.638 106.869 104.423 106.418C104.208 105.967 104.208 105.967 104.208 105.967C104.208 105.966 104.208 105.966 104.208 105.966C104.209 105.966 104.21 105.966 104.21 105.965C104.212 105.964 104.215 105.963 104.218 105.962C104.225 105.958 104.236 105.953 104.25 105.947C104.277 105.933 104.319 105.914 104.373 105.888C104.482 105.836 104.642 105.759 104.85 105.66C105.265 105.462 105.869 105.174 106.623 104.814C108.13 104.095 110.236 103.089 112.634 101.945C117.428 99.6568 123.386 96.8133 128.04 94.5923L128.47 95.4948ZM104.799 106.089L135.131 140.752L134.378 141.41L104.047 106.747L104.799 106.089ZM134.806 141.578L120.732 143.023L120.63 142.028L134.704 140.584L134.806 141.578ZM85.4287 114.215C79.0387 108.074 79.5584 97.7004 86.53 92.229L87.1474 93.0157C80.6539 98.1119 80.1698 107.774 86.1216 113.494L85.4287 114.215ZM128.04 94.5923C131.141 93.1122 132.692 90.661 133.473 88.5605C133.864 87.509 134.06 86.5499 134.158 85.8547C134.207 85.5075 134.231 85.2274 134.243 85.0362C134.249 84.9406 134.252 84.8674 134.253 84.8192C134.254 84.7951 134.254 84.7772 134.254 84.766C134.255 84.7604 134.255 84.7564 134.255 84.7542C134.255 84.753 134.255 84.7523 134.255 84.7521C134.255 84.7519 134.255 84.7519 134.255 84.752C134.255 84.752 134.255 84.7521 134.255 84.7522C134.255 84.7523 134.255 84.7525 134.755 84.7525C135.255 84.7525 135.255 84.7528 135.255 84.753C135.255 84.7532 135.255 84.7535 135.255 84.7537C135.255 84.7542 135.255 84.7549 135.255 84.7556C135.255 84.7571 135.255 84.759 135.255 84.7613C135.254 84.766 135.254 84.7724 135.254 84.7805C135.254 84.7966 135.254 84.8196 135.253 84.8489C135.251 84.9075 135.248 84.9917 135.241 85.0987C135.227 85.3128 135.201 85.6186 135.148 85.9939C135.043 86.7435 134.832 87.7755 134.411 88.909C133.567 91.1784 131.869 93.8727 128.47 95.4948L128.04 94.5923ZM104.423 106.418C104.325 106.908 104.325 106.908 104.325 106.908C104.325 106.908 104.325 106.908 104.325 106.908C104.325 106.908 104.325 106.908 104.325 106.908C104.325 106.908 104.325 106.908 104.325 106.908C104.324 106.908 104.322 106.908 104.32 106.907C104.316 106.906 104.31 106.905 104.3 106.903C104.282 106.9 104.254 106.895 104.216 106.888C104.14 106.876 104.027 106.857 103.88 106.837C103.587 106.796 103.159 106.747 102.632 106.714C101.575 106.648 100.125 106.648 98.5473 106.911L98.3829 105.925C100.055 105.646 101.584 105.646 102.694 105.716C103.25 105.75 103.702 105.803 104.018 105.846C104.176 105.868 104.299 105.888 104.385 105.903C104.427 105.91 104.46 105.916 104.483 105.92C104.495 105.922 104.504 105.924 104.51 105.925C104.513 105.926 104.516 105.926 104.518 105.927C104.518 105.927 104.519 105.927 104.52 105.927C104.52 105.927 104.52 105.927 104.521 105.927C104.521 105.927 104.521 105.927 104.521 105.928C104.521 105.928 104.521 105.928 104.423 106.418ZM159.761 105.01C156.26 97.7279 151.524 88.5264 147.661 81.1421C145.73 77.4506 144.018 74.2145 142.789 71.9014C142.174 70.7448 141.68 69.819 141.34 69.1824C141.17 68.8641 141.038 68.6181 140.949 68.4517C140.905 68.3685 140.871 68.3052 140.848 68.2628C140.837 68.2415 140.828 68.2255 140.822 68.2148C140.819 68.2094 140.817 68.2054 140.816 68.2027C140.815 68.2014 140.814 68.2004 140.814 68.1997C140.814 68.1993 140.814 68.1991 140.814 68.1989C140.814 68.1988 140.814 68.1987 141.254 67.9622C141.695 67.7256 141.695 67.7257 141.695 67.7259C141.695 67.7261 141.695 67.7263 141.695 67.7267C141.696 67.7274 141.696 67.7284 141.697 67.7297C141.698 67.7325 141.7 67.7365 141.703 67.7419C141.709 67.7527 141.718 67.7688 141.729 67.7901C141.752 67.8327 141.786 67.8962 141.831 67.9795C141.92 68.1462 142.052 68.3925 142.222 68.7111C142.563 69.3483 143.057 70.2748 143.672 71.4321C144.902 73.7467 146.615 76.9847 148.547 80.6785C152.411 88.0648 157.153 97.2786 160.662 104.576L159.761 105.01ZM86.8387 92.6223C86.492 92.262 86.4921 92.262 86.4921 92.2619C86.4922 92.2619 86.4923 92.2618 86.4924 92.2616C86.4927 92.2614 86.4931 92.261 86.4936 92.2605C86.4947 92.2595 86.4963 92.2579 86.4983 92.256C86.5025 92.252 86.5086 92.2461 86.5168 92.2382C86.5331 92.2226 86.5572 92.1994 86.589 92.169C86.6525 92.1081 86.7463 92.0183 86.8678 91.9025C87.1107 91.6708 87.4641 91.3349 87.9064 90.9174C88.7912 90.0825 90.0323 88.9211 91.4579 87.6149C94.3066 85.005 97.9019 81.8081 100.865 79.4844L101.482 80.2713C98.5506 82.5702 94.9786 85.7455 92.1335 88.3522C90.7122 89.6544 89.4748 90.8123 88.5928 91.6447C88.1518 92.0609 87.7997 92.3956 87.558 92.6261C87.4371 92.7414 87.3438 92.8306 87.2809 92.891C87.2494 92.9212 87.2254 92.9441 87.2094 92.9595C87.2014 92.9672 87.1954 92.973 87.1913 92.9769C87.1893 92.9788 87.1878 92.9803 87.1868 92.9812C87.1863 92.9817 87.186 92.9821 87.1857 92.9823C87.1856 92.9824 87.1855 92.9825 87.1855 92.9825C87.1854 92.9826 87.1854 92.9826 86.8387 92.6223ZM100.865 79.4844C103.812 77.1728 107.752 74.4559 110.948 72.3213C112.547 71.253 113.963 70.3286 114.979 69.6713C115.487 69.3426 115.896 69.0807 116.177 68.9008C116.317 68.8108 116.426 68.7414 116.5 68.6944C116.537 68.6709 116.565 68.6531 116.584 68.641C116.594 68.635 116.601 68.6305 116.606 68.6274C116.608 68.6259 116.61 68.6247 116.611 68.6239C116.612 68.6236 116.612 68.6233 116.613 68.6231C116.613 68.623 116.613 68.6229 116.613 68.6228C116.613 68.6228 116.613 68.6227 116.881 69.0452C117.148 69.4676 117.148 69.4676 117.148 69.4676C117.148 69.4677 117.148 69.4677 117.148 69.4678C117.147 69.468 117.147 69.4683 117.146 69.4686C117.145 69.4694 117.144 69.4705 117.141 69.472C117.136 69.4749 117.129 69.4794 117.12 69.4853C117.101 69.4972 117.074 69.5149 117.037 69.5382C116.964 69.5847 116.856 69.6537 116.716 69.7433C116.436 69.9223 116.029 70.1833 115.522 70.5109C114.509 71.1662 113.098 72.0878 111.503 73.1528C108.311 75.2849 104.398 77.9844 101.482 80.2713L100.865 79.4844ZM183.501 158.415C183.038 158.603 183.038 158.603 183.038 158.603C183.038 158.603 183.038 158.603 183.038 158.603C183.038 158.603 183.038 158.602 183.038 158.602C183.038 158.602 183.038 158.602 183.037 158.601C183.037 158.6 183.036 158.598 183.035 158.596C183.034 158.592 183.031 158.585 183.028 158.577C183.02 158.559 183.01 158.533 182.996 158.499C182.968 158.43 182.926 158.327 182.872 158.193C182.762 157.924 182.6 157.526 182.39 157.013C181.971 155.987 181.36 154.498 180.596 152.647L181.52 152.266C182.285 154.117 182.896 155.607 183.316 156.635C183.526 157.148 183.688 157.546 183.798 157.816C183.853 157.951 183.894 158.053 183.922 158.122C183.936 158.157 183.947 158.183 183.954 158.201C183.958 158.209 183.96 158.216 183.962 158.22C183.963 158.223 183.964 158.224 183.964 158.225C183.964 158.226 183.965 158.226 183.965 158.227C183.965 158.227 183.965 158.227 183.965 158.227C183.965 158.227 183.965 158.227 183.965 158.227C183.965 158.227 183.965 158.227 183.501 158.415ZM180.596 152.647C176.276 142.185 167.061 120.194 159.761 105.01L160.662 104.576C167.976 119.79 177.201 141.804 181.52 152.266L180.596 152.647ZM128.699 94.8129C139.416 115.424 154.818 145.042 161.088 157.101L160.201 157.562C153.931 145.504 138.529 115.885 127.811 95.2742L128.699 94.8129ZM161.088 157.101C161.62 158.124 162.087 159.021 162.479 159.775L161.592 160.237C161.2 159.482 160.733 158.585 160.201 157.562L161.088 157.101ZM181.174 152.943L160.761 157.818L160.528 156.845L180.942 151.97L181.174 152.943ZM108.393 138.449L85.4122 114.198L86.1381 113.51L109.119 137.761L108.393 138.449ZM130.477 136.163L108.812 138.602L108.7 137.608L130.366 135.169L130.477 136.163ZM120.732 143.023C116.132 143.495 111.574 141.805 108.393 138.449L109.119 137.761C112.086 140.892 116.339 142.468 120.63 142.028L120.732 143.023ZM166.589 162.583C164.584 163.016 162.538 162.056 161.592 160.237L162.479 159.775C163.217 161.195 164.813 161.944 166.377 161.606L166.589 162.583Z" fill="#040036"/>
<path d="M127.714 147.324L120.351 146.798C120.232 146.789 120.131 146.884 120.131 147.003V147.003C120.131 149.257 118.606 151.225 116.424 151.788L105.739 154.543C104.327 154.908 103.34 156.181 103.34 157.639V158.953H131.505C130.93 156.076 127.714 147.324 127.714 147.324Z" stroke="#040036" stroke-linejoin="round"/>
<path d="M174.294 184.335L174.581 184.744C174.497 184.803 174.397 184.835 174.294 184.835L174.294 184.335ZM186.751 175.602L187.151 175.302C187.233 175.411 187.267 175.547 187.245 175.681C187.224 175.815 187.149 175.934 187.038 176.012L186.751 175.602ZM171.044 168.414L170.544 168.414L171.044 168.414ZM171.044 179.066L170.544 179.066L171.044 179.066ZM168.63 182.77L168.428 182.313L168.63 182.77ZM165.086 184.335L165.086 184.835C164.85 184.835 164.646 184.669 164.597 184.438C164.548 184.207 164.668 183.973 164.884 183.878L165.086 184.335ZM170.4 165.248L169.939 165.443L170.4 165.248ZM175.305 167.26C175.032 167.22 174.843 166.966 174.882 166.693C174.922 166.42 175.176 166.23 175.449 166.27L175.305 167.26ZM174.007 183.926L186.464 175.193L187.038 176.012L174.581 184.744L174.007 183.926ZM186.351 175.902L179.723 167.065L180.523 166.465L187.151 175.302L186.351 175.902ZM171.544 168.414L171.544 179.066L170.544 179.066L170.544 168.414L171.544 168.414ZM168.832 183.228L165.288 184.792L164.884 183.878L168.428 182.313L168.832 183.228ZM165.086 183.835L174.294 183.835L174.294 184.835L165.086 184.835L165.086 183.835ZM179.684 167.004L176.021 160.279L176.9 159.8L180.562 166.526L179.684 167.004ZM169.939 165.443L168.417 161.86L169.338 161.469L170.86 165.052L169.939 165.443ZM180.184 167.261C178.859 167.423 177.643 167.423 176.76 167.383C176.318 167.363 175.957 167.332 175.706 167.307C175.58 167.294 175.481 167.283 175.413 167.274C175.379 167.27 175.353 167.266 175.335 167.264C175.326 167.263 175.319 167.262 175.314 167.261C175.311 167.261 175.309 167.26 175.308 167.26C175.307 167.26 175.307 167.26 175.306 167.26C175.306 167.26 175.306 167.26 175.305 167.26C175.305 167.26 175.305 167.26 175.305 167.26C175.305 167.26 175.305 167.26 175.377 166.765C175.449 166.27 175.449 166.27 175.449 166.27C175.449 166.27 175.449 166.27 175.449 166.27C175.449 166.27 175.449 166.27 175.449 166.27C175.449 166.27 175.449 166.27 175.45 166.27C175.45 166.27 175.451 166.27 175.453 166.271C175.457 166.271 175.462 166.272 175.469 166.273C175.484 166.275 175.507 166.278 175.537 166.282C175.598 166.289 175.689 166.3 175.806 166.312C176.042 166.336 176.384 166.365 176.806 166.384C177.65 166.422 178.808 166.422 180.062 166.269L180.184 167.261ZM170.544 168.414C170.544 167.393 170.338 166.383 169.939 165.443L170.86 165.052C171.311 166.115 171.544 167.259 171.544 168.414L170.544 168.414ZM171.544 179.066C171.544 180.868 170.481 182.5 168.832 183.228L168.428 182.313C169.714 181.745 170.544 180.472 170.544 179.066L171.544 179.066Z" fill="#040036"/>
<rect width="160.323" height="9.74939" transform="matrix(-0.999176 -0.0405817 -0.0405817 0.999176 191.201 35.135)" fill="#040036"/>
<path d="M17.9336 30.2661L3.1523 31.2986C1.86226 31.3887 1.78642 33.2558 3.0649 33.4502L17.7138 35.678L17.9336 30.2661Z" fill="#040036"/>
<path d="M18.4335 30.2786L18.4332 30.2864L18.2134 35.6983L18.2131 35.7061L30.1379 37.7799L30.4873 29.1787L18.4335 30.2786ZM17.2369 35.0997L17.4114 30.8038L3.18714 31.7974C2.49252 31.8459 2.45172 32.8512 3.14008 32.9559L17.2369 35.0997Z" stroke="#040036"/>
<path d="M130.421 21.9233C122.485 22.6171 115.207 26.6176 110.367 32.9459L107.359 36.8802C105.184 39.7245 101.74 41.3056 98.1656 41.1013L84.9241 40.3447L65.9669 39.2614C65.9669 39.2614 84.9241 49.5524 108.756 51.1381C110.922 63.9128 115.976 73.2629 115.976 73.2629L143.559 69.2459C143.559 69.2459 142.337 43.8724 138.247 32.7715L158.586 34.3809C158.586 34.3809 148.754 22.022 130.421 21.9233Z" fill="white"/>
<path d="M108.756 51.1381C110.922 63.9128 115.976 73.2629 115.976 73.2629L143.559 69.2459C143.559 69.2459 142.337 43.8724 138.247 32.7715L158.586 34.3809C158.586 34.3809 148.754 22.022 130.421 21.9233V21.9233C122.485 22.6171 115.207 26.6176 110.367 32.9459L107.359 36.8802C105.184 39.7245 101.74 41.3056 98.1656 41.1013L84.9241 40.3447L65.9669 39.2614C65.9669 39.2614 84.9241 49.5524 108.756 51.1381ZM108.756 51.1381C115.976 49.0108 120.13 41.9696 120.13 41.9696" stroke="#040036" stroke-linejoin="round"/>
<path d="M107.715 10.8503C108.528 19.1713 112.472 19.6369 117.235 19.1713C121.999 18.7056 125.459 14.2253 124.965 9.16408C124.47 4.1029 120.207 0.377482 115.444 0.84313C110.68 1.30878 107.22 5.78916 107.715 10.8503Z" fill="white" stroke="#040036" stroke-linejoin="round"/>
<path d="M124.965 9.16408C124.47 4.1029 120.207 0.377482 115.444 0.84313C111.388 1.23965 110.146 5.10442 108.757 6.75745C112.548 12.0869 123.923 17.5901 124.965 9.16408Z" fill="#040036" stroke="#040036" stroke-linejoin="round"/>
</svg>
