<svg width="444" height="134" viewBox="0 0 444 134" fill="none" xmlns="http://www.w3.org/2000/svg">
<g clip-path="url(#clip0_699_10251)">
<path fill-rule="evenodd" clip-rule="evenodd" d="M442 66H444V67H442V66ZM430 66H434V67H430V66ZM418 66H422V67H418V66ZM406 66H410V67H406V66ZM394 66H398V67H394V66ZM382 66L386 66V67L382 67V66ZM370 66H374V67H370V66ZM358 66H362V67H358V66ZM346 66H350V67H346V66ZM334 66H338V67H334V66ZM322 66H326V67H322V66ZM310 66H314V67H310V66ZM298 66H302V67H298V66ZM286 66H290V67H286V66ZM274 66H278V67H274V66ZM262 66H266V67H262V66ZM250 66H254V67H250V66ZM238 66H242V67H238V66ZM226 66H230V67H226V66ZM214 66H218V67H214V66ZM202 66H206V67H202V66ZM190 66H194V67H190V66ZM178 66H182V67H178V66ZM166 66H170V67H166V66ZM154 66H158V67H154V66ZM142 66H146V67H142V66ZM130 66H134V67H130V66ZM118 66H122V67H118V66ZM106 66H110V67H106V66ZM94 66H98V67H94V66ZM82 66H86V67H82V66ZM70 66H74V67H70V66ZM58 66H62V67H58V66ZM46 66H50V67H46V66ZM34 66H38V67L34 67V66ZM22 66H26V67H22V66ZM10 66H14V67H10V66ZM0 66H2V67H0V66Z" fill="white"/>
<path d="M195.667 38.559C196.273 38.5199 196.884 38.5 197.5 38.5C198.116 38.5 198.727 38.5199 199.333 38.559L199.268 39.5569C198.684 39.5192 198.094 39.5 197.5 39.5C196.906 39.5 196.316 39.5192 195.732 39.5569L195.667 38.559Z" fill="#686686"/>
<path d="M206.504 39.9791C207.668 40.3742 208.797 40.8438 209.887 41.3822L209.444 42.2787C208.394 41.7597 207.304 41.307 206.182 40.9261L206.504 39.9791Z" fill="#686686"/>
<path d="M185.113 41.3822C186.203 40.8438 187.332 40.3742 188.496 39.9791L188.818 40.9261C187.696 41.307 186.606 41.7597 185.556 42.2787L185.113 41.3822Z" fill="#686686"/>
<path d="M176.448 48.038C177.254 47.1196 178.12 46.2543 179.038 45.4482L179.698 46.1998C178.812 46.9773 177.977 47.8118 177.2 48.6977L176.448 48.038Z" fill="#686686"/>
<path d="M215.962 45.4482C216.88 46.2543 217.746 47.1196 218.552 48.038L217.8 48.6977C217.023 47.8118 216.188 46.9773 215.302 46.1998L215.962 45.4482Z" fill="#686686"/>
<path d="M170.979 57.4965C171.374 56.3323 171.844 55.2026 172.382 54.1129L173.279 54.5559C172.76 55.6065 172.307 56.6956 171.926 57.8179L170.979 57.4965Z" fill="#686686"/>
<path d="M222.618 54.1129C223.156 55.2026 223.626 56.3323 224.021 57.4965L223.074 57.8179C222.693 56.6956 222.24 55.6065 221.721 54.5559L222.618 54.1129Z" fill="#686686"/>
<path d="M225.441 64.6674C225.48 65.2733 225.5 65.8844 225.5 66.5C225.5 67.1156 225.48 67.7267 225.441 68.3326L224.443 68.2681C224.481 67.6836 224.5 67.0941 224.5 66.5C224.5 65.9059 224.481 65.3164 224.443 64.7319L225.441 64.6674Z" fill="#686686"/>
<path d="M169.5 66.5C169.5 65.8844 169.52 65.2733 169.559 64.6674L170.557 64.7319C170.519 65.3164 170.5 65.9059 170.5 66.5C170.5 67.0941 170.519 67.6836 170.557 68.2681L169.559 68.3326C169.52 67.7267 169.5 67.1156 169.5 66.5Z" fill="#686686"/>
<path d="M172.382 78.8871C171.844 77.7974 171.374 76.6677 170.979 75.5035L171.926 75.1821C172.307 76.3044 172.76 77.3935 173.279 78.4441L172.382 78.8871Z" fill="#686686"/>
<path d="M224.021 75.5035C223.626 76.6677 223.156 77.7974 222.618 78.8871L221.721 78.4441C222.24 77.3935 222.693 76.3044 223.074 75.1821L224.021 75.5035Z" fill="#686686"/>
<path d="M179.038 87.5518C178.12 86.7457 177.254 85.8804 176.448 84.962L177.2 84.3023C177.977 85.1882 178.812 86.0227 179.698 86.8002L179.038 87.5518Z" fill="#686686"/>
<path d="M218.552 84.962C217.746 85.8804 216.88 86.7457 215.962 87.5518L215.302 86.8002C216.188 86.0227 217.023 85.1882 217.8 84.3023L218.552 84.962Z" fill="#686686"/>
<path d="M188.496 93.0209C187.332 92.6257 186.203 92.1562 185.113 91.6178L185.556 90.7213C186.606 91.2403 187.696 91.693 188.818 92.0739L188.496 93.0209Z" fill="#686686"/>
<path d="M209.887 91.6178C208.797 92.1562 207.668 92.6257 206.504 93.0209L206.182 92.0739C207.304 91.693 208.394 91.2403 209.444 90.7213L209.887 91.6178Z" fill="#686686"/>
<path d="M197.5 94.5C196.884 94.5 196.273 94.4801 195.667 94.441L195.732 93.4431C196.316 93.4808 196.906 93.5 197.5 93.5C198.094 93.5 198.684 93.4808 199.268 93.4431L199.333 94.441C198.727 94.4801 198.116 94.5 197.5 94.5Z" fill="#686686"/>
<path fill-rule="evenodd" clip-rule="evenodd" d="M169 0C201.061 0 227.862 22.5186 234.449 52.6021C235.464 57.0717 236 61.7233 236 66.5L236 66.5539L236 66.7448C236 66.8298 236 66.9149 236 67C236 67.0895 236 67.179 235.999 67.2684L236 67.3591L236 67.5C236 68.6913 235.96 69.8731 235.88 71.0442C233.789 106.164 204.645 134 169 134C150.692 134 134.1 126.657 122.006 114.756C115.723 117.486 108.788 119 101.5 119C73.0573 119 50 95.9427 50 67.5L50.0001 67.3844L50.0003 67.3181L50.0008 67.2077C50.0003 67.1385 50 67.0693 50 67C50 66.8725 50.0009 66.7452 50.0027 66.6182C50.0009 66.579 50 66.5396 50 66.5C50 66.4246 50.0033 66.3499 50.0099 66.2762C50.0145 66.1088 50.0206 65.9418 50.0283 65.7752C50.938 38.131 73.6345 16 101.5 16C108.518 16 115.208 17.4037 121.304 19.9456C133.453 7.63203 150.335 0 169 0ZM169 133C192.722 133 213.522 120.484 225.155 101.696C213.902 118.18 194.965 129 173.5 129C156.291 129 140.707 122.045 129.404 110.792C127.36 112.113 125.217 113.292 122.988 114.317C134.876 125.879 151.106 133 169 133ZM173.5 4C189.967 4 204.947 10.3686 216.111 20.7772C204.134 8.57157 187.451 1 169 1C150.755 1 134.239 8.40329 122.292 20.3697C124.332 21.2708 126.302 22.3004 128.192 23.4482C139.579 11.4685 155.667 4 173.5 4ZM76 92C62.7081 92 51.8389 81.6268 51.0463 68.5341C51.4559 68.8274 51.9578 69 52.5 69C53.8807 69 55 67.8807 55 66.5C55 65.1193 53.8807 64 52.5 64C51.9954 64 51.5258 64.1495 51.1329 64.4066C52.4303 51.8181 63.0686 42 76 42C87.0845 42 96.4841 49.2139 99.7601 59.2029C96.457 59.9875 94 62.9568 94 66.5C94 70.1451 96.6004 73.1829 100.047 73.8594C97.0658 84.3315 87.4284 92 76 92ZM101.051 73.9868C97.9985 84.9529 87.939 93 76 93C65.01 93 55.6127 86.1814 51.8076 76.544C56.07 100.119 76.6968 118 101.5 118C108.506 118 115.18 116.573 121.245 113.994C110.869 103.451 103.958 89.489 102.356 73.9517C102.075 73.9836 101.79 74 101.5 74C101.349 74 101.199 73.9955 101.051 73.9868ZM102.261 72.9559C102.011 72.985 101.757 73 101.5 73C101.435 73 101.37 72.999 101.305 72.9971C101.46 72.3393 101.591 71.6719 101.695 70.9958C101.837 70.9898 101.977 70.9772 102.115 70.9583C102.154 71.6269 102.203 72.2928 102.261 72.9559ZM103.343 73.7718C104.92 89.2416 111.839 103.131 122.226 113.564C124.472 112.553 126.63 111.381 128.686 110.065C117.74 98.8083 111 83.4413 111 66.5C111 50.1826 117.253 35.3257 127.494 24.1948C125.588 23.0485 123.601 22.0244 121.542 21.1334C111.75 31.2625 105.172 44.5175 103.45 59.2559C106.646 60.1141 109 63.0322 109 66.5C109 70.0061 106.594 72.9504 103.343 73.7718ZM103.34 60.264C106.034 61.0574 108 63.549 108 66.5C108 69.4843 105.989 71.9988 103.248 72.7622C103.189 72.0799 103.14 71.3945 103.102 70.7064C104.796 70.0606 106 68.4209 106 66.5C106 64.6023 104.825 62.979 103.164 62.3175C103.212 61.63 103.27 60.9455 103.34 60.264ZM102.465 59.0616C104.212 44.266 110.78 30.9468 120.554 20.7182C114.674 18.321 108.241 17 101.5 17C77.378 17 57.2061 33.9127 52.1955 56.5269C56.2242 47.3833 65.3667 41 76 41C87.5816 41 97.3945 48.5724 100.758 59.0363C101.002 59.0123 101.25 59 101.5 59C101.827 59 102.149 59.0209 102.465 59.0616ZM101.051 60.0153C101.199 60.0051 101.349 60 101.5 60C101.79 60 102.076 60.019 102.356 60.0558C102.287 60.7181 102.229 61.3832 102.18 62.051C101.965 62.0184 101.744 62.001 101.52 62C101.389 61.3289 101.232 60.6669 101.051 60.0153ZM100.053 60.1616C100.234 60.7999 100.391 61.4487 100.521 62.1067C98.5066 62.5535 97 64.3508 97 66.5C97 68.7099 98.5929 70.5477 100.693 70.9279C100.589 71.5909 100.458 72.2453 100.302 72.8899C97.2845 72.3277 95 69.6807 95 66.5C95 63.4074 97.1597 60.8193 100.053 60.1616ZM221.243 105.27C209.967 119.139 192.768 128 173.5 128C156.641 128 141.366 121.216 130.257 110.23C132.52 108.703 134.656 107.002 136.644 105.145C147.077 116.722 162.189 124 179 124C195.751 124 210.814 116.774 221.243 105.27ZM227.479 37.0058C217.429 20.7959 199.475 10 179 10C161.924 10 146.602 17.5086 136.156 29.4043C133.956 27.4022 131.582 25.588 129.06 23.9871C140.256 12.2867 156.027 5 173.5 5C196.778 5 217.036 17.9331 227.479 37.0058ZM129.539 109.507C131.825 107.978 133.979 106.268 135.981 104.396C127.273 94.3868 122 81.3092 122 67C122 52.9552 127.08 40.0968 135.502 30.1617C133.292 28.1484 130.903 26.3285 128.362 24.7289C118.207 35.6972 112 50.3738 112 66.5C112 83.2401 118.688 98.4181 129.539 109.507ZM179 123C196.599 123 212.301 114.882 222.567 102.187C213.149 112.517 199.581 119 184.5 119C168.118 119 153.522 111.351 144.09 99.4294C143.658 99.7859 143.104 100 142.5 100C142.179 100 141.872 99.9395 141.59 99.8294C140.277 101.456 138.867 103.001 137.369 104.455C147.619 115.841 162.474 123 179 123ZM140.747 99.2822C139.487 100.835 138.138 102.312 136.706 103.705C128.168 93.8761 123 81.0416 123 67C123 53.2182 127.979 40.5991 136.235 30.8432C138.493 32.9831 140.553 35.3293 142.385 37.8517C136.473 46.2347 133 56.4618 133 67.5C133 77.7702 136.006 87.3383 141.187 95.3722C140.475 95.8128 140 96.601 140 97.5C140 98.1977 140.286 98.8287 140.747 99.2822ZM143.672 95.2911C143.322 95.1053 142.923 95 142.5 95C142.382 95 142.266 95.0081 142.153 95.0239C136.996 87.1064 134 77.6531 134 67.5C134 56.803 137.326 46.8828 143 38.7171C145.007 41.6053 146.72 44.7131 148.096 47.997C145.465 53.7894 144 60.2236 144 67C144 73.9611 145.546 80.561 148.314 86.4751C147.054 89.5794 145.495 92.5301 143.672 95.2911ZM144.447 95.9319C146.169 93.3356 147.662 90.5741 148.898 87.6763C156.469 102.697 172.031 113 190 113C206.418 113 220.827 104.399 228.967 91.4568C220.434 107.262 203.721 118 184.5 118C168.353 118 153.976 110.422 144.732 98.628C144.903 98.2891 145 97.9058 145 97.5C145 96.9062 144.793 96.3607 144.447 95.9319ZM184.5 16C202.946 16 219.128 25.6983 228.223 40.2742C218.735 22.8356 200.25 11 179 11C162.214 11 147.153 18.3857 136.889 30.0848C139.125 32.2004 141.171 34.5143 143 36.9983C152.376 24.2632 167.473 16 184.5 16ZM143.615 37.8517C145.581 40.6396 147.278 43.6315 148.666 46.7893C150.235 43.5868 152.165 40.5934 154.403 37.8622C154.148 37.4704 154 37.0025 154 36.5C154 35.1193 155.119 34 156.5 34C156.919 34 157.315 34.1032 157.662 34.2857C165.971 26.0715 177.393 21 190 21C203.412 21 215.483 26.7398 223.891 35.897C214.636 24.3751 200.429 17 184.5 17C167.687 17 152.794 25.2158 143.615 37.8517ZM158.44 34.9227C166.562 26.9308 177.705 22 190 22C202.751 22 214.262 27.303 222.451 35.8237C215.075 29.1 205.267 25 194.5 25C171.58 25 153 43.5802 153 66.5C153 89.4198 171.58 108 194.5 108C208.585 108 221.032 100.983 228.534 90.2537C220.652 103.287 206.343 112 190 112C172.11 112 156.659 101.561 149.405 86.4416C151.725 80.5787 153 74.1883 153 67.5C153 60.6057 151.645 54.0279 149.188 48.0181C150.771 44.6194 152.766 41.4513 155.11 38.5781C155.507 38.8446 155.986 39 156.5 39C157.881 39 159 37.8807 159 36.5C159 35.902 158.79 35.353 158.44 34.9227ZM145 67C145 60.713 146.289 54.727 148.618 49.2922C150.802 54.9409 152 61.0806 152 67.5C152 73.7178 150.876 79.6731 148.821 85.174C146.364 79.6161 145 73.4674 145 67ZM234.997 66.9597C234.751 86.9062 218.505 103 198.5 103C178.342 103 162 86.6584 162 66.5C162 46.3416 178.342 30 198.5 30C216.747 30 231.867 43.3898 234.57 60.8799C234.831 62.8723 234.976 64.9012 234.997 66.9597ZM225.761 40.7489C218.924 33.5143 209.239 29 198.5 29C177.789 29 161 45.7893 161 66.5C161 87.2107 177.789 104 198.5 104C209.239 104 218.924 99.4857 225.761 92.2511C218.332 101.258 207.087 107 194.5 107C172.132 107 154 88.8675 154 66.5C154 44.1325 172.132 26 194.5 26C207.087 26 218.332 31.7417 225.761 40.7489Z" fill="#686686"/>
<path fill-rule="evenodd" clip-rule="evenodd" d="M363.999 66.743C364 66.8286 364 66.9143 364 67C364 90.7482 344.748 110 321 110C297.252 110 278 90.7482 278 67C278 43.2518 297.252 24 321 24C341.608 24 358.831 38.4975 363.024 57.8502C363.663 60.6306 364 63.5259 364 66.5C364 66.5811 364 66.662 363.999 66.743ZM357.017 88.6181C349.671 100.83 336.289 109 321 109C297.804 109 279 90.196 279 67C279 43.804 297.804 25 321 25C332.936 25 343.71 29.9794 351.356 37.9743C344.523 31.7763 335.452 28 325.5 28C304.237 28 287 45.237 287 66.5C287 87.763 304.237 105 325.5 105C338.531 105 350.051 98.5256 357.017 88.6181ZM362.999 66.7429C362.869 87.3418 346.13 104 325.5 104C304.789 104 288 87.2107 288 66.5C288 45.7893 304.789 29 325.5 29C343.312 29 358.223 41.4181 362.048 58.0689C362.654 60.8666 362.981 63.7681 362.999 66.7429Z" fill="#686686"/>
<path fill-rule="evenodd" clip-rule="evenodd" d="M415 90C427.703 90 438 79.7025 438 67C438 54.2975 427.703 44 415 44C402.297 44 392 54.2975 392 67C392 79.7025 402.297 90 415 90ZM415 89C427.15 89 437 79.1503 437 67C437 54.8497 427.15 45 415 45C402.85 45 393 54.8497 393 67C393 79.1503 402.85 89 415 89Z" fill="#686686"/>
<path d="M236.5 72C239.538 72 242 69.5376 242 66.5C242 63.4624 239.538 61 236.5 61C233.462 61 231 63.4624 231 66.5C231 69.5376 233.462 72 236.5 72Z" fill="white"/>
<path fill-rule="evenodd" clip-rule="evenodd" d="M236.5 77C242.299 77 247 72.299 247 66.5C247 60.701 242.299 56 236.5 56C230.701 56 226 60.701 226 66.5C226 72.299 230.701 77 236.5 77ZM236.5 76C241.747 76 246 71.7467 246 66.5C246 61.2533 241.747 57 236.5 57C231.253 57 227 61.2533 227 66.5C227 71.7467 231.253 76 236.5 76Z" fill="white"/>
<path fill-rule="evenodd" clip-rule="evenodd" d="M289 67C289 104.003 259.003 134 222 134C184.997 134 155 104.003 155 67C155 29.9969 184.997 0 222 0C259.003 0 289 29.9969 289 67ZM287 67C287 102.899 257.899 132 222 132C186.101 132 157 102.899 157 67C157 31.1015 186.101 2 222 2C257.899 2 287 31.1015 287 67Z" fill="white"/>
<path d="M302.5 72C305.538 72 308 69.5376 308 66.5C308 63.4624 305.538 61 302.5 61C299.462 61 297 63.4624 297 66.5C297 69.5376 299.462 72 302.5 72Z" fill="white"/>
</g>
<defs>
<clipPath id="clip0_699_10251">
<rect width="444" height="134" fill="white"/>
</clipPath>
</defs>
</svg>
