<svg width="414" height="228" viewBox="0 0 414 228" fill="none" xmlns="http://www.w3.org/2000/svg">
<g clip-path="url(#clip0_699_10096)">
<path d="M207 7C337 7 414 114 414 114C414 114 337 221 207 221C77 221 0 114 0 114C0 114 77 7 207 7Z" fill="url(#paint0_linear_699_10096)"/>
<path opacity="0.4" fill-rule="evenodd" clip-rule="evenodd" d="M348.883 38.8752C309.854 17.8934 254.864 -0.600408 190.899 9.22955C126.934 19.0595 80.0345 53.2116 49.1063 84.9443C33.644 100.809 22.184 116.059 14.5913 127.339C10.7953 132.979 7.967 137.626 6.08941 140.859C5.15063 142.475 4.44961 143.738 3.98421 144.595C3.8452 144.851 3.72722 145.071 3.6302 145.253C3.77743 145.398 3.95596 145.572 4.16542 145.774C4.8667 146.452 5.91461 147.446 7.29543 148.706C10.0571 151.226 14.15 154.809 19.4643 159.049C30.0939 167.529 45.6041 178.634 65.1164 189.124C104.146 210.106 159.136 228.6 223.101 218.77C287.065 208.94 333.965 174.788 364.894 143.055C380.356 127.19 391.816 111.941 399.409 100.66C403.205 95.0199 406.033 90.3736 407.91 87.1406C408.849 85.5241 409.55 84.2611 410.016 83.4041C410.155 83.1481 410.273 82.9283 410.37 82.7461C410.222 82.6015 410.044 82.4273 409.834 82.2249C409.133 81.5471 408.085 80.5529 406.704 79.2929C403.943 76.7728 399.85 73.1902 394.536 68.9503C383.906 60.4699 368.396 49.3649 348.883 38.8752ZM2.40186 145.442C2.40186 145.442 94.7611 239.504 223.253 219.758C351.744 200.012 411.598 82.5574 411.598 82.5574C411.598 82.5574 319.239 -11.5052 190.747 8.24115C62.2557 27.9875 2.40186 145.442 2.40186 145.442Z" fill="white"/>
<path d="M210.871 7.03167C209.586 7.01063 208.296 7 207 7C204.255 7 201.533 7.04773 198.835 7.14116C196.155 7.4585 193.459 7.82459 190.747 8.24138C92.3597 23.3614 34.2155 95.7691 12.3711 128.868C12.5994 129.12 12.8308 129.374 13.0653 129.631C13.5553 128.887 14.064 128.123 14.5913 127.34C22.184 116.059 33.644 100.809 49.1063 84.9445C80.0345 53.2119 126.934 19.0597 190.899 9.22977C197.659 8.19086 204.32 7.46833 210.871 7.03167Z" fill="url(#paint1_linear_699_10096)"/>
<path d="M203.125 220.968C209.677 220.532 216.339 219.809 223.101 218.77C287.065 208.94 333.965 174.788 364.893 143.055C380.356 127.191 391.816 111.941 399.409 100.66C399.936 99.8765 400.445 99.1122 400.935 98.3682C401.169 98.6252 401.4 98.8798 401.629 99.132C379.784 132.23 321.64 204.638 223.253 219.758C220.539 220.175 217.841 220.542 215.161 220.859C212.464 220.952 209.744 221 207 221C205.703 221 204.411 220.989 203.125 220.968Z" fill="url(#paint2_linear_699_10096)"/>
<circle opacity="0.3" cx="207" cy="114" r="72" fill="white"/>
<path fill-rule="evenodd" clip-rule="evenodd" d="M207 167C236.271 167 260 143.271 260 114C260 84.7289 236.271 61 207 61C177.729 61 154 84.7289 154 114C154 143.271 177.729 167 207 167ZM207 169C237.376 169 262 144.376 262 114C262 83.6243 237.376 59 207 59C176.624 59 152 83.6243 152 114C152 144.376 176.624 169 207 169Z" fill="url(#paint3_angular_699_10096)"/>
<path fill-rule="evenodd" clip-rule="evenodd" d="M207 20C155.085 20 113 62.0852 113 114C113 165.915 155.085 208 207 208V228C144.04 228 93 176.96 93 114C93 51.0395 144.04 0 207 0C269.96 0 321 51.0395 321 114H301C301 62.0852 258.915 20 207 20Z" fill="url(#paint4_angular_699_10096)"/>
<path fill-rule="evenodd" clip-rule="evenodd" d="M207 11C150.115 11 104 57.1147 104 114C104 170.885 150.115 217 207 217V219C149.01 219 102 171.99 102 114C102 56.0101 149.01 9 207 9C264.99 9 312 56.0101 312 114H310C310 57.1147 263.885 11 207 11Z" fill="#040036"/>
<path d="M22.3074 106.111L30.3294 109.22L30.9732 116.061L25.887 120.68L17.8651 117.571L17.2212 110.73L22.3074 106.111Z" fill="url(#paint5_linear_699_10096)"/>
<path d="M204 208H218L223 218L218 228H204L199 218L204 208Z" fill="#9F9FAA"/>
<circle cx="211" cy="218" r="4" fill="#040036"/>
<path opacity="0.4" fill-rule="evenodd" clip-rule="evenodd" d="M301.302 113.541C301.555 113.432 301.85 113.548 301.959 113.802L311 134.739L320.041 113.802C320.151 113.548 320.445 113.432 320.698 113.541C320.952 113.651 321.069 113.945 320.959 114.198L311 137.261L301.041 114.198C300.932 113.945 301.048 113.651 301.302 113.541Z" fill="white"/>
<path d="M301 114L311 109L321 114L311 136L301 114Z" fill="#9F9FAA"/>
<path d="M316 125L311 136L306 125H316Z" fill="#040036"/>
<path fill-rule="evenodd" clip-rule="evenodd" d="M123.006 115C123.538 160.598 160.402 197.462 206 197.994L206 203H208L208 197.994C253.598 197.462 290.462 160.598 290.994 115L296 115V113L290.994 113C290.462 67.4017 253.598 30.5377 208 30.0058L208 25L206 25L206 30.0058C160.402 30.5378 123.538 67.4017 123.006 113L118 113L118 115L123.006 115ZM284 113H288.994C288.462 68.5063 252.494 32.5377 208 32.006V37H206V32.006C161.506 32.5377 125.538 68.5063 125.006 113H130V115H125.006C125.538 159.494 161.506 195.462 206 195.994V191H208V195.994C252.494 195.462 288.462 159.494 288.994 115H284V113Z" fill="#040036"/>
<path fill-rule="evenodd" clip-rule="evenodd" d="M244.634 46.8171L250.634 36.4248L252.367 37.4248L246.367 47.8171L244.634 46.8171Z" fill="white"/>
<path fill-rule="evenodd" clip-rule="evenodd" d="M161.634 190.577L167.634 180.185L169.366 181.185L163.366 191.577L161.634 190.577Z" fill="white"/>
<path fill-rule="evenodd" clip-rule="evenodd" d="M274.184 151.635L284.577 157.635L283.577 159.367L273.184 153.367L274.184 151.635Z" fill="white"/>
<path fill-rule="evenodd" clip-rule="evenodd" d="M130.424 68.6348L140.816 74.6348L139.816 76.3668L129.424 70.3668L130.424 68.6348Z" fill="white"/>
<path fill-rule="evenodd" clip-rule="evenodd" d="M273.185 74.6357L283.577 68.6357L284.577 70.3678L274.185 76.3678L273.185 74.6357Z" fill="white"/>
<path fill-rule="evenodd" clip-rule="evenodd" d="M129.424 157.636L139.817 151.636L140.817 153.368L130.424 159.368L129.424 157.636Z" fill="white"/>
<path fill-rule="evenodd" clip-rule="evenodd" d="M246.367 180.185L252.367 190.577L250.634 191.577L244.634 181.185L246.367 180.185Z" fill="white"/>
<path fill-rule="evenodd" clip-rule="evenodd" d="M163.367 36.4252L169.367 46.8175L167.634 47.8175L161.634 37.4252L163.367 36.4252Z" fill="white"/>
<circle cx="259" cy="128" r="4" fill="white"/>
<path d="M170 149C170 151.209 168.209 153 166 153C163.791 153 162 151.209 162 149C162 146.791 163.791 145 166 145C168.209 145 170 146.791 170 149Z" fill="#9695A2"/>
<path fill-rule="evenodd" clip-rule="evenodd" d="M166 151C167.105 151 168 150.105 168 149C168 147.895 167.105 147 166 147C164.895 147 164 147.895 164 149C164 150.105 164.895 151 166 151ZM166 153C168.209 153 170 151.209 170 149C170 146.791 168.209 145 166 145C163.791 145 162 146.791 162 149C162 151.209 163.791 153 166 153Z" fill="white"/>
<path d="M173 79C173 82.866 169.866 86 166 86C162.134 86 159 82.866 159 79C159 75.134 162.134 72 166 72C169.866 72 173 75.134 173 79Z" fill="#9695A2"/>
<path d="M223.428 56.2988L231.45 59.4085L232.094 66.249L227.008 70.8684L218.986 67.7588L218.342 60.9182L223.428 56.2988Z" fill="white"/>
<path fill-rule="evenodd" clip-rule="evenodd" d="M166 84C168.761 84 171 81.7614 171 79C171 76.2386 168.761 74 166 74C163.239 74 161 76.2386 161 79C161 81.7614 163.239 84 166 84ZM166 86C169.866 86 173 82.866 173 79C173 75.134 169.866 72 166 72C162.134 72 159 75.134 159 79C159 82.866 162.134 86 166 86Z" fill="white"/>
<path d="M183.577 114.5C183.22 113.881 183.22 113.119 183.577 112.5L194.673 93.2825C195.03 92.6637 195.69 92.2825 196.405 92.2825L218.595 92.2825C219.31 92.2825 219.97 92.6637 220.327 93.2825L231.423 112.5C231.78 113.119 231.78 113.881 231.423 114.5L220.327 133.718C219.97 134.337 219.31 134.718 218.595 134.718L196.405 134.718C195.69 134.718 195.03 134.337 194.673 133.718L183.577 114.5Z" fill="url(#paint6_linear_699_10096)"/>
<path fill-rule="evenodd" clip-rule="evenodd" d="M202.405 104.675L197.309 113.5L202.405 122.325L212.595 122.325L217.691 113.5L212.595 104.675L202.405 104.675ZM195.577 112.5C195.22 113.119 195.22 113.881 195.577 114.5L200.673 123.325C201.03 123.944 201.69 124.325 202.405 124.325L212.595 124.325C213.31 124.325 213.97 123.944 214.327 123.325L219.423 114.5C219.78 113.881 219.78 113.119 219.423 112.5L214.327 103.675C213.97 103.056 213.31 102.675 212.595 102.675L202.405 102.675C201.69 102.675 201.03 103.056 200.673 103.675L195.577 112.5Z" fill="#F2F2F5"/>
</g>
<defs>
<linearGradient id="paint0_linear_699_10096" x1="207" y1="7" x2="207" y2="221" gradientUnits="userSpaceOnUse">
<stop stop-color="white" stop-opacity="0.38"/>
<stop offset="1" stop-color="white" stop-opacity="0"/>
</linearGradient>
<linearGradient id="paint1_linear_699_10096" x1="12" y1="130" x2="131.5" y2="132.5" gradientUnits="userSpaceOnUse">
<stop stop-color="white"/>
<stop offset="1" stop-color="white" stop-opacity="0"/>
</linearGradient>
<linearGradient id="paint2_linear_699_10096" x1="202.753" y1="221.369" x2="401.758" y2="221.369" gradientUnits="userSpaceOnUse">
<stop offset="0.154771" stop-color="white" stop-opacity="0"/>
<stop offset="1" stop-color="white"/>
</linearGradient>
<radialGradient id="paint3_angular_699_10096" cx="0" cy="0" r="1" gradientUnits="userSpaceOnUse" gradientTransform="translate(207 114) rotate(-70.2011) scale(53.1413)">
<stop stop-color="white"/>
<stop offset="1" stop-color="white" stop-opacity="0"/>
</radialGradient>
<radialGradient id="paint4_angular_699_10096" cx="0" cy="0" r="1" gradientUnits="userSpaceOnUse" gradientTransform="translate(207 114) scale(104)">
<stop stop-color="white"/>
<stop offset="1" stop-color="white" stop-opacity="0"/>
</radialGradient>
<linearGradient id="paint5_linear_699_10096" x1="23.5" y1="108.5" x2="23" y2="124" gradientUnits="userSpaceOnUse">
<stop stop-color="white"/>
<stop offset="1" stop-color="white" stop-opacity="0"/>
</linearGradient>
<linearGradient id="paint6_linear_699_10096" x1="202.5" y1="93.0002" x2="218.5" y2="138" gradientUnits="userSpaceOnUse">
<stop stop-color="white"/>
<stop offset="1" stop-color="white" stop-opacity="0"/>
</linearGradient>
<clipPath id="clip0_699_10096">
<rect width="414" height="228" fill="white"/>
</clipPath>
</defs>
</svg>
