<svg width="225" height="34" viewBox="0 0 225 34" fill="none" xmlns="http://www.w3.org/2000/svg">
<path fill-rule="evenodd" clip-rule="evenodd" d="M0.814647 30.5636C0.835443 30.5767 0.854666 30.5888 0.868434 30.6C0.893017 30.5957 0.913559 30.5913 0.931202 30.5884C0.973191 30.5815 0.998765 30.5773 1.02332 30.57C1.08191 30.5535 1.14056 30.5371 1.19921 30.5207C1.39315 30.4665 1.58713 30.4123 1.7793 30.3519C2.00621 30.2806 2.23339 30.2104 2.46053 30.1401C3.12258 29.9353 3.78429 29.7306 4.43804 29.5012C5.23812 29.2211 6.05052 28.9957 6.88035 28.8345C8.39442 28.5422 9.92984 28.4665 11.4643 28.391C11.7095 28.3789 11.9548 28.3668 12.1999 28.3538C12.9764 28.3135 13.7559 28.3011 14.5335 28.3001C15.7028 28.298 16.8732 28.3001 18.0425 28.3342C19.0467 28.3642 20.051 28.4159 21.0511 28.5037C22.0317 28.5895 23.0102 28.7115 23.9837 28.8593C24.8212 28.9868 25.6218 29.2593 26.4223 29.5317C26.5561 29.5772 26.69 29.6228 26.824 29.6676C27.4351 29.8726 28.0518 30.063 28.6677 30.2531C28.7476 30.2778 28.8274 30.3024 28.9073 30.3271C29.0198 30.3619 29.134 30.391 29.2481 30.4201C29.3888 30.4559 29.5293 30.4918 29.6663 30.538C29.8612 30.6031 30.0038 30.5969 30.0746 30.4656C30.1628 30.3023 30.0961 30.1741 29.9689 30.0594C29.5258 29.6604 29.0704 29.2769 28.5411 28.9957C28.258 28.8459 28.0046 28.6784 27.9277 28.3363C27.9169 28.2882 27.8906 28.2436 27.8642 28.199C27.8554 28.1842 27.8466 28.1693 27.8384 28.1543C27.4415 27.4225 27.1009 26.67 26.8589 25.8678C26.7608 25.5442 26.6383 25.2279 26.5158 24.9116C26.3911 24.5896 26.2663 24.2676 26.1675 23.9379C25.6946 22.3637 25.4166 20.7449 25.2156 19.1169C25.0932 18.1211 25.0398 17.1152 24.9865 16.1122C24.9836 16.0563 24.9806 16.0004 24.9776 15.9445C24.8915 14.3309 24.9797 12.7256 25.2854 11.1358C25.3349 10.8783 25.3838 10.6206 25.4327 10.363C25.587 9.54898 25.7414 8.73492 25.9182 7.92624C25.9505 7.77777 25.9788 7.62811 26.0072 7.47835C26.0943 7.01813 26.1817 6.55684 26.3829 6.12556C26.4383 6.00566 26.5029 5.92813 26.6209 5.86921C27.2076 5.57978 27.7954 5.28622 28.3749 4.98128C28.9103 4.70012 29.3678 4.30732 29.813 3.90108C29.931 3.79255 29.971 3.6623 29.8869 3.51966C29.814 3.39561 29.692 3.38114 29.5627 3.41732C29.5041 3.43389 29.4455 3.45029 29.3868 3.46669C29.1929 3.52089 28.9989 3.57512 28.8067 3.63543C28.5758 3.70755 28.3445 3.77838 28.1132 3.8492C27.466 4.04738 26.8189 4.2455 26.1819 4.47168C25.3705 4.75904 24.5478 4.98955 23.7057 5.15287C22.1909 5.44623 20.6547 5.52191 19.1195 5.59755C18.875 5.6096 18.6305 5.62164 18.3862 5.63457C17.6097 5.67591 16.8301 5.68728 16.0526 5.68832C14.8832 5.68935 13.7129 5.68832 12.5435 5.65421C11.5393 5.62526 10.5351 5.57255 9.53498 5.48468C8.55334 5.39785 7.57478 5.27795 6.60134 5.1291C5.75035 4.99943 4.93697 4.72201 4.12401 4.44473C3.99725 4.40149 3.87049 4.35826 3.74361 4.31559C3.11651 4.10525 2.48433 3.91027 1.85168 3.71514C1.78789 3.69547 1.7241 3.67579 1.66031 3.6561C1.55009 3.62217 1.43821 3.59389 1.32634 3.56561C1.1894 3.53099 1.0525 3.49638 0.918696 3.45143C0.721752 3.38528 0.581225 3.38941 0.509422 3.51862C0.418131 3.68194 0.483779 3.80805 0.60892 3.92693C1.15154 4.44273 1.76802 4.85207 2.41321 5.22213C2.51271 5.27898 2.61528 5.37305 2.66144 5.47538C2.91378 6.03563 3.16611 6.59692 3.38665 7.16958C3.39371 7.18788 3.40078 7.20618 3.40785 7.22449C3.68703 7.94739 3.96674 8.67167 4.19083 9.41267C4.66781 10.9921 4.94476 12.6171 5.1458 14.2513C5.26822 15.2471 5.32162 16.253 5.37486 17.256C5.37783 17.3119 5.3808 17.3678 5.38378 17.4237C5.46789 19.0321 5.38173 20.6312 5.07708 22.2148C4.93276 22.968 4.78492 23.7212 4.63709 24.4745C4.57372 24.7973 4.51036 25.1201 4.44727 25.443C4.44441 25.4579 4.44155 25.4728 4.43869 25.4878C4.40572 25.6601 4.37265 25.8329 4.32828 26.0022C4.31462 26.0546 4.30106 26.107 4.2875 26.1595C4.20742 26.4692 4.1273 26.779 4.02466 27.0814C3.97384 27.2323 3.91054 27.379 3.84728 27.5257C3.76882 27.7076 3.69042 27.8895 3.6359 28.0789C3.58154 28.2691 3.47589 28.3383 3.32613 28.419C3.2321 28.4695 3.13782 28.5197 3.0435 28.5699C2.59151 28.8107 2.13862 29.052 1.7075 29.3265C1.38049 29.5341 1.08972 29.8044 0.803349 30.0705C0.788791 30.0841 0.774244 30.0976 0.759705 30.1111C0.689954 30.1752 0.67149 30.3344 0.688928 30.4398C0.697056 30.4897 0.761074 30.5299 0.814647 30.5636ZM26.7569 27.785C26.8125 27.9085 26.869 28.0338 26.9265 28.1616C26.8168 28.1151 26.7097 28.0702 26.6043 28.026C26.4022 27.9412 26.2067 27.8592 26.0126 27.775C24.5273 27.1279 22.9784 26.701 21.3875 26.4136C21.1676 26.3738 20.9508 26.3163 20.734 26.2588C20.4946 26.1952 20.2553 26.1317 20.012 26.0921C19.5176 26.0115 19.0149 25.964 18.5144 25.9464C18.4531 25.9443 18.3918 25.9422 18.3304 25.9401C17.1801 25.9007 16.0282 25.8612 14.8771 25.873C13.6657 25.8854 12.4532 25.9485 11.2429 26.0229C10.9136 26.043 10.5868 26.1186 10.261 26.1941C10.1677 26.2157 10.0744 26.2373 9.98118 26.2575C9.87095 26.2814 9.76069 26.3052 9.65044 26.3289C8.95845 26.4781 8.26664 26.6272 7.58093 26.8002C6.58801 27.0514 5.6238 27.3977 4.68217 27.8018C4.64411 27.8181 4.60564 27.8331 4.56702 27.8482C4.54424 27.8571 4.5214 27.866 4.49856 27.8752C4.49438 27.8714 4.4902 27.8674 4.48598 27.8634C4.47777 27.8556 4.46941 27.8476 4.46061 27.8401C4.64524 27.5662 4.82987 27.2922 5.01348 27.0183C5.03508 26.9861 5.05854 26.9545 5.08205 26.9229C5.14004 26.8448 5.19823 26.7665 5.22889 26.6782C5.56841 25.7014 5.90486 24.7225 6.22694 23.7395C6.53467 22.7999 6.73366 21.8344 6.86804 20.8545C7.04139 19.5965 7.04036 18.3323 6.99113 17.0671C6.98313 16.8618 6.97596 16.6565 6.96878 16.4511C6.94924 15.8922 6.92969 15.333 6.89368 14.7744C6.80034 13.3334 6.5757 11.9204 6.01769 10.5745C5.89784 10.2854 5.79014 9.99082 5.68251 9.6964C5.52115 9.25504 5.35993 8.81406 5.15811 8.39243C4.96936 7.99802 4.73261 7.62758 4.4957 7.25688C4.3644 7.05144 4.23306 6.84593 4.1098 6.6362C4.01821 6.48098 3.94352 6.31535 3.86255 6.1358C3.82382 6.0499 3.78365 5.96083 3.7395 5.86818C3.83408 5.9075 3.92438 5.94471 4.01162 5.98066C4.21108 6.06285 4.39454 6.13846 4.57651 6.21756C6.05667 6.86051 7.5994 7.28639 9.18418 7.57375C9.37079 7.60777 9.55445 7.65891 9.73794 7.71001C9.94477 7.76761 10.1514 7.82515 10.3617 7.85801C10.9238 7.94588 11.4911 8.01823 12.0583 8.03994C13.2944 8.08749 14.5324 8.12677 15.7695 8.11437C16.845 8.10406 17.9214 8.04537 18.9963 7.98675C19.1075 7.98069 19.2187 7.97463 19.3299 7.96862C19.6229 7.95231 19.9135 7.88838 20.2025 7.82482C20.2433 7.81585 20.2841 7.80688 20.3248 7.79806C20.4807 7.76415 20.6368 7.73068 20.793 7.6972C21.4269 7.56128 22.0616 7.42519 22.6871 7.25848C23.2304 7.11272 23.7667 6.94101 24.3026 6.76941C24.5306 6.69641 24.7585 6.62343 24.9869 6.55247C25.0301 6.53962 25.0728 6.52381 25.1272 6.50368C25.1516 6.49467 25.1783 6.48479 25.2084 6.47392C25.1669 6.58559 25.1296 6.68484 25.0941 6.77916C25.0707 6.84112 25.0482 6.90095 25.0258 6.96078C24.3406 8.78729 23.7365 10.6355 23.4821 12.5819C23.321 13.8172 23.3221 15.0566 23.3713 16.297C23.3795 16.5058 23.3868 16.7147 23.3942 16.9237C23.4135 17.4731 23.4328 18.0229 23.4677 18.5711C23.559 20.0193 23.7857 21.4375 24.3458 22.7895C24.466 23.0802 24.5744 23.3761 24.6827 23.6719C24.846 24.1176 25.009 24.5629 25.2125 24.9892C25.411 25.4063 25.6636 25.7981 25.9162 26.1898C26.0279 26.3629 26.1395 26.536 26.2465 26.7113C26.2568 26.7284 26.2686 26.7445 26.2804 26.7605C26.2979 26.7842 26.3153 26.8078 26.3275 26.8343C26.4695 27.1467 26.6104 27.4597 26.7569 27.785Z" fill="#040036"/>
<path d="M70.5126 25.1027C69.7309 24.7822 69.095 24.315 68.5083 23.7971C66.7762 22.1895 66.8722 20.0902 66.8931 19.6337C66.8947 19.6006 66.8958 19.5761 66.8958 19.5611L70.2438 19.6107V19.5859C70.2438 19.5859 70.2438 20.4966 70.6346 21.0879C71.1229 21.8269 72.0276 22.196 73.3477 22.196C75.5469 22.196 76.5245 21.6295 76.5245 20.694C76.5245 19.7089 75.2782 19.0939 73.2493 18.8716C72.003 18.7238 70.9034 18.453 70.0233 18.084C69.1924 17.7387 68.5083 17.2715 67.9944 16.705C67.2609 15.8926 66.8948 14.9323 66.8948 13.848C66.8948 12.346 67.4815 11.3361 67.9944 10.7448C69.1186 9.46411 70.927 8.79946 73.4195 8.79946C76.6948 8.79946 78.3072 10.2528 79.0888 11.4591C79.9197 12.7647 79.9689 14.2666 79.9689 14.5126H76.6212C76.6215 14.3822 76.6041 13.7425 76.2547 13.2805C75.7664 12.591 74.7889 12.1724 73.4206 12.1724C72.003 12.1724 70.3659 12.5414 70.3659 13.6257C70.3659 14.6604 71.4409 15.2755 73.6165 15.5225C76.0352 15.7933 77.82 16.5572 78.895 17.8132C79.6038 18.6504 79.97 19.6355 79.97 20.694C79.97 21.2119 79.97 22.5164 78.9196 23.6989C78.3821 24.315 77.6487 24.7822 76.745 25.1027C75.8167 25.4231 74.6925 25.5709 73.3488 25.5709C72.2974 25.5709 71.3434 25.4231 70.5126 25.1027Z" fill="#040036"/>
<path fill-rule="evenodd" clip-rule="evenodd" d="M47.2279 20.9401C47.2279 25.1761 42.6582 25.5451 42.6582 25.5451H34.0316V9.53756H41.3873C41.3873 9.53756 45.0041 9.53756 45.9077 12.6655C46.5673 14.9065 45.2728 16.5811 45.2728 16.5811C45.2728 16.5811 47.2279 17.468 47.2279 20.9401ZM42.4869 19.0195H37.8433V22.5909H42.4869C43.4644 22.5909 44.2471 21.8032 44.2471 20.8171C44.2471 19.832 43.4644 19.0195 42.4869 19.0195ZM37.8433 16.089H41.2406C42.2181 16.089 43.0244 15.3014 43.0244 14.3163C43.0244 13.3064 42.2181 12.5187 41.2406 12.5187H37.8433V16.089Z" fill="#040036"/>
<path fill-rule="evenodd" clip-rule="evenodd" d="M57.1349 26.1115C61.6554 26.1115 65.3214 22.4171 65.3214 17.8617C65.3214 13.3063 61.6554 9.61188 57.1349 9.61188C52.6144 9.61188 48.9484 13.3052 48.9484 17.8617C48.9484 22.4171 52.6134 26.1115 57.1349 26.1115ZM60.5065 14.4629C61.4112 15.3746 61.8995 16.581 61.8995 17.8617C61.8995 19.1424 61.4102 20.3487 60.5065 21.2604C59.6018 22.1473 58.4048 22.6642 57.1339 22.6642C55.863 22.6642 54.6659 22.1473 53.7612 21.2604C52.8565 20.3487 52.3682 19.1424 52.3682 17.8617C52.3682 16.581 52.8575 15.3736 53.7612 14.4629C54.6659 13.5523 55.863 13.0592 57.1339 13.0592C58.4048 13.0592 59.6018 13.5523 60.5065 14.4629Z" fill="#040036"/>
<path d="M89.4383 13.3303V25.4967H85.6266V13.3303H81.4959V9.48915H93.569V13.3303H89.4383Z" fill="#040036"/>
<path fill-rule="evenodd" clip-rule="evenodd" d="M109.943 17.8617C109.943 22.4171 106.277 26.1115 101.756 26.1115C97.2358 26.1115 93.5697 22.4171 93.5697 17.8617C93.5697 13.3052 97.2358 9.61188 101.756 9.61188C106.278 9.61188 109.943 13.3063 109.943 17.8617ZM106.521 17.8617C106.521 16.581 106.033 15.3746 105.128 14.4629C104.223 13.5523 103.026 13.0592 101.755 13.0592C100.484 13.0592 99.2872 13.5523 98.3825 14.4629C97.4789 15.3736 96.9896 16.581 96.9896 17.8617C96.9896 19.1424 97.4778 20.3487 98.3825 21.2604C99.2872 22.1473 100.484 22.6642 101.755 22.6642C103.026 22.6642 104.223 22.1473 105.128 21.2604C106.032 20.3487 106.521 19.1424 106.521 17.8617Z" fill="#040036"/>
<path d="M126.143 9.53756V25.5451L115.611 17.7388V25.5451H111.798V9.53756L122.331 17.714V9.53756H126.143Z" fill="#040036"/>
<path d="M152.597 9.53756V25.5451H148.784V16.5811L144.068 19.6108L139.497 16.6059V25.5451H135.685V9.53756L144.116 15.0295L152.597 9.53756Z" fill="#040036"/>
<path fill-rule="evenodd" clip-rule="evenodd" d="M166.096 23.3041H160.11L158.961 25.5451H154.562L163.115 9.53756L171.645 25.5451H167.245L166.096 23.3041ZM164.558 20.3002L163.115 17.4928L161.65 20.3002H164.558Z" fill="#040036"/>
<path d="M178.571 13.3798V25.5451H174.76V13.3798H170.629V9.53756H182.702V13.3798H178.571Z" fill="#040036"/>
<path fill-rule="evenodd" clip-rule="evenodd" d="M195.293 20.078L198.714 25.5451H194.437L191.114 20.447H189.305V25.5451H185.493V9.53756H193.093C197.004 9.53756 198.764 12.5425 198.764 15.0047C198.764 16.8023 197.81 19.1921 195.293 20.078ZM189.305 16.9997H193.069C193.557 16.9997 193.997 16.9263 194.315 16.7785C194.535 16.6555 194.731 16.5325 194.877 16.3599C195.22 15.9412 195.342 15.3748 195.342 15.0047C195.342 14.6109 195.22 14.0444 194.829 13.6258C194.463 13.1823 193.901 12.9859 193.093 12.9859H189.305V16.9997Z" fill="#040036"/>
<path d="M205.94 25.5451H202.127V9.53756H205.94V25.5451Z" fill="#040036"/>
<path d="M219.613 17.4929L224.867 22.7874L222.155 25.4967L216.901 20.2012L211.646 25.4967L208.958 22.7874L214.212 17.4929L208.958 12.1984L211.672 9.48915L216.901 14.7588L222.155 9.48915L224.867 12.1984L219.613 17.4929Z" fill="#040036"/>
</svg>
