<svg width="88" height="84" viewBox="0 0 88 84" fill="none" xmlns="http://www.w3.org/2000/svg">
<g clip-path="url(#clip0_699_12145)">
<rect width="88" height="84" rx="8" fill="#040036"/>
<path d="M35 26C33.3431 26 32 27.3431 32 29V32H42L38 38H32L32 58H26L26 38H20V32H26V29C26 24.0294 30.0294 20 35 20H37C39.1904 20 41.2049 20.7863 42.7652 22.0888L38.9202 26.6948C38.3986 26.2594 37.7335 26 37 26H35Z" fill="white"/>
<path fill-rule="evenodd" clip-rule="evenodd" d="M60 32H66V58H60V55.9564C57.9794 57.25 55.5773 58 53 58C45.8203 58 40 52.1797 40 45C40 37.8203 45.8203 32 53 32C55.5773 32 57.9794 32.75 60 34.0436V32ZM60 45C60 48.866 56.866 52 53 52C49.134 52 46 48.866 46 45C46 41.134 49.134 38 53 38C56.866 38 60 41.134 60 45Z" fill="white"/>
<path d="M50 8C50 3.58172 53.5817 0 58 0H92C96.4183 0 100 3.58172 100 8V10C100 14.4183 96.4183 18 92 18H58C53.5817 18 50 14.4183 50 10V8Z" fill="#3C47E5"/>
<path d="M59.7275 8.46582H57.7349L57.7241 7.48291H59.4644C59.758 7.48291 60.0068 7.43994 60.2109 7.354C60.4186 7.26449 60.5762 7.13737 60.6836 6.97266C60.791 6.80436 60.8447 6.60205 60.8447 6.36572C60.8447 6.10433 60.7946 5.89128 60.6943 5.72656C60.5941 5.56185 60.4401 5.44189 60.2324 5.3667C60.0283 5.2915 59.7669 5.25391 59.4482 5.25391H58.1431V12H56.7949V4.17969H59.4482C59.8779 4.17969 60.2611 4.22087 60.5977 4.30322C60.9378 4.38558 61.2261 4.51449 61.4624 4.68994C61.7023 4.86182 61.8831 5.08024 62.0049 5.34521C62.1302 5.61019 62.1929 5.92529 62.1929 6.29053C62.1929 6.61279 62.1159 6.9082 61.9619 7.17676C61.8079 7.44173 61.5806 7.65837 61.2798 7.82666C60.979 7.99495 60.6048 8.09521 60.1572 8.12744L59.7275 8.46582ZM59.6685 12H57.3105L57.9175 10.9312H59.6685C59.9728 10.9312 60.2271 10.881 60.4312 10.7808C60.6353 10.6769 60.7874 10.5355 60.8877 10.3564C60.9915 10.1738 61.0435 9.96077 61.0435 9.71729C61.0435 9.46305 60.9987 9.24284 60.9092 9.05664C60.8197 8.86686 60.6782 8.72184 60.4849 8.62158C60.2915 8.51774 60.0391 8.46582 59.7275 8.46582H58.2129L58.2236 7.48291H60.1948L60.501 7.85352C60.9307 7.86784 61.2834 7.96273 61.5591 8.13818C61.8384 8.31364 62.0461 8.54102 62.1821 8.82031C62.3182 9.09961 62.3862 9.40039 62.3862 9.72266C62.3862 10.2204 62.277 10.6375 62.0586 10.9741C61.8438 11.3107 61.534 11.5667 61.1294 11.7422C60.7248 11.9141 60.2378 12 59.6685 12Z" fill="white"/>
<path d="M68.8638 10.9312V12H64.7119V10.9312H68.8638ZM65.0933 4.17969V12H63.7451V4.17969H65.0933ZM68.3213 7.44531V8.49805H64.7119V7.44531H68.3213ZM68.8369 4.17969V5.25391H64.7119V4.17969H68.8369Z" fill="white"/>
<path d="M73.2896 4.17969V12H71.9521V4.17969H73.2896ZM75.7441 4.17969V5.25391H69.519V4.17969H75.7441Z" fill="white"/>
<path d="M79.3052 5.22168L76.9688 12H75.5562L78.4995 4.17969H79.4019L79.3052 5.22168ZM81.2603 12L78.9185 5.22168L78.8164 4.17969H79.7241L82.6782 12H81.2603ZM81.1475 9.09961V10.1685H76.8936V9.09961H81.1475Z" fill="white"/>
</g>
<defs>
<clipPath id="clip0_699_12145">
<rect width="88" height="84" rx="8" fill="white"/>
</clipPath>
</defs>
</svg>
