<svg width="214" height="32" viewBox="0 0 214 32" fill="none" xmlns="http://www.w3.org/2000/svg">
<path d="M8 6C8 4.89543 8.89543 4 10 4H11.3333C11.8224 4 12.2657 4.17296 12.6134 4.46321L15.1768 1.39251C14.1366 0.524192 12.7936 0 11.3333 0H10C6.68629 0 4 2.68629 4 6V8H0V12H4L4 25.3333H8L8 12H14V8H8V6Z" fill="#040036"/>
<path d="M60.6667 2.66667H56.6667V8H52V12H56.6667V25.3333H60.6667V12H65.3333V8H60.6667V2.66667Z" fill="#040036"/>
<path d="M21.3333 4.66667C21.3333 5.77124 20.4379 6.66667 19.3333 6.66667C18.2288 6.66667 17.3333 5.77124 17.3333 4.66667C17.3333 3.56209 18.2288 2.66667 19.3333 2.66667C20.4379 2.66667 21.3333 3.56209 21.3333 4.66667Z" fill="#040036"/>
<path d="M21.3333 8V25.3333H17.3333V8H21.3333Z" fill="#040036"/>
<path fill-rule="evenodd" clip-rule="evenodd" d="M96 8H92V9.36243C90.6529 8.5 89.0515 8 87.3333 8C82.5469 8 78.6667 11.8802 78.6667 16.6667C78.6667 21.4531 82.5469 25.3333 87.3333 25.3333C89.0515 25.3333 90.6529 24.8333 92 23.9709V25.3333H96V8ZM87.3333 21.3333C89.9106 21.3333 92 19.244 92 16.6667C92 14.0893 89.9106 12 87.3333 12C84.756 12 82.6667 14.0893 82.6667 16.6667C82.6667 19.244 84.756 21.3333 87.3333 21.3333Z" fill="#040036"/>
<path fill-rule="evenodd" clip-rule="evenodd" d="M201.333 8H205.333V25.3333H201.333V23.9709C199.986 24.8333 198.385 25.3333 196.667 25.3333C191.88 25.3333 188 21.4531 188 16.6667C188 11.8802 191.88 8 196.667 8C198.385 8 199.986 8.5 201.333 9.36242V8ZM201.333 16.6667C201.333 19.244 199.244 21.3333 196.667 21.3333C194.089 21.3333 192 19.244 192 16.6667C192 14.0893 194.089 12 196.667 12C199.244 12 201.333 14.0893 201.333 16.6667Z" fill="#040036"/>
<path fill-rule="evenodd" clip-rule="evenodd" d="M100 32V8H104V9.36242C105.347 8.5 106.948 8 108.667 8C113.453 8 117.333 11.8802 117.333 16.6667C117.333 21.4531 113.453 25.3333 108.667 25.3333C106.948 25.3333 105.347 24.8333 104 23.9709V32H100ZM108.667 21.3333C106.089 21.3333 104 19.244 104 16.6667C104 14.0893 106.089 12 108.667 12C111.244 12 113.333 14.0893 113.333 16.6667C113.333 19.244 111.244 21.3333 108.667 21.3333Z" fill="#040036"/>
<path fill-rule="evenodd" clip-rule="evenodd" d="M120 8V32H124V23.9709C125.347 24.8333 126.948 25.3333 128.667 25.3333C133.453 25.3333 137.333 21.4531 137.333 16.6667C137.333 11.8802 133.453 8 128.667 8C126.948 8 125.347 8.5 124 9.36242V8H120ZM124 16.6667C124 19.244 126.089 21.3333 128.667 21.3333C131.244 21.3333 133.333 19.244 133.333 16.6667C133.333 14.0893 131.244 12 128.667 12C126.089 12 124 14.0893 124 16.6667Z" fill="#040036"/>
<path d="M29.3333 8H25.3333V25.3333H29.3333V16.6667C29.3333 14.0893 31.1242 12 33.3333 12C33.9331 12 34.5021 12.154 35.0127 12.43L37.7175 9.64425C36.5455 8.62034 35.0118 8 33.3333 8C31.8325 8 30.4475 8.49593 29.3333 9.33285V8Z" fill="#040036"/>
<path d="M140 8H144V9.33285C145.114 8.49593 146.499 8 148 8C149.678 8 151.212 8.62034 152.384 9.64425L149.679 12.43C149.169 12.154 148.6 12 148 12C145.791 12 144 14.0893 144 16.6667V25.3333H140V8Z" fill="#040036"/>
<path fill-rule="evenodd" clip-rule="evenodd" d="M160.667 25.3333C165.453 25.3333 169.333 21.4531 169.333 16.6667C169.333 11.8802 165.453 8 160.667 8C155.88 8 152 11.8802 152 16.6667C152 21.4531 155.88 25.3333 160.667 25.3333ZM160.667 21.3333C163.244 21.3333 165.333 19.244 165.333 16.6667C165.333 14.0893 163.244 12 160.667 12C158.089 12 156 14.0893 156 16.6667C156 19.244 158.089 21.3333 160.667 21.3333Z" fill="#040036"/>
<path d="M213.333 2.66667H209.333V25.3333H213.333V2.66667Z" fill="#040036"/>
<path d="M177.037 25.3333L169.333 8H173.711L178.633 19.0753L183.555 8H187.933L180.229 25.3333H177.037Z" fill="#040036"/>
<path d="M44.4817 8C44.2911 8 44.0765 8.01306 43.8708 8.02956C41.0352 8.25703 39.085 10.1787 38.8665 12.5828C38.649 14.9758 40.2042 17.2257 42.9299 17.9986C43.5861 18.1846 44.2367 18.3692 44.8825 18.5549C45.7374 18.8008 46.1704 19.1626 46.3689 19.4229C46.5601 19.6737 46.587 19.8892 46.5607 20.0528C46.5201 20.3049 46.1268 21.167 44.3233 21.2411C44.1107 21.2498 43.9421 21.2538 43.816 21.2538C42.6144 21.2538 41.6251 20.7447 41.0536 20.0692L38 22.6529C39.3716 24.274 41.5013 25.2538 43.816 25.2538C44.0163 25.2538 44.2438 25.2477 44.4874 25.2377C47.5976 25.11 50.0824 23.3484 50.51 20.6874C50.9506 17.9455 49.0156 15.5814 45.988 14.7107C45.334 14.5226 44.6765 14.3361 44.0211 14.1503C43.4565 13.9902 43.1681 13.7356 43.0262 13.5411C42.8799 13.3405 42.8332 13.1305 42.85 12.9448C42.8669 12.7597 42.9491 12.5707 43.12 12.4109C43.2855 12.256 43.6069 12.0636 44.1907 12.0167C44.3612 12.0031 44.4511 12 44.4817 12C45.6833 12 46.6736 12.5096 47.2451 13.185L50.2987 10.6013C48.9271 8.98027 46.7965 8 44.4817 8Z" fill="#040036"/>
</svg>
