<svg width="170" height="34" viewBox="0 0 170 34" fill="none" xmlns="http://www.w3.org/2000/svg">
<path fill-rule="evenodd" clip-rule="evenodd" d="M12.4069 7.4402C12.4069 3.3415 15.7232 0 19.7918 0C23.8604 0 27.1773 3.3415 27.1773 7.4402C27.1773 9.82096 26.0572 11.9447 24.3216 13.3081L27.2519 19.5598C28.0323 19.2759 28.8727 19.1203 29.7483 19.1203C31.8382 19.1203 33.7298 20.0018 35.0753 21.4149L33.6257 22.3884C32.6136 21.4336 31.2512 20.8507 29.7483 20.8507C26.608 20.8507 24.0805 23.3969 24.0805 26.5604C24.0805 29.7241 26.608 32.2696 29.7483 32.2696C32.6094 32.2696 34.9616 30.1569 35.3577 27.3889H28.9925V25.5H37.059C37.1084 25.8464 37.1339 26.2006 37.1339 26.5604C37.1339 30.6591 33.8169 34 29.7483 34C25.6797 34 22.3638 30.6591 22.3638 26.5604C22.3638 24.1277 23.5319 21.9619 25.3325 20.6031L22.4204 14.3905C21.6029 14.7058 20.7171 14.8804 19.7918 14.8804C17.1203 14.8804 14.7733 13.4396 13.4764 11.2898L9.35025 13.3161C9.39855 13.5738 9.4252 13.8389 9.4252 14.11C9.42518 16.4779 7.49595 18.4201 5.14552 18.4201C2.79508 18.4201 0.867191 16.4779 0.867188 14.11C0.867188 11.7422 2.79508 9.79869 5.14552 9.79869C6.4502 9.79869 7.62445 10.398 8.41166 11.3358L12.6324 9.26285C12.4856 8.6792 12.4069 8.06878 12.4069 7.4402ZM25.4598 7.4402C25.4598 4.27658 22.9323 1.73037 19.7918 1.73037C16.6514 1.73037 14.1249 4.27658 14.1249 7.4402C14.1249 10.6038 16.6514 13.15 19.7918 13.15C22.9323 13.15 25.4598 10.6038 25.4598 7.4402Z" fill="#040036"/>
<path d="M165.728 19.8842C165.801 20.0768 165.837 20.296 165.837 20.5417C165.837 20.8339 165.764 21.0995 165.618 21.3385C165.472 21.5776 165.246 21.7669 164.941 21.9063C164.642 22.0391 164.25 22.1055 163.766 22.1055C163.347 22.1055 162.969 22.0657 162.63 21.986C162.291 21.9063 162.002 21.7735 161.763 21.5876C161.531 21.4016 161.352 21.1592 161.225 20.8604C161.099 20.5549 161.036 20.1831 161.036 19.7448H157.789C157.789 20.5815 157.958 21.3053 158.297 21.9163C158.642 22.5206 159.1 23.0186 159.672 23.4104C160.249 23.8022 160.893 24.0944 161.604 24.287C162.315 24.4729 163.035 24.5659 163.766 24.5659C164.569 24.5659 165.296 24.4762 165.947 24.2969C166.598 24.1176 167.156 23.8553 167.62 23.51C168.092 23.1581 168.45 22.7331 168.696 22.235C168.949 21.737 169.075 21.1659 169.075 20.5217C169.075 19.9174 168.968 19.3762 168.756 18.8981C168.55 18.42 168.241 17.9917 167.83 17.6132C167.418 17.2346 166.91 16.896 166.306 16.5971C165.708 16.2983 165.021 16.026 164.244 15.7803C163.799 15.6475 163.404 15.5081 163.058 15.362C162.713 15.2159 162.421 15.0632 162.182 14.9038C161.949 14.7378 161.77 14.5618 161.644 14.3758C161.524 14.1833 161.465 13.9708 161.465 13.7383C161.465 13.4462 161.544 13.1772 161.704 12.9315C161.87 12.6858 162.112 12.4932 162.431 12.3538C162.756 12.2077 163.158 12.1346 163.636 12.1346C164.127 12.1346 164.536 12.221 164.861 12.3936C165.193 12.5663 165.439 12.8053 165.598 13.1108C165.764 13.4096 165.847 13.7549 165.847 14.1467H169.075C169.075 13.2569 168.849 12.4766 168.397 11.8059C167.946 11.1286 167.315 10.604 166.505 10.2321C165.701 9.85358 164.768 9.66432 163.706 9.66432C162.909 9.66432 162.178 9.76061 161.514 9.95319C160.85 10.1391 160.273 10.4114 159.781 10.77C159.29 11.1219 158.908 11.5469 158.636 12.045C158.363 12.543 158.227 13.1008 158.227 13.7184C158.227 14.3559 158.357 14.9137 158.616 15.3919C158.881 15.87 159.243 16.2883 159.701 16.6469C160.16 17.0055 160.681 17.321 161.265 17.5932C161.856 17.8589 162.477 18.0979 163.128 18.3104C163.699 18.4897 164.161 18.6657 164.513 18.8383C164.865 19.0044 165.137 19.1704 165.329 19.3364C165.522 19.5024 165.655 19.685 165.728 19.8842Z" fill="#040036"/>
<path d="M156.553 21.8565V24.3667H146.692V9.86354H156.563V12.3837H149.939V15.7007H155.557V18.1311H149.939V21.8565H156.553Z" fill="#040036"/>
<path d="M144.121 24.3667V9.86354H140.894V19.2368L135.405 9.86354H132.158V24.3667H135.405V14.9934L140.884 24.3667H144.121Z" fill="#040036"/>
<path d="M130.394 21.8565V24.3667H120.533V9.86354H130.404V12.3837H123.78V15.7007H129.398V18.1311H123.78V21.8565H130.394Z" fill="#040036"/>
<path d="M118.142 22.5538V16.7067H112.315V18.9678H114.894V21.3784C114.802 21.4714 114.662 21.5743 114.476 21.6872C114.29 21.7934 114.051 21.8831 113.759 21.9561C113.467 22.0225 113.108 22.0557 112.683 22.0557C112.139 22.0557 111.66 21.9594 111.249 21.7669C110.844 21.5743 110.508 21.2921 110.243 20.9202C109.977 20.5417 109.775 20.0702 109.635 19.5057C109.502 18.9413 109.436 18.2872 109.436 17.5434V16.6669C109.436 15.9231 109.502 15.2723 109.635 14.7145C109.768 14.1501 109.96 13.6786 110.213 13.3001C110.465 12.9215 110.774 12.6393 111.139 12.4534C111.511 12.2608 111.926 12.1645 112.384 12.1645C112.955 12.1645 113.42 12.2608 113.779 12.4534C114.137 12.6393 114.413 12.9083 114.606 13.2602C114.805 13.6122 114.938 14.0305 115.004 14.5153H118.132C118.032 13.5657 117.767 12.7257 117.335 11.9952C116.91 11.2647 116.286 10.6936 115.462 10.2819C114.639 9.86354 113.58 9.65436 112.285 9.65436C111.375 9.65436 110.545 9.81042 109.794 10.1225C109.044 10.4346 108.397 10.8928 107.852 11.4971C107.308 12.0948 106.886 12.8286 106.587 13.6985C106.288 14.5684 106.139 15.5645 106.139 16.6868V17.5434C106.139 18.6657 106.288 19.6618 106.587 20.5317C106.893 21.4016 107.324 22.1387 107.882 22.743C108.44 23.3407 109.107 23.7956 109.884 24.1077C110.661 24.4132 111.524 24.5659 112.474 24.5659C113.523 24.5659 114.426 24.4563 115.183 24.2372C115.94 24.0114 116.561 23.7424 117.046 23.4303C117.537 23.1182 117.903 22.826 118.142 22.5538Z" fill="#040036"/>
<path d="M98.6369 9.86354V24.3667H95.3996L89.9211 14.9934V24.3667H86.6738V9.86354H89.9211L95.4096 19.2368V9.86354H98.6369Z" fill="#040036"/>
<path d="M84.9101 24.3667V21.8565H78.296V18.1311H83.914V15.7007H78.296V12.3837H84.92V9.86354H75.0487V24.3667H84.9101Z" fill="#040036"/>
<path fill-rule="evenodd" clip-rule="evenodd" d="M67.3682 19.3264H64.8979V24.3667H61.6506V9.86354H67.3682C68.5237 9.86354 69.5131 10.0727 70.3365 10.4911C71.1666 10.9094 71.8008 11.4839 72.2391 12.2143C72.684 12.9382 72.9065 13.7682 72.9065 14.7046C72.9065 15.6409 72.684 16.4544 72.2391 17.145C71.8008 17.8356 71.1666 18.3735 70.3365 18.7587C69.5131 19.1372 68.5237 19.3264 67.3682 19.3264ZM67.3682 16.8063H64.8979V12.3837H67.3682C67.9061 12.3837 68.3377 12.4932 68.6631 12.7124C68.9951 12.9315 69.2375 13.2204 69.3903 13.579C69.5496 13.9309 69.6293 14.3128 69.6293 14.7245C69.6293 15.1229 69.5496 15.4815 69.3903 15.8003C69.2375 16.1124 68.9951 16.3581 68.6631 16.5374C68.3377 16.7167 67.9061 16.8063 67.3682 16.8063Z" fill="#040036"/>
<path fill-rule="evenodd" clip-rule="evenodd" d="M59.4884 17.4438V16.7964C59.4884 15.694 59.3357 14.7046 59.0302 13.828C58.7247 12.9448 58.2931 12.1944 57.7353 11.5768C57.1841 10.9592 56.5267 10.4878 55.763 10.1624C54.9994 9.83034 54.156 9.66432 53.2329 9.66432C52.3099 9.66432 51.4665 9.83034 50.7029 10.1624C49.9392 10.4878 49.2785 10.9592 48.7206 11.5768C48.1695 12.1944 47.7411 12.9448 47.4357 13.828C47.1302 14.7046 46.9775 15.694 46.9775 16.7964V17.4438C46.9775 18.5462 47.1302 19.5356 47.4357 20.4122C47.7411 21.2887 48.1728 22.0358 48.7306 22.6534C49.2951 23.271 49.9591 23.7458 50.7228 24.0778C51.4865 24.4032 52.3298 24.5659 53.2529 24.5659C54.1759 24.5659 55.016 24.4032 55.773 24.0778C56.5367 23.7458 57.1941 23.271 57.7453 22.6534C58.3031 22.0358 58.7314 21.2887 59.0302 20.4122C59.3357 19.5356 59.4884 18.5462 59.4884 17.4438ZM56.2113 16.7764V17.4438C56.2113 18.1743 56.1449 18.8251 56.0121 19.3962C55.8859 19.9606 55.6966 20.4387 55.4443 20.8305C55.1919 21.2223 54.8798 21.5178 54.5079 21.7171C54.1427 21.9163 53.7244 22.0159 53.2529 22.0159C52.7615 22.0159 52.3298 21.9163 51.9579 21.7171C51.5927 21.5178 51.2839 21.2223 51.0316 20.8305C50.7792 20.4387 50.5867 19.9606 50.4538 19.3962C50.3277 18.8251 50.2646 18.1743 50.2646 17.4438V16.7764C50.2646 16.0393 50.3277 15.3885 50.4538 14.8241C50.5867 14.253 50.7759 13.7749 51.0216 13.3897C51.274 13.0046 51.5828 12.7157 51.948 12.5231C52.3132 12.3239 52.7415 12.2243 53.2329 12.2243C53.7044 12.2243 54.1261 12.3239 54.498 12.5231C54.8699 12.7157 55.182 13.0046 55.4343 13.3897C55.6867 13.7749 55.8792 14.253 56.0121 14.8241C56.1449 15.3885 56.2113 16.0393 56.2113 16.7764Z" fill="#040036"/>
</svg>
