<svg width="216" height="34" viewBox="0 0 216 34" fill="none" xmlns="http://www.w3.org/2000/svg">
<path fill-rule="evenodd" clip-rule="evenodd" d="M19.1063 0C15.0272 0 11.7023 3.34151 11.7023 7.44021C11.7023 8.0688 11.7813 8.67921 11.9284 9.26286L7.69679 11.3358C6.90755 10.398 5.73026 9.7987 4.42221 9.7987C2.06569 9.7987 0.132812 11.7422 0.132812 14.11C0.132816 16.4779 2.06569 18.4201 4.42221 18.4201C6.77872 18.4201 8.71294 16.4779 8.71295 14.11C8.71295 13.8389 8.68624 13.5738 8.63782 13.3162L12.7746 11.2898C14.0749 13.4396 16.4279 14.8804 19.1063 14.8804C20.0341 14.8804 20.9221 14.7059 21.7417 14.3905L24.6534 20.5862C22.8509 21.9424 21.6833 24.1131 21.6833 26.5595C21.6833 30.6688 24.9776 34 29.0414 34C33.1051 34 36.3995 30.6688 36.3995 26.5595C36.3995 22.4503 33.1051 19.119 29.0414 19.119C28.1778 19.119 27.349 19.2695 26.5792 19.5458L23.6479 13.3081C25.3879 11.9447 26.511 9.82097 26.511 7.44021C26.511 3.34151 23.1855 0 19.1063 0ZM19.1063 1.73038C22.2549 1.73038 24.789 4.27658 24.789 7.44021C24.789 10.6038 22.2549 13.1501 19.1063 13.1501C15.9578 13.1501 13.4248 10.6038 13.4248 7.44021C13.4248 4.27658 15.9578 1.73038 19.1063 1.73038ZM29.0414 32.2684C32.1594 32.2684 34.687 29.7124 34.687 26.5595C34.687 23.4066 32.1594 20.8507 29.0414 20.8507C25.9234 20.8507 23.3957 23.4066 23.3957 26.5595C23.3957 29.7124 25.9234 32.2684 29.0414 32.2684Z" fill="#040036"/>
<path d="M208.565 16.3182L205.726 9.86354H202.2L206.922 19.1272V24.3667H210.219V19.1272L214.93 9.86354H211.424L208.565 16.3182Z" fill="#040036"/>
<path d="M197.06 12.3837V24.3667H193.822V12.3837H189.499V9.86354H201.472V12.3837H197.06Z" fill="#040036"/>
<path d="M187.815 24.3667V9.86354H184.578V24.3667H187.815Z" fill="#040036"/>
<path d="M174.537 24.3667H178.013L182.984 9.86354H179.368L176.28 20.6609L173.202 9.86354H169.596L174.537 24.3667Z" fill="#040036"/>
<path d="M169.018 24.3667V21.8565H162.404V18.1311H168.022V15.7007H162.404V12.3837H169.028V9.86354H159.156V24.3667H169.018Z" fill="#040036"/>
<path d="M156.765 16.7067V22.5538C156.526 22.826 156.161 23.1182 155.669 23.4303C155.185 23.7424 154.564 24.0114 153.807 24.2372C153.05 24.4563 152.146 24.5659 151.097 24.5659C150.148 24.5659 149.284 24.4132 148.507 24.1077C147.73 23.7956 147.063 23.3407 146.505 22.743C145.947 22.1387 145.516 21.4016 145.21 20.5317C144.911 19.6618 144.762 18.6657 144.762 17.5434V16.6868C144.762 15.5645 144.911 14.5684 145.21 13.6985C145.509 12.8286 145.931 12.0948 146.475 11.4971C147.02 10.8928 147.667 10.4346 148.418 10.1225C149.168 9.81042 149.998 9.65436 150.908 9.65436C152.203 9.65436 153.262 9.86354 154.086 10.2819C154.909 10.6936 155.533 11.2647 155.958 11.9952C156.39 12.7257 156.655 13.5657 156.755 14.5153H153.627C153.561 14.0305 153.428 13.6122 153.229 13.2602C153.036 12.9083 152.761 12.6393 152.402 12.4534C152.044 12.2608 151.579 12.1645 151.008 12.1645C150.549 12.1645 150.134 12.2608 149.762 12.4534C149.397 12.6393 149.088 12.9215 148.836 13.3001C148.584 13.6786 148.391 14.1501 148.258 14.7145C148.126 15.2723 148.059 15.9231 148.059 16.6669V17.5434C148.059 18.2872 148.126 18.9413 148.258 19.5057C148.398 20.0702 148.6 20.5417 148.866 20.9202C149.132 21.2921 149.467 21.5743 149.872 21.7669C150.284 21.9594 150.762 22.0557 151.306 22.0557C151.731 22.0557 152.09 22.0225 152.382 21.9561C152.674 21.8831 152.913 21.7934 153.099 21.6872C153.285 21.5743 153.425 21.4714 153.518 21.3784V18.9678H150.938V16.7067H156.765Z" fill="#040036"/>
<path d="M142.51 24.3667V9.86354H139.283V19.2368L133.794 9.86354H130.547V24.3667H133.794V14.9934L139.273 24.3667H142.51Z" fill="#040036"/>
<path fill-rule="evenodd" clip-rule="evenodd" d="M128.385 16.7964V17.4438C128.385 18.5462 128.232 19.5356 127.927 20.4122C127.628 21.2887 127.2 22.0358 126.642 22.6534C126.091 23.271 125.433 23.7458 124.67 24.0778C123.913 24.4032 123.072 24.5659 122.149 24.5659C121.226 24.5659 120.383 24.4032 119.619 24.0778C118.856 23.7458 118.192 23.271 117.627 22.6534C117.069 22.0358 116.638 21.2887 116.332 20.4122C116.027 19.5356 115.874 18.5462 115.874 17.4438V16.7964C115.874 15.694 116.027 14.7046 116.332 13.828C116.638 12.9448 117.066 12.1944 117.617 11.5768C118.175 10.9592 118.836 10.4878 119.599 10.1624C120.363 9.83034 121.206 9.66432 122.129 9.66432C123.053 9.66432 123.896 9.83034 124.66 10.1624C125.423 10.4878 126.081 10.9592 126.632 11.5768C127.19 12.1944 127.621 12.9448 127.927 13.828C128.232 14.7046 128.385 15.694 128.385 16.7964ZM125.108 17.4438V16.7764C125.108 16.0393 125.041 15.3885 124.909 14.8241C124.776 14.253 124.583 13.7749 124.331 13.3897C124.079 13.0046 123.766 12.7157 123.395 12.5231C123.023 12.3239 122.601 12.2243 122.129 12.2243C121.638 12.2243 121.21 12.3239 120.845 12.5231C120.479 12.7157 120.171 13.0046 119.918 13.3897C119.672 13.7749 119.483 14.253 119.35 14.8241C119.224 15.3885 119.161 16.0393 119.161 16.7764V17.4438C119.161 18.1743 119.224 18.8251 119.35 19.3962C119.483 19.9606 119.676 20.4387 119.928 20.8305C120.18 21.2223 120.489 21.5178 120.854 21.7171C121.226 21.9163 121.658 22.0159 122.149 22.0159C122.621 22.0159 123.039 21.9163 123.404 21.7171C123.776 21.5178 124.088 21.2223 124.341 20.8305C124.593 20.4387 124.782 19.9606 124.909 19.3962C125.041 18.8251 125.108 18.1743 125.108 17.4438Z" fill="#040036"/>
<path d="M115.186 24.3667V21.8565H108.97V9.86354H105.723V24.3667H115.186Z" fill="#040036"/>
<path d="M97.9025 9.86354V24.3667H94.6652L89.1867 14.9934V24.3667H85.9394V9.86354H89.1867L94.6752 19.2368V9.86354H97.9025Z" fill="#040036"/>
<path d="M84.1757 24.3667V21.8565H77.5616V18.1311H83.1796V15.7007H77.5616V12.3837H84.1856V9.86354H74.3144V24.3667H84.1757Z" fill="#040036"/>
<path fill-rule="evenodd" clip-rule="evenodd" d="M66.6338 19.3264H64.1635V24.3667H60.9162V9.86354H66.6338C67.7893 9.86354 68.7787 10.0727 69.6022 10.4911C70.4322 10.9094 71.0664 11.4839 71.5047 12.2143C71.9496 12.9382 72.1721 13.7682 72.1721 14.7046C72.1721 15.6409 71.9496 16.4544 71.5047 17.145C71.0664 17.8356 70.4322 18.3735 69.6022 18.7587C68.7787 19.1372 67.7893 19.3264 66.6338 19.3264ZM64.1635 12.3837V16.8063H66.6338C67.1717 16.8063 67.6033 16.7167 67.9287 16.5374C68.2608 16.3581 68.5031 16.1124 68.6559 15.8003C68.8152 15.4815 68.8949 15.1229 68.8949 14.7245C68.8949 14.3128 68.8152 13.9309 68.6559 13.579C68.5031 13.2204 68.2608 12.9315 67.9287 12.7124C67.6033 12.4932 67.1717 12.3837 66.6338 12.3837H64.1635Z" fill="#040036"/>
<path fill-rule="evenodd" clip-rule="evenodd" d="M58.754 17.4438V16.7964C58.754 15.694 58.6013 14.7046 58.2958 13.828C57.9904 12.9448 57.5587 12.1944 57.0009 11.5768C56.4497 10.9592 55.7923 10.4878 55.0286 10.1624C54.265 9.83034 53.4216 9.66432 52.4986 9.66432C51.5755 9.66432 50.7322 9.83034 49.9685 10.1624C49.2048 10.4878 48.5441 10.9592 47.9863 11.5768C47.4351 12.1944 47.0068 12.9448 46.7013 13.828C46.3958 14.7046 46.2431 15.694 46.2431 16.7964V17.4438C46.2431 18.5462 46.3958 19.5356 46.7013 20.4122C47.0068 21.2887 47.4384 22.0358 47.9962 22.6534C48.5607 23.271 49.2247 23.7458 49.9884 24.0778C50.7521 24.4032 51.5954 24.5659 52.5185 24.5659C53.4415 24.5659 54.2816 24.4032 55.0386 24.0778C55.8023 23.7458 56.4597 23.271 57.0109 22.6534C57.5687 22.0358 57.997 21.2887 58.2958 20.4122C58.6013 19.5356 58.754 18.5462 58.754 17.4438ZM55.4769 16.7764V17.4438C55.4769 18.1743 55.4105 18.8251 55.2777 19.3962C55.1515 19.9606 54.9622 20.4387 54.7099 20.8305C54.4576 21.2223 54.1454 21.5178 53.7736 21.7171C53.4083 21.9163 52.99 22.0159 52.5185 22.0159C52.0271 22.0159 51.5954 21.9163 51.2236 21.7171C50.8583 21.5178 50.5495 21.2223 50.2972 20.8305C50.0449 20.4387 49.8523 19.9606 49.7195 19.3962C49.5933 18.8251 49.5302 18.1743 49.5302 17.4438V16.7764C49.5302 16.0393 49.5933 15.3885 49.7195 14.8241C49.8523 14.253 50.0415 13.7749 50.2872 13.3897C50.5396 13.0046 50.8484 12.7157 51.2136 12.5231C51.5788 12.3239 52.0072 12.2243 52.4986 12.2243C52.9701 12.2243 53.3917 12.3239 53.7636 12.5231C54.1355 12.7157 54.4476 13.0046 54.6999 13.3897C54.9523 13.7749 55.1449 14.253 55.2777 14.8241C55.4105 15.3885 55.4769 16.0393 55.4769 16.7764Z" fill="#040036"/>
</svg>
