<svg id="eq5mzBw2Stc1" xmlns="http://www.w3.org/2000/svg" xmlns:xlink="http://www.w3.org/1999/xlink" viewBox="0 0 64 64" shape-rendering="geometricPrecision" text-rendering="geometricPrecision"><path d="M45.6221,14.6098c.379-.695,1.3768-.695,1.7558,0l4.3465,7.9698c.1439.2638.3986.4489.6939.5041l8.9229,1.671c.778.1457,1.0864,1.0947.5426,1.6699l-6.2366,6.5966c-.2064.2183-.3037.5178-.2651.8157l1.1682,9.0025c.1018.785-.7054,1.3715-1.4205,1.0321l-8.201-3.8929c-.2713-.1289-.5863-.1289-.8576,0l-8.201,3.8929c-.7151.3394-1.5224-.2471-1.4205-1.0321l1.1682-9.0025c.0386-.2979-.0587-.5974-.2651-.8157l-6.2366-6.5966c-.5438-.5752-.2354-1.5242.5426-1.6699l8.9229-1.671c.2953-.0552.55-.2403.6939-.5041l4.3465-7.9698Z" transform="matrix(1.3 0 0 1.3-28.45-5.960096)" fill="#040036" stroke="#040036" stroke-width="4"/><path id="eq5mzBw2Stc3" d="M45.6221,14.6098c.379-.695,1.3768-.695,1.7558,0l4.3465,7.9698c.1439.2638.3986.4489.6939.5041l8.9229,1.671c.778.1457,1.0864,1.0947.5426,1.6699l-6.2366,6.5966c-.2064.2183-.3037.5178-.2651.8157l1.1682,9.0025c.1018.785-.7054,1.3715-1.4205,1.0321l-8.201-3.8929c-.2713-.1289-.5863-.1289-.8576,0l-8.201,3.8929c-.7151.3394-1.5224-.2471-1.4205-1.0321l1.1682-9.0025c.0386-.2979-.0587-.5974-.2651-.8157l-6.2366-6.5966c-.5438-.5752-.2354-1.5242.5426-1.6699l8.9229-1.671c.2953-.0552.55-.2403.6939-.5041l4.3465-7.9698Z" transform="matrix(0 0 0 0 32 32.000001)" fill="#040036" stroke="#040036" stroke-width="4"/><line id="eq5mzBw2Stc4" x1="4.96996" y1="4.96996" x2="-4.96996" y2="-4.96996" transform="matrix(-1 0 0 1 55.274592 9.569545)" fill="none" stroke="#040036" stroke-linecap="round" stroke-dashoffset="14.06" stroke-dasharray="14.06"/><line id="eq5mzBw2Stc5" x1="4.96996" y1="4.96996" x2="-4.96996" y2="-4.96996" transform="translate(8.725408 9.569545)" fill="none" stroke="#040036" stroke-linecap="round" stroke-dashoffset="14.06" stroke-dasharray="14.06"/><line id="eq5mzBw2Stc6" x1="-3.216147" y1="-2.967223" x2="-3.216146" y2="2.20398" transform="translate(35.216147 59.79602)" fill="none" stroke="#040036" stroke-linecap="round" stroke-dashoffset="5.18" stroke-dasharray="5.18"/><line id="eq5mzBw2Stc7" x1="2.906134" y1="1.476231" x2="-3.216146" y2="4.20398" transform="translate(4.96996 41.124846)" fill="none" stroke="#040036" stroke-linecap="round" stroke-dashoffset="14.06" stroke-dasharray="14.06"/><line id="eq5mzBw2Stc8" x1="2.906134" y1="1.476231" x2="-3.216146" y2="4.20398" transform="matrix(-1 0 0 1 59.369848 41.124846)" fill="none" stroke="#040036" stroke-linecap="round" stroke-dashoffset="14.06" stroke-dasharray="14.06"/><ellipse id="eq5mzBw2Stc9" rx="1" ry="1" transform="matrix(0 0 0 0 14.299934 25.031471)" fill="#040036" stroke-width="0"/><ellipse id="eq5mzBw2Stc10" rx="1" ry="1" transform="matrix(0 0 0 0 12.481621 35.546491)" fill="#040036" stroke-width="0"/><ellipse id="eq5mzBw2Stc11" rx="1" ry="1" transform="matrix(0 0 0 0 48.814954 38.546491)" fill="#040036" stroke-width="0"/><ellipse id="eq5mzBw2Stc12" rx="1" ry="1" transform="matrix(0 0 0 0 38.814954 15.546491)" fill="#040036" stroke-width="0"/><ellipse id="eq5mzBw2Stc13" rx="2" ry="2" transform="matrix(0 0 0 0 24.092655 19.276772)" fill="#040036" stroke-width="0"/><ellipse id="eq5mzBw2Stc14" rx="2" ry="2" transform="matrix(0 0 0 0 50.607675 23.791792)" fill="#040036" stroke-width="0"/><ellipse id="eq5mzBw2Stc15" rx="2" ry="2" transform="matrix(0 0 0 0 49.092655 48.276772)" fill="#040036" stroke-width="0"/><ellipse id="eq5mzBw2Stc16" rx="2" ry="2" transform="matrix(0 0 0 0 15.092655 50.276772)" fill="#040036" stroke-width="0"/>
</svg>
