<svg id="e0cAIOHx1y91" xmlns="http://www.w3.org/2000/svg" xmlns:xlink="http://www.w3.org/1999/xlink" viewBox="0 0 64 64" shape-rendering="geometricPrecision" text-rendering="geometricPrecision"><g id="e0cAIOHx1y92" transform="matrix(.5 0 0 0.5 16 15.999999)"><g id="e0cAIOHx1y93" transform="matrix(-1 0 0-1 31.999999 22.599814)"><path d="M46.0735,38.7147C39.1902,37.3534,34,31.2828,34,24c0-8.2843,6.7157-15,15-15s15,6.7157,15,15c0,20.1948-12.4861,27.6131-20.198,30-.5216.1614-1.0506.3229-1.5279.4675-1.0926.331-2.2769.0297-3.0842-.7776-.9967-.9967-1.2212-2.5563-.3844-3.6906.1281-.1736.2586-.3426.3882-.4993c2.3307-2.8189,4.9774-6.5503,6.8798-10.7853Z" fill="#040036"/><path d="M12.0735,38.7147C5.19022,37.3534,0,31.2828,0,24C0,15.7157,6.71573,9,15,9s15,6.7157,15,15C30,44.1948,17.5139,51.6131,9.80196,54c-.52159.1614-1.05058.3229-1.52781.4675-1.09264.331-2.2769.0297-3.0842-.7776-.99672-.9967-1.22125-2.5563-.38445-3.6906.12806-.1736.25862-.3426.3882-.4993c2.33066-2.8189,4.9774-6.5503,6.8798-10.7853Z" fill="#040036"/></g><g id="e0cAIOHx1y96" transform="translate(32 41.400189)"><path d="M46.0735,38.7147C39.1902,37.3534,34,31.2828,34,24c0-8.2843,6.7157-15,15-15s15,6.7157,15,15c0,20.1948-12.4861,27.6131-20.198,30-.5216.1614-1.0506.3229-1.5279.4675-1.0926.331-2.2769.0297-3.0842-.7776-.9967-.9967-1.2212-2.5563-.3844-3.6906.1281-.1736.2586-.3426.3882-.4993c2.3307-2.8189,4.9774-6.5503,6.8798-10.7853Z" fill="#040036"/><path d="M12.0735,38.7147C5.19022,37.3534,0,31.2828,0,24C0,15.7157,6.71573,9,15,9s15,6.7157,15,15C30,44.1948,17.5139,51.6131,9.80196,54c-.52159.1614-1.05058.3229-1.52781.4675-1.09264.331-2.2769.0297-3.0842-.7776-.99672-.9967-1.22125-2.5563-.38445-3.6906.12806-.1736.25862-.3426.3882-.4993c2.33066-2.8189,4.9774-6.5503,6.8798-10.7853Z" fill="#040036"/></g></g><path id="e0cAIOHx1y99" d="M39.5,15.299906h18v18" transform="translate(.5 0.700094)" fill="none" stroke="#040036" stroke-width="4" stroke-linecap="round" stroke-linejoin="round"/><path id="e0cAIOHx1y910" d="M39.5,15.299906c0,0,18,0,18,0v18" transform="matrix(-1 0 0-1 63.5 63.299906)" fill="none" stroke="#040036" stroke-width="4" stroke-linecap="round" stroke-linejoin="round"/>
</svg>
