<svg id="eTBIl5uJkFQ1" xmlns="http://www.w3.org/2000/svg" xmlns:xlink="http://www.w3.org/1999/xlink" viewBox="0 0 64 64" shape-rendering="geometricPrecision" text-rendering="geometricPrecision"><g transform="translate(.000046 0)" mask="url(#eTBIl5uJkFQ6)"><line x1="0" y1="9.691951" x2="0" y2="-10.240992" transform="matrix(-1.000001 0 0 1.204037 32.000048 22.330532)" fill="none" stroke="#040036" stroke-width="4"/><ellipse rx="30" ry="30" transform="matrix(.994458 0.105134-.105134 0.994458 32 32)" fill="none" stroke="#040036" stroke-width="4" stroke-dasharray="14,8"/><ellipse id="eTBIl5uJkFQ5" rx="30" ry="30" transform="matrix(0-1 1 0 32.000048 31.999963)" fill="none" stroke="#040036" stroke-width="4" stroke-dashoffset="188.5" stroke-dasharray="188.5"/><mask id="eTBIl5uJkFQ6" mask-type="alpha" x="-150%" y="-150%" height="400%" width="400%"><path d="M0,32C0,14.32689,14.32689,0,32,0s32,14.32689,32,32c0,2.05785-.19425,4.07032-.5654,6.0201C60.13813,34.32594,55.34069,32,50,32c-9.94113,0-18,8.05887-18,18c0,5.34069,2.32594,10.13813,6.0201,13.4346C36.07033,63.80576,34.05785,64,32,64C14.32689,64,0,49.67311,0,32Z" fill="#fbf9f9" stroke-width="0"/></mask></g><line id="eTBIl5uJkFQ8" x1="0" y1="13.014127" x2="0" y2="-10.240992" transform="matrix(1.000001 0 0 0.602018 32 24.165271)" fill="none" stroke="#040036" stroke-width="4"/><path d="M14,28c7.732,0,14-6.268,14-14s-6.268-14-14-14-14,6.26801-14,14s6.26801,14,14,14Zm1.5563-7.1488v2.1488h-2.947v-2.1712C10.7219,20.4237,9.12141,19.1863,9,17.0037h2.1634c.1103,1.1813.905,2.1038,2.9249,2.1038c2.1634,0,2.649-1.1025,2.649-1.7888c0-.9337-.4856-1.8112-2.947-2.4074-2.7373-.6751-4.6137-1.8225-4.6137-4.1288c0-1.935,1.5342-3.195,3.4327-3.61125v-2.17125h2.947v2.19375c2.053.50625,3.0795,2.0925,3.1457,3.81375h-2.1634c-.0552-1.24875-.7064-2.10375-2.4503-2.10375-1.6556,0-2.649.765-2.649,1.84495c0,.9451.7174,1.5638,2.947,2.1488s4.6137,1.5638,4.6137,4.3987c-.011,2.0588-1.5232,3.1838-3.4437,3.555Z" transform="translate(36 36)" clip-rule="evenodd" fill="#040036" fill-rule="evenodd"/>
</svg>
