<svg id="eZfxmKE0FC21" xmlns="http://www.w3.org/2000/svg" xmlns:xlink="http://www.w3.org/1999/xlink" viewBox="0 0 64 64" shape-rendering="geometricPrecision" text-rendering="geometricPrecision"><ellipse rx="30" ry="30" transform="translate(32 32)" fill="none" stroke="#040036" stroke-width="4"/><g transform="matrix(.992686-.120725 0.120725 0.992686-3.630659 4.072492)" mask="url(#eZfxmKE0FC221)"><g id="eZfxmKE0FC24" transform="translate(64 0)"><g transform="translate(-75.404266 5.485176)"><path d="M50.25,18h-.4258c-.4552,0-.8242.369-.8242.8243c0,.3929.2773.7312.6626.8082l.85.17c.6168.1234,1.2546-.0697,1.6994-.5145l.9676-.9676c.2051-.2052.4834-.3204.7735-.3204.3443,0,.6685.1621.875.4375l.8965,1.1953c.1595.2126.4482.2808.6859.1619.307-.1534.4-.5474.1941-.8219l-.7105-.9473c-.2261-.3015-.1962-.7235.0704-.99.2957-.2957.7752-.2957,1.071,0l.9038.9038c.5858.5858,1.5356.5858,2.1213,0l.2323-.2322c.1326-.1326.2071-.3125.2071-.5c0-.3905.3166-.7071.7071-.7071h1.2929c.3147,0,.6111.1482.8.4.4944.6592.024,1.6-.8,1.6h-.5063c-.3084,0-.5965.1542-.7676.4108-.3539.5308-.075,1.252.5439,1.4067l.1131.0283c.3767.0942.6654.3969.7416.7777l.2562,1.2811c.0786.3931.2335.767.4559,1.1006l.4641.6962c.1324.1985.2438.4103.3324.6318l.119.2976C64.7039,26.2597,65.7973,27,67.0132,27L68,27c.3147,0,.6111-.1482.8-.4l.4286-.5714C69.5464,25.6048,69.244,25,68.7143,25c-.1391,0-.2745-.0451-.3857-.1286L66.74,23.68c-.1511-.1133-.24-.2911-.24-.48c0-.4944.5644-.7767.96-.48l.7543.5657c.1854.1391.411.2143.6428.2143h.9529c.7759,0,1.5345.2297,2.1801.6601l1.0718.7145c.5861.3907.9381,1.0485.9381,1.7528v.2513c0,.3978.158.7793.4393,1.0606l.4967.4967c.7617.7617,2.064.2222,2.064-.8549c0-.3673.1669-.7147.4538-.9441l.2857-.2286c.9316-.7453,2.3066-.4982,2.9204.5249l.0477.0795c.1913.3188.2924.6836.2924,1.0554v2.464c0,.2825.172.5366.4343.6415l.5357.2143c.4667.1867.8947-.3409.6159-.7591-.056-.084-.0859-.1828-.0859-.2839v-1.0715c0-.3554.374-.5865.6918-.4276.1841.092.4063.056.5518-.0895l.6847-.6847c.2957-.2958.247-.7882-.101-1.0202-.3936-.2624-.3936-.8406,0-1.103l.4208-.2806c.1642-.1095.3572-.1679.5547-.1679h.5418c.7398,0,1.4493-.2939,1.9724-.817l.6527-.6527c.3395-.3395.5303-.8001.5303-1.2803s-.1908-.9408-.5303-1.2803l-.3368-.3368c-.378-.378-.4717-.9554-.2326-1.4335.3235-.647,1.1293-.8816,1.7496-.5095l.2101.1261c.5851.351,1.3446.07,1.5604-.5772.0523-.157.1405-.2997.2576-.4168l1.0856-1.0856c.6408-.6408,1.7364-.187,1.7364.7192c0,.3401-.17.6577-.4529.8464l-.8602.5734c-.1218.0812-.216.1973-.2703.3331-.2682.6706.504,1.2768,1.0917.857l1.0331-.7379c.2878-.2056.4586-.5375.4586-.8912v-3.4009c0-.663-.2634-1.2989-.7322-1.7677l-.3536-.3536c-.7811-.781-.7811-2.0474,0-2.8284.3751-.3751.8838-.5858,1.4142-.5858h.9216c.7869,0,1.5278-.37049,2-1l.5223-.6964c.1433-.19112.3683-.3036.6072-.3036.6435,0,.9955.75054.5835,1.2449l-1.0913,1.309c-.236.2832-.3369.6552-.2762,1.0189l.0872.5234c.1328.7969,1.1103,1.1103,1.6823.5391.089-.0894.161-.195.21-.3111l1.168-2.72423c.156-.36397.514-.59997.91-.59997.225,0,.443-.0765.618-.21692l1.917-1.53316c.197-.15797.312-.39712.312-.64998c0-.35828.229-.67636.569-.78966l.356-.11846c.953-.31784,1.239-1.52805.528-2.23879l-.392-.39181c-.355-.35561-.851-.53489-1.351-.48936l-3.017.27421c-1.107.10062-2.22-.10938-3.2137-.60642l-.4812-.24061c-1.2673-.63361-2.7492-.67716-4.0514-.11906-.94.40286-1.9839.49606-2.9804.2661l-3.9231-.90534c-.6278-.14487-1.2797.11399-1.6371.65007-.2571.38567-.6734.63592-1.1346.68204L81,3h-2.75C77.5596,3,77,2.44036,77,1.75s-.5597-1.25-1.25-1.25h-1.1575c-.6943,0-1.3547.29969-1.8119.82216l-1.09,1.24573c-1.0572,1.20818-2.6451,1.8128-4.2381,1.61367l-.8479-.10599c-.3942-.04927-.7942.01924-1.1496.19691-.8487.42435-1.8785.19816-2.4713-.54279l-.238-.29755C62.2744,2.84297,61.5608,2.5,60.8063,2.5L59,2.5c-.9443,0-1.8335.44458-2.4,1.2l-.1987.26492C56.1408,4.31224,56,4.73469,56,5.16885c0,.53218-.2114,1.04255-.5877,1.41886l-.882.88196C54.1908,7.80923,54,8.26978,54,8.75v.18934c0,.35898.1426.70327.3964.95711.5825.58245,1.5458.51395,2.04-.14498l.2272-.30294C56.8819,9.15738,57,8.80327,57,8.43934v-.82131c0-.37877.214-.72503.5528-.89442C58.2177,6.39116,59,6.87465,59,7.61803v2.23689c0,.72378-.329,1.40828-.8942,1.86038l-.6174.494c-.6398.5118-1.4348.7907-2.2542.7907-1.0961,0-2.1328.4983-2.8176,1.3542l-.5111.6388c-.2625.3282-.4055.736-.4055,1.1562v.6008c0,.6904-.5597,1.25-1.25,1.25Z" fill="#040036"/><path d="M14.1495,20.7754c.8326,1.4343,3.3188,4.4109,7.9081,6.9817.2888.1617.6156.2429.9466.2429h.6674c.5304,0,1.0391.2107,1.4142.5858l2.0606,2.0606c.1953.1953.1953.5119,0,.7072-.0937.0937-.1464.2209-.1464.3535v1.9645c0,.5304.2107,1.0391.5858,1.4142l2.3284,2.3284c.3751.3751.5858.8838.5858,1.4142v3.3432c0,.5304-.2107,1.0391-.5858,1.4142l-.3284.3284c-.3751.3751-.5858.8838-.5858,1.4142v4.8432c0,.5304.2107,1.0391.5858,1.4142l.9953.9953c.2314.2314.6064.2314.8377,0l.0342-.0342c.2691-.269.1955-.7226-.1448-.8928-.1889-.0944-.3082-.2875-.3082-.4987v-.6622c0-.3216.0952-.636.2736-.9036l.3905-.5858c.219-.3285.3359-.7145.3359-1.1094v-1.0279c0-.5529.2288-1.081.6321-1.4591l6.7358-6.3148c.4033-.3781.6321-.9062.6321-1.4591v-1.0279c0-.3949.1169-.7809.3359-1.1094l.271-.4065c.248-.3721.3104-.8378.169-1.262-.1698-.5092-.6071-.8829-1.1365-.9711l-1.349-.2249c-.5073-.0845-.9626-.3613-1.2712-.7728l-.527-.7026c-.3099-.4131-.7962-.6563-1.3126-.6563-.4351,0-.8525-.1729-1.1602-.4806l-.4336-.4336C33.2107,29.2107,32.702,29,32.1716,29h-1.6854c-.317,0-.627.0938-.8908.2697-.6369.4246-1.4851.3407-2.0264-.2006l-2.0512-2.0513c-.3316-.3316-.7812-.5178-1.25-.5178h-.1032c-.9193,0-1.6646-.7453-1.6646-1.6647c0-.7802.5419-1.4557,1.3035-1.625l2.5362-.5636c.4283-.0951.8134-.3285,1.096-.6641l6.2178-7.3836c.7338-.8714.5926-2.1789-.3104-2.8735L30.5895,9.60732c-.9863-.75872-2.4271-.25707-2.7289.95018-.3493,1.3973-2.1549,1.7785-3.0392.6415l-.4911-.6315c-.5016-.64488-.5605-1.52997-.1489-2.23564l1.0641-1.82412C26.0232,5.17443,25.0615,3.5,23.5179,3.5h-6.865c-.1018,0-.2035-.00777-.3041-.02326L9.99998,2.5L4.81452,1.30335c-.79444-.18333-1.62063.13393-2.08818.80186L0.765803,4.90597c-.46362.66232-.482899,1.53862-.048858,2.22068L2.60964,10.1009c.51635.8114,1.53713,1.1404,2.43011.7832l2.23577-.89431c.74283-.29714,1.59127-.12299,2.15699.44271L12.537,13.537c.3008.3008.4979.6897.5625,1.1101l.8528,5.543c.0316.2054.0929.4057.1972.5853Z" fill="#040036"/><path d="M56.8284,22.5h4.5777c.5382,0,.9181.5272.748,1.0377l-.0202.0607c-.0821.2461-.018.5175.1654.701.1285.1284.2007.3027.2007.4843v.755c0,.6076.2762,1.1822.7506,1.5618l1.2424.9939c.3282.2626.736.4056,1.1562.4056h1.1239c.4015,0,.7269.3254.7269.7269c0,.1761-.0639.3461-.1799.4786l-2.8253,3.229c-.319.3645-.4948.8325-.4948,1.317v1.4201c0,.5304-.2107,1.0391-.5858,1.4142l-.3284.3284c-.3751.3751-.5858.8838-.5858,1.4142v1.2348c0,.5936-.2637,1.1565-.7196,1.5365l-1.5588,1.299c-.4563.3802-1.0602.5336-1.6427.4171l-.1467-.0294C57.5994,43.1199,57,42.3887,57,41.5394c0-.3517-.1041-.6956-.2992-.9882l-.4147-.622c-.1877-.2815-.3009-.6061-.329-.9433L55.5,33.5v-.6716c0-.5304-.2107-1.0391-.5858-1.4142l-.3284-.3284c-.3751-.3751-.8838-.5858-1.4142-.5858h-3.7104c-.6075,0-1.1822-.2762-1.5617-.7506l-.9613-1.2016c-.2837-.3546-.4382-.7952-.4382-1.2494v-1.97c0-.5304.2107-1.0391.5858-1.4142l2.3839-2.3839C49.8092,21.1908,50.2698,21,50.75,21h.3964c.2264,0,.4435-.0899.6036-.25s.3772-.25.6035-.25h.8181c.5304,0,1.0391.2107,1.4142.5858l.8284.8284c.3751.3751.8838.5858,1.4142.5858Z" fill="#040036"/><path d="M65.8662,36.6338l-.4487.4487c-.2608.2608-.3741.6348-.3017.9965l.2246,1.1228c.0804.402.521.6175.8876.4342.1716-.0858.294-.246.3316-.4342l.3969-1.9844c.0282-.1409.0086-.2872-.0556-.4157-.1972-.3944-.7229-.4797-1.0347-.1679Z" fill="#040036"/><path d="M85.7837,41.1488l.3902-1.1704c.1947-.5843.7415-.9784,1.3574-.9784.585,0,1.1112-.3562,1.3285-.8994l.1075-.2688c.3138-.7846,1.1175-1.2587,1.956-1.1539l2.1158.2645c.2908.0363.5821-.0636.7893-.2708.3709-.3709.9723-.3709,1.3431,0l2.2072,2.2071c.7179.7179,1.1213,1.6917,1.1213,2.7071v.4142c0,.9443-.4446,1.8334-1.2,2.4l-.2649.1987c-.3474.2605-.7698.4013-1.204.4013-.5321,0-1.0425-.2114-1.4188-.5877L94,44c-.6403-.6403-1.5087-1-2.4142-1h-.8787c-.4528,0-.887.1799-1.2071.5-.3202.3201-.7544.5-1.2071.5h-.4541c-.8205,0-1.5706-.4636-1.9375-1.1975-.257-.5138-.2992-1.1087-.1176-1.6537Z" fill="#040036"/><path d="M105.235,44.2348l.179.1794c.324.3235.324.8481,0,1.1716l-2.123,2.1231c-.174.1739-.439.2169-.659.107-.325-.1626-.418-.5836-.191-.8675l1.4-1.7503c.103-.1282.159-.2876.159-.4518c0-.6444.779-.9672,1.235-.5115Z" fill="#040036"/><path d="M86.8964,30.6036l-.7236.7236c-.1107.1106-.2607.1728-.4172.1728-.3838,0-.6654.3607-.5723.7331l.1275.5102c.1112.4447.5108.7567.9692.7567.43,0,.8117-.2751.9477-.6831l.2061-.6182c.0438-.1316.0662-.2694.0662-.4081v-.937c0-.1953-.1583-.3536-.3536-.3536-.0937,0-.1837.0372-.25.1036Z" fill="#040036"/></g><g transform="translate(35.045734 5.485176)"><path d="M50.25,18h-.4258c-.4552,0-.8242.369-.8242.8243c0,.3929.2773.7312.6626.8082l.85.17c.6168.1234,1.2546-.0697,1.6994-.5145l.9676-.9676c.2051-.2052.4834-.3204.7735-.3204.3443,0,.6685.1621.875.4375l.8965,1.1953c.1595.2126.4482.2808.6859.1619.307-.1534.4-.5474.1941-.8219l-.7105-.9473c-.2261-.3015-.1962-.7235.0704-.99.2957-.2957.7752-.2957,1.071,0l.9038.9038c.5858.5858,1.5356.5858,2.1213,0l.2323-.2322c.1326-.1326.2071-.3125.2071-.5c0-.3905.3166-.7071.7071-.7071h1.2929c.3147,0,.6111.1482.8.4.4944.6592.024,1.6-.8,1.6h-.5063c-.3084,0-.5965.1542-.7676.4108-.3539.5308-.075,1.252.5439,1.4067l.1131.0283c.3767.0942.6654.3969.7416.7777l.2562,1.2811c.0786.3931.2335.767.4559,1.1006l.4641.6962c.1324.1985.2438.4103.3324.6318l.119.2976C64.7039,26.2597,65.7973,27,67.0132,27L68,27c.3147,0,.6111-.1482.8-.4l.4286-.5714C69.5464,25.6048,69.244,25,68.7143,25c-.1391,0-.2745-.0451-.3857-.1286L66.74,23.68c-.1511-.1133-.24-.2911-.24-.48c0-.4944.5644-.7767.96-.48l.7543.5657c.1854.1391.411.2143.6428.2143h.9529c.7759,0,1.5345.2297,2.1801.6601l1.0718.7145c.5861.3907.9381,1.0485.9381,1.7528v.2513c0,.3978.158.7793.4393,1.0606l.4967.4967c.7617.7617,2.064.2222,2.064-.8549c0-.3673.1669-.7147.4538-.9441l.2857-.2286c.9316-.7453,2.3066-.4982,2.9204.5249l.0477.0795c.1913.3188.2924.6836.2924,1.0554v2.464c0,.2825.172.5366.4343.6415l.5357.2143c.4667.1867.8947-.3409.6159-.7591-.056-.084-.0859-.1828-.0859-.2839v-1.0715c0-.3554.374-.5865.6918-.4276.1841.092.4063.056.5518-.0895l.6847-.6847c.2957-.2958.247-.7882-.101-1.0202-.3936-.2624-.3936-.8406,0-1.103l.4208-.2806c.1642-.1095.3572-.1679.5547-.1679h.5418c.7398,0,1.4493-.2939,1.9724-.817l.6527-.6527c.3395-.3395.5303-.8001.5303-1.2803s-.1908-.9408-.5303-1.2803l-.3368-.3368c-.378-.378-.4717-.9554-.2326-1.4335.3235-.647,1.1293-.8816,1.7496-.5095l.2101.1261c.5851.351,1.3446.07,1.5604-.5772.0523-.157.1405-.2997.2576-.4168l1.0856-1.0856c.6408-.6408,1.7364-.187,1.7364.7192c0,.3401-.17.6577-.4529.8464l-.8602.5734c-.1218.0812-.216.1973-.2703.3331-.2682.6706.504,1.2768,1.0917.857l1.0331-.7379c.2878-.2056.4586-.5375.4586-.8912v-3.4009c0-.663-.2634-1.2989-.7322-1.7677l-.3536-.3536c-.7811-.781-.7811-2.0474,0-2.8284.3751-.3751.8838-.5858,1.4142-.5858h.9216c.7869,0,1.5278-.37049,2-1l.5223-.6964c.1433-.19112.3683-.3036.6072-.3036.6435,0,.9955.75054.5835,1.2449l-1.0913,1.309c-.236.2832-.3369.6552-.2762,1.0189l.0872.5234c.1328.7969,1.1103,1.1103,1.6823.5391.089-.0894.161-.195.21-.3111l1.168-2.72423c.156-.36397.514-.59997.91-.59997.225,0,.443-.0765.618-.21692l1.917-1.53316c.197-.15797.312-.39712.312-.64998c0-.35828.229-.67636.569-.78966l.356-.11846c.953-.31784,1.239-1.52805.528-2.23879l-.392-.39181c-.355-.35561-.851-.53489-1.351-.48936l-3.017.27421c-1.107.10062-2.22-.10938-3.2137-.60642l-.4812-.24061c-1.2673-.63361-2.7492-.67716-4.0514-.11906-.94.40286-1.9839.49606-2.9804.2661l-3.9231-.90534c-.6278-.14487-1.2797.11399-1.6371.65007-.2571.38567-.6734.63592-1.1346.68204L81,3h-2.75C77.5596,3,77,2.44036,77,1.75s-.5597-1.25-1.25-1.25h-1.1575c-.6943,0-1.3547.29969-1.8119.82216l-1.09,1.24573c-1.0572,1.20818-2.6451,1.8128-4.2381,1.61367l-.8479-.10599c-.3942-.04927-.7942.01924-1.1496.19691-.8487.42435-1.8785.19816-2.4713-.54279l-.238-.29755C62.2744,2.84297,61.5608,2.5,60.8063,2.5L59,2.5c-.9443,0-1.8335.44458-2.4,1.2l-.1987.26492C56.1408,4.31224,56,4.73469,56,5.16885c0,.53218-.2114,1.04255-.5877,1.41886l-.882.88196C54.1908,7.80923,54,8.26978,54,8.75v.18934c0,.35898.1426.70327.3964.95711.5825.58245,1.5458.51395,2.04-.14498l.2272-.30294C56.8819,9.15738,57,8.80327,57,8.43934v-.82131c0-.37877.214-.72503.5528-.89442C58.2177,6.39116,59,6.87465,59,7.61803v2.23689c0,.72378-.329,1.40828-.8942,1.86038l-.6174.494c-.6398.5118-1.4348.7907-2.2542.7907-1.0961,0-2.1328.4983-2.8176,1.3542l-.5111.6388c-.2625.3282-.4055.736-.4055,1.1562v.6008c0,.6904-.5597,1.25-1.25,1.25Z" fill="#040036"/><path d="M14.1495,20.7754c.8326,1.4343,3.3188,4.4109,7.9081,6.9817.2888.1617.6156.2429.9466.2429h.6674c.5304,0,1.0391.2107,1.4142.5858l2.0606,2.0606c.1953.1953.1953.5119,0,.7072-.0937.0937-.1464.2209-.1464.3535v1.9645c0,.5304.2107,1.0391.5858,1.4142l2.3284,2.3284c.3751.3751.5858.8838.5858,1.4142v3.3432c0,.5304-.2107,1.0391-.5858,1.4142l-.3284.3284c-.3751.3751-.5858.8838-.5858,1.4142v4.8432c0,.5304.2107,1.0391.5858,1.4142l.9953.9953c.2314.2314.6064.2314.8377,0l.0342-.0342c.2691-.269.1955-.7226-.1448-.8928-.1889-.0944-.3082-.2875-.3082-.4987v-.6622c0-.3216.0952-.636.2736-.9036l.3905-.5858c.219-.3285.3359-.7145.3359-1.1094v-1.0279c0-.5529.2288-1.081.6321-1.4591l6.7358-6.3148c.4033-.3781.6321-.9062.6321-1.4591v-1.0279c0-.3949.1169-.7809.3359-1.1094l.271-.4065c.248-.3721.3104-.8378.169-1.262-.1698-.5092-.6071-.8829-1.1365-.9711l-1.349-.2249c-.5073-.0845-.9626-.3613-1.2712-.7728l-.527-.7026c-.3099-.4131-.7962-.6563-1.3126-.6563-.4351,0-.8525-.1729-1.1602-.4806l-.4336-.4336C33.2107,29.2107,32.702,29,32.1716,29h-1.6854c-.317,0-.627.0938-.8908.2697-.6369.4246-1.4851.3407-2.0264-.2006l-2.0512-2.0513c-.3316-.3316-.7812-.5178-1.25-.5178h-.1032c-.9193,0-1.6646-.7453-1.6646-1.6647c0-.7802.5419-1.4557,1.3035-1.625l2.5362-.5636c.4283-.0951.8134-.3285,1.096-.6641l6.2178-7.3836c.7338-.8714.5926-2.1789-.3104-2.8735L30.5895,9.60732c-.9863-.75872-2.4271-.25707-2.7289.95018-.3493,1.3973-2.1549,1.7785-3.0392.6415l-.4911-.6315c-.5016-.64488-.5605-1.52997-.1489-2.23564l1.0641-1.82412C26.0232,5.17443,25.0615,3.5,23.5179,3.5h-6.865c-.1018,0-.2035-.00777-.3041-.02326L9.99998,2.5L4.81452,1.30335c-.79444-.18333-1.62063.13393-2.08818.80186L0.765803,4.90597c-.46362.66232-.482899,1.53862-.048858,2.22068L2.60964,10.1009c.51635.8114,1.53713,1.1404,2.43011.7832l2.23577-.89431c.74283-.29714,1.59127-.12299,2.15699.44271L12.537,13.537c.3008.3008.4979.6897.5625,1.1101l.8528,5.543c.0316.2054.0929.4057.1972.5853Z" fill="#040036"/><path d="M56.8284,22.5h4.5777c.5382,0,.9181.5272.748,1.0377l-.0202.0607c-.0821.2461-.018.5175.1654.701.1285.1284.2007.3027.2007.4843v.755c0,.6076.2762,1.1822.7506,1.5618l1.2424.9939c.3282.2626.736.4056,1.1562.4056h1.1239c.4015,0,.7269.3254.7269.7269c0,.1761-.0639.3461-.1799.4786l-2.8253,3.229c-.319.3645-.4948.8325-.4948,1.317v1.4201c0,.5304-.2107,1.0391-.5858,1.4142l-.3284.3284c-.3751.3751-.5858.8838-.5858,1.4142v1.2348c0,.5936-.2637,1.1565-.7196,1.5365l-1.5588,1.299c-.4563.3802-1.0602.5336-1.6427.4171l-.1467-.0294C57.5994,43.1199,57,42.3887,57,41.5394c0-.3517-.1041-.6956-.2992-.9882l-.4147-.622c-.1877-.2815-.3009-.6061-.329-.9433L55.5,33.5v-.6716c0-.5304-.2107-1.0391-.5858-1.4142l-.3284-.3284c-.3751-.3751-.8838-.5858-1.4142-.5858h-3.7104c-.6075,0-1.1822-.2762-1.5617-.7506l-.9613-1.2016c-.2837-.3546-.4382-.7952-.4382-1.2494v-1.97c0-.5304.2107-1.0391.5858-1.4142l2.3839-2.3839C49.8092,21.1908,50.2698,21,50.75,21h.3964c.2264,0,.4435-.0899.6036-.25s.3772-.25.6035-.25h.8181c.5304,0,1.0391.2107,1.4142.5858l.8284.8284c.3751.3751.8838.5858,1.4142.5858Z" fill="#040036"/><path d="M65.8662,36.6338l-.4487.4487c-.2608.2608-.3741.6348-.3017.9965l.2246,1.1228c.0804.402.521.6175.8876.4342.1716-.0858.294-.246.3316-.4342l.3969-1.9844c.0282-.1409.0086-.2872-.0556-.4157-.1972-.3944-.7229-.4797-1.0347-.1679Z" fill="#040036"/><path d="M85.7837,41.1488l.3902-1.1704c.1947-.5843.7415-.9784,1.3574-.9784.585,0,1.1112-.3562,1.3285-.8994l.1075-.2688c.3138-.7846,1.1175-1.2587,1.956-1.1539l2.1158.2645c.2908.0363.5821-.0636.7893-.2708.3709-.3709.9723-.3709,1.3431,0l2.2072,2.2071c.7179.7179,1.1213,1.6917,1.1213,2.7071v.4142c0,.9443-.4446,1.8334-1.2,2.4l-.2649.1987c-.3474.2605-.7698.4013-1.204.4013-.5321,0-1.0425-.2114-1.4188-.5877L94,44c-.6403-.6403-1.5087-1-2.4142-1h-.8787c-.4528,0-.887.1799-1.2071.5-.3202.3201-.7544.5-1.2071.5h-.4541c-.8205,0-1.5706-.4636-1.9375-1.1975-.257-.5138-.2992-1.1087-.1176-1.6537Z" fill="#040036"/><path d="M105.235,44.2348l.179.1794c.324.3235.324.8481,0,1.1716l-2.123,2.1231c-.174.1739-.439.2169-.659.107-.325-.1626-.418-.5836-.191-.8675l1.4-1.7503c.103-.1282.159-.2876.159-.4518c0-.6444.779-.9672,1.235-.5115Z" fill="#040036"/><path d="M86.8964,30.6036l-.7236.7236c-.1107.1106-.2607.1728-.4172.1728-.3838,0-.6654.3607-.5723.7331l.1275.5102c.1112.4447.5108.7567.9692.7567.43,0,.8117-.2751.9477-.6831l.2061-.6182c.0438-.1316.0662-.2694.0662-.4081v-.937c0-.1953-.1583-.3536-.3536-.3536-.0937,0-.1837.0372-.25.1036Z" fill="#040036"/></g></g><mask id="eZfxmKE0FC221" mask-type="alpha" x="-150%" y="-150%" height="400%" width="400%"><ellipse rx="29" ry="29" transform="translate(32 32)" fill="#d2dbed" stroke-width="0"/></mask></g>
</svg>
