<svg id="eSiVAa5EFQg1" xmlns="http://www.w3.org/2000/svg" xmlns:xlink="http://www.w3.org/1999/xlink" viewBox="0 0 64 64" shape-rendering="geometricPrecision" text-rendering="geometricPrecision"><g mask="url(#eSiVAa5EFQg4)"><rect id="eSiVAa5EFQg3" width="44" height="44" rx="3" ry="3" transform="translate(2 2)" fill="none" stroke="#040036" stroke-width="4"/><mask id="eSiVAa5EFQg4" mask-type="alpha" x="-150%" y="-150%" height="400%" width="400%"><path d="M0,48L0,0h48v31.88838L43.6679,28.7366c-4.9047-3.5684-11.7173.3649-11.0793,6.3967L33.94944,48L0,48Z" fill="#d2dbed" stroke-width="0"/></mask></g><path id="eSiVAa5EFQg6" d="M31.5664,32.7126c-.2734-2.5851,2.6462-4.2708,4.7483-2.7415L57.3505,45.2756c2.0868,1.5182,1.4099,4.7881-1.1082,5.3531l-8.9711,2.0128c-.5957.1337-1.1364.4459-1.5499.8949l-6.2288,6.7628c-1.7483,1.8982-4.9185.8495-5.19-1.7169L31.5664,32.7126Z" transform="translate(5 2)" fill="#040036"/><path id="eSiVAa5EFQg7" d="M5,18.074692h8.4718c0,0,1.3959,0,1.3959,0h12.1323" transform="translate(8 5.925308)" fill="none" stroke="#040036" stroke-width="4" stroke-linecap="round"/><ellipse id="eSiVAa5EFQg8" rx="1.506743" ry="1.506743" transform="translate(40.548698 36)" fill="none" stroke="#040036"/>
</svg>
