<svg id="eAtf5SMvdw31" xmlns="http://www.w3.org/2000/svg" xmlns:xlink="http://www.w3.org/1999/xlink" viewBox="0 0 64 64" shape-rendering="geometricPrecision" text-rendering="geometricPrecision"><g mask="url(#eAtf5SMvdw324)"><g id="eAtf5SMvdw33" transform="matrix(.9 0 0 0.9 4.399992 2)"><g id="eAtf5SMvdw34" transform="matrix(.66468 0.66468-.707107 0.707107 35.533902-6.301127)"><g transform="matrix(.707107-.707107 0.707107 0.707107-19.101226 29.581822)"><path d="M32.0169,52.1276c1.0169-.4264,11.8095-5.0179,19.3216-11.7084l.8529,4.3619c.4265,2.1646-.2624,4.3948-1.8042,5.9362L37.1015,64L32.0169,52.1276Z" fill="#040036"/><path d="M11.8751,31.9904c.4265-1.0167,5.019-11.8068,11.7111-19.3173l-4.363-.8527c-2.165-.4263-4.3957.2624-5.9375,1.8038L0,26.9069l11.8751,5.0835Z" fill="#040036"/></g></g><path d="M30.0814,47.6016c0,0,12.2688-5.0834,19.3217-12.1347C67.1173,17.7566,64.165,3.91641,63.2136,0.800717c-3.1164-.983902-16.9597-3.902807-34.674,13.807383-7.0529,7.0513-12.1375,19.3173-12.1375,19.3173L30.0814,47.6016Zm6.0032-26.2373c0-3.6077,2.9524-6.5594,6.5608-6.5594s6.5609,2.9517,6.5609,6.5594-2.9524,6.5593-6.5609,6.5593-6.5608-2.9517-6.5608-6.5593Z" fill="#040036"/><line id="eAtf5SMvdw39" x1="13.338675" y1="-13.338659" x2="-0.394223" y2="0.394222" transform="translate(11.250312 63.686988)" fill="none" stroke="#040036" stroke-width="4" stroke-linecap="round" stroke-dashoffset="19.43" stroke-dasharray="19.43"/><line id="eAtf5SMvdw310" x1="13.338675" y1="-13.338659" x2="-0.394223" y2="0.394222" transform="translate(.740364 53.177041)" fill="none" stroke="#040036" stroke-width="4" stroke-linecap="round" stroke-dashoffset="19.43" stroke-dasharray="19.43"/><line id="eAtf5SMvdw311" x1="13.338675" y1="-13.338659" x2="-3.860566" y2="3.860568" transform="translate(7.879343 60.114535)" fill="none" stroke="#040036" stroke-width="4" stroke-linecap="round" stroke-dashoffset="24.33" stroke-dasharray="24.33"/><line id="eAtf5SMvdw312" x1="13.338675" y1="-13.338659" x2="-3.860566" y2="3.860568" transform="translate(4.34185 56.577041)" fill="none" stroke="#040036" stroke-width="4" stroke-linecap="round" stroke-dashoffset="24.33" stroke-dasharray="24.33"/><line id="eAtf5SMvdw313" x1="13.338675" y1="-13.338659" x2="5.267271" y2="-5.267271" transform="translate(13.92553 67.987822)" fill="none" stroke="#040036" stroke-width="4" stroke-linecap="round" stroke-dashoffset="11.42" stroke-dasharray="11.42"/><line id="eAtf5SMvdw314" x1="13.338675" y1="-13.338659" x2="5.267271" y2="-5.267271" transform="translate(-3.608138 50.454154)" fill="none" stroke="#040036" stroke-width="4" stroke-linecap="round" stroke-dashoffset="11.42" stroke-dasharray="11.42"/></g><line id="eAtf5SMvdw316" x1="13.338675" y1="-13.338659" x2="1.013898" y2="-1.013898" transform="translate(4.823207 17.47847)" fill="none" stroke="#040036" stroke-width="4" stroke-linecap="round" stroke-dashoffset="17.43" stroke-dasharray="17.43"/><line id="eAtf5SMvdw317" x1="20.291571" y1="-20.291549" x2="-8.22024" y2="8.220247" transform="translate(1.169669 15.456889)" fill="none" stroke="#040036" stroke-width="4" stroke-linecap="round" stroke-dashoffset="40.33" stroke-dasharray="40.33"/><line id="eAtf5SMvdw318" x1="13.338675" y1="-13.338659" x2="1.013898" y2="-1.013898" transform="translate(-5.619499 16.945023)" fill="none" stroke="#040036" stroke-width="4" stroke-linecap="round" stroke-dashoffset="17.43" stroke-dasharray="17.43"/><line id="eAtf5SMvdw319" x1="13.338675" y1="-13.338659" x2="1.013898" y2="-1.013898" transform="translate(24.823714 11.316089)" fill="none" stroke="#040036" stroke-width="4" stroke-linecap="round" stroke-dashoffset="17.43" stroke-dasharray="17.43"/><line id="eAtf5SMvdw320" x1="13.338675" y1="-13.338659" x2="-5.071994" y2="5.071994" transform="translate(52.347063 55.603245)" fill="none" stroke="#040036" stroke-width="4" stroke-linecap="round" stroke-dashoffset="26.04" stroke-dasharray="26.04"/><line id="eAtf5SMvdw321" x1="13.338675" y1="-13.338659" x2="1.013898" y2="-1.013898" transform="translate(56.823714 65.107732)" fill="none" stroke="#040036" stroke-width="4" stroke-linecap="round" stroke-dashoffset="17.43" stroke-dasharray="17.43"/><line id="eAtf5SMvdw322" x1="13.338675" y1="-13.338659" x2="1.013898" y2="-1.013898" transform="translate(56.823714 37.015795)" fill="none" stroke="#040036" stroke-width="4" stroke-linecap="round" stroke-dashoffset="17.43" stroke-dasharray="17.43"/><line id="eAtf5SMvdw323" x1="13.338675" y1="-13.338659" x2="1.013898" y2="-1.013898" transform="translate(38.73296 69.133333)" fill="none" stroke="#040036" stroke-width="4" stroke-linecap="round" stroke-dashoffset="17.43" stroke-dasharray="17.43"/><mask id="eAtf5SMvdw324" mask-type="alpha" x="-150%" y="-150%" height="400%" width="400%"><rect width="64.000001" height="64" rx="0" ry="0" fill="#d2dbed" stroke-width="0"/></mask></g>
</svg>
