<svg width="245" height="174" viewBox="0 0 245 174" fill="none" xmlns="http://www.w3.org/2000/svg">
    <g clip-path="url(#clip0_5129_20937)">
        <rect x="10.9429" y="93.6287" width="101.086" height="80.3714" rx="6.62857" fill="#040036" stroke="#040036" stroke-width="0.414286"/>
        <path d="M10.9429 102.328H112.029V167.371C112.029 171.032 109.061 174 105.4 174H17.5714C13.9106 174 10.9429 171.032 10.9429 167.371V102.328Z" fill="#040036" stroke="#040036" stroke-width="0.414286"/>
        <path d="M97.1145 156.6C96.6569 156.6 96.286 156.97 96.286 157.428V158.257H99.0479L97.9431 159.914H96.286L96.286 165.438H94.6288L94.6288 159.914H92.9717V158.257H94.6288V157.428C94.6288 156.055 95.7417 154.942 97.1145 154.942H97.6669C98.2719 154.942 98.8283 155.16 99.2592 155.519L98.1972 156.791C98.0532 156.671 97.8695 156.6 97.6669 156.6H97.1145Z" fill="#040036"/>
        <path fill-rule="evenodd" clip-rule="evenodd" d="M104.019 158.257H105.676V165.438H104.019V164.873C103.461 165.23 102.798 165.438 102.086 165.438C100.103 165.438 98.4955 163.83 98.4955 161.847C98.4955 159.864 100.103 158.257 102.086 158.257C102.798 158.257 103.461 158.464 104.019 158.821V158.257ZM104.019 161.847C104.019 162.915 103.154 163.78 102.086 163.78C101.018 163.78 100.153 162.915 100.153 161.847C100.153 160.779 101.018 159.914 102.086 159.914C103.154 159.914 104.019 160.779 104.019 161.847Z" fill="#040036"/>
        <circle cx="17.5714" cy="98.1857" r="2.07143" fill="white"/>
        <circle cx="25.0285" cy="98.1857" r="2.07143" fill="white"/>
        <circle cx="32.486" cy="98.1857" r="2.07143" fill="white"/>
        <path d="M22.6528 114.269C22.671 114.282 22.6889 114.296 22.7066 114.311C23.0917 114.626 23.4759 114.976 23.8575 115.357C25.2118 114.825 54.3306 103.381 74.0314 94.1651C76.4481 93.0345 78.5783 91.3697 79.5456 88.8831C81.2703 84.4492 82.9483 77.4605 83.7638 73.8412C84.098 72.3579 85.0604 71.051 86.5275 70.6515C87.6568 70.3439 88.9839 70.1712 89.94 70.6307L90.0706 70.7044C90.3642 69.0957 90.6799 67.2958 91.0192 65.2819C91.3289 63.444 92.9799 62.1157 94.8395 62.2411C96.961 62.3842 98.5002 64.312 98.1481 66.409C98.0158 67.1969 97.868 68.0699 97.7094 68.9946L98.2898 65.9271C98.7181 63.6316 100.797 62.02 103.127 62.1771C105.664 62.3482 107.582 64.5439 107.411 67.0814L107.359 67.8604L107.343 68.0942C107.815 67.9735 108.314 67.9248 108.825 67.9592C111.18 68.118 113.072 69.9988 113.026 72.3588C112.975 75.0173 112.675 77.5615 112.337 80.2401C114.611 80.4673 116.435 82.3027 116.429 84.6015C116.336 117.549 80.4288 126.721 34.8501 145.601L34.2254 145.85C31.9782 158.446 23.7893 126.012 21.5446 115.486C21.3694 114.664 21.9786 113.768 22.6528 114.269Z" fill="#040036"/>
        <path d="M86.5402 84.1038C86.5402 84.1038 87.363 85.5385 90.0706 70.7044M94.3938 84.6333C94.9246 84.6691 96.5873 75.5362 97.7094 68.9946M101.89 84.3083C102.4 84.3427 103.018 78.6128 103.878 71.996C104.129 70.0602 105.544 68.5542 107.343 68.0942M105.136 91.586C105.633 91.6195 106.281 89.3989 107.125 84.2868C107.529 81.8365 109.706 80.0602 112.184 80.2273C112.235 80.2308 112.286 80.235 112.337 80.2401M23.8575 115.357C25.2118 114.825 54.3306 103.381 74.0314 94.1651C76.4481 93.0345 78.5783 91.3697 79.5456 88.8831C81.2703 84.4492 82.9483 77.4605 83.7638 73.8412C84.098 72.3579 85.0604 71.051 86.5275 70.6515C87.6568 70.3439 88.9839 70.1712 89.94 70.6307L90.0706 70.7044M23.8575 115.357C23.4759 114.976 23.0917 114.626 22.7066 114.311C22.6889 114.296 22.671 114.282 22.6528 114.269C21.9786 113.768 21.3694 114.664 21.5446 115.486C23.7893 126.012 31.9782 158.446 34.2254 145.85M23.8575 115.357C29.3654 120.855 34.3499 132.969 34.2254 145.85M34.2254 145.85L34.8501 145.601C80.4288 126.721 116.336 117.549 116.429 84.6015C116.435 82.3027 114.611 80.4673 112.337 80.2401M112.337 80.2401C112.675 77.5615 112.975 75.0173 113.026 72.3588C113.072 69.9988 111.18 68.118 108.825 67.9592C108.314 67.9248 107.815 67.9735 107.343 68.0942M107.343 68.0942L107.359 67.8604L107.411 67.0814C107.582 64.5439 105.664 62.3482 103.127 62.1771C100.797 62.02 98.7181 63.6316 98.2898 65.9271L97.7094 68.9946M97.7094 68.9946C97.868 68.0699 98.0158 67.1969 98.1481 66.409C98.5002 64.312 96.961 62.3842 94.8395 62.2411C92.9799 62.1157 91.3289 63.444 91.0192 65.2819C90.6799 67.2958 90.3642 69.0957 90.0706 70.7044" stroke="#040036" stroke-width="0.414286" stroke-linecap="round"/>
    </g>
    <g clip-path="url(#clip1_5129_20937)">
        <rect x="25.8574" y="60.0713" width="100.671" height="80.3714" rx="6.62857" fill="#040036"/>
        <rect x="25.8574" y="60.0714" width="100.671" height="80.3714" rx="6.62857" fill="#040036" stroke="#040036" stroke-width="0.414286"/>
        <path d="M25.8574 68.7714H126.529V133.814C126.529 137.475 123.561 140.443 119.9 140.443H32.486C28.8251 140.443 25.8574 137.475 25.8574 133.814V68.7714Z" fill="#040036" stroke="#040036" stroke-width="0.414286"/>
        <g clip-path="url(#clip2_5129_20937)">
            <rect x="15.9146" y="118.9" width="101.086" height="80.3714" rx="6.62857" fill="#040036" stroke="#040036" stroke-width="0.414286"/>
            <path d="M15.9146 127.6H117V192.642C117 196.303 114.033 199.271 110.372 199.271H22.5431C18.8823 199.271 15.9146 196.303 15.9146 192.642V127.6Z" fill="#040036" stroke="#040036" stroke-width="0.414286"/>
            <circle cx="30.0001" cy="123.457" r="2.07143" fill="white"/>
            <circle cx="37.4572" cy="123.457" r="2.07143" fill="white"/>
            <path d="M27.6245 139.54C27.6427 139.554 27.6606 139.568 27.6782 139.582C28.0634 139.898 28.4476 140.247 28.8292 140.628C30.1835 140.097 59.3022 128.653 79.0031 119.437C81.4198 118.306 83.55 116.641 84.5173 114.155C86.242 109.721 87.92 102.732 88.7355 99.1127C89.0697 97.6293 90.0321 96.3224 91.4991 95.9229C92.6285 95.6153 93.9556 95.4427 94.9117 95.9021L95.0422 95.9758C95.3359 94.3671 95.6516 92.5672 95.9909 90.5534C96.3006 88.7154 97.9516 87.3872 99.8111 87.5126C101.933 87.6556 103.472 89.5834 103.12 91.6804C102.988 92.4683 102.84 93.3413 102.681 94.266L103.262 91.1985C103.69 88.903 105.768 87.2914 108.098 87.4485C110.636 87.6196 112.554 89.8154 112.383 92.3529L112.33 93.1318L112.315 93.3656C112.787 93.2449 113.286 93.1962 113.797 93.2307C116.152 93.3895 118.043 95.2702 117.998 97.6302C117.947 100.289 117.647 102.833 117.309 105.512C119.583 105.739 121.407 107.574 121.401 109.873C121.308 142.82 85.4004 151.993 39.8218 170.873L39.1971 171.122C36.9499 183.718 28.761 151.283 26.5163 140.757C26.3411 139.936 26.9502 139.039 27.6245 139.54Z" fill="#040036"/>
            <path d="M91.5119 109.375C91.5119 109.375 92.3346 110.81 95.0422 95.9758M99.3655 109.905C99.8963 109.941 101.559 100.808 102.681 94.266M106.861 109.58C107.372 109.614 107.99 103.884 108.849 97.2674C109.101 95.3316 110.515 93.8256 112.315 93.3656M110.108 116.857C110.604 116.891 111.253 114.67 112.097 109.558C112.501 107.108 114.678 105.332 117.156 105.499C117.207 105.502 117.258 105.506 117.309 105.512M28.8292 140.628C30.1835 140.097 59.3022 128.653 79.0031 119.437C81.4198 118.306 83.55 116.641 84.5173 114.155C86.242 109.721 87.92 102.732 88.7355 99.1127C89.0697 97.6293 90.0321 96.3224 91.4991 95.9229C92.6285 95.6153 93.9556 95.4427 94.9117 95.9021L95.0422 95.9758M28.8292 140.628C28.4476 140.247 28.0634 139.898 27.6782 139.582C27.6606 139.568 27.6427 139.554 27.6245 139.54C26.9502 139.039 26.3411 139.936 26.5163 140.757C28.761 151.283 36.9499 183.718 39.1971 171.122M28.8292 140.628C34.337 146.126 39.3216 158.241 39.1971 171.122M39.1971 171.122L39.8218 170.873C85.4004 151.993 121.308 142.82 121.401 109.873C121.407 107.574 119.583 105.739 117.309 105.512M117.309 105.512C117.647 102.833 117.947 100.289 117.998 97.6302C118.043 95.2702 116.152 93.3895 113.797 93.2307C113.286 93.1962 112.787 93.2449 112.315 93.3656M112.315 93.3656L112.33 93.1318L112.383 92.3529C112.554 89.8154 110.636 87.6196 108.098 87.4485C105.768 87.2914 103.69 88.903 103.262 91.1985L102.681 94.266M102.681 94.266C102.84 93.3413 102.988 92.4683 103.12 91.6804C103.472 89.5834 101.933 87.6556 99.8111 87.5126C97.9516 87.3872 96.3006 88.7154 95.9909 90.5534C95.6516 92.5672 95.3358 94.3671 95.0422 95.9758" stroke="#040036" stroke-width="0.414286" stroke-linecap="round"/>
        </g>
        <path d="M109.669 62.4312C108.112 65.0923 106.064 68.7044 104.822 71.3369C104.822 71.3369 82.6561 110.239 65.2732 113.552L88.2765 132.096C110.823 130.542 136.873 82.4519 136.873 82.4519C138.17 80.6211 138.819 78.23 139.144 76.2608C139.536 73.8794 138.823 71.1162 136.466 70.5967C136.142 70.5254 135.791 70.4812 135.412 70.4747L135.279 70.4702C136.053 68.3163 136.488 66.5161 136.733 65.1707C137.036 63.5097 136.111 61.961 134.614 61.18L134.394 61.0655C132.709 60.186 130.643 60.5438 129.351 61.9389L129.286 62.013C129.334 61.7671 129.377 61.5322 129.415 61.309C129.693 59.657 128.76 58.1257 127.275 57.3508C125.448 56.3978 123.208 56.7921 121.942 58.4172C120.581 60.1636 118.886 62.5553 117.724 64.9515C117.973 63.2256 117.039 61.5896 115.491 60.7819C113.413 59.6981 110.853 60.4089 109.669 62.4312Z" fill="#040036"/>
        <path d="M113.621 76.8624C116.138 73.1955 117.249 68.1129 117.72 64.9732C117.722 64.966 117.723 64.9587 117.724 64.9515M121.023 77.4533C126.574 71.6295 128.569 65.6332 129.286 62.013M128.337 83.1385C131.927 78.284 134.038 73.9227 135.279 70.4702M135.279 70.4702C136.053 68.3163 136.488 66.5161 136.733 65.1707C137.036 63.5097 136.111 61.961 134.614 61.18L134.394 61.0655C132.709 60.186 130.643 60.5438 129.351 61.9389L129.286 62.013M135.279 70.4702L135.412 70.4747C135.791 70.4812 136.142 70.5254 136.466 70.5967C138.823 71.1162 139.536 73.8794 139.144 76.2608C138.819 78.23 138.17 80.6211 136.873 82.4519C136.873 82.4519 110.823 130.542 88.2765 132.096L65.2732 113.552C82.6561 110.239 104.822 71.3369 104.822 71.3369C106.064 68.7044 108.112 65.0923 109.669 62.4312C110.853 60.4089 113.413 59.6981 115.491 60.7819C117.039 61.5896 117.973 63.2256 117.724 64.9515M129.286 62.013C129.334 61.7671 129.377 61.5322 129.415 61.309C129.693 59.657 128.76 58.1257 127.275 57.3508C125.448 56.3978 123.208 56.7921 121.942 58.4172C120.581 60.1636 118.886 62.5553 117.724 64.9515" stroke="#040036" stroke-width="0.414286"/>
        <path d="M33.3147 73.7429C32.8571 73.7429 32.4862 74.1138 32.4862 74.5714V75.4H35.2481L34.1433 77.0572H32.4862L32.4862 82.581H30.829L30.829 77.0572H29.1719V75.4H30.829V74.5714C30.829 73.1986 31.9419 72.0857 33.3147 72.0857H33.8671C34.4721 72.0857 35.0285 72.3029 35.4594 72.6626L34.3974 73.9348C34.2534 73.8145 34.0697 73.7429 33.8671 73.7429H33.3147Z" fill="#040036"/>
        <path fill-rule="evenodd" clip-rule="evenodd" d="M40.2195 75.4H41.8766V82.581H40.2195V82.0165C39.6614 82.3738 38.998 82.581 38.2862 82.581C36.3032 82.581 34.6957 80.9734 34.6957 78.9905C34.6957 77.0075 36.3032 75.4 38.2862 75.4C38.998 75.4 39.6614 75.6072 40.2195 75.9644V75.4ZM40.2195 78.9905C40.2195 80.0582 39.3539 80.9238 38.2862 80.9238C37.2184 80.9238 36.3528 80.0582 36.3528 78.9905C36.3528 77.9227 37.2184 77.0572 38.2862 77.0572C39.3539 77.0572 40.2195 77.9227 40.2195 78.9905Z" fill="#040036"/>
        <circle cx="32.486" cy="64.629" r="2.07143" fill="white"/>
        <circle cx="39.943" cy="64.629" r="2.07143" fill="white"/>
        <circle cx="47.4005" cy="64.629" r="2.07143" fill="white"/>
    </g>
    <g clip-path="url(#clip3_5129_20937)">
        <rect x="15.9141" y="50.1289" width="100.671" height="80.3714" rx="6.62857" fill="#040036" stroke="#040036"/>
        <path d="M15.9141 58.8281H116.585V123.871C116.585 127.532 113.618 130.5 109.957 130.5H22.5426C18.8818 130.5 15.9141 127.532 15.9141 123.871V58.8281Z" fill="white" stroke="#040036"/>
        <g clip-path="url(#clip4_5129_20937)">
            <rect x="5.97168" y="108.957" width="101.086" height="80.3714" rx="6.62857" fill="#040036" stroke="#040036" stroke-width="0.414286"/>
            <path d="M5.97168 117.657H107.057V182.7C107.057 186.361 104.09 189.329 100.429 189.329H12.6002C8.93939 189.329 5.97168 186.361 5.97168 182.7V117.657Z" fill="#040036" stroke="#040036" stroke-width="0.414286"/>
            <circle cx="20.0578" cy="113.514" r="2.07143" fill="white"/>
            <circle cx="27.5148" cy="113.514" r="2.07143" fill="white"/>
            <path d="M17.6821 129.598C17.7003 129.611 17.7182 129.625 17.7359 129.64C18.121 129.955 18.5052 130.305 18.8868 130.685C20.2411 130.154 49.3598 118.71 69.0607 109.494C71.4774 108.364 73.6076 106.699 74.5749 104.212C76.2996 99.7781 77.9776 92.7895 78.7931 89.1702C79.1273 87.6869 80.0897 86.38 81.5568 85.9804C82.6861 85.6729 84.0132 85.5002 84.9693 85.9596L85.0999 86.0333C85.3935 84.4247 85.7092 82.6248 86.0485 80.6109C86.3582 78.773 88.0092 77.4447 89.8688 77.5701C91.9903 77.7132 93.5295 79.641 93.1774 81.7379C93.0451 82.5259 92.8973 83.3989 92.7387 84.3236L93.3191 81.2561C93.7474 78.9606 95.826 77.349 98.1558 77.5061C100.693 77.6772 102.612 79.8729 102.441 82.4104L102.388 83.1894L102.372 83.4232C102.844 83.3025 103.343 83.2538 103.854 83.2882C106.209 83.447 108.101 85.3278 108.055 87.6878C108.004 90.3462 107.705 92.8904 107.366 95.5691C109.641 95.7963 111.465 97.6316 111.458 99.9305C111.365 132.878 75.458 142.05 29.8794 160.93L29.2547 161.179C27.0075 173.775 18.8186 141.341 16.5739 130.815C16.3987 129.993 17.0079 129.097 17.6821 129.598Z" fill="#040036"/>
            <path d="M81.5695 99.4327C81.5695 99.4327 82.3923 100.867 85.0999 86.0333M89.4231 99.9623C89.9539 99.9981 91.6166 90.8652 92.7387 84.3236M96.9191 99.6373C97.4296 99.6717 98.0473 93.9418 98.9069 87.325C99.1584 85.3891 100.573 83.8832 102.372 83.4232M100.165 106.915C100.662 106.948 101.311 104.728 102.154 99.6158C102.559 97.1655 104.735 95.3892 107.213 95.5563C107.264 95.5597 107.316 95.564 107.366 95.5691M18.8868 130.686C20.2411 130.154 49.3598 118.71 69.0607 109.494C71.4774 108.364 73.6076 106.699 74.5749 104.212C76.2996 99.7781 77.9776 92.7895 78.7931 89.1702C79.1273 87.6869 80.0897 86.38 81.5568 85.9804C82.6861 85.6729 84.0132 85.5002 84.9693 85.9596L85.0999 86.0333M18.8868 130.686C18.5052 130.305 18.121 129.955 17.7359 129.64C17.7182 129.625 17.7003 129.611 17.6821 129.598C17.0079 129.097 16.3987 129.993 16.5739 130.815C18.8186 141.341 27.0075 173.775 29.2547 161.179M18.8868 130.686C24.3947 136.184 29.3792 148.298 29.2547 161.179M29.2547 161.179L29.8794 160.93C75.458 142.05 111.365 132.878 111.458 99.9305C111.465 97.6316 109.641 95.7963 107.366 95.5691M107.366 95.5691C107.705 92.8904 108.004 90.3462 108.055 87.6878C108.101 85.3278 106.209 83.447 103.854 83.2882C103.343 83.2538 102.844 83.3025 102.372 83.4232M102.372 83.4232L102.388 83.1894L102.441 82.4104C102.612 79.8729 100.693 77.6772 98.1558 77.5061C95.826 77.349 93.7474 78.9606 93.3191 81.2561L92.7387 84.3236M92.7387 84.3236C92.8973 83.3989 93.0451 82.5259 93.1774 81.7379C93.5295 79.641 91.9902 77.7132 89.8688 77.5701C88.0092 77.4447 86.3582 78.773 86.0485 80.6109C85.7092 82.6248 85.3935 84.4247 85.0999 86.0333" stroke="#040036" stroke-width="0.414286" stroke-linecap="round"/>
        </g>
        <path d="M99.7266 52.488C98.1696 55.1491 96.1214 58.7612 94.8792 61.3936C94.8792 61.3936 72.7132 100.295 55.3303 103.609L78.3336 122.153C100.88 120.599 126.93 72.5087 126.93 72.5087C128.227 70.6779 128.876 68.2868 129.201 66.3176C129.594 63.9362 128.88 61.173 126.523 60.6535C126.199 60.5822 125.848 60.538 125.469 60.5315L125.336 60.527C126.11 58.3731 126.545 56.5729 126.79 55.2274C127.093 53.5664 126.168 52.0178 124.671 51.2368L124.451 51.1223C122.766 50.2428 120.7 50.6006 119.408 51.9957L119.343 52.0698C119.391 51.8239 119.434 51.589 119.472 51.3658C119.75 49.7138 118.817 48.1825 117.332 47.4076C115.505 46.4546 113.265 46.8489 111.999 48.4739C110.638 50.2203 108.944 52.6121 107.781 55.0083C108.03 53.2824 107.096 51.6464 105.548 50.8387C103.471 49.7549 100.91 50.4657 99.7266 52.488Z" fill="#040036"/>
        <path d="M103.678 66.9192C106.195 63.2523 107.306 58.1697 107.778 55.03C107.779 55.0227 107.78 55.0155 107.781 55.0083M111.08 67.5101C116.631 61.6863 118.626 55.6899 119.343 52.0698M118.394 73.1953C121.984 68.3408 124.095 63.9795 125.336 60.527M125.336 60.527C126.11 58.3731 126.545 56.5729 126.79 55.2274C127.093 53.5665 126.168 52.0178 124.671 51.2368L124.451 51.1223C122.766 50.2428 120.7 50.6006 119.408 51.9957L119.343 52.0698M125.336 60.527L125.469 60.5315C125.848 60.538 126.199 60.5822 126.523 60.6535C128.88 61.173 129.594 63.9362 129.201 66.3176C128.876 68.2868 128.227 70.6779 126.93 72.5087C126.93 72.5087 100.88 120.599 78.3336 122.153L55.3303 103.609C72.7132 100.295 94.8792 61.3936 94.8792 61.3936C96.1214 58.7612 98.1696 55.1491 99.7266 52.488C100.91 50.4657 103.471 49.7549 105.548 50.8387C107.096 51.6464 108.03 53.2824 107.781 55.0083M119.343 52.0698C119.391 51.8239 119.434 51.589 119.472 51.3658C119.75 49.7138 118.817 48.1825 117.332 47.4076C115.505 46.4546 113.265 46.8489 111.999 48.4739C110.638 50.2203 108.944 52.6121 107.781 55.0083" stroke="#040036" stroke-width="0.414286"/>
        <path d="M23.3714 63.7997C22.9138 63.7997 22.5428 64.1707 22.5428 64.6283V65.4569H25.3047L24.1999 67.114H22.5428L22.5428 72.6378H20.8857L20.8857 67.114H19.2285V65.4569H20.8857V64.6283C20.8857 63.2555 21.9986 62.1426 23.3714 62.1426H23.9238C24.5287 62.1426 25.0851 62.3597 25.516 62.7195L24.4541 63.9916C24.31 63.8714 24.1263 63.7997 23.9238 63.7997H23.3714Z" fill="#040036"/>
        <path fill-rule="evenodd" clip-rule="evenodd" d="M30.2761 65.4569H31.9333V72.6378H30.2761V72.0734C29.7181 72.4307 29.0546 72.6378 28.3428 72.6378C26.3598 72.6378 24.7523 71.0303 24.7523 69.0473C24.7523 67.0644 26.3598 65.4569 28.3428 65.4569C29.0546 65.4569 29.7181 65.664 30.2761 66.0213V65.4569ZM30.2761 69.0473C30.2761 70.1151 29.4105 70.9807 28.3428 70.9807C27.2751 70.9807 26.4095 70.1151 26.4095 69.0473C26.4095 67.9796 27.2751 67.114 28.3428 67.114C29.4105 67.114 30.2761 67.9796 30.2761 69.0473Z" fill="#040036"/>
        <circle cx="22.5431" cy="54.6857" r="2.07143" fill="white"/>
        <circle cx="30.0001" cy="54.6857" r="2.07143" fill="white"/>
        <circle cx="37.4572" cy="54.6857" r="2.07143" fill="white"/>
    </g>
    <path d="M85.0713 33.3617C84.9218 36.4412 84.7768 40.5911 84.8931 43.4996C84.8931 43.4996 83.236 88.2424 69.3574 99.221L98.3296 105.021C117.6 93.2139 118.45 38.5282 118.45 38.5282C118.753 36.3051 118.223 33.8848 117.6 31.9888C116.846 29.6959 114.936 27.5762 112.606 28.2059C112.285 28.2924 111.954 28.4157 111.615 28.5853L111.494 28.6429C111.184 26.3752 110.738 24.5777 110.333 23.2715C109.833 21.6589 108.296 20.7139 106.608 20.7139H106.36C104.459 20.7139 102.793 21.9866 102.293 23.821L102.269 23.9171C102.199 23.6766 102.128 23.4485 102.058 23.2333C101.54 21.6399 100.005 20.7139 98.3296 20.7139C96.2694 20.7139 94.4657 22.0997 94.0948 24.1262C93.6961 26.304 93.3003 29.2082 93.3778 31.8706C92.8004 30.2251 91.2154 29.2067 89.4694 29.2067C87.1264 29.2067 85.1849 31.0214 85.0713 33.3617Z" fill="white"/>
    <path d="M95.2503 44.3282C95.7855 39.913 94.4195 34.8929 93.385 31.8912C93.3826 31.8843 93.3802 31.8774 93.3778 31.8706M102.086 41.4282C104.314 33.6971 103.308 27.4581 102.269 23.9171M111.2 43.0853C112.138 37.1207 111.991 32.2778 111.494 28.6429M111.494 28.6429C111.184 26.3752 110.738 24.5777 110.333 23.2715C109.833 21.6589 108.296 20.7139 106.608 20.7139H106.36C104.459 20.7139 102.793 21.9866 102.293 23.821L102.269 23.9171M111.494 28.6429L111.615 28.5853C111.954 28.4157 112.285 28.2924 112.606 28.2059C114.936 27.5762 116.846 29.6959 117.6 31.9888C118.223 33.8848 118.753 36.3051 118.45 38.5282C118.45 38.5282 117.6 93.2139 98.3296 105.021L69.3574 99.221C83.236 88.2424 84.8931 43.4996 84.8931 43.4996C84.7768 40.5911 84.9218 36.4412 85.0713 33.3617C85.1849 31.0214 87.1264 29.2067 89.4694 29.2067C91.2154 29.2067 92.8004 30.2251 93.3778 31.8706M102.269 23.9171C102.199 23.6766 102.128 23.4485 102.058 23.2333C101.54 21.6399 100.005 20.7139 98.3296 20.7139C96.2694 20.7139 94.4657 22.0997 94.0948 24.1262C93.6961 26.304 93.3003 29.2082 93.3778 31.8706" stroke="#040036"/>
    <g clip-path="url(#clip5_5129_20937)">
        <rect x="1" y="83.6855" width="101.086" height="80.3714" rx="6.62857" fill="#040036" stroke="#040036"/>
        <path d="M1 92.3857H102.086V157.429C102.086 161.089 99.118 164.057 95.4571 164.057H7.62857C3.96771 164.057 1 161.089 1 157.429V92.3857Z" fill="white" stroke="#040036"/>
        <path d="M87.1712 146.657C86.7136 146.657 86.3426 147.028 86.3426 147.486V148.314H89.1045L87.9997 149.971H86.3426L86.3426 155.495H84.6855L84.6855 149.971H83.0283V148.314H84.6855V147.486C84.6855 146.113 85.7984 145 87.1712 145H87.7236C88.3285 145 88.8849 145.217 89.3159 145.577L88.2539 146.849C88.1098 146.729 87.9262 146.657 87.7236 146.657H87.1712Z" fill="#040036"/>
        <path fill-rule="evenodd" clip-rule="evenodd" d="M94.0759 148.314H95.7331V155.495H94.0759V154.931C93.5179 155.288 92.8544 155.495 92.1426 155.495C90.1596 155.495 88.5521 153.888 88.5521 151.905C88.5521 149.922 90.1596 148.314 92.1426 148.314C92.8544 148.314 93.5179 148.521 94.0759 148.879V148.314ZM94.0759 151.905C94.0759 152.973 93.2103 153.838 92.1426 153.838C91.0749 153.838 90.2093 152.973 90.2093 151.905C90.2093 150.837 91.0749 149.971 92.1426 149.971C93.2103 149.971 94.0759 150.837 94.0759 151.905Z" fill="#040036"/>
        <circle cx="7.62856" cy="88.2433" r="2.07143" fill="white"/>
        <circle cx="15.0861" cy="88.2433" r="2.07143" fill="white"/>
        <circle cx="22.5431" cy="88.2433" r="2.07143" fill="white"/>
        <path d="M12.7105 104.326C12.7286 104.34 12.7465 104.354 12.7642 104.368C13.1493 104.684 13.5335 105.033 13.9152 105.414C15.2695 104.883 44.3882 93.4386 64.089 84.2226C66.5058 83.092 68.636 81.4272 69.6032 78.9406C71.3279 74.5067 73.0059 67.518 73.8214 63.8987C74.1556 62.4154 75.118 61.1085 76.5851 60.709C77.7144 60.4014 79.0416 60.2287 79.9976 60.6882L80.1282 60.7618C80.4218 59.1532 80.7376 57.3533 81.0769 55.3394C81.3865 53.5015 83.0375 52.1732 84.8971 52.2986C87.0186 52.4417 88.5578 54.3695 88.2057 56.4665C88.0734 57.2544 87.9256 58.1274 87.767 59.0521L88.3474 55.9846C88.7757 53.6891 90.8543 52.0775 93.1842 52.2346C95.7217 52.4057 97.64 54.6014 97.4689 57.1389L97.4164 57.9179L97.4006 58.1517C97.8728 58.031 98.3715 57.9823 98.8826 58.0167C101.238 58.1755 103.129 60.0563 103.084 62.4163C103.033 65.0748 102.733 67.619 102.395 70.2976C104.669 70.5248 106.493 72.3601 106.486 74.659C106.394 107.607 70.4864 116.779 24.9077 135.659L24.2831 135.908C22.0359 148.504 13.8469 116.069 11.6022 105.543C11.427 104.722 12.0362 103.825 12.7105 104.326Z" fill="#040036"/>
        <path d="M76.5978 74.1612C76.5978 74.1612 77.4206 75.596 80.1282 60.7618M84.4514 74.6908C84.9822 74.7266 86.6449 65.5937 87.767 59.0521M91.9474 74.3658C92.4579 74.4002 93.0756 68.6703 93.9352 62.0535C94.1867 60.1176 95.6013 58.6117 97.4006 58.1517M95.1937 81.6435C95.6903 81.677 96.339 79.4564 97.1825 74.3443C97.5869 71.894 99.7637 70.1177 102.241 70.2848C102.293 70.2883 102.344 70.2925 102.395 70.2976M13.9152 105.414C15.2695 104.883 44.3882 93.4386 64.089 84.2226C66.5058 83.092 68.6359 81.4272 69.6032 78.9406C71.3279 74.5067 73.0059 67.518 73.8214 63.8987C74.1556 62.4154 75.118 61.1085 76.5851 60.709C77.7144 60.4014 79.0416 60.2287 79.9976 60.6882L80.1282 60.7618M13.9152 105.414C13.5335 105.033 13.1493 104.684 12.7642 104.368C12.7465 104.354 12.7286 104.34 12.7105 104.326C12.0362 103.825 11.427 104.722 11.6022 105.543C13.8469 116.069 22.0359 148.504 24.2831 135.908M13.9152 105.414C19.423 110.912 24.4075 123.027 24.2831 135.908M24.2831 135.908L24.9077 135.659C70.4864 116.779 106.394 107.607 106.486 74.659C106.493 72.3601 104.669 70.5248 102.395 70.2976M102.395 70.2976C102.733 67.619 103.033 65.0748 103.084 62.4163C103.129 60.0563 101.238 58.1755 98.8826 58.0167C98.3715 57.9823 97.8728 58.031 97.4006 58.1517M97.4006 58.1517L97.4164 57.9179L97.4689 57.1389C97.64 54.6014 95.7217 52.4057 93.1841 52.2346C90.8543 52.0775 88.7757 53.6891 88.3474 55.9846L87.767 59.0521M87.767 59.0521C87.9256 58.1274 88.0734 57.2544 88.2057 56.4665C88.5578 54.3695 87.0186 52.4417 84.8971 52.2986C83.0375 52.1732 81.3865 53.5015 81.0769 55.3394C80.7376 57.3533 80.4218 59.1532 80.1282 60.7618" stroke="#040036" stroke-width="0.414286" stroke-linecap="round"/>
    </g>
    <rect x="135.643" y="65.043" width="108.129" height="80.3714" rx="6.62857" fill="#040036" stroke="#040036"/>
    <path d="M135.643 73.7432H243.771V138.786C243.771 142.447 240.803 145.415 237.143 145.415H142.271C138.61 145.415 135.643 142.447 135.643 138.786V73.7432Z" fill="#040036" stroke="#040036"/>
    <path d="M231.343 78.7148C230.885 78.7148 230.514 79.0857 230.514 79.5433V80.3719H233.276L232.171 82.029H230.514L230.514 87.5529H228.857L228.857 82.029H227.2V80.3719H228.857V79.5433C228.857 78.1705 229.97 77.0576 231.343 77.0576H231.895C232.5 77.0576 233.056 77.2748 233.487 77.6345L232.425 78.9067C232.281 78.7864 232.098 78.7148 231.895 78.7148H231.343Z" fill="#040036"/>
    <path fill-rule="evenodd" clip-rule="evenodd" d="M238.247 80.3719H239.904V87.5529H238.247V86.9884C237.689 87.3457 237.026 87.5529 236.314 87.5529C234.331 87.5529 232.724 85.9453 232.724 83.9624C232.724 81.9794 234.331 80.3719 236.314 80.3719C237.026 80.3719 237.689 80.579 238.247 80.9363V80.3719ZM238.247 83.9624C238.247 85.0301 237.382 85.8957 236.314 85.8957C235.246 85.8957 234.381 85.0301 234.381 83.9624C234.381 82.8946 235.246 82.029 236.314 82.029C237.382 82.029 238.247 82.8946 238.247 83.9624Z" fill="#040036"/>
    <path d="M219.535 145.207C219.535 145.207 224.714 136.715 225.749 126.357" stroke="#040036"/>
    <path d="M212.7 99.6359C225.543 97.9786 219.328 128.222 219.328 128.222" stroke="#040036"/>
    <path d="M143.1 78.7148C142.642 78.7148 142.271 79.0857 142.271 79.5433V80.3719H145.033L143.928 82.029H142.271L142.271 87.5529H140.614L140.614 82.029H138.957V80.3719H140.614V79.5433C140.614 78.1705 141.727 77.0576 143.1 77.0576H143.652C144.257 77.0576 144.814 77.2748 145.245 77.6345L144.183 78.9067C144.039 78.7864 143.855 78.7148 143.652 78.7148H143.1Z" fill="#040036"/>
    <path fill-rule="evenodd" clip-rule="evenodd" d="M150.005 80.3719H151.662V87.5529H150.005V86.9884C149.447 87.3457 148.783 87.5529 148.071 87.5529C146.088 87.5529 144.481 85.9453 144.481 83.9624C144.481 81.9794 146.088 80.3719 148.071 80.3719C148.783 80.3719 149.447 80.579 150.005 80.9363V80.3719ZM150.005 83.9624C150.005 85.0301 149.139 85.8957 148.071 85.8957C147.004 85.8957 146.138 85.0301 146.138 83.9624C146.138 82.8946 147.004 82.029 148.071 82.029C149.139 82.029 150.005 82.8946 150.005 83.9624Z" fill="#040036"/>
    <circle cx="142.271" cy="69.5997" r="2.07143" fill="white"/>
    <circle cx="149.729" cy="69.5997" r="2.07143" fill="white"/>
    <circle cx="157.186" cy="69.5997" r="2.07143" fill="white"/>
    <rect x="125.7" y="55.1006" width="108.129" height="80.3714" rx="6.62857" fill="#040036" stroke="#040036"/>
    <path d="M125.7 63.8006H233.829V128.843C233.829 132.504 230.861 135.472 227.2 135.472H132.329C128.668 135.472 125.7 132.504 125.7 128.843V63.8006Z" fill="white" stroke="#040036"/>
    <path d="M221.4 68.7724C220.943 68.7724 220.572 69.1433 220.572 69.6009V70.4295H223.334L222.229 72.0867H220.572L220.572 77.6105H218.914L218.914 72.0867H217.257V70.4295H218.914V69.6009C218.914 68.2281 220.027 67.1152 221.4 67.1152H221.953C222.558 67.1152 223.114 67.3324 223.545 67.6921L222.483 68.9643C222.339 68.844 222.155 68.7724 221.953 68.7724H221.4Z" fill="#040036"/>
    <path fill-rule="evenodd" clip-rule="evenodd" d="M228.305 70.4295H229.962V77.6105H228.305V77.046C227.747 77.4033 227.083 77.6105 226.372 77.6105C224.389 77.6105 222.781 76.003 222.781 74.02C222.781 72.037 224.389 70.4295 226.372 70.4295C227.083 70.4295 227.747 70.6367 228.305 70.994V70.4295ZM228.305 74.02C228.305 75.0877 227.439 75.9533 226.372 75.9533C225.304 75.9533 224.438 75.0877 224.438 74.02C224.438 72.9522 225.304 72.0867 226.372 72.0867C227.439 72.0867 228.305 72.9522 228.305 74.02Z" fill="#040036"/>
    <path d="M209.593 135.265C209.593 135.265 214.772 126.772 215.808 116.415" stroke="#040036"/>
    <path d="M202.757 89.6936C215.6 88.0363 209.386 118.279 209.386 118.279" stroke="#040036"/>
    <path d="M133.158 68.7724C132.7 68.7724 132.329 69.1433 132.329 69.6009V70.4295H135.091L133.986 72.0867H132.329L132.329 77.6105H130.672L130.672 72.0867H129.015V70.4295H130.672V69.6009C130.672 68.2281 131.785 67.1152 133.158 67.1152H133.71C134.315 67.1152 134.871 67.3324 135.302 67.6921L134.24 68.9643C134.096 68.844 133.912 68.7724 133.71 68.7724H133.158Z" fill="#040036"/>
    <path fill-rule="evenodd" clip-rule="evenodd" d="M140.062 70.4295H141.719V77.6105H140.062V77.046C139.504 77.4033 138.841 77.6105 138.129 77.6105C136.146 77.6105 134.538 76.003 134.538 74.02C134.538 72.037 136.146 70.4295 138.129 70.4295C138.841 70.4295 139.504 70.6367 140.062 70.994V70.4295ZM140.062 74.02C140.062 75.0877 139.197 75.9533 138.129 75.9533C137.061 75.9533 136.196 75.0877 136.196 74.02C136.196 72.9522 137.061 72.0867 138.129 72.0867C139.197 72.0867 140.062 72.9522 140.062 74.02Z" fill="#040036"/>
    <circle cx="132.329" cy="59.6574" r="2.07143" fill="white"/>
    <circle cx="139.786" cy="59.6574" r="2.07143" fill="white"/>
    <circle cx="147.243" cy="59.6574" r="2.07143" fill="white"/>
    <path d="M203.577 102.561C203.48 111.326 202.376 127.687 189.803 134.587C188.967 135.046 187.959 135.044 187.088 134.656C165.756 125.159 152.898 116.458 130.879 104.815C124.665 101.529 135.643 65.0432 147.45 70.8433C168.239 81.7362 187.972 93.9499 201.439 99.4235C202.725 99.946 203.592 101.173 203.577 102.561Z" fill="white"/>
    <path d="M130.879 104.815C152.898 116.458 165.756 125.159 187.088 134.656C187.959 135.044 188.967 135.046 189.803 134.587C202.376 127.687 203.48 111.326 203.577 102.561C203.592 101.173 202.725 99.946 201.439 99.4235C187.972 93.9499 168.239 81.7362 147.45 70.8433M130.879 104.815C137.714 108.429 153.664 74.7789 147.45 70.8433M130.879 104.815C124.665 101.529 135.643 65.0432 147.45 70.8433" stroke="#040036"/>
    <path d="M144.039 71.3948L141.443 69.8078L141.422 69.7966C141.577 64.6369 141.285 56.549 141.057 51.4165C140.936 48.714 138.704 46.6078 135.999 46.6078C135.592 46.6078 135.195 46.6558 134.814 46.7467V46.6078L134.211 40.7668C133.982 38.5539 132.118 36.8721 129.893 36.8721C127.728 36.8721 125.89 38.5167 125.667 40.6699C125.207 38.7122 123.421 37.2864 121.407 37.2864C119.233 37.2864 117.396 38.8785 117.173 41.0402C117.135 41.403 117.097 41.7872 117.059 42.1906C116.797 42.0754 116.538 41.9805 116.286 41.9033C113.331 41.0017 111.247 44.0455 110.954 47.1209C110.909 47.5962 110.864 48.0985 110.819 48.6242C110.775 48.6051 110.732 48.5865 110.688 48.5686C107.496 47.2544 105.201 50.8101 105.093 54.2605C104.281 80.2738 106.79 87.1026 131.339 98.6864C134.697 100.271 138.688 98.6881 140.125 95.2645L146.695 79.6168C147.963 76.5965 146.835 73.1029 144.039 71.3948Z" fill="white"/>
    <path d="M148.9 74.3649L141.443 69.8078L141.422 69.7966M140.821 74.5721C141.166 74.1281 141.347 72.3097 141.422 69.7966M131.085 62.5578C130.317 60.8932 130.657 55.1919 131.029 51.0805C131.223 48.9259 132.79 47.2299 134.814 46.7467M125.7 57.5864C124.573 53.6433 125.17 45.4879 125.667 40.6699M116.793 60.6935C116.158 54.2223 116.612 46.8962 117.059 42.1906M110.684 65.6649C110.112 59.8306 110.425 53.3013 110.819 48.6242M137.507 101.501C107.203 88.0528 104.217 82.3066 105.093 54.2605C105.201 50.8101 107.496 47.2544 110.688 48.5686C110.732 48.5865 110.775 48.6051 110.819 48.6242M141.422 69.7966C141.577 64.6369 141.285 56.549 141.057 51.4165C140.936 48.714 138.704 46.6078 135.999 46.6078C135.592 46.6078 135.195 46.6558 134.814 46.7467M134.814 46.7467V46.6078L134.211 40.7668C133.982 38.5539 132.118 36.8721 129.893 36.8721C127.728 36.8721 125.89 38.5167 125.667 40.6699M125.667 40.6699C125.207 38.7122 123.421 37.2864 121.407 37.2864C119.233 37.2864 117.396 38.8785 117.173 41.0402C117.135 41.403 117.097 41.7872 117.059 42.1906M117.059 42.1906C116.797 42.0754 116.538 41.9805 116.286 41.9033C113.331 41.0017 111.247 44.0455 110.954 47.1209C110.909 47.5962 110.864 48.0985 110.819 48.6242" stroke="#040036"/>
    <path d="M120.107 77.8867C120.107 77.8867 119.278 70.4295 127.978 67.1152" stroke="#040036"/>
    <path d="M1 105.022L13.6877 99.9468C14.1761 99.7514 14.7291 99.7926 15.1575 100.098C15.563 100.387 15.9698 100.709 16.3762 101.064C17.6917 100.442 45.9745 87.0654 65.0107 76.5448C67.3459 75.2542 69.3593 73.4499 70.1571 70.9038C71.5796 66.3639 72.7836 59.2782 73.3538 55.6122C73.5874 54.1098 74.4597 52.7411 75.8966 52.2438C77.0026 51.8609 78.3152 51.5994 79.3 51.9934L79.4352 52.0582C79.6199 50.4334 79.8139 48.6163 80.017 46.5842C80.2023 44.7296 81.7601 43.2933 83.6239 43.2933C85.7503 43.2933 87.4157 45.1132 87.2055 47.2291C87.1265 48.0242 87.0378 48.9051 86.9417 49.8384L87.3145 46.7388C87.5873 44.4197 89.5528 42.6719 91.8879 42.6719C94.4312 42.6719 96.4929 44.7336 96.4929 47.2769V48.0576V48.2919C96.9559 48.1397 97.4502 48.0576 97.9624 48.0576C100.323 48.0576 102.337 49.8068 102.45 52.1645C102.578 54.8204 102.45 57.379 102.293 60.0744C104.577 60.148 106.521 61.8565 106.669 64.1506C108.793 97.0298 73.5838 108.597 29.3786 130.5L28.7721 130.791C29.039 135.415 28.6535 140.182 27.3847 144.836C27.2186 145.445 26.7056 145.895 26.0829 145.999L1 150.179V105.022Z" fill="white"/>
    <path d="M76.8143 65.6647C76.8143 65.6647 77.7317 67.0409 79.4352 52.0582M84.6857 65.6647C85.2178 65.6647 86.2622 56.4407 86.9417 49.8384M92.1429 64.8362C92.6546 64.8362 92.8854 59.0777 93.2979 52.418C93.4186 50.4696 94.7286 48.8719 96.4929 48.2919M95.8714 71.879C96.3692 71.879 96.8669 69.6198 97.3647 64.4626C97.6033 61.9906 99.6556 60.0719 102.139 60.0719C102.19 60.0719 102.242 60.0727 102.293 60.0744M16.3762 101.064C17.6917 100.442 45.9745 87.0654 65.0107 76.5448C67.3459 75.2542 69.3593 73.4499 70.1571 70.9038C71.5796 66.3639 72.7836 59.2782 73.3538 55.6122C73.5874 54.1098 74.4597 52.7411 75.8966 52.2438C77.0026 51.8609 78.3152 51.5994 79.3 51.9934L79.4352 52.0582M16.3762 101.064C15.9698 100.709 15.563 100.387 15.1575 100.098C14.7291 99.7926 14.1761 99.7514 13.6877 99.9468L1 105.022V150.179L26.0829 145.999C26.7056 145.895 27.2186 145.445 27.3847 144.836C28.6535 140.182 29.039 135.415 28.7721 130.791M16.3762 101.064C22.2414 106.179 28.0297 117.931 28.7721 130.791M28.7721 130.791L29.3786 130.5C73.5838 108.597 108.793 97.0298 106.669 64.1506C106.521 61.8565 104.577 60.148 102.293 60.0744M102.293 60.0744C102.45 57.379 102.578 54.8204 102.45 52.1645C102.337 49.8068 100.323 48.0576 97.9624 48.0576C97.4502 48.0576 96.9559 48.1397 96.4929 48.2919M96.4929 48.2919V48.0576V47.2769C96.4929 44.7336 94.4312 42.6719 91.8879 42.6719C89.5528 42.6719 87.5873 44.4197 87.3145 46.7388L86.9417 49.8384M86.9417 49.8384C87.0378 48.9051 87.1265 48.0242 87.2055 47.2291C87.4157 45.1132 85.7503 43.2933 83.624 43.2933C81.7601 43.2933 80.2023 44.7296 80.017 46.5842C79.8139 48.6163 79.6199 50.4334 79.4352 52.0582" stroke="#040036" stroke-linecap="round"/>
    <path d="M129.749 6.88254C129.754 6.88892 129.756 6.89374 129.757 6.89853C129.757 6.90471 129.757 6.9128 129.754 6.92087C129.752 6.9255 129.75 6.92854 129.749 6.93026L127.036 7.36992C127.032 7.36537 127.03 7.35948 127.029 7.35356C127.028 7.3489 127.028 7.34218 127.032 7.33165L128.027 4.6515C128.027 4.65111 128.027 4.65074 128.027 4.65039L129.749 6.88254Z" fill="white" stroke="#040036"/>
    <circle cx="84.8982" cy="3.11234" r="1.77857" transform="rotate(-30 84.8982 3.11234)" fill="white" stroke="#040036"/>
    <circle cx="144.02" cy="27.0192" r="0.779771" transform="rotate(-30 144.02 27.0192)" fill="white" stroke="#040036"/>
    <mask id="path-78-inside-1_5129_20937" fill="white">
        <rect x="73.8438" y="26.8047" width="3.72857" height="3.72857" rx="0.828571" transform="rotate(42.9423 73.8438 26.8047)"/>
    </mask>
    <rect x="73.8438" y="26.8047" width="3.72857" height="3.72857" rx="0.828571" transform="rotate(42.9423 73.8438 26.8047)" fill="white" stroke="#040036" stroke-width="2" mask="url(#path-78-inside-1_5129_20937)"/>
    <path d="M79.5708 19.2061C75.1571 11.3925 69.2137 9.2632 69.2137 9.2632" stroke="#040036"/>
    <path d="M127.323 26.0986C131.736 18.2851 137.68 16.1558 137.68 16.1558" stroke="#040036"/>
    <defs>
        <clipPath id="clip0_5129_20937">
            <rect width="101.086" height="80.3714" fill="white" transform="translate(10.9429 93.6289)"/>
        </clipPath>
        <clipPath id="clip1_5129_20937">
            <rect x="25.8574" y="60.0713" width="100.671" height="80.3714" rx="6.62857" fill="white"/>
        </clipPath>
        <clipPath id="clip2_5129_20937">
            <rect x="15.9146" y="118.9" width="101.086" height="80.3714" rx="6.62857" fill="white"/>
        </clipPath>
        <clipPath id="clip3_5129_20937">
            <rect width="102" height="82" fill="white" transform="translate(15 49)"/>
        </clipPath>
        <clipPath id="clip4_5129_20937">
            <rect x="5.97168" y="108.957" width="101.086" height="80.3714" rx="6.62857" fill="white"/>
        </clipPath>
        <clipPath id="clip5_5129_20937">
            <rect width="102.59" height="82" fill="white" transform="translate(0 83)"/>
        </clipPath>
    </defs>
</svg>
