<svg width="158" height="147" viewBox="0 0 158 147" fill="none" xmlns="http://www.w3.org/2000/svg">
<path d="M88.8847 57.5268H69.1555L1.04021 57.4471L1.00035 137.679C0.960491 141.864 4.34833 145.212 8.49344 145.212L65.4488 145.252L92.4319 145.292L149.387 145.331C153.532 145.331 156.92 141.944 156.92 137.799L157 57.5667L88.8847 57.5268Z" fill="#F3F2F5" stroke="#040036" stroke-width="2" stroke-linecap="round" stroke-linejoin="round"/>
<path d="M1.04004 57.4472L72.3439 3.24195C76.2897 0.252684 81.7501 0.252684 85.696 3.24195L157 57.5668C157 57.5668 151.34 57.5668 149.427 57.5668L88.8446 57.5269H69.1155L8.53312 57.4472C6.61999 57.4472 1.04004 57.4472 1.04004 57.4472Z" fill="#F3F2F5" stroke="#040036" stroke-width="2" stroke-linecap="round" stroke-linejoin="round"/>
<path d="M3.55103 143.339L59.9086 102.326" stroke="#040036" stroke-width="2" stroke-linecap="round" stroke-linejoin="round"/>
<path d="M1.04004 57.4471L72.3041 111.772H72.2642C76.21 114.801 81.6704 114.801 85.6162 111.812L157 57.5667L1.04004 57.4471Z" fill="#040036" stroke="#040036" stroke-width="2" stroke-linecap="round" stroke-linejoin="round"/>
<path d="M154.609 143.618L98.0518 102.366" stroke="#040036" stroke-width="2" stroke-linecap="round" stroke-linejoin="round"/>
<path d="M138.387 9.06104V71.716L85.6165 111.812C81.6707 114.801 76.2103 114.801 72.2645 111.772H72.3043L19.5737 71.5964V9.06104H138.387Z" fill="white" stroke="#040036" stroke-width="2" stroke-linecap="round" stroke-linejoin="round"/>
<path d="M79.5 33C66.528 33 56 43.528 56 56.5C56 69.472 66.528 80 79.5 80H91.25V75.3H79.5C69.301 75.3 60.7 66.699 60.7 56.5C60.7 46.301 69.301 37.7 79.5 37.7C89.699 37.7 98.3 46.301 98.3 56.5V59.8605C98.3 61.717 96.6315 63.55 94.775 63.55C92.9185 63.55 91.25 61.717 91.25 59.8605V56.5C91.25 50.014 85.986 44.75 79.5 44.75C73.014 44.75 67.75 50.014 67.75 56.5C67.75 62.986 73.014 68.25 79.5 68.25C82.743 68.25 85.704 66.934 87.819 64.7955C89.3465 66.887 91.9785 68.25 94.775 68.25C99.4045 68.25 103 64.49 103 59.8605V56.5C103 43.528 92.472 33 79.5 33ZM79.5 63.55C75.599 63.55 72.45 60.401 72.45 56.5C72.45 52.599 75.599 49.45 79.5 49.45C83.401 49.45 86.55 52.599 86.55 56.5C86.55 60.401 83.401 63.55 79.5 63.55Z" fill="#040036"/>
</svg>
