<?xml version="1.0" encoding="UTF-8"?>
<!DOCTYPE svg PUBLIC "-//W3C//DTD SVG 1.1//EN" "http://www.w3.org/Graphics/SVG/1.1/DTD/svg11.dtd">
<svg xmlns="http://www.w3.org/2000/svg" version="1.1" width="2112px" height="880px" style="shape-rendering:geometricPrecision; text-rendering:geometricPrecision; image-rendering:optimizeQuality; fill-rule:evenodd; clip-rule:evenodd" xmlns:xlink="http://www.w3.org/1999/xlink">
<g><path style="opacity:1" fill="#f7f6f9" d="M -0.5,-0.5 C 275.833,-0.5 552.167,-0.5 828.5,-0.5C 820.823,16.4632 823.823,31.2965 837.5,44C 840.642,46.9044 844.309,48.7378 848.5,49.5C 840.702,99.8513 837.036,150.518 837.5,201.5C 783.97,195.961 730.304,194.128 676.5,196C 634.248,197.815 593.248,205.815 553.5,220C 533.427,227.776 515.594,238.943 500,253.5C 475.313,280.596 468.979,311.596 481,346.5C 490.491,371.827 503.824,394.827 521,415.5C 546.345,445.184 574.512,471.684 605.5,495C 641.008,521.66 678.008,546.16 716.5,568.5C 675.743,621.974 641.577,679.64 614,741.5C 602.082,770.173 593.749,799.839 589,830.5C 588.102,846.887 588.602,863.221 590.5,879.5C 393.5,879.5 196.5,879.5 -0.5,879.5C -0.5,586.167 -0.5,292.833 -0.5,-0.5 Z"/></g>
<g><path style="opacity:1" fill="#d3d3d7" d="M 828.5,-0.5 C 850.167,-0.5 871.833,-0.5 893.5,-0.5C 901.465,22.1005 894.799,38.9338 873.5,50C 867.344,52.0969 861.01,52.9302 854.5,52.5C 847.328,102.573 843.995,152.906 844.5,203.5C 911.23,210.973 977.063,223.307 1042,240.5C 1095.65,199.414 1151.48,161.414 1209.5,126.5C 1190.34,82.5045 1168.34,40.1712 1143.5,-0.5C 1146.17,-0.5 1148.83,-0.5 1151.5,-0.5C 1175.42,39.3413 1196.76,80.6746 1215.5,123.5C 1275.13,88.0173 1338.13,60.184 1404.5,40C 1438.15,30.1124 1472.49,26.1124 1507.5,28C 1531.53,29.6917 1552.86,38.025 1571.5,53C 1588.11,69.7213 1597.61,89.8879 1600,113.5C 1601.57,141.095 1598.23,168.095 1590,194.5C 1585.06,210.834 1579.22,226.834 1572.5,242.5C 1592.39,257.295 1595.89,275.295 1583,296.5C 1570.83,309.488 1556.33,313.488 1539.5,308.5C 1519.13,344.182 1496.8,378.515 1472.5,411.5C 1530.41,444.457 1584.08,483.29 1633.5,528C 1653.92,547.741 1672.09,569.241 1688,592.5C 1701.08,612.33 1709.41,633.996 1713,657.5C 1714.59,692.478 1701.09,719.978 1672.5,740C 1647.71,755.487 1621.05,766.487 1592.5,773C 1561.84,779.533 1530.84,783.199 1499.5,784C 1472.5,784.667 1445.5,784.667 1418.5,784C 1395.8,782.437 1373.14,780.603 1350.5,778.5C 1351.12,812.248 1349.78,845.915 1346.5,879.5C 1344.17,879.5 1341.83,879.5 1339.5,879.5C 1342.87,845.255 1344.54,810.922 1344.5,776.5C 1331.77,775.655 1319.1,774.489 1306.5,773C 1298.8,790.191 1285.47,798.191 1266.5,797C 1246.63,792.438 1236.29,779.938 1235.5,759.5C 1205.56,754.011 1175.9,747.344 1146.5,739.5C 1093.76,780.712 1038.43,818.212 980.5,852C 979.483,853.049 979.316,854.216 980,855.5C 983.987,863.295 987.487,871.295 990.5,879.5C 988.167,879.5 985.833,879.5 983.5,879.5C 980.288,871.697 976.788,864.03 973,856.5C 959.356,864.067 945.856,871.734 932.5,879.5C 927.5,879.5 922.5,879.5 917.5,879.5C 935.626,870.271 953.293,860.271 970.5,849.5C 944.529,787.923 922.529,724.923 904.5,660.5C 877.021,648.843 849.854,636.51 823,623.5C 810.891,642.203 794.391,647.703 773.5,640C 755.673,628.02 750.34,611.853 757.5,591.5C 746.064,585.033 734.564,578.699 723,572.5C 681.027,626.052 646.36,684.386 619,747.5C 604.785,780.739 596.619,815.406 594.5,851.5C 594.769,860.925 595.769,870.258 597.5,879.5C 595.167,879.5 592.833,879.5 590.5,879.5C 588.602,863.221 588.102,846.887 589,830.5C 593.749,799.839 602.082,770.173 614,741.5C 641.577,679.64 675.743,621.974 716.5,568.5C 678.008,546.16 641.008,521.66 605.5,495C 574.512,471.684 546.345,445.184 521,415.5C 503.824,394.827 490.491,371.827 481,346.5C 468.979,311.596 475.313,280.596 500,253.5C 515.594,238.943 533.427,227.776 553.5,220C 593.248,205.815 634.248,197.815 676.5,196C 730.304,194.128 783.97,195.961 837.5,201.5C 837.036,150.518 840.702,99.8513 848.5,49.5C 844.309,48.7378 840.642,46.9044 837.5,44C 823.823,31.2965 820.823,16.4632 828.5,-0.5 Z"/></g>
<g><path style="opacity:1" fill="#f7f6f9" d="M 893.5,-0.5 C 976.833,-0.5 1060.17,-0.5 1143.5,-0.5C 1168.34,40.1712 1190.34,82.5045 1209.5,126.5C 1151.48,161.414 1095.65,199.414 1042,240.5C 977.063,223.307 911.23,210.973 844.5,203.5C 843.995,152.906 847.328,102.573 854.5,52.5C 861.01,52.9302 867.344,52.0969 873.5,50C 894.799,38.9338 901.465,22.1005 893.5,-0.5 Z"/></g>
<g><path style="opacity:1" fill="#f7f6f9" d="M 1151.5,-0.5 C 1471.5,-0.5 1791.5,-0.5 2111.5,-0.5C 2111.5,292.833 2111.5,586.167 2111.5,879.5C 1856.5,879.5 1601.5,879.5 1346.5,879.5C 1349.78,845.915 1351.12,812.248 1350.5,778.5C 1373.14,780.603 1395.8,782.437 1418.5,784C 1445.5,784.667 1472.5,784.667 1499.5,784C 1530.84,783.199 1561.84,779.533 1592.5,773C 1621.05,766.487 1647.71,755.487 1672.5,740C 1701.09,719.978 1714.59,692.478 1713,657.5C 1709.41,633.996 1701.08,612.33 1688,592.5C 1672.09,569.241 1653.92,547.741 1633.5,528C 1584.08,483.29 1530.41,444.457 1472.5,411.5C 1496.8,378.515 1519.13,344.182 1539.5,308.5C 1556.33,313.488 1570.83,309.488 1583,296.5C 1595.89,275.295 1592.39,257.295 1572.5,242.5C 1579.22,226.834 1585.06,210.834 1590,194.5C 1598.23,168.095 1601.57,141.095 1600,113.5C 1597.61,89.8879 1588.11,69.7213 1571.5,53C 1552.86,38.025 1531.53,29.6917 1507.5,28C 1472.49,26.1124 1438.15,30.1124 1404.5,40C 1338.13,60.184 1275.13,88.0173 1215.5,123.5C 1196.76,80.6746 1175.42,39.3413 1151.5,-0.5 Z"/></g>
<g><path style="opacity:1" fill="#f7f6f9" d="M 1465.5,34.5 C 1568.26,27.7561 1609.09,74.7561 1588,175.5C 1582.73,196.303 1576.07,216.636 1568,236.5C 1567.25,237.99 1566.09,238.99 1564.5,239.5C 1542.12,235.606 1526.95,244.272 1519,265.5C 1516.37,280.9 1521.04,293.567 1533,303.5C 1533.67,304.5 1533.67,305.5 1533,306.5C 1512.63,341.853 1490.3,375.853 1466,408.5C 1407.32,375.323 1346.99,345.99 1285,320.5C 1266.8,255.892 1244.63,192.725 1218.5,131C 1219.34,129.233 1220.67,127.899 1222.5,127C 1280.01,93.2444 1340.68,66.5777 1404.5,47C 1424.69,41.4628 1445.02,37.2961 1465.5,34.5 Z"/></g>
<g><path style="opacity:1" fill="#f7f6f9" d="M 1210.5,133.5 C 1211.38,133.369 1212.04,133.702 1212.5,134.5C 1237.37,192.948 1258.37,252.781 1275.5,314C 1275.17,314.833 1274.83,315.667 1274.5,316.5C 1201.7,287.455 1127.37,262.789 1051.5,242.5C 1102.31,202.932 1155.31,166.599 1210.5,133.5 Z"/></g>
<g><path style="opacity:1" fill="#d2d2d6" d="M 1923.5,146.5 C 1925.73,157.955 1927.56,169.621 1929,181.5C 1931.79,200.285 1942.29,212.118 1960.5,217C 1973.03,219.816 1985.69,221.816 1998.5,223C 1987.07,224.014 1975.74,225.681 1964.5,228C 1944.25,231.915 1932.42,244.082 1929,264.5C 1927.05,275.143 1925.38,285.81 1924,296.5C 1923.12,283.651 1921.12,270.984 1918,258.5C 1913.42,240.59 1901.92,230.423 1883.5,228C 1871.55,226.006 1859.55,224.339 1847.5,223C 1859.52,221.425 1871.52,219.759 1883.5,218C 1899,215.817 1909.83,207.65 1916,193.5C 1920.5,178.168 1923,162.501 1923.5,146.5 Z"/></g>
<g><path style="opacity:1" fill="#f7f6f9" d="M 693.5,201.5 C 741.623,201.354 789.623,203.687 837.5,208.5C 838.688,276.152 843.521,343.486 852,410.5C 804.942,458.865 760.942,509.531 720,562.5C 661.342,529.584 607.176,490.417 557.5,445C 538.075,426.255 520.909,405.755 506,383.5C 461.595,306.797 481.095,253.297 564.5,223C 606.592,209.822 649.592,202.656 693.5,201.5 Z"/></g>
<g><path style="opacity:1" fill="#f7f6f9" d="M 844.5,209.5 C 908.98,217.369 972.646,229.536 1035.5,246C 973.392,294.42 914.558,346.92 859,403.5C 849.299,339.224 844.466,274.557 844.5,209.5 Z"/></g>
<g><path style="opacity:1" fill="#f7f6f9" d="M 1042.5,248.5 C 1123.15,268.161 1201.81,293.827 1278.5,325.5C 1301.43,405.222 1317.93,486.222 1328,568.5C 1270.78,626.744 1210.28,680.91 1146.5,731C 1140.03,731.137 1133.7,730.137 1127.5,728C 1053.6,708.035 981.27,683.701 910.5,655C 887.561,575.088 870.728,493.921 860,411.5C 918.05,353.593 978.883,299.259 1042.5,248.5 Z"/></g>
<g><path style="opacity:1" fill="#f7f6f9" d="M 1287.5,329.5 C 1347.48,353.341 1405.48,381.507 1461.5,414C 1422.72,465.806 1380.55,514.972 1335,561.5C 1323.7,483.153 1307.86,405.82 1287.5,329.5 Z"/></g>
<g><path style="opacity:1" fill="#030033" d="M 1074.5,345.5 C 1138.61,340.637 1187.44,365.304 1221,419.5C 1249.24,476.417 1244.57,530.417 1207,581.5C 1166.21,627.315 1115.71,643.482 1055.5,630C 1006.26,614.422 973.089,582.256 956,533.5C 939.948,473.526 954.448,422.359 999.5,380C 1021.54,361.978 1046.54,350.478 1074.5,345.5 Z"/></g>
<g><path style="opacity:1" fill="#d3d3d7" d="M 1807.5,365.5 C 1809.13,371.605 1810.3,377.938 1811,384.5C 1812.76,392.591 1817.59,397.758 1825.5,400C 1831.39,401.645 1837.39,402.645 1843.5,403C 1834.2,403.226 1825.53,405.559 1817.5,410C 1815.04,412.408 1813.21,415.241 1812,418.5C 1810.48,424.464 1809.15,430.464 1808,436.5C 1807.42,428.896 1805.75,421.563 1803,414.5C 1798.85,409.171 1793.35,406.005 1786.5,405C 1769.49,403.487 1769.83,402.154 1787.5,401C 1796.62,399.383 1802.45,394.216 1805,385.5C 1806.81,378.951 1807.64,372.284 1807.5,365.5 Z"/></g>
<g><path style="opacity:1" fill="#f7f6f9" d="M 1467.5,417.5 C 1522.81,447.99 1574.14,484.157 1621.5,526C 1646.04,548.188 1667.21,573.021 1685,600.5C 1695.65,617.456 1702.65,635.79 1706,655.5C 1708.74,685.961 1698.24,710.795 1674.5,730C 1653.25,745.288 1629.92,756.288 1604.5,763C 1567.98,771.523 1530.98,776.523 1493.5,778C 1445.68,779.145 1398.01,776.979 1350.5,771.5C 1350.9,741.797 1350.07,712.131 1348,682.5C 1344.66,644.747 1341,607.08 1337,569.5C 1384.06,521.597 1427.56,470.93 1467.5,417.5 Z"/></g>
<g><path style="opacity:1" fill="#f7f6f9" d="M 852.5,419.5 C 854.13,421.026 854.963,423.026 855,425.5C 866.206,501.405 881.706,576.405 901.5,650.5C 875.849,641.118 850.849,630.285 826.5,618C 828.263,602.734 823.597,589.734 812.5,579C 793.648,567.28 776.648,569.447 761.5,585.5C 749.511,579.507 737.844,573.007 726.5,566C 765.717,514.937 807.717,466.103 852.5,419.5 Z"/></g>
<g><path style="opacity:1" fill="#fafafb" d="M 1073.5,479.5 C 1067.5,479.5 1061.5,479.5 1055.5,479.5C 1055.5,499.5 1055.5,519.5 1055.5,539.5C 1049.5,539.5 1043.5,539.5 1037.5,539.5C 1037.5,519.5 1037.5,499.5 1037.5,479.5C 1031.83,479.5 1026.17,479.5 1020.5,479.5C 1020.5,473.833 1020.5,468.167 1020.5,462.5C 1026.36,462.822 1032.02,462.489 1037.5,461.5C 1035.61,439.406 1045.61,427.406 1067.5,425.5C 1072.37,425.262 1077.03,426.095 1081.5,428C 1084.08,428.782 1086.08,430.282 1087.5,432.5C 1084.13,437.242 1080.3,441.575 1076,445.5C 1060.87,440.153 1054.03,445.486 1055.5,461.5C 1065.51,461.334 1075.51,461.5 1085.5,462C 1081.64,468.012 1077.64,473.845 1073.5,479.5 Z"/></g>
<g><path style="opacity:1" fill="#bfbecb" d="M 1037.5,461.5 C 1032.02,462.489 1026.36,462.822 1020.5,462.5C 1020.5,468.167 1020.5,473.833 1020.5,479.5C 1019.51,473.69 1019.18,467.69 1019.5,461.5C 1025.5,461.5 1031.5,461.5 1037.5,461.5 Z"/></g>
<g><path style="opacity:1" fill="#fcfbfc" d="M 1139.5,462.5 C 1145.17,462.5 1150.83,462.5 1156.5,462.5C 1156.5,488.167 1156.5,513.833 1156.5,539.5C 1150.83,539.5 1145.17,539.5 1139.5,539.5C 1139.8,537.396 1139.47,535.396 1138.5,533.5C 1118.07,543.847 1100.57,540.18 1086,522.5C 1074.09,500.252 1078.26,481.752 1098.5,467C 1111.94,459.621 1125.27,459.787 1138.5,467.5C 1139.45,465.955 1139.79,464.288 1139.5,462.5 Z"/></g>
<g><path style="opacity:1" fill="#bfbecb" d="M 1139.5,462.5 C 1145.31,461.51 1151.31,461.177 1157.5,461.5C 1157.83,487.672 1157.5,513.672 1156.5,539.5C 1156.5,513.833 1156.5,488.167 1156.5,462.5C 1150.83,462.5 1145.17,462.5 1139.5,462.5 Z"/></g>
<g><path style="opacity:1" fill="#23204d" d="M 1073.5,479.5 C 1068.02,480.489 1062.36,480.822 1056.5,480.5C 1056.83,500.34 1056.5,520.007 1055.5,539.5C 1055.5,519.5 1055.5,499.5 1055.5,479.5C 1061.5,479.5 1067.5,479.5 1073.5,479.5 Z"/></g>
<g><path style="opacity:1" fill="#040435" d="M 1113.5,479.5 C 1130.38,478.883 1138.88,486.883 1139,503.5C 1135.56,516.641 1127.06,522.474 1113.5,521C 1098.11,514.503 1093.94,503.67 1101,488.5C 1104.65,484.609 1108.82,481.609 1113.5,479.5 Z"/></g>
<g><path style="opacity:1" fill="#d5d5d9" d="M 351.5,483.5 C 354.518,483.8 356.518,485.467 357.5,488.5C 356.687,489.814 355.687,490.981 354.5,492C 374.361,517.515 394.528,542.682 415,567.5C 416.261,567.241 417.261,566.574 418,565.5C 420.077,567.076 421.577,569.076 422.5,571.5C 414.737,577.649 405.904,580.649 396,580.5C 380.335,579.668 365.501,575.668 351.5,568.5C 351.167,569.167 350.833,569.833 350.5,570.5C 354.982,588.359 354.482,606.026 349,623.5C 338.094,643.535 321.261,651.701 298.5,648C 286.722,645.463 275.389,641.63 264.5,636.5C 264.167,637 263.833,637.5 263.5,638C 266.796,653.4 267.296,668.9 265,684.5C 256.953,707.441 240.787,718.274 216.5,717C 202.824,714.941 189.824,710.775 177.5,704.5C 177.167,704.833 176.833,705.167 176.5,705.5C 182.597,725.192 181.764,744.526 174,763.5C 171.588,767.916 168.422,771.749 164.5,775C 161.711,774.566 159.711,772.9 158.5,770C 160.329,768.887 161.163,767.387 161,765.5C 141.861,740.727 122.361,716.227 102.5,692C 100.633,691.289 99.1332,691.789 98,693.5C 96.6924,691.359 95.1924,689.359 93.5,687.5C 101.324,680.614 110.491,677.614 121,678.5C 136.295,679.542 150.795,683.542 164.5,690.5C 164.833,689.5 165.167,688.5 165.5,687.5C 164.252,678.348 163.252,669.181 162.5,660C 163.284,627.216 179.95,610.549 212.5,610C 226.057,612.463 239.057,616.63 251.5,622.5C 251.833,621.833 252.167,621.167 252.5,620.5C 248.861,604.186 248.695,587.853 252,571.5C 260.831,549.826 276.998,539.993 300.5,542C 313.94,544.369 326.773,548.536 339,554.5C 338.995,549.126 338.328,543.792 337,538.5C 336.333,529.167 336.333,519.833 337,510.5C 338.709,499.745 343.542,490.745 351.5,483.5 Z"/></g>
<g><path style="opacity:1" fill="#f7f6f9" d="M 352.5,493.5 C 372.636,518.479 392.636,543.646 412.5,569C 409.467,570.389 406.301,571.555 403,572.5C 383.805,549.809 365.305,526.475 347.5,502.5C 348.925,499.312 350.592,496.312 352.5,493.5 Z"/></g>
<g><path style="opacity:1" fill="#f7f6f9" d="M 346.5,505.5 C 364.303,527.479 381.969,549.646 399.5,572C 394.798,572.828 390.131,572.662 385.5,571.5C 372.524,554.69 359.357,538.023 346,521.5C 343.975,516.091 344.141,510.758 346.5,505.5 Z"/></g>
<g><path style="opacity:1" fill="#f6f5f8" d="M 343.5,521.5 C 356.469,537.312 369.303,553.312 382,569.5C 382.688,570.332 382.521,570.998 381.5,571.5C 376.061,569.946 370.728,568.112 365.5,566C 358.667,557.167 351.833,548.333 345,539.5C 343.928,533.545 343.428,527.545 343.5,521.5 Z"/></g>
<g><path style="opacity:1" fill="#f4f3f6" d="M 345.5,543.5 C 350.648,549.763 355.814,556.096 361,562.5C 361.667,563.167 361.667,563.833 361,564.5C 356.751,562.306 352.418,560.306 348,558.5C 347.322,553.46 346.489,548.46 345.5,543.5 Z"/></g>
<g><path style="opacity:1" fill="#f7f6f9" d="M 290.5,550.5 C 295.074,549.165 299.74,549.332 304.5,551C 317.879,568.257 331.379,585.424 345,602.5C 345.937,607.403 345.27,612.07 343,616.5C 325.636,594.313 308.136,572.313 290.5,550.5 Z"/></g>
<g><path style="opacity:1" fill="#f6f6f9" d="M 285.5,549.5 C 288.044,550.468 290.211,552.135 292,554.5C 308.667,575.833 325.333,597.167 342,618.5C 341.446,622.274 339.78,625.608 337,628.5C 317.167,603.333 297.333,578.167 277.5,553C 280.158,551.522 282.825,550.355 285.5,549.5 Z"/></g>
<g><path style="opacity:1" fill="#f6f5f8" d="M 307.5,550.5 C 313.194,552.511 318.861,554.677 324.5,557C 332.197,565.577 339.03,574.743 345,584.5C 345.667,589.167 345.667,593.833 345,598.5C 332.241,582.621 319.741,566.621 307.5,550.5 Z"/></g>
<g><path style="opacity:1" fill="#f7f6f9" d="M 273.5,554.5 C 275.39,554.297 276.89,554.963 278,556.5C 297.167,581 316.333,605.5 335.5,630C 333.116,633.5 330.116,635.333 326.5,635.5C 307.241,610.651 287.741,585.985 268,561.5C 267.333,560.833 267.333,560.167 268,559.5C 270.191,558.167 272.024,556.5 273.5,554.5 Z"/></g>
<g><path style="opacity:1" fill="#f7f6f9" d="M 265.5,562.5 C 285.962,586.813 305.962,611.646 325.5,637C 321.931,639.534 318.098,640.367 314,639.5C 296.574,616.985 278.908,594.651 261,572.5C 261.273,568.693 262.773,565.36 265.5,562.5 Z"/></g>
<g><path style="opacity:1" fill="#f7f6f9" d="M 917.5,879.5 C 810.833,879.5 704.167,879.5 597.5,879.5C 595.769,870.258 594.769,860.925 594.5,851.5C 596.619,815.406 604.785,780.739 619,747.5C 646.36,684.386 681.027,626.052 723,572.5C 734.564,578.699 746.064,585.033 757.5,591.5C 750.34,611.853 755.673,628.02 773.5,640C 794.391,647.703 810.891,642.203 823,623.5C 849.854,636.51 877.021,648.843 904.5,660.5C 922.529,724.923 944.529,787.923 970.5,849.5C 953.293,860.271 935.626,870.271 917.5,879.5 Z"/></g>
<g><path style="opacity:1" fill="#f6f6f8" d="M 259.5,573.5 C 277.388,595.582 295.055,617.915 312.5,640.5C 307.733,641.786 303.067,641.452 298.5,639.5C 285.524,622.69 272.357,606.023 259,589.5C 257.17,584.123 257.337,578.79 259.5,573.5 Z"/></g>
<g><path style="opacity:1" fill="#f7f6f9" d="M 1329.5,576.5 C 1339.23,640.635 1344.23,705.302 1344.5,770.5C 1332.53,768.886 1320.53,767.552 1308.5,766.5C 1307.88,737.716 1293.22,723.883 1264.5,725C 1250.46,728.868 1241.13,737.702 1236.5,751.5C 1235.33,751.833 1234.17,752.167 1233,752.5C 1206.22,747.179 1179.72,741.013 1153.5,734C 1215.64,685.712 1274.31,633.212 1329.5,576.5 Z"/></g>
<g><path style="opacity:1" fill="#d7d7da" d="M 2021.5,732.5 C 2019.45,736.939 2017.11,741.272 2014.5,745.5C 2017.03,747.505 2016.69,749.171 2013.5,750.5C 2006.4,746.207 2002.23,739.874 2001,731.5C 2000.67,723.5 2000.33,715.5 2000,707.5C 1989.31,715.066 1977.47,718.566 1964.5,718C 1953.34,714.842 1946.18,707.675 1943,696.5C 1942.09,688.177 1941.26,679.843 1940.5,671.5C 1929.55,678.874 1917.55,682.041 1904.5,681C 1894.67,677.833 1888.17,671.333 1885,661.5C 1884.11,652.506 1883.28,643.506 1882.5,634.5C 1875.74,638.215 1868.74,641.382 1861.5,644C 1856.17,644.667 1850.83,644.667 1845.5,644C 1836.69,642.097 1836.36,639.597 1844.5,636.5C 1855.22,620.236 1865.55,603.736 1875.5,587C 1873.17,585.548 1873.17,583.881 1875.5,582C 1876.91,581.685 1878.24,582.018 1879.5,583C 1884.34,587.502 1887.5,593.002 1889,599.5C 1889.33,607.833 1889.67,616.167 1890,624.5C 1900.72,616.925 1912.55,613.425 1925.5,614C 1938.31,617.806 1945.81,626.306 1948,639.5C 1948.17,646.524 1948.67,653.524 1949.5,660.5C 1959.96,653.887 1971.3,650.72 1983.5,651C 1994.46,653.289 2001.62,659.789 2005,670.5C 2006.19,679.783 2006.85,689.117 2007,698.5C 2017.62,690.886 2029.46,687.386 2042.5,688C 2045.78,688.759 2048.78,690.092 2051.5,692C 2050.38,693.074 2049.38,694.24 2048.5,695.5C 2047.39,694.41 2046.39,694.41 2045.5,695.5C 2037.73,708.069 2029.73,720.402 2021.5,732.5 Z"/></g>
<g><path style="opacity:1" fill="#f6f6f8" d="M 257.5,591.5 C 270.508,606.99 283.175,622.823 295.5,639C 289.411,638.194 283.578,636.361 278,633.5C 272.047,625.212 265.714,617.212 259,609.5C 257.928,603.545 257.428,597.545 257.5,591.5 Z"/></g>
<g><path style="opacity:1" fill="#f3f2f5" d="M 1879.5,611.5 C 1873.28,620.263 1867.28,629.263 1861.5,638.5C 1859.16,639.724 1856.83,639.724 1854.5,638.5C 1855.64,636.922 1856.14,635.256 1856,633.5C 1854.58,636.419 1852.42,638.419 1849.5,639.5C 1847.93,639.523 1846.6,639.023 1845.5,638C 1855.83,621.667 1866.17,605.333 1876.5,589C 1878.94,589.086 1880.61,590.419 1881.5,593C 1880.17,594.84 1880.33,595.34 1882,594.5C 1883.13,596.725 1883.96,599.058 1884.5,601.5C 1882.81,604.844 1881.15,608.177 1879.5,611.5 Z"/></g>
<g><path style="opacity:1" fill="#f5f5f7" d="M 1879.5,611.5 C 1881.22,609.747 1882.72,607.747 1884,605.5C 1885.58,608.972 1885.91,612.638 1885,616.5C 1881.08,621.996 1877.42,627.663 1874,633.5C 1871.29,635.036 1868.45,636.37 1865.5,637.5C 1864.48,636.998 1864.31,636.332 1865,635.5C 1870.48,627.859 1875.32,619.859 1879.5,611.5 Z"/></g>
<g><path style="opacity:1" fill="#f7f6f9" d="M 203.5,618.5 C 206.304,617.362 209.304,617.195 212.5,618C 215.007,618.093 217.174,618.926 219,620.5C 231.618,637.453 244.618,654.12 258,670.5C 258.667,674.167 258.667,677.833 258,681.5C 257.581,682.672 256.915,683.672 256,684.5C 238.636,662.313 221.136,640.313 203.5,618.5 Z"/></g>
<g><path style="opacity:1" fill="#f7f6f9" d="M 195.5,618.5 C 198.97,617.875 201.804,618.875 204,621.5C 221,643.167 238,664.833 255,686.5C 254.779,690.433 253.112,693.767 250,696.5C 230.426,672.349 211.093,648.015 192,623.5C 191.251,622.365 191.417,621.365 192.5,620.5C 193.739,620.058 194.739,619.391 195.5,618.5 Z"/></g>
<g><path style="opacity:1" fill="#f6f5f8" d="M 1915.5,626.5 C 1907.36,638.768 1899.19,651.101 1891,663.5C 1889.68,660.57 1889.02,657.57 1889,654.5C 1894.81,646.529 1899.98,638.196 1904.5,629.5C 1907.15,625.712 1910.15,622.212 1913.5,619C 1915.5,618.333 1917.5,618.333 1919.5,619C 1917.51,621.158 1916.17,623.658 1915.5,626.5 Z"/></g>
<g><path style="opacity:1" fill="#f6f5f8" d="M 220.5,620.5 C 220.735,619.903 221.235,619.57 222,619.5C 225.773,620.869 229.606,622.036 233.5,623C 236.102,623.883 238.269,625.383 240,627.5C 245.618,635.453 251.618,643.12 258,650.5C 259.131,656.471 259.464,662.471 259,668.5C 246.303,652.312 233.469,636.312 220.5,620.5 Z"/></g>
<g><path style="opacity:1" fill="#f6f5f8" d="M 1904.5,629.5 C 1899.2,636.989 1894.03,644.656 1889,652.5C 1888.33,648.5 1888.33,644.5 1889,640.5C 1892.71,634.913 1896.54,629.413 1900.5,624C 1903.09,622.686 1905.76,622.019 1908.5,622C 1906.51,624.158 1905.17,626.658 1904.5,629.5 Z"/></g>
<g><path style="opacity:1" fill="#f6f5f8" d="M 1913.5,658.5 C 1909.49,663.336 1905.82,668.503 1902.5,674C 1900.11,674.3 1898.44,673.3 1897.5,671C 1902.29,662.596 1907.45,654.43 1913,646.5C 1913.98,645.241 1914.32,643.908 1914,642.5C 1908,651.833 1902,661.167 1896,670.5C 1894.21,669.223 1893.05,667.556 1892.5,665.5C 1900.43,652.647 1908.09,639.647 1915.5,626.5C 1917.22,624.747 1918.72,622.747 1920,620.5C 1922.46,617.9 1924.96,617.9 1927.5,620.5C 1926.67,621.451 1926.51,622.451 1927,623.5C 1929.35,620.007 1931.85,620.174 1934.5,624C 1927.1,635.306 1920.1,646.806 1913.5,658.5 Z"/></g>
<g><path style="opacity:1" fill="#f7f6f9" d="M 187.5,622.5 C 188.496,622.414 189.329,622.748 190,623.5C 209.333,648.167 228.667,672.833 248,697.5C 248.667,698.167 248.667,698.833 248,699.5C 245.876,700.622 244.043,702.122 242.5,704C 239.9,703.534 237.734,702.034 236,699.5C 218.382,676.213 200.382,653.213 182,630.5C 181.333,629.5 181.333,628.5 182,627.5C 183.812,625.7 185.645,624.033 187.5,622.5 Z"/></g>
<g><path style="opacity:1" fill="#f6f5f8" d="M 1913.5,658.5 C 1920.53,648.945 1927.03,638.945 1933,628.5C 1933.78,627.272 1934.78,626.272 1936,625.5C 1938.42,626.886 1939.42,628.886 1939,631.5C 1929.67,646.167 1920.33,660.833 1911,675.5C 1908.38,676.923 1905.88,676.757 1903.5,675C 1907.23,669.694 1910.57,664.194 1913.5,658.5 Z"/></g>
<g><path style="opacity:1" fill="#f7f6f9" d="M 178.5,630.5 C 199.152,654.836 219.152,679.836 238.5,705.5C 235.11,707.689 231.443,708.522 227.5,708C 209.667,685.5 191.833,663 174,640.5C 174.646,636.868 176.146,633.535 178.5,630.5 Z"/></g>
<g><path style="opacity:1" fill="#f4f4f7" d="M 1939.5,632.5 C 1940.75,632.577 1941.58,633.244 1942,634.5C 1942.67,636.5 1942.67,638.5 1942,640.5C 1939.83,644.167 1937.67,647.833 1935.5,651.5C 1935.85,652.696 1936.35,652.696 1937,651.5C 1938.75,648.328 1940.75,645.328 1943,642.5C 1944.52,649.184 1943.19,655.184 1939,660.5C 1936.62,664.088 1934.12,667.588 1931.5,671C 1928.49,672.447 1925.49,673.447 1922.5,674C 1923.45,673.282 1923.62,672.449 1923,671.5C 1920.88,676.311 1917.38,677.644 1912.5,675.5C 1921.76,661.307 1930.76,646.974 1939.5,632.5 Z"/></g>
<g><path style="opacity:1" fill="#f7f6f9" d="M 172.5,642.5 C 190.303,664.479 207.969,686.646 225.5,709C 220.473,709.938 215.64,709.438 211,707.5C 198.048,690.213 184.715,673.213 171,656.5C 170.52,651.733 171.02,647.067 172.5,642.5 Z"/></g>
<g><path style="opacity:1" fill="#f6f5f8" d="M 1954.5,694.5 C 1952.78,696.253 1951.28,698.253 1950,700.5C 1948.71,698.374 1947.88,696.041 1947.5,693.5C 1952.09,685.978 1956.43,678.312 1960.5,670.5C 1964.16,666.153 1967.5,661.487 1970.5,656.5C 1972.84,655.276 1975.17,655.276 1977.5,656.5C 1969.31,668.89 1961.64,681.556 1954.5,694.5 Z"/></g>
<g><path style="opacity:1" fill="#f6f5f8" d="M 1982.5,664.5 C 1973.19,677.761 1964.36,691.428 1956,705.5C 1955.44,706.022 1954.77,706.355 1954,706.5C 1952.61,705.387 1951.44,704.053 1950.5,702.5C 1952.3,700.045 1953.63,697.378 1954.5,694.5C 1962.89,682.068 1971.06,669.401 1979,656.5C 1981.54,655.203 1984.04,655.369 1986.5,657C 1984.51,659.158 1983.17,661.658 1982.5,664.5 Z"/></g>
<g><path style="opacity:1" fill="#f6f5f8" d="M 1981.5,680.5 C 1974.47,690.055 1967.97,700.055 1962,710.5C 1959.48,711.493 1957.64,710.66 1956.5,708C 1965.31,693.544 1973.98,679.044 1982.5,664.5C 1984.48,662.186 1986.48,659.853 1988.5,657.5C 1990.5,657.986 1991.83,659.153 1992.5,661C 1988.69,667.458 1985.02,673.958 1981.5,680.5 Z"/></g>
<g><path style="opacity:1" fill="#f6f5f8" d="M 1960.5,670.5 C 1955.78,676.928 1951.28,683.595 1947,690.5C 1946.33,686.5 1946.33,682.5 1947,678.5C 1950.33,673.167 1953.67,667.833 1957,662.5C 1959.93,660.088 1963.09,659.088 1966.5,659.5C 1964.22,663.061 1962.22,666.727 1960.5,670.5 Z"/></g>
<g><path style="opacity:1" fill="#f6f5f8" d="M 170.5,659.5 C 183.303,675.146 195.969,690.979 208.5,707C 201.738,706.634 195.572,704.468 190,700.5C 184.241,692.652 178.241,684.985 172,677.5C 170.928,671.545 170.428,665.545 170.5,659.5 Z"/></g>
<g><path style="opacity:1" fill="#f6f5f8" d="M 1980.5,696.5 C 1976.36,701.419 1972.7,706.753 1969.5,712.5C 1967.02,713.861 1964.68,713.694 1962.5,712C 1969.09,701.597 1975.42,691.097 1981.5,680.5C 1985.85,674.993 1989.85,669.16 1993.5,663C 1995.94,663.086 1997.61,664.419 1998.5,667C 1991.85,676.473 1985.85,686.306 1980.5,696.5 Z"/></g>
<g><path style="opacity:1" fill="#f7f6f9" d="M 912.5,663.5 C 986.055,692.407 1061.06,717.24 1137.5,738C 1086.19,777.298 1032.69,813.465 977,846.5C 951.247,787.078 929.747,726.078 912.5,663.5 Z"/></g>
<g><path style="opacity:1" fill="#f6f5f8" d="M 1980.5,696.5 C 1986.89,687.403 1993.06,678.07 1999,668.5C 2000.02,671.105 2000.85,673.772 2001.5,676.5C 1993.92,687.998 1986.58,699.665 1979.5,711.5C 1977.07,713.571 1974.4,713.904 1971.5,712.5C 1974.56,707.133 1977.56,701.799 1980.5,696.5 Z"/></g>
<g><path style="opacity:1" fill="#f6f5f8" d="M 2000.5,680.5 C 2001.89,684.769 2001.72,689.102 2000,693.5C 1997.17,697.833 1994.33,702.167 1991.5,706.5C 1988.66,708.42 1985.66,710.087 1982.5,711.5C 1981.48,710.998 1981.31,710.332 1982,709.5C 1988.39,699.95 1994.56,690.283 2000.5,680.5 Z"/></g>
<g><path style="opacity:1" fill="#f7f6f9" d="M 111.5,686.5 C 113.903,686.393 115.736,687.393 117,689.5C 133.759,711.348 150.759,733.015 168,754.5C 167.961,757.945 166.794,761.112 164.5,764C 162.255,763.805 160.422,762.638 159,760.5C 140.881,736.713 122.381,713.213 103.5,690C 106.122,688.525 108.788,687.359 111.5,686.5 Z"/></g>
<g><path style="opacity:1" fill="#f6f5f8" d="M 116.5,685.5 C 121.248,685.275 125.915,685.775 130.5,687C 143.952,704.788 157.786,722.288 172,739.5C 172.763,744.45 171.929,749.117 169.5,753.5C 151.786,730.796 134.119,708.129 116.5,685.5 Z"/></g>
<g><path style="opacity:1" fill="#f6f5f8" d="M 133.5,688.5 C 133.735,687.903 134.235,687.57 135,687.5C 141.04,689.065 146.707,691.399 152,694.5C 157.953,702.788 164.286,710.788 171,718.5C 172.406,724.442 172.739,730.442 172,736.5C 159.303,720.312 146.469,704.312 133.5,688.5 Z"/></g>
<g><path style="opacity:1" fill="#f6f5f8" d="M 2011.5,719.5 C 2017.6,710.819 2023.6,701.986 2029.5,693C 2031.83,692.333 2034.17,692.333 2036.5,693C 2027,707.833 2017.5,722.667 2008,737.5C 2007.31,735.278 2006.47,733.111 2005.5,731C 2007.65,727.207 2009.65,723.374 2011.5,719.5 Z"/></g>
<g><path style="opacity:1" fill="#f6f5f8" d="M 2021.5,732.5 C 2018.44,736.258 2015.61,740.258 2013,744.5C 2009.33,742.145 2008.66,739.145 2011,735.5C 2019.92,722.002 2028.58,708.336 2037,694.5C 2039.46,691.9 2041.96,691.9 2044.5,694.5C 2036.31,706.89 2028.64,719.556 2021.5,732.5 Z"/></g>
<g><path style="opacity:1" fill="#f6f5f8" d="M 2011.5,719.5 C 2009.53,721.647 2007.7,723.98 2006,726.5C 2005.33,722.5 2005.33,718.5 2006,714.5C 2009.75,709.338 2013.25,704.004 2016.5,698.5C 2019.62,696.423 2022.96,695.257 2026.5,695C 2020.85,702.806 2015.85,710.972 2011.5,719.5 Z"/></g>
<g><path style="opacity:1" fill="#f7f6f9" d="M 1339.5,879.5 C 1223.17,879.5 1106.83,879.5 990.5,879.5C 987.487,871.295 983.987,863.295 980,855.5C 979.316,854.216 979.483,853.049 980.5,852C 1038.43,818.212 1093.76,780.712 1146.5,739.5C 1175.9,747.344 1205.56,754.011 1235.5,759.5C 1236.29,779.938 1246.63,792.438 1266.5,797C 1285.47,798.191 1298.8,790.191 1306.5,773C 1319.1,774.489 1331.77,775.655 1344.5,776.5C 1344.54,810.922 1342.87,845.255 1339.5,879.5 Z"/></g>
<g><path style="opacity:1" fill="#f7f6f9" d="M 983.5,879.5 C 966.5,879.5 949.5,879.5 932.5,879.5C 945.856,871.734 959.356,864.067 973,856.5C 976.788,864.03 980.288,871.697 983.5,879.5 Z"/></g>
</svg>
