<?xml version="1.0" encoding="UTF-8"?>
<!DOCTYPE svg PUBLIC "-//W3C//DTD SVG 1.1//EN" "http://www.w3.org/Graphics/SVG/1.1/DTD/svg11.dtd">
<svg xmlns="http://www.w3.org/2000/svg" version="1.1" width="1292px" height="1010px" style="shape-rendering:geometricPrecision; text-rendering:geometricPrecision; image-rendering:optimizeQuality; fill-rule:evenodd; clip-rule:evenodd" xmlns:xlink="http://www.w3.org/1999/xlink">
<g><path style="opacity:1" fill="#f7f6f9" d="M -0.5,-0.5 C 430.167,-0.5 860.833,-0.5 1291.5,-0.5C 1291.5,336.167 1291.5,672.833 1291.5,1009.5C 1165.83,1009.5 1040.17,1009.5 914.5,1009.5C 914.5,997.5 914.5,985.5 914.5,973.5C 992.116,984.221 1069.45,982.721 1146.5,969C 1175.26,962.865 1201.92,951.865 1226.5,936C 1263.5,907.308 1274,870.808 1258,826.5C 1247.62,801.812 1233.62,779.478 1216,759.5C 1181.42,722.236 1143.25,689.403 1101.5,661C 1078.84,646 1055.84,631.5 1032.5,617.5C 1056,585.158 1078,551.825 1098.5,517.5C 1119.54,523.064 1134.7,516.064 1144,496.5C 1147.53,484.101 1145.53,472.768 1138,462.5C 1135.1,459.6 1132.27,456.767 1129.5,454C 1143.64,422.241 1152.48,389.075 1156,354.5C 1158.91,325.46 1151.58,299.46 1134,276.5C 1115.47,257.864 1092.97,247.698 1066.5,246C 1049.48,245.253 1032.48,245.586 1015.5,247C 980.106,252.465 945.773,261.798 912.5,275C 867.909,292.629 824.909,313.462 783.5,337.5C 760.855,286.529 734.355,237.862 704,191.5C 686.127,165.278 665.627,141.112 642.5,119C 628.111,105.95 612.111,95.2829 594.5,87C 550.166,68.8746 513,78.3746 483,115.5C 464.381,140.976 450.881,168.976 442.5,199.5C 415.045,201.453 402.545,216.12 405,243.5C 408.051,254.719 414.884,262.719 425.5,267.5C 425.833,268.5 426.167,269.5 426.5,270.5C 418.931,317.859 415.264,365.526 415.5,413.5C 366.614,408.799 317.614,406.966 268.5,408C 227.496,409.523 187.496,416.523 148.5,429C 123.569,437.616 102.069,451.45 84,470.5C 64.9764,495.287 60.3098,522.62 70,552.5C 79.721,579.955 94.0544,604.622 113,626.5C 146.942,664.129 184.775,696.962 226.5,725C 249.864,740.679 273.53,755.846 297.5,770.5C 259.751,821.302 227.584,875.635 201,933.5C 190.445,957.998 182.612,983.332 177.5,1009.5C 118.167,1009.5 58.8333,1009.5 -0.5,1009.5C -0.5,931.5 -0.5,853.5 -0.5,775.5C 3.14985,778.777 7.48318,780.611 12.5,781C 20.1815,781.309 27.8481,781.309 35.5,781C 28.6558,791.198 26.1558,802.365 28,814.5C 31.2603,823.427 37.427,829.261 46.5,832C 55.2211,832.247 63.8878,832.414 72.5,832.5C 66.1708,842.31 63.6708,852.977 65,864.5C 65.7648,867.196 66.9315,869.696 68.5,872C 69.549,872.492 70.549,872.326 71.5,871.5C 71.8333,870.167 72.1667,868.833 72.5,867.5C 79.7483,862.389 86.7483,857.056 93.5,851.5C 100.79,847.18 107.79,842.347 114.5,837C 117.331,838.225 119.664,837.559 121.5,835C 117.207,829.353 111.54,826.019 104.5,825C 96.7978,824.269 89.1311,824.436 81.5,825.5C 83.9246,819.639 86.0913,813.639 88,807.5C 91.6644,790.32 85.1644,779.154 68.5,774C 60.0886,773.398 51.7552,773.398 43.5,774C 50.1479,763.392 52.6479,751.892 51,739.5C 46.755,728.951 38.9217,723.117 27.5,722C 20.8108,721.391 14.1442,721.557 7.5,722.5C 9.75755,716.228 11.9242,709.895 14,703.5C 15.3776,696.097 14.3776,689.097 11,682.5C 10.2825,681.549 9.44915,681.383 8.5,682C 8.34683,684.61 7.0135,686.943 4.5,689C 6.04675,689.333 7.38009,688.833 8.5,687.5C 9.94243,689.316 10.4424,691.316 10,693.5C 8.22865,694.304 6.72865,695.471 5.5,697C 7.04675,697.333 8.38009,696.833 9.5,695.5C 10.641,697.421 10.8077,699.421 10,701.5C 6.73972,704.54 3.23972,707.206 -0.5,709.5C -0.5,472.833 -0.5,236.167 -0.5,-0.5 Z"/></g>
<g><path style="opacity:1" fill="#d2d2d6" d="M 1141.5,18.5 C 1142.73,19.1522 1143.39,20.3189 1143.5,22C 1144.11,36.9401 1147.61,51.1068 1154,64.5C 1158.14,70.3112 1163.64,74.1445 1170.5,76C 1181.38,78.8133 1192.38,80.98 1203.5,82.5C 1192.41,84.0162 1181.41,86.1829 1170.5,89C 1158.84,93.3303 1151.34,101.497 1148,113.5C 1145.46,123.678 1143.79,134.011 1143,144.5C 1141.13,135.295 1139.46,125.962 1138,116.5C 1133.42,98.0979 1121.59,87.9312 1102.5,86C 1093.24,84.3452 1083.9,83.3452 1074.5,83C 1087.94,81.3184 1101.27,78.9851 1114.5,76C 1125.67,72.8333 1132.83,65.6667 1136,54.5C 1139.28,42.7141 1141.11,30.7141 1141.5,18.5 Z"/></g>
<g><path style="opacity:1" fill="#d2d2d6" d="M 914.5,1009.5 C 911.5,1009.5 908.5,1009.5 905.5,1009.5C 906.253,997.181 906.586,984.848 906.5,972.5C 894.481,971.22 882.481,970.053 870.5,969C 862.683,985.411 849.683,992.744 831.5,991C 812.802,986.474 803.135,974.641 802.5,955.5C 773.422,950.356 744.588,944.023 716,936.5C 682.833,961.845 649,986.178 614.5,1009.5C 609.167,1009.5 603.833,1009.5 598.5,1009.5C 634.82,985.997 670.153,960.997 704.5,934.5C 631.947,914.259 560.613,890.759 490.5,864C 504.936,913.141 521.269,961.641 539.5,1009.5C 536.5,1009.5 533.5,1009.5 530.5,1009.5C 511.908,960.225 495.408,910.225 481,859.5C 454.607,848.315 428.441,836.648 402.5,824.5C 390.353,841.704 374.353,846.538 354.5,839C 342.682,831.869 336.682,821.369 336.5,807.5C 336.559,802.361 337.059,797.361 338,792.5C 327.333,786.5 316.667,780.5 306,774.5C 263.439,829.249 228.772,888.915 202,953.5C 194.961,971.657 189.794,990.323 186.5,1009.5C 183.5,1009.5 180.5,1009.5 177.5,1009.5C 182.612,983.332 190.445,957.998 201,933.5C 227.584,875.635 259.751,821.302 297.5,770.5C 273.53,755.846 249.864,740.679 226.5,725C 184.775,696.962 146.942,664.129 113,626.5C 94.0544,604.622 79.721,579.955 70,552.5C 60.3098,522.62 64.9764,495.287 84,470.5C 102.069,451.45 123.569,437.616 148.5,429C 187.496,416.523 227.496,409.523 268.5,408C 317.614,406.966 366.614,408.799 415.5,413.5C 415.264,365.526 418.931,317.859 426.5,270.5C 426.167,269.5 425.833,268.5 425.5,267.5C 414.884,262.719 408.051,254.719 405,243.5C 402.545,216.12 415.045,201.453 442.5,199.5C 450.881,168.976 464.381,140.976 483,115.5C 513,78.3746 550.166,68.8746 594.5,87C 612.111,95.2829 628.111,105.95 642.5,119C 665.627,141.112 686.127,165.278 704,191.5C 734.355,237.862 760.855,286.529 783.5,337.5C 824.909,313.462 867.909,292.629 912.5,275C 945.773,261.798 980.106,252.465 1015.5,247C 1032.48,245.586 1049.48,245.253 1066.5,246C 1092.97,247.698 1115.47,257.864 1134,276.5C 1151.58,299.46 1158.91,325.46 1156,354.5C 1152.48,389.075 1143.64,422.241 1129.5,454C 1132.27,456.767 1135.1,459.6 1138,462.5C 1145.53,472.768 1147.53,484.101 1144,496.5C 1134.7,516.064 1119.54,523.064 1098.5,517.5C 1078,551.825 1056,585.158 1032.5,617.5C 1055.84,631.5 1078.84,646 1101.5,661C 1143.25,689.403 1181.42,722.236 1216,759.5C 1233.62,779.478 1247.62,801.812 1258,826.5C 1274,870.808 1263.5,907.308 1226.5,936C 1201.92,951.865 1175.26,962.865 1146.5,969C 1069.45,982.721 992.116,984.221 914.5,973.5C 914.5,985.5 914.5,997.5 914.5,1009.5 Z"/></g>
<g><path style="opacity:1" fill="#f7f6f9" d="M 542.5,86.5 C 569.78,85.4267 594.446,92.9267 616.5,109C 645.496,131.326 670.329,157.493 691,187.5C 724.034,235.88 752.201,287.214 775.5,341.5C 747.787,358.374 720.454,375.874 693.5,394C 666.718,412.805 640.218,431.972 614,451.5C 551.7,434.967 488.533,422.967 424.5,415.5C 423.901,366.886 427.234,318.553 434.5,270.5C 453.709,271.153 466.542,262.487 473,244.5C 477.15,224.633 469.983,210.466 451.5,202C 458.236,173.176 470.403,146.676 488,122.5C 502.049,104.072 520.216,92.0722 542.5,86.5 Z"/></g>
<g><path style="opacity:1" fill="#d3d3d7" d="M 986.5,102.5 C 987.792,108.67 988.959,115.004 990,121.5C 991.297,128.798 995.464,133.631 1002.5,136C 1008.24,137.058 1013.91,138.391 1019.5,140C 1013.74,140.485 1008.08,141.485 1002.5,143C 995.903,145.263 991.736,149.763 990,156.5C 988.613,162.436 987.613,168.436 987,174.5C 985.923,167.782 984.59,161.115 983,154.5C 980.005,146.568 974.172,142.402 965.5,142C 960.53,141.114 955.53,140.448 950.5,140C 957.213,138.957 963.88,137.623 970.5,136C 974.207,135.064 977.374,133.231 980,130.5C 984.571,121.744 986.738,112.41 986.5,102.5 Z"/></g>
<g><path style="opacity:1" fill="#d7d7da" d="M 249.5,149.5 C 253.51,150.331 254.177,152.164 251.5,155C 264.674,171.669 278.007,188.169 291.5,204.5C 293.834,203.159 295.501,203.826 296.5,206.5C 291.636,211.176 285.803,213.176 279,212.5C 274.444,212.468 269.944,211.968 265.5,211C 260.241,208.866 254.908,207.033 249.5,205.5C 250.527,215.144 250.693,224.811 250,234.5C 244.527,252.609 232.36,260.109 213.5,257C 205.873,255.164 198.54,252.831 191.5,250C 196.445,264.389 195.278,278.223 188,291.5C 177.135,302.792 164.302,305.625 149.5,300C 145.044,298.459 140.711,296.626 136.5,294.5C 136.167,295.167 135.833,295.833 135.5,296.5C 138.566,308.339 138.066,320.005 134,331.5C 132.439,334.783 130.273,337.617 127.5,340C 126.004,340.507 124.837,340.007 124,338.5C 124.195,336.874 124.195,335.207 124,333.5C 111.667,317.833 99.3333,302.167 87,286.5C 78.6984,285.304 78.5317,282.804 86.5,279C 93.4333,277.494 100.433,277.161 107.5,278C 114.291,279.902 120.958,282.069 127.5,284.5C 126.118,275.545 125.618,266.545 126,257.5C 132.051,236.382 145.885,228.548 167.5,234C 173.139,235.991 178.805,237.825 184.5,239.5C 183.006,230.888 182.506,222.221 183,213.5C 188.268,191.943 201.768,183.776 223.5,189C 229.206,191.069 234.872,193.235 240.5,195.5C 241.62,191.812 241.453,188.146 240,184.5C 237.199,171.088 240.366,159.421 249.5,149.5 Z"/></g>
<g><path style="opacity:1" fill="#f7f6f9" d="M 249.5,156.5 C 251.017,156.511 252.184,157.177 253,158.5C 265.167,174 277.333,189.5 289.5,205C 287.424,206.693 285.091,207.36 282.5,207C 271.381,192.212 259.881,177.712 248,163.5C 247.391,160.935 247.891,158.601 249.5,156.5 Z"/></g>
<g><path style="opacity:1" fill="#f7f6f9" d="M 246.5,164.5 C 258.349,178.19 269.683,192.357 280.5,207C 276.409,208.227 272.909,207.394 270,204.5C 262.048,193.547 253.715,182.88 245,172.5C 244.554,169.667 245.054,167.001 246.5,164.5 Z"/></g>
<g><path style="opacity:1" fill="#f6f5f8" d="M 244.5,174.5 C 252.694,185.022 261.027,195.522 269.5,206C 263.269,206.301 258.436,203.801 255,198.5C 252.385,194.217 249.385,190.217 246,186.5C 245.172,182.534 244.672,178.534 244.5,174.5 Z"/></g>
<g><path style="opacity:1" fill="#f6f5f8" d="M 209.5,193.5 C 210.793,192.842 212.293,192.508 214,192.5C 216.352,192.305 218.352,192.972 220,194.5C 227.952,205.453 236.285,216.12 245,226.5C 245.817,229.964 245.483,233.298 244,236.5C 233.016,221.69 221.516,207.357 209.5,193.5 Z"/></g>
<g><path style="opacity:1" fill="#f7f6f9" d="M 205.5,192.5 C 208.044,193.468 210.211,195.135 212,197.5C 221.951,211.119 232.284,224.452 243,237.5C 242.874,240.098 241.874,242.431 240,244.5C 227.529,227.729 214.696,211.229 201.5,195C 202.858,194.066 204.192,193.232 205.5,192.5 Z"/></g>
<g><path style="opacity:1" fill="#f6f6f8" d="M 222.5,194.5 C 225.568,195.022 228.568,195.855 231.5,197C 236.12,202.408 240.62,207.908 245,213.5C 245.667,217.167 245.667,220.833 245,224.5C 236.874,214.887 229.374,204.887 222.5,194.5 Z"/></g>
<g><path style="opacity:1" fill="#f7f6f9" d="M 198.5,195.5 C 212.745,211.258 226.078,227.925 238.5,245.5C 236.725,248.858 234.558,249.524 232,247.5C 220,232.167 208,216.833 196,201.5C 195.333,200.5 195.333,199.5 196,198.5C 197.045,197.627 197.878,196.627 198.5,195.5 Z"/></g>
<g><path style="opacity:1" fill="#f6f6f9" d="M 192.5,201.5 C 194.371,201.859 195.871,202.859 197,204.5C 208.833,219.667 220.667,234.833 232.5,250C 230.147,251.964 227.647,252.464 225,251.5C 214.048,236.879 202.714,222.546 191,208.5C 190.391,205.935 190.891,203.601 192.5,201.5 Z"/></g>
<g><path style="opacity:1" fill="#f6f6f8" d="M 189.5,209.5 C 201.349,223.19 212.683,237.357 223.5,252C 220.833,252.667 218.167,252.667 215.5,252C 206.694,240.227 197.527,228.727 188,217.5C 187.282,214.593 187.782,211.926 189.5,209.5 Z"/></g>
<g><path style="opacity:1" fill="#f6f5f8" d="M 187.5,219.5 C 196.054,229.58 204.387,239.914 212.5,250.5C 206.952,251.141 202.452,249.141 199,244.5C 195.909,239.986 192.575,235.653 189,231.5C 188.172,227.534 187.672,223.534 187.5,219.5 Z"/></g>
<g><path style="opacity:1" fill="#f7f6f9" d="M 163.5,239.5 C 171.044,250.556 179.21,261.223 188,271.5C 188.817,274.964 188.483,278.298 187,281.5C 176.024,267.024 164.858,252.69 153.5,238.5C 157.099,237.035 160.432,237.368 163.5,239.5 Z"/></g>
<g><path style="opacity:1" fill="#f6f6f9" d="M 147.5,237.5 C 149.144,237.286 150.644,237.62 152,238.5C 163.692,253.358 175.192,268.358 186.5,283.5C 185.752,285.332 184.752,286.999 183.5,288.5C 170.34,272.502 157.34,256.336 144.5,240C 145.571,239.148 146.571,238.315 147.5,237.5 Z"/></g>
<g><path style="opacity:1" fill="#f6f6f8" d="M 163.5,239.5 C 168.539,239.019 173.039,240.686 177,244.5C 180.285,249.454 183.952,254.12 188,258.5C 188.667,262.167 188.667,265.833 188,269.5C 180.054,259.246 171.887,249.246 163.5,239.5 Z"/></g>
<g><path style="opacity:1" fill="#f6f6f9" d="M 141.5,240.5 C 142.496,240.414 143.329,240.748 144,241.5C 156.092,257.348 168.426,273.015 181,288.5C 181.381,291.481 180.048,293.481 177,294.5C 164.333,278.5 151.667,262.5 139,246.5C 138.333,245.5 138.333,244.5 139,243.5C 140.045,242.627 140.878,241.627 141.5,240.5 Z"/></g>
<g><path style="opacity:1" fill="#f6f5f8" d="M 136.5,245.5 C 149.36,262.022 162.36,278.522 175.5,295C 173.147,296.964 170.647,297.464 168,296.5C 156.102,281.606 144.602,266.44 133.5,251C 134.124,248.915 135.124,247.082 136.5,245.5 Z"/></g>
<g><path style="opacity:1" fill="#f7f6f9" d="M 1029.5,253.5 C 1124.31,249.149 1162.15,293.482 1143,386.5C 1137.71,408.416 1130.71,429.749 1122,450.5C 1098.71,446.808 1083.38,456.141 1076,478.5C 1074.32,492.972 1079.15,504.805 1090.5,514C 1070.35,548.491 1048.35,581.658 1024.5,613.5C 967.911,581.788 909.745,553.455 850,528.5C 832.898,466.358 811.731,405.691 786.5,346.5C 843.764,311.206 904.764,284.04 969.5,265C 989.431,260.046 1009.43,256.213 1029.5,253.5 Z"/></g>
<g><path style="opacity:1" fill="#f6f5f8" d="M 132.5,253.5 C 143.779,267.79 155.112,282.124 166.5,296.5C 163.894,297.652 161.227,297.818 158.5,297C 149.694,285.227 140.527,273.727 131,262.5C 130.914,259.424 131.414,256.424 132.5,253.5 Z"/></g>
<g><path style="opacity:1" fill="#f6f5f8" d="M 131.5,265.5 C 139.388,274.915 147.055,284.582 154.5,294.5C 151.043,295.142 147.71,294.476 144.5,292.5C 140.142,287.31 135.976,281.977 132,276.5C 131.501,272.848 131.335,269.182 131.5,265.5 Z"/></g>
<g><path style="opacity:1" fill="#f7f6f9" d="M 90.5,282.5 C 92.1439,282.286 93.6439,282.62 95,283.5C 106.692,298.358 118.192,313.358 129.5,328.5C 128.752,330.332 127.752,331.999 126.5,333.5C 113.15,317.479 100.15,301.146 87.5,284.5C 88.6016,283.824 89.6016,283.158 90.5,282.5 Z"/></g>
<g><path style="opacity:1" fill="#f7f6f9" d="M 96.5,283.5 C 98.9664,282.366 101.633,282.199 104.5,283C 113.213,294.258 122.046,305.424 131,316.5C 131.89,319.706 131.557,322.706 130,325.5C 118.589,311.601 107.423,297.601 96.5,283.5 Z"/></g>
<g><path style="opacity:1" fill="#f6f5f8" d="M 107.5,284.5 C 110.799,284.01 114.133,284.677 117.5,286.5C 122.19,292.023 126.69,297.689 131,303.5C 132.325,307.428 132.658,311.428 132,315.5C 123.814,305.097 115.647,294.764 107.5,284.5 Z"/></g>
<g><path style="opacity:1" fill="#f7f6f9" d="M 777.5,350.5 C 779.686,351.823 781.186,353.823 782,356.5C 804.244,410.732 823.411,466.065 839.5,522.5C 839.167,523.167 838.833,523.833 838.5,524.5C 768.931,496.922 697.931,473.422 625.5,454C 674.327,416.757 724.993,382.257 777.5,350.5 Z"/></g>
<g><path style="opacity:1" fill="#f7f6f9" d="M 276.5,415.5 C 323.316,415.034 369.982,417.368 416.5,422.5C 416.518,459.891 418.018,497.225 421,534.5C 423.932,561.886 426.932,589.219 430,616.5C 384.677,663.139 342.344,712.139 303,763.5C 251.5,733.995 203.333,699.828 158.5,661C 139.864,643.703 122.697,625.203 107,605.5C 94.7455,588.997 85.0788,570.997 78,551.5C 66.7548,506.163 81.5882,472.329 122.5,450C 152.795,434.759 184.795,425.092 218.5,421C 237.984,419.094 257.317,417.261 276.5,415.5 Z"/></g>
<g><path style="opacity:1" fill="#f7f6f9" d="M 424.5,423.5 C 485.896,431.183 546.562,442.683 606.5,458C 547.355,504.458 491.189,554.625 438,608.5C 429.091,547.18 424.591,485.514 424.5,423.5 Z"/></g>
<g><path style="opacity:1" fill="#f7f6f9" d="M 616.5,460.5 C 693.727,480.409 769.227,505.409 843,535.5C 864.533,611.829 880.7,689.329 891.5,768C 835.923,825.93 776.423,879.097 713,927.5C 636.258,907.308 561.092,882.641 487.5,853.5C 471.475,793.4 457.975,732.733 447,671.5C 444.251,653.836 441.917,636.17 440,618.5C 495.75,561.891 554.583,509.224 616.5,460.5 Z"/></g>
<g><path style="opacity:1" fill="#f7f6f9" d="M 853.5,539.5 C 910.678,562.756 966.012,589.756 1019.5,620.5C 982.518,670.001 942.351,717.001 899,761.5C 887.639,686.723 872.472,612.723 853.5,539.5 Z"/></g>
<g><path style="opacity:1" fill="#030133" d="M 650.5,553.5 C 711.758,550.538 757.924,575.205 789,627.5C 810.929,671.752 810.929,716.085 789,760.5C 757.679,812.417 711.512,836.917 650.5,834C 590.793,824.727 550.96,791.56 531,734.5C 516.088,675.272 531.255,625.439 576.5,585C 598.29,567.601 622.957,557.101 650.5,553.5 Z"/></g>
<g><path style="opacity:1" fill="#fbfbfc" d="M 625.5,610.5 C 632.508,610.334 639.508,610.5 646.5,611C 651.391,612.112 655.725,614.279 659.5,617.5C 655.635,623.24 651.302,628.573 646.5,633.5C 628.192,626.977 620.192,633.311 622.5,652.5C 633.853,652.168 645.186,652.501 656.5,653.5C 652.291,660.086 647.957,666.586 643.5,673C 636.508,673.5 629.508,673.666 622.5,673.5C 622.5,696.5 622.5,719.5 622.5,742.5C 615.5,742.5 608.5,742.5 601.5,742.5C 601.5,719.5 601.5,696.5 601.5,673.5C 594.5,673.5 587.5,673.5 580.5,673.5C 580.5,666.5 580.5,659.5 580.5,652.5C 587.5,652.5 594.5,652.5 601.5,652.5C 598.695,632.089 606.695,618.089 625.5,610.5 Z"/></g>
<g><path style="opacity:1" fill="#f7f6f9" d="M 1026.5,624.5 C 1079.2,653.699 1128.2,688.199 1173.5,728C 1198.04,750.188 1219.21,775.021 1237,802.5C 1274.64,871.588 1256.8,920.422 1183.5,949C 1143.35,962.724 1102.01,970.057 1059.5,971C 1011.01,972.801 962.672,970.968 914.5,965.5C 914.53,900.986 909.863,836.819 900.5,773C 938.478,732.362 974.978,690.529 1010,647.5C 1015.74,639.936 1021.24,632.27 1026.5,624.5 Z"/></g>
<g><path style="opacity:1" fill="#f7f6f9" d="M 430.5,627.5 C 431.693,627.97 432.36,628.97 432.5,630.5C 443.369,704.071 458.203,776.737 477,848.5C 453.338,838.42 429.838,827.92 406.5,817C 407.082,786.247 392.082,771.914 361.5,774C 354.582,776.421 348.582,780.255 343.5,785.5C 332.314,780.079 321.648,773.912 311.5,767C 348.365,718.286 388.032,671.786 430.5,627.5 Z"/></g>
<g><path style="opacity:1" fill="#6d6b88" d="M 740.5,652.5 C 733.833,652.5 727.167,652.5 720.5,652.5C 720.847,655.341 720.513,657.341 719.5,658.5C 719.5,656.167 719.5,653.833 719.5,651.5C 726.687,651.175 733.687,651.509 740.5,652.5 Z"/></g>
<g><path style="opacity:1" fill="#fcfcfc" d="M 719.5,658.5 C 720.513,657.341 720.847,655.341 720.5,652.5C 727.167,652.5 733.833,652.5 740.5,652.5C 740.5,682.5 740.5,712.5 740.5,742.5C 733.5,742.5 726.5,742.5 719.5,742.5C 719.799,740.396 719.466,738.396 718.5,736.5C 693.908,748.083 673.408,743.083 657,721.5C 644.125,694.805 649.959,673.305 674.5,657C 689.779,650.656 704.779,651.156 719.5,658.5 Z"/></g>
<g><path style="opacity:1" fill="#040234" d="M 688.5,673.5 C 710.657,672.156 720.824,682.49 719,704.5C 713.254,717.959 703.088,723.459 688.5,721C 672.778,713.712 667.944,701.878 674,685.5C 677.517,679.808 682.351,675.808 688.5,673.5 Z"/></g>
<g><path style="opacity:1" fill="#d7d7db" d="M 93.5,851.5 C 86.7483,857.056 79.7483,862.389 72.5,867.5C 72.1667,868.833 71.8333,870.167 71.5,871.5C 70.549,872.326 69.549,872.492 68.5,872C 66.9315,869.696 65.7648,867.196 65,864.5C 63.6708,852.977 66.1708,842.31 72.5,832.5C 63.8878,832.414 55.2211,832.247 46.5,832C 37.427,829.261 31.2603,823.427 28,814.5C 26.1558,802.365 28.6558,791.198 35.5,781C 27.8481,781.309 20.1815,781.309 12.5,781C 7.48318,780.611 3.14985,778.777 -0.5,775.5C -0.5,773.5 -0.5,771.5 -0.5,769.5C 5.20361,766.642 10.5369,763.142 15.5,759C 16.1667,758.333 16.8333,758.333 17.5,759C 12.1667,763 6.83333,767 1.5,771C 2.90626,773.449 4.90626,774.449 7.5,774C 14.3658,768.076 21.6992,762.909 29.5,758.5C 34.071,754.202 39.071,750.369 44.5,747C 47.9499,744.842 48.2833,742.342 45.5,739.5C 40.3617,742.805 35.3617,746.305 30.5,750C 29.8333,750.667 29.1667,750.667 28.5,750C 33.5775,746.045 38.7442,742.211 44,738.5C 44.7789,736.094 43.9456,734.427 41.5,733.5C 23.4796,745.489 23.1463,744.989 40.5,732C 39.2713,730.471 37.7713,729.304 36,728.5C 33.221,731.297 30.0544,733.13 26.5,734C 29.0196,732.237 31.3529,730.237 33.5,728C 30.9234,726.75 28.2567,726.416 25.5,727C 18.668,733.056 11.3346,738.056 3.5,742C 10.1667,737 16.8333,732 23.5,727C 20.1667,726.333 16.8333,726.333 13.5,727C 8.98248,730.752 4.31581,734.252 -0.5,737.5C -0.5,728.167 -0.5,718.833 -0.5,709.5C 3.23972,707.206 6.73972,704.54 10,701.5C 10.8077,699.421 10.641,697.421 9.5,695.5C 8.38009,696.833 7.04675,697.333 5.5,697C 6.72865,695.471 8.22865,694.304 10,693.5C 10.4424,691.316 9.94243,689.316 8.5,687.5C 7.38009,688.833 6.04675,689.333 4.5,689C 7.0135,686.943 8.34683,684.61 8.5,682C 9.44915,681.383 10.2825,681.549 11,682.5C 14.3776,689.097 15.3776,696.097 14,703.5C 11.9242,709.895 9.75755,716.228 7.5,722.5C 14.1442,721.557 20.8108,721.391 27.5,722C 38.9217,723.117 46.755,728.951 51,739.5C 52.6479,751.892 50.1479,763.392 43.5,774C 51.7552,773.398 60.0886,773.398 68.5,774C 85.1644,779.154 91.6644,790.32 88,807.5C 86.0913,813.639 83.9246,819.639 81.5,825.5C 89.1311,824.436 96.7978,824.269 104.5,825C 111.54,826.019 117.207,829.353 121.5,835C 119.664,837.559 117.331,838.225 114.5,837C 107.79,842.347 100.79,847.18 93.5,851.5 Z"/></g>
<g><path style="opacity:1" fill="#f5f4f7" d="M 29.5,758.5 C 21.6992,762.909 14.3658,768.076 7.5,774C 4.90626,774.449 2.90626,773.449 1.5,771C 6.83333,767 12.1667,763 17.5,759C 16.8333,758.333 16.1667,758.333 15.5,759C 10.5369,763.142 5.20361,766.642 -0.5,769.5C -0.5,758.833 -0.5,748.167 -0.5,737.5C 4.31581,734.252 8.98248,730.752 13.5,727C 16.8333,726.333 20.1667,726.333 23.5,727C 16.8333,732 10.1667,737 3.5,742C 11.3346,738.056 18.668,733.056 25.5,727C 28.2567,726.416 30.9234,726.75 33.5,728C 31.3529,730.237 29.0196,732.237 26.5,734C 30.0544,733.13 33.221,731.297 36,728.5C 37.7713,729.304 39.2713,730.471 40.5,732C 23.1463,744.989 23.4796,745.489 41.5,733.5C 43.9456,734.427 44.7789,736.094 44,738.5C 38.7442,742.211 33.5775,746.045 28.5,750C 29.1667,750.667 29.8333,750.667 30.5,750C 35.3617,746.305 40.3617,742.805 45.5,739.5C 48.2833,742.342 47.9499,744.842 44.5,747C 39.071,750.369 34.071,754.202 29.5,758.5 Z"/></g>
<g><path style="opacity:1" fill="#f2f1f4" d="M 29.5,758.5 C 35.7093,755.137 41.5427,751.137 47,746.5C 47.6667,748.833 47.6667,751.167 47,753.5C 45.0748,754.88 43.2415,756.38 41.5,758C 42.9961,758.507 44.1627,758.007 45,756.5C 45.2677,761.375 43.4344,765.208 39.5,768C 40.1667,768.333 40.8333,768.667 41.5,769C 39.0078,775.157 34.3411,777.824 27.5,777C 24.1667,777.667 20.8333,777.667 17.5,777C 19.5,775.333 21.5,773.667 23.5,772C 20.8633,772.493 18.53,773.827 16.5,776C 13.6213,776.874 10.9546,776.54 8.5,775C 15.5692,769.48 22.5692,763.98 29.5,758.5 Z"/></g>
<g><path style="opacity:1" fill="#f7f6f9" d="M 530.5,1009.5 C 415.833,1009.5 301.167,1009.5 186.5,1009.5C 189.794,990.323 194.961,971.657 202,953.5C 228.772,888.915 263.439,829.249 306,774.5C 316.667,780.5 327.333,786.5 338,792.5C 337.059,797.361 336.559,802.361 336.5,807.5C 336.682,821.369 342.682,831.869 354.5,839C 374.353,846.538 390.353,841.704 402.5,824.5C 428.441,836.648 454.607,848.315 481,859.5C 495.408,910.225 511.908,960.225 530.5,1009.5 Z"/></g>
<g><path style="opacity:1" fill="#f7f6f9" d="M 892.5,779.5 C 901.581,840.684 906.248,902.351 906.5,964.5C 895.175,963.094 883.842,961.76 872.5,960.5C 873.236,940.797 864.236,927.963 845.5,922C 831.431,919.126 819.598,922.959 810,933.5C 807.012,937.808 804.845,942.475 803.5,947.5C 776.994,942.457 750.66,936.624 724.5,930C 783.675,883.674 839.675,833.507 892.5,779.5 Z"/></g>
<g><path style="opacity:1" fill="#f3f2f5" d="M 72.5,814.5 C 65.3852,818.898 58.3852,823.565 51.5,828.5C 49.3392,827.965 47.3392,827.132 45.5,826C 48.1667,824 50.8333,822 53.5,820C 50.8633,820.493 48.53,821.827 46.5,824C 42.7757,826.434 40.609,825.601 40,821.5C 44.4361,818.697 48.6028,815.531 52.5,812C 51.8333,811.333 51.1667,811.333 50.5,812C 46.1667,815.167 41.8333,818.333 37.5,821.5C 36.5,820.167 35.5,818.833 34.5,817.5C 36.269,815.443 38.269,813.61 40.5,812C 38.1171,812.446 35.9504,813.612 34,815.5C 32.7792,814.226 31.9459,812.726 31.5,811C 40.1355,804.342 48.8022,797.676 57.5,791C 48.5701,795.883 40.0701,801.716 32,808.5C 31.3333,806.167 31.3333,803.833 32,801.5C 34.0739,799.548 36.2406,797.715 38.5,796C 36.9532,795.667 35.6199,796.167 34.5,797.5C 34.1667,797 33.8333,796.5 33.5,796C 34.4721,793.889 35.3054,791.722 36,789.5C 41.1667,785.667 46.3333,781.833 51.5,778C 54.8333,777.333 58.1667,777.333 61.5,778C 57.2171,780.615 53.2171,783.615 49.5,787C 49.8333,787.167 50.1667,787.333 50.5,787.5C 55.1667,784.167 59.8333,780.833 64.5,777.5C 66.1151,778.154 67.7818,778.654 69.5,779C 69.6399,780.264 69.6399,781.431 69.5,782.5C 72.4954,779.826 75.1621,780.159 77.5,783.5C 74.9783,785.856 72.3116,788.023 69.5,790C 73.0544,789.13 76.221,787.297 79,784.5C 81.7766,786.926 83.4433,789.592 84,792.5C 84.8249,794.701 84.3249,796.534 82.5,798C 84.4574,800.121 84.9574,802.621 84,805.5C 79.6935,807.982 75.8601,810.982 72.5,814.5 Z"/></g>
<g><path style="opacity:1" fill="#f6f5f8" d="M 72.5,814.5 C 76.0317,813.146 79.1984,811.146 82,808.5C 82.2639,812.696 80.7639,816.196 77.5,819C 73.2171,821.615 69.2171,824.615 65.5,828C 62.1667,828.667 58.8333,828.667 55.5,828C 61.3539,823.636 67.0205,819.136 72.5,814.5 Z"/></g>
<g><path style="opacity:1" fill="#f5f4f7" d="M 80.5,843.5 C 76.9683,844.854 73.8016,846.854 71,849.5C 71.0192,846.756 71.6859,844.089 73,841.5C 75.0739,839.548 77.2406,837.715 79.5,836C 78.0039,835.493 76.8373,835.993 76,837.5C 75.516,832.175 78.016,829.508 83.5,829.5C 88.0839,829.725 92.7505,829.891 97.5,830C 91.6461,834.364 85.9795,838.864 80.5,843.5 Z"/></g>
<g><path style="opacity:1" fill="#f5f4f7" d="M 93.5,851.5 C 86.2097,855.82 79.2097,860.653 72.5,866C 71.8333,866.667 71.1667,866.667 70.5,866C 69.1667,864 69.1667,862 70.5,860C 68.1975,858.05 67.8641,855.717 69.5,853C 73.3387,849.992 77.0054,846.825 80.5,843.5C 87.282,839.268 93.9487,834.768 100.5,830C 103.303,829.245 105.97,829.578 108.5,831C 103.167,835 97.8333,839 92.5,843C 98.4884,840.151 104.155,836.485 109.5,832C 111.938,831.885 113.938,832.885 115.5,835C 107.92,840.277 100.586,845.777 93.5,851.5 Z"/></g>
<g><path style="opacity:1" fill="#f7f6f9" d="M 598.5,1009.5 C 578.833,1009.5 559.167,1009.5 539.5,1009.5C 521.269,961.641 504.936,913.141 490.5,864C 560.613,890.759 631.947,914.259 704.5,934.5C 670.153,960.997 634.82,985.997 598.5,1009.5 Z"/></g>
<g><path style="opacity:1" fill="#f7f6f9" d="M 905.5,1009.5 C 808.5,1009.5 711.5,1009.5 614.5,1009.5C 649,986.178 682.833,961.845 716,936.5C 744.588,944.023 773.422,950.356 802.5,955.5C 803.135,974.641 812.802,986.474 831.5,991C 849.683,992.744 862.683,985.411 870.5,969C 882.481,970.053 894.481,971.22 906.5,972.5C 906.586,984.848 906.253,997.181 905.5,1009.5 Z"/></g>
</svg>
