<svg width="38" height="38" viewBox="0 0 38 38" fill="none" xmlns="http://www.w3.org/2000/svg">
<path d="M8.5 9.94116C8.5 8.56045 9.61929 7.44116 11 7.44116H18.0294H21.6685C22.3963 7.44116 23.088 7.75834 23.5629 8.30985L26.9532 12.2471C27.3439 12.7008 27.5588 13.2796 27.5588 13.8784V30.4706C27.5588 31.8513 26.4395 32.9706 25.0588 32.9706H11C9.61929 32.9706 8.5 31.8513 8.5 30.4706V9.94116Z" fill="#040036" stroke="#040036"/>
<path d="M10.4412 8C10.4412 6.61929 11.5604 5.5 12.9412 5.5H19.9706H24.5267C24.6723 5.5 24.8106 5.56343 24.9056 5.67374L29.3789 10.8685C29.457 10.9592 29.5 11.075 29.5 11.1948V28.5294C29.5 29.9101 28.3807 31.0294 27 31.0294H12.9412C11.5604 31.0294 10.4412 29.9101 10.4412 28.5294V8Z" fill="white" stroke="#040036"/>
<path d="M25 5.78333L29.4668 10.9706H26.5C25.6716 10.9706 25 10.299 25 9.47059V5.78333Z" fill="#040036" stroke="#040036"/>
</svg>
