<svg width="38" height="38" viewBox="0 0 38 38" fill="none" xmlns="http://www.w3.org/2000/svg">
<path d="M5.54457 10.6717L34.1703 8.00001L22.5069 26.7307C22.1398 27.3203 21.2981 27.3653 20.8702 26.818L18.0622 23.2263L11.0324 27.3616C10.3996 27.7338 9.63314 27.1534 9.81998 26.4433L9.31203 14.5765L5.19837 12.5658C4.2906 12.1221 4.53854 10.7656 5.54457 10.6717Z" fill="white"/>
<path d="M34.1703 8.00001L5.54457 10.6717C4.53854 10.7656 4.2906 12.1221 5.19837 12.5658L9.31203 14.5765M34.1703 8.00001L22.5069 26.7307C22.1398 27.3203 21.2981 27.3653 20.8702 26.818L18.0622 23.2263M34.1703 8.00001L12.5291 16.1489M12.5291 16.1489L9.31203 14.5765M12.5291 16.1489L18.0622 23.2263M12.5291 16.1489L9.81998 26.4433M9.31203 14.5765L9.81998 26.4433M18.0622 23.2263L11.0324 27.3616C10.3996 27.7338 9.63314 27.1534 9.81998 26.4433V26.4433" stroke="#040036" stroke-width="1.2"/>
</svg>
