<svg width="213" height="200" viewBox="0 0 213 200" fill="none" xmlns="http://www.w3.org/2000/svg">
<path d="M35.5 14.7055C35.5 10.712 37.5718 7.00445 40.9729 4.91147L45.3694 2.20593C47.1819 1.09055 49.2683 0.5 51.3965 0.5H156C162.351 0.5 167.5 5.64873 167.5 12V188C167.5 194.351 162.351 199.5 156 199.5H43C38.8579 199.5 35.5 196.142 35.5 192V14.7055Z" fill="#040036" stroke="#040036"/>
<rect x="40.5" y="0.5" width="132" height="199" rx="11.5" fill="white" stroke="#040036"/>
<g clip-path="url(#clip0_3090_55634)">
<path d="M79.343 22.1565C79.3997 20.202 78.035 18.493 76.1164 18.1157L65.1043 15.9506C63.1856 15.5734 61.2755 16.6385 60.588 18.469L55.5762 31.8127C54.536 34.5824 50.953 35.3033 48.9224 33.1515L39.1398 22.7845C37.7978 21.3624 35.6243 21.1189 34.0009 22.2088L24.6831 28.4646C23.0597 29.5545 22.4622 31.6584 23.2705 33.4389L29.162 46.4181C30.3849 49.1121 28.3611 52.1555 25.4037 52.0697L11.1563 51.6566C9.20172 51.5999 7.49269 52.9646 7.11546 54.8832L4.9503 65.8953C4.57307 67.814 5.63823 69.7241 7.46873 70.4116L20.8121 75.4232C23.5818 76.4635 24.3027 80.0465 22.1509 82.0771L11.7841 91.8596C10.3619 93.2015 10.1184 95.375 11.2084 96.9984L17.4641 106.316C18.5541 107.94 20.6579 108.537 22.4384 107.729L35.4178 101.837C38.1118 100.614 41.1552 102.638 41.0694 105.596L40.6563 119.843C40.5996 121.798 41.9643 123.507 43.8829 123.884L54.8951 126.049C56.8137 126.427 58.7238 125.361 59.4113 123.531L64.423 110.187C65.4632 107.418 69.0463 106.697 71.0768 108.849L80.8591 119.215C82.2011 120.637 84.3745 120.881 85.9979 119.791L95.3157 113.535C96.9391 112.445 97.5366 110.341 96.7284 108.561L90.8369 95.5818C89.614 92.8878 91.6378 89.8444 94.5952 89.9302L108.843 90.3433C110.798 90.4 112.507 89.0353 112.884 87.1167L115.049 76.1045C115.426 74.1859 114.361 72.2758 112.531 71.5883L99.1868 66.5765C96.4172 65.5362 95.6962 61.9532 97.848 59.9227L108.215 50.1402C109.637 48.7983 109.88 46.6248 108.79 45.0014L102.535 35.6836C101.445 34.0602 99.3409 33.4627 97.5604 34.2709L84.5815 40.1623C81.8875 41.3852 78.8441 39.3614 78.9299 36.4041L79.343 22.1565Z" fill="#EBEBED"/>
<circle cx="59.9997" cy="71" r="27" transform="rotate(11.1233 59.9997 71)" fill="white"/>
<path d="M149.463 79.1848C148.686 77.3901 146.726 76.4198 144.829 76.8906L133.936 79.5926C132.038 80.0634 130.759 81.8372 130.911 83.7866L132.022 97.9971C132.252 100.947 129.312 103.117 126.561 102.028L113.308 96.779C111.49 96.059 109.418 96.7588 108.409 98.4337L102.618 108.047C101.608 109.722 101.958 111.881 103.444 113.151L114.278 122.414C116.527 124.337 115.982 127.951 113.267 129.126L100.185 134.785C98.3902 135.561 97.4199 137.521 97.8907 139.419L100.593 150.312C101.063 152.21 102.837 153.489 104.787 153.337L118.997 152.226C121.946 151.996 124.117 154.936 123.027 157.687L117.779 170.939C117.059 172.757 117.759 174.829 119.433 175.838L129.046 181.63C130.721 182.639 132.88 182.289 134.151 180.803L143.414 169.969C145.337 167.721 148.951 168.265 150.125 170.981L155.785 184.063C156.561 185.857 158.521 186.828 160.419 186.357L171.312 183.655C173.21 183.184 174.489 181.41 174.337 179.461L173.226 165.251C172.996 162.301 175.936 160.131 178.687 161.22L191.939 166.469C193.757 167.189 195.829 166.489 196.838 164.814L202.63 155.201C203.639 153.526 203.289 151.367 201.803 150.097L190.969 140.834C188.721 138.911 189.265 135.297 191.981 134.122L205.063 128.463C206.858 127.686 207.828 125.726 207.357 123.829L204.655 112.936C204.184 111.038 202.41 109.759 200.461 109.911L186.25 111.022C183.301 111.252 181.13 108.312 182.22 105.561L187.468 92.3087C188.188 90.4907 187.489 88.4187 185.814 87.4096L176.201 81.6178C174.526 80.6087 172.367 80.9584 171.096 82.4445L161.834 93.2779C159.911 95.5266 156.297 94.982 155.122 92.2666L149.463 79.1848Z" fill="#EBEBED"/>
<circle cx="152.624" cy="131.624" r="27" transform="rotate(-13.9313 152.624 131.624)" fill="white"/>
<rect x="48.5" y="8.5" width="116" height="183" rx="7.5" stroke="#040036"/>
</g>
<path d="M89.5 8.5H123.5V10C123.5 14.1421 120.142 17.5 116 17.5H97C92.8579 17.5 89.5 14.1421 89.5 10V8.5Z" fill="#040036" stroke="#040036"/>
<line y1="199.5" x2="213" y2="199.5" stroke="#040036"/>
<defs>
<clipPath id="clip0_3090_55634">
<rect width="117" height="184" fill="white" transform="translate(48 8)"/>
</clipPath>
</defs>
</svg>
