<svg width="24" height="24" viewBox="0 0 24 24" fill="none" xmlns="http://www.w3.org/2000/svg">
    <path fill-rule="evenodd" clip-rule="evenodd" d="M17 20.6598C12.2196 23.4198 6.09976 21.78 3.33976 16.9995C0.579757 12.2191 2.21955 6.09927 7.00001 3.33927C11.7805 0.579269 17.9003 2.21906 20.6603 6.99952C23.4203 11.78 21.7805 17.8998 17 20.6598ZM5.07181 15.9995C7.28181 19.8274 12.1722 21.1377 16 18.9277C17.6022 18.0027 18.7594 16.6071 19.3985 15.0141L15.9366 14.0865C15.9578 14.2365 15.9693 14.3942 15.97 14.56C15.96 16.17 14.76 17.04 13.24 17.33V19H10.9V17.3C9.40004 16.99 8.14004 16.03 8.04004 14.33H9.76004C9.85004 15.25 10.48 15.97 12.08 15.97C13.79 15.97 14.18 15.11 14.18 14.58C14.18 14.1933 14.0675 13.8153 13.6613 13.4769L4.08539 10.911C3.8424 12.6101 4.14681 14.3974 5.07181 15.9995ZM8.21421 9.95293C8.19162 9.80864 8.18004 9.65777 8.18004 9.5C8.18004 7.99 9.39004 7.01 10.9 6.69V5H13.23V6.71C14.85 7.11 15.67 8.34 15.72 9.68H14.01C13.97 8.7 13.45 8.04 12.07 8.04C10.76 8.04 9.97004 8.63 9.97004 9.47C9.97004 9.96547 10.2326 10.3504 10.9547 10.6873L19.9146 13.088C20.1576 11.3889 19.8532 9.60167 18.9282 7.99952C16.7182 4.17169 11.8278 2.86132 8.00001 5.07132C6.39786 5.99632 5.24062 7.39192 4.60149 8.9849L8.21421 9.95293Z" fill="black" fill-opacity="0.54"/>
</svg>
