<svg width="216" height="130" viewBox="0 0 216 130" fill="none" xmlns="http://www.w3.org/2000/svg">
<rect x="17.9102" y="65.5708" width="80.8581" height="61.7578" rx="7.95848" fill="#040036" stroke="#040036"/>
<path d="M17.9102 80.2143C17.9102 75.819 21.4733 72.2559 25.8686 72.2559H90.8098C95.2052 72.2559 98.7683 75.819 98.7683 80.2143V119.37C98.7683 123.765 95.2052 127.329 90.8098 127.329H25.8686C21.4733 127.329 17.9102 123.765 17.9102 119.37V80.2143Z" fill="#040036" stroke="#040036"/>
<path d="M89.474 76.0761C89.1318 76.0761 88.8544 76.3611 88.8544 76.7128V77.3494H90.9197L90.0936 78.6228H88.8544L88.8544 82.8673H87.6152L87.6152 78.6228H86.376V77.3494H87.6152V76.7128C87.6152 75.6579 88.4474 74.8027 89.474 74.8027H89.8871C90.3394 74.8027 90.7555 74.9696 91.0778 75.246L90.2836 76.2235C90.1759 76.1312 90.0386 76.0761 89.8871 76.0761H89.474Z" fill="#040036"/>
<path fill-rule="evenodd" clip-rule="evenodd" d="M94.6373 77.3494H95.8765V82.8673H94.6373V82.4336C94.22 82.7082 93.7239 82.8673 93.1916 82.8673C91.7088 82.8673 90.5067 81.6321 90.5067 80.1084C90.5067 78.5847 91.7088 77.3494 93.1916 77.3494C93.7239 77.3494 94.22 77.5086 94.6373 77.7832V77.3494ZM94.6373 80.1084C94.6373 80.9289 93.9901 81.594 93.1916 81.594C92.3932 81.594 91.7459 80.9289 91.7459 80.1084C91.7459 79.2879 92.3932 78.6228 93.1916 78.6228C93.9901 78.6228 94.6373 79.2879 94.6373 80.1084Z" fill="#040036"/>
<path d="M80.6445 127.169C80.6445 127.169 84.517 120.644 85.2916 112.685" stroke="#040036"/>
<path d="M75.5332 92.1525C85.137 90.8791 80.49 114.118 80.49 114.118" stroke="#040036"/>
<path d="M23.4867 76.0761C23.1445 76.0761 22.8671 76.3611 22.8671 76.7128V77.3494H24.9324L24.1063 78.6228H22.8671L22.8671 82.8673H21.6279L21.6279 78.6228H20.3887V77.3494H21.6279V76.7128C21.6279 75.6579 22.4601 74.8027 23.4867 74.8027H23.8998C24.3521 74.8027 24.7682 74.9696 25.0905 75.246L24.2963 76.2235C24.1886 76.1312 24.0513 76.0761 23.8998 76.0761H23.4867Z" fill="#040036"/>
<path fill-rule="evenodd" clip-rule="evenodd" d="M28.65 77.3494H29.8892V82.8673H28.65V82.4336C28.2327 82.7082 27.7366 82.8673 27.2043 82.8673C25.7214 82.8673 24.5194 81.6321 24.5194 80.1084C24.5194 78.5847 25.7214 77.3494 27.2043 77.3494C27.7366 77.3494 28.2327 77.5086 28.65 77.7832V77.3494ZM28.65 80.1084C28.65 80.9289 28.0028 81.594 27.2043 81.594C26.4058 81.594 25.7586 80.9289 25.7586 80.1084C25.7586 79.2879 26.4058 78.6228 27.2043 78.6228C28.0028 78.6228 28.65 79.2879 28.65 80.1084Z" fill="#040036"/>
<ellipse cx="22.8674" cy="69.0727" rx="1.54901" ry="1.5917" fill="white"/>
<ellipse cx="28.4435" cy="69.0727" rx="1.54901" ry="1.5917" fill="white"/>
<ellipse cx="34.0197" cy="69.0727" rx="1.54901" ry="1.5917" fill="white"/>
<g clip-path="url(#clip0_5888_8001)">
<rect x="16" y="60.4775" width="77.6747" height="61.7578" rx="5.09343" fill="#040036" stroke="#040036" stroke-width="0.318339"/>
<path d="M16 67.1626H93.6747V117.142C93.6747 119.955 91.3943 122.235 88.5813 122.235H21.0934C18.2804 122.235 16 119.955 16 117.142V67.1626Z" fill="white" stroke="#040036" stroke-width="0.318339"/>
<path d="M81.5057 107.963C81.1184 107.963 80.8045 108.277 80.8045 108.664V109.365H83.1416L82.2068 110.767H80.8045L80.8045 115.442H79.4023L79.4023 110.767H78V109.365H79.4023V108.664C79.4023 107.502 80.344 106.561 81.5057 106.561H81.9731C82.485 106.561 82.9558 106.744 83.3205 107.049L82.4218 108.125C82.2999 108.023 82.1445 107.963 81.9731 107.963H81.5057Z" fill="#040036"/>
<path fill-rule="evenodd" clip-rule="evenodd" d="M87.3484 109.365H88.7507V115.442H87.3484V114.964C86.8762 115.266 86.3148 115.442 85.7124 115.442C84.0345 115.442 82.6742 114.081 82.6742 112.403C82.6742 110.725 84.0345 109.365 85.7124 109.365C86.3148 109.365 86.8762 109.54 87.3484 109.843V109.365ZM87.3484 112.403C87.3484 113.307 86.616 114.039 85.7124 114.039C84.8089 114.039 84.0765 113.307 84.0765 112.403C84.0765 111.5 84.8089 110.767 85.7124 110.767C86.616 110.767 87.3484 111.5 87.3484 112.403Z" fill="#040036"/>
<circle cx="21.0936" cy="63.9794" r="1.5917" fill="white"/>
<circle cx="26.8231" cy="63.9794" r="1.5917" fill="white"/>
<circle cx="32.5536" cy="63.9794" r="1.5917" fill="white"/>
<path d="M24.9977 76.3377C25.0117 76.3481 25.0255 76.3588 25.039 76.3699C25.335 76.6124 25.6302 76.8807 25.9235 77.1734C26.9641 76.7651 49.3391 67.9715 64.4773 60.8899C66.3343 60.0211 67.9712 58.7419 68.7144 56.8312C70.0397 53.4241 71.3291 48.054 71.9557 45.2729C72.2125 44.1331 72.952 43.1289 74.0793 42.8219C74.9471 42.5855 75.9669 42.4529 76.7015 42.8059L76.8018 42.8625C77.0275 41.6264 77.2701 40.2433 77.5308 38.6959C77.7688 37.2836 79.0374 36.263 80.4663 36.3593C82.0965 36.4692 83.2792 37.9506 83.0087 39.5619C82.907 40.1674 82.7934 40.8382 82.6716 41.5487L83.1176 39.1917C83.4466 37.4278 85.0439 36.1894 86.8341 36.3101C88.784 36.4416 90.258 38.1288 90.1266 40.0786L90.0862 40.6772L90.0741 40.8568C90.4369 40.7641 90.8201 40.7267 91.2128 40.7532C93.0225 40.8752 94.4759 42.3204 94.4411 44.1338C94.4018 46.1766 94.1715 48.1316 93.9116 50.1898C95.6591 50.3644 97.0607 51.7747 97.0557 53.5411C96.9843 78.8582 69.393 85.9063 34.3702 100.414L33.8902 100.605C32.1634 110.284 25.871 85.3608 24.1462 77.2728C24.0116 76.6416 24.4796 75.9527 24.9977 76.3377Z" fill="#040036"/>
<path d="M74.0891 53.1587C74.0891 53.1587 74.7213 54.2611 76.8018 42.8625M80.1238 53.5656C80.5317 53.5931 81.8093 46.5753 82.6716 41.5487M85.8838 53.3158C86.2761 53.3423 86.7507 48.9394 87.4112 43.855C87.6045 42.3675 88.6915 41.2103 90.0741 40.8568M88.3783 58.9081C88.7599 58.9338 89.2583 57.2275 89.9065 53.2994C90.2172 51.4165 91.8899 50.0516 93.7938 50.18C93.8332 50.1826 93.8725 50.1859 93.9116 50.1898M25.9235 77.1734C26.9641 76.7651 49.3391 67.9715 64.4773 60.8899C66.3343 60.0211 67.9712 58.7419 68.7144 56.8312C70.0397 53.4241 71.3291 48.054 71.9557 45.2729C72.2125 44.1331 72.952 43.1289 74.0793 42.8219C74.9471 42.5855 75.9669 42.4529 76.7015 42.8059L76.8018 42.8625M25.9235 77.1734C25.6302 76.8807 25.335 76.6124 25.039 76.3699C25.0255 76.3588 25.0117 76.3481 24.9977 76.3377C24.4796 75.9527 24.0116 76.6416 24.1462 77.2728C25.871 85.3608 32.1634 110.284 33.8902 100.605M25.9235 77.1734C30.1557 81.3983 33.9858 90.7071 33.8902 100.605M33.8902 100.605L34.3702 100.414C69.393 85.9063 96.9843 78.8582 97.0557 53.5411C97.0607 51.7747 95.6591 50.3644 93.9116 50.1898M93.9116 50.1898C94.1715 48.1315 94.4018 46.1766 94.4411 44.1338C94.4759 42.3204 93.0225 40.8752 91.2128 40.7532C90.8201 40.7267 90.4369 40.7641 90.0741 40.8568M90.0741 40.8568L90.0862 40.6772L90.1266 40.0786C90.258 38.1288 88.784 36.4416 86.8341 36.3101C85.0439 36.1894 83.4466 37.4278 83.1176 39.1917L82.6716 41.5487M82.6716 41.5487C82.7934 40.8382 82.907 40.1674 83.0087 39.5619C83.2792 37.9506 82.0965 36.4692 80.4663 36.3593C79.0374 36.263 77.7688 37.2836 77.5308 38.6959C77.2701 40.2433 77.0275 41.6264 76.8018 42.8625" stroke="#040036" stroke-width="0.318339" stroke-linecap="round"/>
</g>
<rect x="116.913" y="43.6055" width="83.0865" height="61.7578" rx="7.95848" fill="#040036" stroke="#040036"/>
<path d="M116.913 58.249C116.913 53.8537 120.476 50.2905 124.872 50.2905H192.041C196.436 50.2905 200 53.8537 200 58.249V97.4047C200 101.8 196.436 105.363 192.041 105.363H124.872C120.476 105.363 116.913 101.8 116.913 97.4047V58.249Z" fill="#040036" stroke="#040036"/>
<path d="M190.449 54.1108C190.097 54.1108 189.812 54.3958 189.812 54.7474V55.3841H191.935L191.086 56.6575H189.812L189.812 60.902H188.539L188.539 56.6575H187.266V55.3841H188.539V54.7474C188.539 53.6926 189.394 52.8374 190.449 52.8374H190.873C191.338 52.8374 191.766 53.0043 192.097 53.2807L191.281 54.2582C191.17 54.1658 191.029 54.1108 190.873 54.1108H190.449Z" fill="#040036"/>
<path fill-rule="evenodd" clip-rule="evenodd" d="M195.755 55.3841H197.028V60.902H195.755V60.4683C195.326 60.7428 194.816 60.902 194.269 60.902C192.745 60.902 191.51 59.6668 191.51 58.1431C191.51 56.6193 192.745 55.3841 194.269 55.3841C194.816 55.3841 195.326 55.5433 195.755 55.8178V55.3841ZM195.755 58.1431C195.755 58.9635 195.09 59.6286 194.269 59.6286C193.449 59.6286 192.784 58.9635 192.784 58.1431C192.784 57.3226 193.449 56.6575 194.269 56.6575C195.09 56.6575 195.755 57.3226 195.755 58.1431Z" fill="#040036"/>
<path d="M181.377 105.204C181.377 105.204 185.356 98.6782 186.152 90.7197" stroke="#040036"/>
<path d="M176.124 70.1872C185.993 68.9137 181.217 92.1526 181.217 92.1526" stroke="#040036"/>
<path d="M122.643 54.1108C122.292 54.1108 122.007 54.3958 122.007 54.7474V55.3841H124.129L123.28 56.6575H122.007L122.007 60.902H120.733L120.733 56.6575H119.46V55.3841H120.733V54.7474C120.733 53.6926 121.588 52.8374 122.643 52.8374H123.068C123.533 52.8374 123.96 53.0043 124.291 53.2807L123.475 54.2582C123.365 54.1658 123.223 54.1108 123.068 54.1108H122.643Z" fill="#040036"/>
<path fill-rule="evenodd" clip-rule="evenodd" d="M127.949 55.3841H129.222V60.902H127.949V60.4683C127.52 60.7428 127.01 60.902 126.463 60.902C124.94 60.902 123.704 59.6668 123.704 58.1431C123.704 56.6193 124.94 55.3841 126.463 55.3841C127.01 55.3841 127.52 55.5433 127.949 55.8178V55.3841ZM127.949 58.1431C127.949 58.9635 127.284 59.6286 126.463 59.6286C125.643 59.6286 124.978 58.9635 124.978 58.1431C124.978 57.3226 125.643 56.6575 126.463 56.6575C127.284 56.6575 127.949 57.3226 127.949 58.1431Z" fill="#040036"/>
<circle cx="122.007" cy="47.1073" r="1.5917" fill="white"/>
<circle cx="127.736" cy="47.1073" r="1.5917" fill="white"/>
<circle cx="133.467" cy="47.1073" r="1.5917" fill="white"/>
<rect x="111.82" y="38.5122" width="83.0865" height="61.7578" rx="5.09343" fill="#040036" stroke="#040036"/>
<path d="M111.82 45.1973H194.907V95.1765C194.907 97.9895 192.626 100.27 189.813 100.27H116.914C114.101 100.27 111.82 97.9895 111.82 95.1765V45.1973Z" fill="white" stroke="#040036"/>
<path d="M184.622 49.1511C184.233 49.1511 183.918 49.4661 183.918 49.8546V50.5581H186.263L185.325 51.9651H183.918L183.918 56.655H182.511L182.511 51.9651H181.104V50.5581H182.511V49.8546C182.511 48.689 183.456 47.7441 184.622 47.7441H185.091C185.605 47.7441 186.077 47.9285 186.443 48.2339L185.541 49.3141C185.419 49.212 185.263 49.1511 185.091 49.1511H184.622Z" fill="#040036"/>
<path fill-rule="evenodd" clip-rule="evenodd" d="M190.484 50.5581H191.891V56.655H190.484V56.1758C190.011 56.4792 189.447 56.655 188.843 56.655C187.159 56.655 185.794 55.2902 185.794 53.6066C185.794 51.923 187.159 50.5581 188.843 50.5581C189.447 50.5581 190.011 50.734 190.484 51.0373V50.5581ZM190.484 53.6066C190.484 54.5131 189.749 55.248 188.843 55.248C187.936 55.248 187.201 54.5131 187.201 53.6066C187.201 52.7 187.936 51.9651 188.843 51.9651C189.749 51.9651 190.484 52.7 190.484 53.6066Z" fill="#040036"/>
<path d="M176.284 100.111C176.284 100.111 180.263 93.5849 181.059 85.6265" stroke="#040036"/>
<path d="M171.031 65.0935C180.9 63.82 176.125 87.0589 176.125 87.0589" stroke="#040036"/>
<path d="M117.551 49.0175C117.199 49.0175 116.914 49.3025 116.914 49.6542V50.2909H119.036L118.187 51.5642H116.914L116.914 55.8087H115.641L115.641 51.5642H114.367V50.2909H115.641V49.6542C115.641 48.5993 116.496 47.7441 117.551 47.7441H117.975C118.44 47.7441 118.867 47.911 119.199 48.1874L118.383 49.165C118.272 49.0726 118.131 49.0175 117.975 49.0175H117.551Z" fill="#040036"/>
<path fill-rule="evenodd" clip-rule="evenodd" d="M122.856 50.2909H124.13V55.8087H122.856V55.375C122.427 55.6496 121.918 55.8087 121.371 55.8087C119.847 55.8087 118.612 54.5735 118.612 53.0498C118.612 51.5261 119.847 50.2909 121.371 50.2909C121.918 50.2909 122.427 50.45 122.856 50.7246V50.2909ZM122.856 53.0498C122.856 53.8703 122.191 54.5354 121.371 54.5354C120.55 54.5354 119.885 53.8703 119.885 53.0498C119.885 52.2293 120.55 51.5642 121.371 51.5642C122.191 51.5642 122.856 52.2293 122.856 53.0498Z" fill="#040036"/>
<circle cx="116.914" cy="42.0141" r="1.5917" fill="white"/>
<circle cx="122.643" cy="42.0136" r="1.5917" fill="white"/>
<circle cx="128.374" cy="42.0141" r="1.5917" fill="white"/>
<path d="M171.661 74.9811C171.586 81.716 170.738 94.2878 161.077 99.5901C160.435 99.9425 159.66 99.941 158.991 99.6431C142.599 92.3456 132.719 85.6595 115.799 76.7128C111.024 74.1879 119.46 46.1522 128.533 50.609C144.507 58.9792 159.67 68.3643 170.018 72.5702C171.006 72.9717 171.672 73.9149 171.661 74.9811Z" fill="white"/>
<path d="M115.799 76.7128C132.719 85.6595 142.599 92.3456 158.991 99.6431C159.66 99.941 160.435 99.9425 161.077 99.5901C170.738 94.2878 171.586 81.716 171.661 74.9811C171.672 73.9149 171.006 72.9717 170.018 72.5702C159.67 68.3642 144.507 58.9792 128.533 50.609M115.799 76.7128C121.052 79.4902 133.308 53.6332 128.533 50.609M115.799 76.7128C111.024 74.1879 119.46 46.1522 128.533 50.609" stroke="#040036"/>
<path d="M125.913 51.0328L123.917 49.8133L123.902 49.8047C124.02 45.84 123.796 39.6252 123.621 35.6814C123.528 33.6048 121.813 31.9863 119.734 31.9863C119.422 31.9863 119.116 32.0232 118.824 32.0931V31.9863L118.36 27.4981C118.185 25.7977 116.752 24.5054 115.043 24.5054C113.379 24.5054 111.966 25.7691 111.795 27.4237C111.441 25.9193 110.069 24.8237 108.521 24.8237C106.851 24.8237 105.44 26.0471 105.268 27.7082C105.239 27.9869 105.21 28.2822 105.18 28.5922C104.979 28.5036 104.781 28.4307 104.586 28.3714C102.316 27.6786 100.715 30.0175 100.49 32.3806C100.455 32.7458 100.42 33.1318 100.386 33.5357C100.352 33.5211 100.319 33.5068 100.285 33.493C97.8322 32.4832 96.0691 35.2154 95.9862 37.8668C95.3617 57.8555 97.29 63.1028 116.153 72.0038C118.734 73.2214 121.8 72.0051 122.905 69.3744L127.953 57.3506C128.927 55.0298 128.06 52.3453 125.913 51.0328Z" fill="white"/>
<path d="M129.647 53.3151L123.917 49.8133L123.902 49.8047M123.439 53.4742C123.705 53.1331 123.844 51.7358 123.902 49.8047M115.959 44.2424C115.368 42.9633 115.629 38.5824 115.915 35.4232C116.064 33.7676 117.269 32.4644 118.824 32.0931M111.82 40.4223C110.955 37.3925 111.413 31.1258 111.795 27.4237M104.976 42.8099C104.488 37.8374 104.837 32.208 105.18 28.5922M100.282 46.6299C99.8428 42.1468 100.083 37.1297 100.386 33.5357M120.893 74.1663C97.607 63.8329 95.3129 59.4175 95.9862 37.8668C96.0691 35.2154 97.8322 32.4832 100.285 33.493C100.319 33.5068 100.352 33.5211 100.386 33.5357M123.902 49.8047C124.02 45.84 123.796 39.6252 123.621 35.6814C123.528 33.6048 121.813 31.9863 119.734 31.9863C119.422 31.9863 119.116 32.0232 118.824 32.0931M118.824 32.0931V31.9863L118.36 27.4981C118.185 25.7977 116.752 24.5054 115.043 24.5054C113.379 24.5054 111.966 25.7691 111.795 27.4237M111.795 27.4237C111.441 25.9193 110.069 24.8237 108.521 24.8237C106.851 24.8237 105.44 26.0471 105.268 27.7082C105.239 27.9869 105.21 28.2822 105.18 28.5922M105.18 28.5922C104.979 28.5036 104.781 28.4307 104.586 28.3714C102.316 27.6786 100.715 30.0175 100.49 32.3806C100.455 32.7458 100.42 33.1318 100.386 33.5357" stroke="#040036"/>
<path d="M107.522 56.021C107.522 56.021 106.886 50.2909 113.571 47.7441" stroke="#040036"/>
<path d="M16 76.8719L25.7493 72.9722C26.1246 72.8221 26.5495 72.8537 26.8787 73.0882C27.1903 73.3102 27.5028 73.5581 27.8151 73.8305C28.826 73.353 50.5586 63.0741 65.1861 54.99C66.9805 53.9983 68.5276 52.6119 69.1406 50.6555C70.2337 47.167 71.1588 41.7223 71.597 38.9054C71.7765 37.7509 72.4468 36.6992 73.5509 36.317C74.4008 36.0228 75.4094 35.8218 76.1661 36.1247L76.27 36.1744C76.4119 34.9259 76.561 33.5297 76.717 31.9682C76.8594 30.5431 78.0565 29.4394 79.4886 29.4394C81.1225 29.4394 82.4022 30.8378 82.2407 32.4637C82.18 33.0746 82.1118 33.7515 82.038 34.4687L82.3244 32.087C82.5341 30.3049 84.0444 28.9619 85.8387 28.9619C87.793 28.9619 89.3772 30.5462 89.3772 32.5004V33.1003V33.2804C89.733 33.1634 90.1128 33.1003 90.5064 33.1003C92.3202 33.1003 93.8675 34.4444 93.9548 36.2561C94.053 38.2969 93.9548 40.263 93.8339 42.3341C95.5892 42.3907 97.0825 43.7035 97.1964 45.4662C98.8284 70.7308 71.7737 79.6191 37.8062 96.4498L37.3402 96.6729C37.5453 100.226 37.2491 103.89 36.2741 107.466C36.1465 107.934 35.7523 108.279 35.2738 108.359L16 111.571V76.8719Z" fill="white"/>
<path d="M74.2561 46.6297C74.2561 46.6297 74.961 47.6872 76.27 36.1744M80.3045 46.6297C80.7133 46.6297 81.5159 39.5419 82.038 34.4687M86.0346 45.9931C86.4278 45.9931 86.6051 41.5682 86.9221 36.4509C87.0149 34.9538 88.0215 33.7261 89.3772 33.2804M88.8997 51.4048C89.2821 51.4048 89.6646 49.6688 90.0471 45.706C90.2304 43.8065 91.8075 42.3322 93.7157 42.3322C93.7553 42.3322 93.7946 42.3328 93.8339 42.3341M27.8151 73.8305C28.826 73.353 50.5586 63.0741 65.1861 54.99C66.9805 53.9983 68.5276 52.6119 69.1406 50.6555C70.2337 47.167 71.1588 41.7223 71.597 38.9054C71.7765 37.7509 72.4468 36.6992 73.5509 36.317C74.4008 36.0228 75.4094 35.8218 76.1661 36.1247L76.27 36.1744M27.8151 73.8305C27.5028 73.5581 27.1903 73.3102 26.8787 73.0882C26.5495 72.8537 26.1246 72.8221 25.7493 72.9722L16 76.8719V111.571L35.2738 108.359C35.7523 108.279 36.1465 107.934 36.2741 107.466C37.2491 103.89 37.5453 100.226 37.3402 96.6729M27.8151 73.8305C32.322 77.761 36.7697 86.7911 37.3402 96.6729M37.3402 96.6729L37.8062 96.4498C71.7737 79.6191 98.8284 70.7308 97.1964 45.4662C97.0825 43.7035 95.5892 42.3907 93.8339 42.3341M93.8339 42.3341C93.9548 40.263 94.053 38.2969 93.9548 36.2561C93.8675 34.4444 92.3202 33.1003 90.5064 33.1003C90.1128 33.1003 89.733 33.1634 89.3772 33.2804M89.3772 33.2804V33.1003V32.5004C89.3772 30.5462 87.793 28.9619 85.8387 28.9619C84.0444 28.9619 82.5341 30.3049 82.3244 32.087L82.038 34.4687M82.038 34.4687C82.1118 33.7515 82.18 33.0746 82.2407 32.4637C82.4022 30.8378 81.1225 29.4394 79.4886 29.4394C78.0565 29.4394 76.8594 30.5431 76.717 31.9682C76.561 33.5297 76.4119 34.9259 76.27 36.1744" stroke="#040036" stroke-linecap="round"/>
<path d="M120.476 18.6016L118.739 18.8831L119.374 17.1731L120.476 18.6016Z" fill="white" stroke="#040036"/>
<circle cx="64.8693" cy="25.3054" r="1.25087" transform="rotate(-30 64.8693 25.3054)" fill="white" stroke="#040036"/>
<circle cx="95.0181" cy="16.2984" r="0.5" transform="rotate(-30 95.0181 16.2984)" fill="white" stroke="#040036" stroke-width="0.966764"/>
<mask id="path-50-inside-1_5888_8001" fill="white">
<rect x="78.7549" y="20.3667" width="2.86505" height="2.86505" rx="0.636678" transform="rotate(42.9423 78.7549 20.3667)"/>
</mask>
<rect x="78.7549" y="20.3667" width="2.86505" height="2.86505" rx="0.636678" transform="rotate(42.9423 78.7549 20.3667)" fill="white" stroke="#040036" stroke-width="2" mask="url(#path-50-inside-1_5888_8001)"/>
<path d="M91.4463 22.2759C88.0548 16.2719 83.4878 14.6357 83.4878 14.6357" stroke="#040036"/>
<path d="M100.015 22.2754C103.406 16.2714 107.973 14.6353 107.973 14.6353" stroke="#040036"/>
<defs>
<clipPath id="clip0_5888_8001">
<rect width="77.6747" height="61.7578" fill="white" transform="translate(16 60.4775)"/>
</clipPath>
</defs>
</svg>
