<svg width="216" height="129" viewBox="0 0 216 129" fill="none" xmlns="http://www.w3.org/2000/svg">
<g clip-path="url(#clip0_5888_7934)">
<path d="M16 28.8325H176.305V117.059C176.305 118.537 175.734 119.957 174.71 121.024L169.407 126.547C168.328 127.672 166.836 128.308 165.277 128.308H27.028C25.469 128.308 23.9775 127.672 22.8979 126.547L17.5951 121.024C16.5716 119.957 16 118.537 16 117.059V28.8325Z" fill="#040036" stroke="#040036"/>
<rect x="16" y="15.5928" width="160.305" height="106.989" rx="5.72518" fill="#040036" stroke="#040036"/>
<path d="M16 23.1074H176.305V116.857C176.305 120.019 173.742 122.583 170.58 122.583H21.7252C18.5633 122.583 16 120.019 16 116.857V23.1074Z" fill="white" stroke="#040036"/>
<path d="M24.75 30.5005C24.3358 30.5005 24 30.8363 24 31.2505V32.0005H26.5L25.5 33.5005H24L24 38.5005H22.5L22.5 33.5005H21V32.0005H22.5V31.2505C22.5 30.0078 23.5074 29.0005 24.75 29.0005H25.25C25.7976 29.0005 26.3012 29.1971 26.6913 29.5227L25.73 30.6742C25.5997 30.5653 25.4334 30.5005 25.25 30.5005H24.75Z" fill="#040036"/>
<path fill-rule="evenodd" clip-rule="evenodd" d="M31 32.0005H32.5V38.5005H31V37.9896C30.4948 38.313 29.8943 38.5005 29.25 38.5005C27.4551 38.5005 26 37.0454 26 35.2505C26 33.4556 27.4551 32.0005 29.25 32.0005C29.8943 32.0005 30.4948 32.188 31 32.5114V32.0005ZM31 35.2505C31 36.217 30.2165 37.0005 29.25 37.0005C28.2835 37.0005 27.5 36.217 27.5 35.2505C27.5 34.284 28.2835 33.5005 29.25 33.5005C30.2165 33.5005 31 34.284 31 35.2505Z" fill="#040036"/>
<circle cx="21.7256" cy="19.5289" r="1.78912" fill="white"/>
<circle cx="28.1661" cy="19.5289" r="1.78912" fill="white"/>
<circle cx="34.6065" cy="19.5289" r="1.78912" fill="white"/>
<path d="M111.545 53.0266L202.879 44.502L167.007 102.11C166.64 102.7 165.798 102.745 165.37 102.198L155.372 89.4087L131.657 103.359C130.887 103.812 129.956 103.106 130.183 102.242L131.063 98.8966L129.565 63.8979L111.198 54.9207C110.291 54.477 110.539 53.1205 111.545 53.0266Z" fill="white"/>
<path d="M202.879 44.502L111.545 53.0266C110.539 53.1205 110.291 54.477 111.198 54.9207L129.565 63.8979M202.879 44.502L167.007 102.11C166.64 102.7 165.798 102.745 165.37 102.198L155.372 89.4087M202.879 44.502L139.053 68.5353M139.053 68.5353L129.565 63.8979M139.053 68.5353L155.372 89.4087M139.053 68.5353L131.063 98.8966M129.565 63.8979L131.063 98.8966M155.372 89.4087L131.657 103.359C130.887 103.812 129.956 103.106 130.183 102.242L131.063 98.8966" stroke="#040036"/>
<path d="M140.295 70.1237L154.669 88.5096C155.042 88.9858 154.91 89.6809 154.389 89.9874L129.566 104.589L131.064 98.8967L138.54 70.4851C138.751 69.6854 139.786 69.4722 140.295 70.1237Z" fill="#040036" stroke="#040036"/>
<path d="M123.5 107C75.6748 127.362 40.5 66 30.408 89.2521C18.7632 116.082 77.9998 87 77.9998 60.5" stroke="#040036" stroke-linecap="round" stroke-dasharray="5 5"/>
</g>
<defs>
<clipPath id="clip0_5888_7934">
<rect width="216" height="129" fill="white"/>
</clipPath>
</defs>
</svg>
