<svg xmlns="http://www.w3.org/2000/svg" width="20" height="26" viewBox="0 0 20 26" fill="none">
  <path
    d="M5 21.125H15V18.6875H5V21.125ZM5 16.25H15V13.8125H5V16.25ZM2.49017 26C1.80228 26 1.21528 25.7613 0.729167 25.284C0.243056 24.8066 0 24.2328 0 23.5625V2.4375C0 1.76719 0.244791 1.19336 0.734375 0.716016C1.22396 0.238673 1.8125 0 2.5 0H13.3333L20 6.5V23.5625C20 24.2328 19.7551 24.8066 19.2652 25.284C18.7753 25.7613 18.1865 26 17.4986 26H2.49017ZM11.6667 8.125V2.4375H2.5V23.5625H17.5V8.125H11.6667Z"
    fill="#040036" />
</svg>