<svg width="24" height="24" viewBox="0 0 24 24" fill="none" xmlns="http://www.w3.org/2000/svg">
<path d="M7.5 3C6.67157 3 6 3.67157 6 4.5V6H11L9 9H6L6 19H3L3 9H0V6H3V4.5C3 2.01472 5.01472 0 7.5 0H8.5C9.59518 0 10.6025 0.393144 11.3826 1.04438L9.46008 3.34741C9.19931 3.12972 8.86677 3 8.5 3H7.5Z" fill="#040036"/>
<path fill-rule="evenodd" clip-rule="evenodd" d="M20 6H23V19H20V17.9782C18.9897 18.625 17.7886 19 16.5 19C12.9102 19 10 16.0898 10 12.5C10 8.91016 12.9102 6 16.5 6C17.7886 6 18.9897 6.375 20 7.02182V6ZM20 12.5C20 14.433 18.433 16 16.5 16C14.567 16 13 14.433 13 12.5C13 10.567 14.567 9 16.5 9C18.433 9 20 10.567 20 12.5Z" fill="#040036"/>
</svg>
