<svg width="160" height="24" viewBox="0 0 160 24" fill="none" xmlns="http://www.w3.org/2000/svg">
<g id="Logo">
<g id="Union">
<path d="M6 4.5C6 3.67157 6.67157 3 7.5 3H8.5C8.86677 3 9.19931 3.12972 9.46008 3.34741L11.3826 1.04438C10.6025 0.393144 9.59518 0 8.5 0H7.5C5.01472 0 3 2.01472 3 4.5V6H0V9H3L3 19H6L6 9H10.5V6H6V4.5Z" fill="#040036"/>
<path d="M45.5 2H42.5V6H39V9H42.5V19H45.5V9H49V6H45.5V2Z" fill="#040036"/>
<path d="M16 3.5C16 4.32843 15.3284 5 14.5 5C13.6716 5 13 4.32843 13 3.5C13 2.67157 13.6716 2 14.5 2C15.3284 2 16 2.67157 16 3.5Z" fill="#040036"/>
<path d="M16 6V19H13V6H16Z" fill="#040036"/>
<path fill-rule="evenodd" clip-rule="evenodd" d="M72 6H69V7.02182C67.9897 6.375 66.7886 6 65.5 6C61.9102 6 59 8.91016 59 12.5C59 16.0898 61.9102 19 65.5 19C66.7886 19 67.9897 18.625 69 17.9782V19H72V6ZM65.5 16C67.433 16 69 14.433 69 12.5C69 10.567 67.433 9 65.5 9C63.567 9 62 10.567 62 12.5C62 14.433 63.567 16 65.5 16Z" fill="#040036"/>
<path fill-rule="evenodd" clip-rule="evenodd" d="M151 6H154V19H151V17.9782C149.99 18.625 148.789 19 147.5 19C143.91 19 141 16.0899 141 12.5C141 8.91015 143.91 6 147.5 6C148.789 6 149.99 6.375 151 7.02182V6ZM151 12.5C151 14.433 149.433 16 147.5 16C145.567 16 144 14.433 144 12.5C144 10.567 145.567 9 147.5 9C149.433 9 151 10.567 151 12.5Z" fill="#040036"/>
<path fill-rule="evenodd" clip-rule="evenodd" d="M75 24V6H78V7.02182C79.0103 6.375 80.2114 6 81.5 6C85.0899 6 88 8.91015 88 12.5C88 16.0899 85.0899 19 81.5 19C80.2114 19 79.0103 18.625 78 17.9782V24H75ZM81.5 16C79.567 16 78 14.433 78 12.5C78 10.567 79.567 9 81.5 9C83.433 9 85 10.567 85 12.5C85 14.433 83.433 16 81.5 16Z" fill="#040036"/>
<path fill-rule="evenodd" clip-rule="evenodd" d="M90 6V24H93V17.9782C94.0103 18.625 95.2114 19 96.5 19C100.09 19 103 16.0899 103 12.5C103 8.91015 100.09 6 96.5 6C95.2114 6 94.0103 6.375 93 7.02182V6H90ZM93 12.5C93 14.433 94.567 16 96.5 16C98.433 16 100 14.433 100 12.5C100 10.567 98.433 9 96.5 9C94.567 9 93 10.567 93 12.5Z" fill="#040036"/>
<path d="M22 6H19V19H22V12.5C22 10.567 23.3431 9 25 9C25.4499 9 25.8766 9.11551 26.2596 9.32249L28.2881 7.23318C27.4091 6.46526 26.2589 6 25 6C23.8744 6 22.8357 6.37195 22 6.99963V6Z" fill="#040036"/>
<path d="M105 6H108V6.99963C108.836 6.37195 109.874 6 111 6C112.259 6 113.409 6.46526 114.288 7.23318L112.26 9.32249C111.877 9.11551 111.45 9 111 9C109.343 9 108 10.567 108 12.5V19H105V6Z" fill="#040036"/>
<path fill-rule="evenodd" clip-rule="evenodd" d="M120.5 19C124.09 19 127 16.0899 127 12.5C127 8.91015 124.09 6 120.5 6C116.91 6 114 8.91015 114 12.5C114 16.0899 116.91 19 120.5 19ZM120.5 16C122.433 16 124 14.433 124 12.5C124 10.567 122.433 9 120.5 9C118.567 9 117 10.567 117 12.5C117 14.433 118.567 16 120.5 16Z" fill="#040036"/>
<path d="M160 2H157V19H160V2Z" fill="#040036"/>
<path d="M132.778 19L127 6H130.283L133.975 14.3065L137.667 6H140.949L135.172 19H132.778Z" fill="#040036"/>
<path d="M33.3613 6C33.2183 6 33.0574 6.00979 32.9031 6.02217C30.7764 6.19277 29.3137 7.634 29.1498 9.43708C28.9867 11.2318 30.1532 12.9192 32.1975 13.4989C32.6895 13.6385 33.1775 13.7769 33.6618 13.9162C34.3031 14.1006 34.6278 14.372 34.7767 14.5672C34.9201 14.7552 34.9402 14.9169 34.9205 15.0396C34.8901 15.2287 34.5951 15.8753 33.2425 15.9308C33.083 15.9374 32.9566 15.9403 32.862 15.9403C31.9608 15.9403 31.2188 15.5585 30.7902 15.0519L28.5 16.9897C29.5287 18.2055 31.126 18.9403 32.862 18.9403C33.0122 18.9403 33.1829 18.9358 33.3656 18.9283C35.6982 18.8325 37.5618 17.5113 37.8825 15.5156C38.2129 13.4591 36.7617 11.6861 34.491 11.033C34.0005 10.892 33.5074 10.7521 33.0159 10.6127C32.5924 10.4926 32.376 10.3017 32.2697 10.1558C32.1599 10.0054 32.1249 9.84789 32.1375 9.70861C32.1502 9.56981 32.2119 9.42805 32.34 9.30818C32.4641 9.19203 32.7052 9.04768 33.143 9.01256C33.2709 9.00231 33.3383 9 33.3613 9C34.2625 9 35.0052 9.38217 35.4338 9.88877L37.724 7.95099C36.6953 6.7352 35.0974 6 33.3613 6Z" fill="#040036"/>
</g>
</g>
</svg>
