<svg width="339" height="230" viewBox="0 0 339 230" fill="none" xmlns="http://www.w3.org/2000/svg">
    <g clip-path="url(#clip0_2077_48515)">
        <line x1="558.389" y1="-168.524" x2="8.25341" y2="127.24" stroke="#D2D2D6"/>
        <line x1="572.594" y1="-142.101" x2="8.36674" y2="161.24" stroke="#D2D2D6"/>
        <line x1="586.8" y1="-115.677" x2="40.1882" y2="178.193" stroke="#D2D2D6"/>
        <line x1="601.006" y1="-89.2537" x2="40.3014" y2="212.193" stroke="#D2D2D6"/>
        <line x1="615.212" y1="-62.8302" x2="28.9661" y2="252.348" stroke="#D2D2D6"/>
        <line x1="629.418" y1="-36.4068" x2="43.1719" y2="278.771" stroke="#D2D2D6"/>
        <line x1="643.623" y1="-9.98338" x2="57.3777" y2="305.194" stroke="#D2D2D6"/>
        <line x1="657.829" y1="16.44" x2="71.5834" y2="331.618" stroke="#D2D2D6"/>
        <line x1="672.035" y1="42.8635" x2="85.7892" y2="358.041" stroke="#D2D2D6"/>
        <line x1="686.241" y1="69.2869" x2="99.995" y2="384.465" stroke="#D2D2D6"/>
        <line x1="700.446" y1="95.7103" x2="114.201" y2="410.888" stroke="#D2D2D6"/>
        <line x1="714.652" y1="122.134" x2="128.407" y2="437.312" stroke="#D2D2D6"/>
        <line x1="728.858" y1="148.557" x2="142.612" y2="463.735" stroke="#D2D2D6"/>
        <line x1="743.064" y1="174.981" x2="156.818" y2="490.158" stroke="#D2D2D6"/>
        <line y1="-0.5" x2="577.6" y2="-0.5" transform="matrix(-0.88078 -0.473526 -0.473526 0.88078 540.152 481.718)" stroke="#D2D2D6"/>
        <line y1="-0.5" x2="629.6" y2="-0.5" transform="matrix(-0.88078 -0.473526 -0.473526 0.88078 554.358 455.295)" stroke="#D2D2D6"/>
        <line y1="-0.5" x2="636.6" y2="-0.5" transform="matrix(-0.88078 -0.473526 -0.473526 0.88078 568.564 428.871)" stroke="#D2D2D6"/>
        <line y1="-0.5" x2="633.6" y2="-0.5" transform="matrix(-0.88078 -0.473526 -0.473526 0.88078 582.769 402.448)" stroke="#D2D2D6"/>
        <line y1="-0.5" x2="617.6" y2="-0.5" transform="matrix(-0.88078 -0.473526 -0.473526 0.88078 596.975 376.024)" stroke="#D2D2D6"/>
        <line y1="-0.5" x2="595.6" y2="-0.5" transform="matrix(-0.88078 -0.473526 -0.473526 0.88078 611.181 349.601)" stroke="#D2D2D6"/>
        <line y1="-0.5" x2="575.6" y2="-0.5" transform="matrix(-0.88078 -0.473526 -0.473526 0.88078 625.387 323.177)" stroke="#D2D2D6"/>
        <line y1="-0.5" x2="577.6" y2="-0.5" transform="matrix(-0.88078 -0.473526 -0.473526 0.88078 639.592 296.754)" stroke="#D2D2D6"/>
        <line y1="-0.5" x2="665.598" y2="-0.5" transform="matrix(-0.88078 -0.473526 -0.473526 0.88078 653.798 270.331)" stroke="#D2D2D6"/>
        <line y1="-0.5" x2="665.598" y2="-0.5" transform="matrix(-0.88078 -0.473526 -0.473526 0.88078 668.004 243.907)" stroke="#D2D2D6"/>
        <line y1="-0.5" x2="665.598" y2="-0.5" transform="matrix(-0.88078 -0.473526 -0.473526 0.88078 682.21 217.484)" stroke="#D2D2D6"/>
        <line y1="-0.5" x2="665.598" y2="-0.5" transform="matrix(-0.88078 -0.473526 -0.473526 0.88078 696.416 191.06)" stroke="#D2D2D6"/>
        <line y1="-0.5" x2="665.598" y2="-0.5" transform="matrix(-0.88078 -0.473526 -0.473526 0.88078 710.621 164.637)" stroke="#D2D2D6"/>
        <line y1="-0.5" x2="665.598" y2="-0.5" transform="matrix(-0.88078 -0.473526 -0.473526 0.88078 724.827 138.213)" stroke="#D2D2D6"/>
        <path d="M230 88L200 72V196L230 212V88Z" fill="white"/>
        <path d="M230 88L200 72M230 88V212M230 88L260 72M200 72V196L230 212M200 72L230 56L260 72M230 212L260 196V72" stroke="#D2D2D6"/>
        <path d="M230 88L260 72V196L230 212V88Z" fill="white"/>
        <path d="M230 88L260 72M230 88V212M230 88L200 72M260 72V196L230 212M260 72L230 56L200 72M230 212L200 196V72" stroke="#D2D2D6"/>
        <path d="M260 72L230 88L200 72L230 56L260 72Z" fill="white"/>
        <path d="M230 88L260 72M230 88V212M230 88L200 72M260 72V196M260 72L230 56L200 72M200 72V196" stroke="#D2D2D6"/>
        <path d="M325 109L295 93V145L325 161V109Z" fill="white"/>
        <path d="M325 109L295 93M325 109V161M325 109L355 93M295 93V145L325 161M295 93L325 77L355 93M325 161L355 145V93" stroke="#D2D2D6"/>
        <path d="M325 109L355 93V145L325 161V109Z" fill="white"/>
        <path d="M325 109L355 93M325 109V161M325 109L295 93M355 93V145L325 161M355 93L325 77L295 93M325 161L295 145V93" stroke="#D2D2D6"/>
        <path d="M355 93L325 109L295 93L325 77L355 93Z" fill="white"/>
        <path d="M325 109L355 93M325 109V161M325 109L295 93M355 93V145M355 93L325 77L295 93M295 93V145" stroke="#D2D2D6"/>
        <circle cx="293" cy="11" r="20" fill="white" stroke="#D2D2D6"/>
        <path d="M135 98L166 144L135 161L104 144L135 98Z" fill="white"/>
        <path d="M135 98L166 144L135 161M135 98L104 144L135 161M135 98V161" stroke="#D2D2D6"/>
        <mask id="mask0_2077_48515" style="mask-type:alpha" maskUnits="userSpaceOnUse" x="136" y="42" width="62" height="34">
            <path d="M167 42.5L198 59L167 75.5L136 59L167 42.5Z" fill="white"/>
        </mask>
        <g mask="url(#mask0_2077_48515)">
            <line x1="136.5" y1="30" x2="136.5" y2="105" stroke="#D2D2D6"/>
            <line x1="139.5" y1="30" x2="139.5" y2="105" stroke="#D2D2D6"/>
            <line x1="142.5" y1="30" x2="142.5" y2="105" stroke="#D2D2D6"/>
            <line x1="145.5" y1="30" x2="145.5" y2="105" stroke="#D2D2D6"/>
            <line x1="148.5" y1="30" x2="148.5" y2="105" stroke="#D2D2D6"/>
            <line x1="151.5" y1="30" x2="151.5" y2="105" stroke="#D2D2D6"/>
            <line x1="154.5" y1="30" x2="154.5" y2="105" stroke="#D2D2D6"/>
            <line x1="157.5" y1="30" x2="157.5" y2="105" stroke="#D2D2D6"/>
            <line x1="160.5" y1="30" x2="160.5" y2="105" stroke="#D2D2D6"/>
            <line x1="163.5" y1="30" x2="163.5" y2="105" stroke="#D2D2D6"/>
            <line x1="166.5" y1="30" x2="166.5" y2="105" stroke="#D2D2D6"/>
            <line x1="169.5" y1="30" x2="169.5" y2="105" stroke="#D2D2D6"/>
            <line x1="172.5" y1="30" x2="172.5" y2="105" stroke="#D2D2D6"/>
            <line x1="175.5" y1="30" x2="175.5" y2="105" stroke="#D2D2D6"/>
            <line x1="178.5" y1="30" x2="178.5" y2="105" stroke="#D2D2D6"/>
            <line x1="181.5" y1="30" x2="181.5" y2="105" stroke="#D2D2D6"/>
            <line x1="184.5" y1="30" x2="184.5" y2="105" stroke="#D2D2D6"/>
            <line x1="187.5" y1="30" x2="187.5" y2="105" stroke="#D2D2D6"/>
            <line x1="190.5" y1="30" x2="190.5" y2="105" stroke="#D2D2D6"/>
            <line x1="193.5" y1="30" x2="193.5" y2="105" stroke="#D2D2D6"/>
            <line x1="196.5" y1="30" x2="196.5" y2="105" stroke="#D2D2D6"/>
        </g>
        <mask id="mask1_2077_48515" style="mask-type:alpha" maskUnits="userSpaceOnUse" x="104" y="195" width="63" height="34">
            <path d="M135 195.5L166.5 212.5L135 229L104 212L135 195.5Z" fill="white"/>
        </mask>
        <g mask="url(#mask1_2077_48515)">
            <circle cx="104.5" cy="198.5" r="1.5" fill="#D2D2D6"/>
            <circle cx="109.5" cy="198.5" r="1.5" fill="#D2D2D6"/>
            <circle cx="114.5" cy="198.5" r="1.5" fill="#D2D2D6"/>
            <circle cx="119.5" cy="198.5" r="1.5" fill="#D2D2D6"/>
            <circle cx="124.5" cy="198.5" r="1.5" fill="#D2D2D6"/>
            <circle cx="129.5" cy="198.5" r="1.5" fill="#D2D2D6"/>
            <circle cx="134.5" cy="198.5" r="1.5" fill="#D2D2D6"/>
            <circle cx="139.5" cy="198.5" r="1.5" fill="#D2D2D6"/>
            <circle cx="144.5" cy="198.5" r="1.5" fill="#D2D2D6"/>
            <circle cx="149.5" cy="198.5" r="1.5" fill="#D2D2D6"/>
            <circle cx="154.5" cy="198.5" r="1.5" fill="#D2D2D6"/>
            <circle cx="159.5" cy="198.5" r="1.5" fill="#D2D2D6"/>
            <circle cx="164.5" cy="198.5" r="1.5" fill="#D2D2D6"/>
            <circle cx="104.5" cy="203.5" r="1.5" fill="#D2D2D6"/>
            <circle cx="109.5" cy="203.5" r="1.5" fill="#D2D2D6"/>
            <circle cx="114.5" cy="203.5" r="1.5" fill="#D2D2D6"/>
            <circle cx="119.5" cy="203.5" r="1.5" fill="#D2D2D6"/>
            <circle cx="124.5" cy="203.5" r="1.5" fill="#D2D2D6"/>
            <circle cx="129.5" cy="203.5" r="1.5" fill="#D2D2D6"/>
            <circle cx="134.5" cy="203.5" r="1.5" fill="#D2D2D6"/>
            <circle cx="139.5" cy="203.5" r="1.5" fill="#D2D2D6"/>
            <circle cx="144.5" cy="203.5" r="1.5" fill="#D2D2D6"/>
            <circle cx="149.5" cy="203.5" r="1.5" fill="#D2D2D6"/>
            <circle cx="154.5" cy="203.5" r="1.5" fill="#D2D2D6"/>
            <circle cx="159.5" cy="203.5" r="1.5" fill="#D2D2D6"/>
            <circle cx="164.5" cy="203.5" r="1.5" fill="#D2D2D6"/>
            <circle cx="104.5" cy="208.5" r="1.5" fill="#D2D2D6"/>
            <circle cx="109.5" cy="208.5" r="1.5" fill="#D2D2D6"/>
            <circle cx="114.5" cy="208.5" r="1.5" fill="#D2D2D6"/>
            <circle cx="119.5" cy="208.5" r="1.5" fill="#D2D2D6"/>
            <circle cx="124.5" cy="208.5" r="1.5" fill="#D2D2D6"/>
            <circle cx="129.5" cy="208.5" r="1.5" fill="#D2D2D6"/>
            <circle cx="134.5" cy="208.5" r="1.5" fill="#D2D2D6"/>
            <circle cx="139.5" cy="208.5" r="1.5" fill="#D2D2D6"/>
            <circle cx="144.5" cy="208.5" r="1.5" fill="#D2D2D6"/>
            <circle cx="149.5" cy="208.5" r="1.5" fill="#D2D2D6"/>
            <circle cx="154.5" cy="208.5" r="1.5" fill="#D2D2D6"/>
            <circle cx="159.5" cy="208.5" r="1.5" fill="#D2D2D6"/>
            <circle cx="164.5" cy="208.5" r="1.5" fill="#D2D2D6"/>
            <circle cx="104.5" cy="213.5" r="1.5" fill="#D2D2D6"/>
            <circle cx="109.5" cy="213.5" r="1.5" fill="#D2D2D6"/>
            <circle cx="114.5" cy="213.5" r="1.5" fill="#D2D2D6"/>
            <circle cx="119.5" cy="213.5" r="1.5" fill="#D2D2D6"/>
            <circle cx="124.5" cy="213.5" r="1.5" fill="#D2D2D6"/>
            <circle cx="129.5" cy="213.5" r="1.5" fill="#D2D2D6"/>
            <circle cx="134.5" cy="213.5" r="1.5" fill="#D2D2D6"/>
            <circle cx="139.5" cy="213.5" r="1.5" fill="#D2D2D6"/>
            <circle cx="144.5" cy="213.5" r="1.5" fill="#D2D2D6"/>
            <circle cx="149.5" cy="213.5" r="1.5" fill="#D2D2D6"/>
            <circle cx="154.5" cy="213.5" r="1.5" fill="#D2D2D6"/>
            <circle cx="159.5" cy="213.5" r="1.5" fill="#D2D2D6"/>
            <circle cx="164.5" cy="213.5" r="1.5" fill="#D2D2D6"/>
            <circle cx="104.5" cy="218.5" r="1.5" fill="#D2D2D6"/>
            <circle cx="109.5" cy="218.5" r="1.5" fill="#D2D2D6"/>
            <circle cx="114.5" cy="218.5" r="1.5" fill="#D2D2D6"/>
            <circle cx="119.5" cy="218.5" r="1.5" fill="#D2D2D6"/>
            <circle cx="124.5" cy="218.5" r="1.5" fill="#D2D2D6"/>
            <circle cx="129.5" cy="218.5" r="1.5" fill="#D2D2D6"/>
            <circle cx="134.5" cy="218.5" r="1.5" fill="#D2D2D6"/>
            <circle cx="139.5" cy="218.5" r="1.5" fill="#D2D2D6"/>
            <circle cx="144.5" cy="218.5" r="1.5" fill="#D2D2D6"/>
            <circle cx="149.5" cy="218.5" r="1.5" fill="#D2D2D6"/>
            <circle cx="154.5" cy="218.5" r="1.5" fill="#D2D2D6"/>
            <circle cx="159.5" cy="218.5" r="1.5" fill="#D2D2D6"/>
            <circle cx="164.5" cy="218.5" r="1.5" fill="#D2D2D6"/>
            <circle cx="104.5" cy="223.5" r="1.5" fill="#D2D2D6"/>
            <circle cx="109.5" cy="223.5" r="1.5" fill="#D2D2D6"/>
            <circle cx="114.5" cy="223.5" r="1.5" fill="#D2D2D6"/>
            <circle cx="119.5" cy="223.5" r="1.5" fill="#D2D2D6"/>
            <circle cx="124.5" cy="223.5" r="1.5" fill="#D2D2D6"/>
            <circle cx="129.5" cy="223.5" r="1.5" fill="#D2D2D6"/>
            <circle cx="134.5" cy="223.5" r="1.5" fill="#D2D2D6"/>
            <circle cx="139.5" cy="223.5" r="1.5" fill="#D2D2D6"/>
            <circle cx="144.5" cy="223.5" r="1.5" fill="#D2D2D6"/>
            <circle cx="149.5" cy="223.5" r="1.5" fill="#D2D2D6"/>
            <circle cx="154.5" cy="223.5" r="1.5" fill="#D2D2D6"/>
            <circle cx="159.5" cy="223.5" r="1.5" fill="#D2D2D6"/>
            <circle cx="164.5" cy="223.5" r="1.5" fill="#D2D2D6"/>
            <circle cx="104.5" cy="228.5" r="1.5" fill="#D2D2D6"/>
            <circle cx="109.5" cy="228.5" r="1.5" fill="#D2D2D6"/>
            <circle cx="114.5" cy="228.5" r="1.5" fill="#D2D2D6"/>
            <circle cx="119.5" cy="228.5" r="1.5" fill="#D2D2D6"/>
            <circle cx="124.5" cy="228.5" r="1.5" fill="#D2D2D6"/>
            <circle cx="129.5" cy="228.5" r="1.5" fill="#D2D2D6"/>
            <circle cx="134.5" cy="228.5" r="1.5" fill="#D2D2D6"/>
            <circle cx="139.5" cy="228.5" r="1.5" fill="#D2D2D6"/>
        </g>
        <mask id="mask2_2077_48515" style="mask-type:alpha" maskUnits="userSpaceOnUse" x="294" y="25" width="64" height="34">
            <path d="M325 25.5L357.5 42L325 59L294 42L325 25.5Z" fill="white"/>
        </mask>
        <g mask="url(#mask2_2077_48515)">
            <circle cx="294.5" cy="28.5" r="1.5" fill="#D2D2D6"/>
            <circle cx="299.5" cy="28.5" r="1.5" fill="#D2D2D6"/>
            <circle cx="304.5" cy="28.5" r="1.5" fill="#D2D2D6"/>
            <circle cx="309.5" cy="28.5" r="1.5" fill="#D2D2D6"/>
            <circle cx="314.5" cy="28.5" r="1.5" fill="#D2D2D6"/>
            <circle cx="319.5" cy="28.5" r="1.5" fill="#D2D2D6"/>
            <circle cx="324.5" cy="28.5" r="1.5" fill="#D2D2D6"/>
            <circle cx="329.5" cy="28.5" r="1.5" fill="#D2D2D6"/>
            <circle cx="334.5" cy="28.5" r="1.5" fill="#D2D2D6"/>
            <circle cx="339.5" cy="28.5" r="1.5" fill="#D2D2D6"/>
            <circle cx="294.5" cy="33.5" r="1.5" fill="#D2D2D6"/>
            <circle cx="299.5" cy="33.5" r="1.5" fill="#D2D2D6"/>
            <circle cx="304.5" cy="33.5" r="1.5" fill="#D2D2D6"/>
            <circle cx="309.5" cy="33.5" r="1.5" fill="#D2D2D6"/>
            <circle cx="314.5" cy="33.5" r="1.5" fill="#D2D2D6"/>
            <circle cx="319.5" cy="33.5" r="1.5" fill="#D2D2D6"/>
            <circle cx="324.5" cy="33.5" r="1.5" fill="#D2D2D6"/>
            <circle cx="329.5" cy="33.5" r="1.5" fill="#D2D2D6"/>
            <circle cx="334.5" cy="33.5" r="1.5" fill="#D2D2D6"/>
            <circle cx="339.5" cy="33.5" r="1.5" fill="#D2D2D6"/>
            <circle cx="294.5" cy="38.5" r="1.5" fill="#D2D2D6"/>
            <circle cx="299.5" cy="38.5" r="1.5" fill="#D2D2D6"/>
            <circle cx="304.5" cy="38.5" r="1.5" fill="#D2D2D6"/>
            <circle cx="309.5" cy="38.5" r="1.5" fill="#D2D2D6"/>
            <circle cx="314.5" cy="38.5" r="1.5" fill="#D2D2D6"/>
            <circle cx="319.5" cy="38.5" r="1.5" fill="#D2D2D6"/>
            <circle cx="324.5" cy="38.5" r="1.5" fill="#D2D2D6"/>
            <circle cx="329.5" cy="38.5" r="1.5" fill="#D2D2D6"/>
            <circle cx="334.5" cy="38.5" r="1.5" fill="#D2D2D6"/>
            <circle cx="339.5" cy="38.5" r="1.5" fill="#D2D2D6"/>
            <circle cx="294.5" cy="43.5" r="1.5" fill="#D2D2D6"/>
            <circle cx="299.5" cy="43.5" r="1.5" fill="#D2D2D6"/>
            <circle cx="304.5" cy="43.5" r="1.5" fill="#D2D2D6"/>
            <circle cx="309.5" cy="43.5" r="1.5" fill="#D2D2D6"/>
            <circle cx="314.5" cy="43.5" r="1.5" fill="#D2D2D6"/>
            <circle cx="319.5" cy="43.5" r="1.5" fill="#D2D2D6"/>
            <circle cx="324.5" cy="43.5" r="1.5" fill="#D2D2D6"/>
            <circle cx="329.5" cy="43.5" r="1.5" fill="#D2D2D6"/>
            <circle cx="334.5" cy="43.5" r="1.5" fill="#D2D2D6"/>
            <circle cx="339.5" cy="43.5" r="1.5" fill="#D2D2D6"/>
            <circle cx="294.5" cy="48.5" r="1.5" fill="#D2D2D6"/>
            <circle cx="299.5" cy="48.5" r="1.5" fill="#D2D2D6"/>
            <circle cx="304.5" cy="48.5" r="1.5" fill="#D2D2D6"/>
            <circle cx="309.5" cy="48.5" r="1.5" fill="#D2D2D6"/>
            <circle cx="314.5" cy="48.5" r="1.5" fill="#D2D2D6"/>
            <circle cx="319.5" cy="48.5" r="1.5" fill="#D2D2D6"/>
            <circle cx="324.5" cy="48.5" r="1.5" fill="#D2D2D6"/>
            <circle cx="329.5" cy="48.5" r="1.5" fill="#D2D2D6"/>
            <circle cx="334.5" cy="48.5" r="1.5" fill="#D2D2D6"/>
            <circle cx="339.5" cy="48.5" r="1.5" fill="#D2D2D6"/>
            <circle cx="294.5" cy="53.5" r="1.5" fill="#D2D2D6"/>
            <circle cx="299.5" cy="53.5" r="1.5" fill="#D2D2D6"/>
            <circle cx="304.5" cy="53.5" r="1.5" fill="#D2D2D6"/>
            <circle cx="309.5" cy="53.5" r="1.5" fill="#D2D2D6"/>
            <circle cx="314.5" cy="53.5" r="1.5" fill="#D2D2D6"/>
            <circle cx="319.5" cy="53.5" r="1.5" fill="#D2D2D6"/>
            <circle cx="324.5" cy="53.5" r="1.5" fill="#D2D2D6"/>
            <circle cx="329.5" cy="53.5" r="1.5" fill="#D2D2D6"/>
            <circle cx="334.5" cy="53.5" r="1.5" fill="#D2D2D6"/>
            <circle cx="339.5" cy="53.5" r="1.5" fill="#D2D2D6"/>
            <circle cx="294.5" cy="58.5" r="1.5" fill="#D2D2D6"/>
            <circle cx="299.5" cy="58.5" r="1.5" fill="#D2D2D6"/>
            <circle cx="304.5" cy="58.5" r="1.5" fill="#D2D2D6"/>
            <circle cx="309.5" cy="58.5" r="1.5" fill="#D2D2D6"/>
            <circle cx="314.5" cy="58.5" r="1.5" fill="#D2D2D6"/>
            <circle cx="319.5" cy="58.5" r="1.5" fill="#D2D2D6"/>
            <circle cx="324.5" cy="58.5" r="1.5" fill="#D2D2D6"/>
            <circle cx="329.5" cy="58.5" r="1.5" fill="#D2D2D6"/>
        </g>
        <mask id="mask3_2077_48515" style="mask-type:alpha" maskUnits="userSpaceOnUse" x="262" y="144" width="63" height="34">
            <path d="M293.5 144.5L324.5 161L293.5 178L262.5 161L293.5 144.5Z" fill="white"/>
        </mask>
        <g mask="url(#mask3_2077_48515)">
            <line x1="262.5" y1="132" x2="262.5" y2="207" stroke="#D2D2D6"/>
            <line x1="265.5" y1="132" x2="265.5" y2="207" stroke="#D2D2D6"/>
            <line x1="268.5" y1="132" x2="268.5" y2="207" stroke="#D2D2D6"/>
            <line x1="271.5" y1="132" x2="271.5" y2="207" stroke="#D2D2D6"/>
            <line x1="274.5" y1="132" x2="274.5" y2="207" stroke="#D2D2D6"/>
            <line x1="277.5" y1="132" x2="277.5" y2="207" stroke="#D2D2D6"/>
            <line x1="280.5" y1="132" x2="280.5" y2="207" stroke="#D2D2D6"/>
            <line x1="283.5" y1="132" x2="283.5" y2="207" stroke="#D2D2D6"/>
            <line x1="286.5" y1="132" x2="286.5" y2="207" stroke="#D2D2D6"/>
            <line x1="289.5" y1="132" x2="289.5" y2="207" stroke="#D2D2D6"/>
            <line x1="292.5" y1="132" x2="292.5" y2="207" stroke="#D2D2D6"/>
            <line x1="295.5" y1="132" x2="295.5" y2="207" stroke="#D2D2D6"/>
            <line x1="298.5" y1="132" x2="298.5" y2="207" stroke="#D2D2D6"/>
            <line x1="301.5" y1="132" x2="301.5" y2="207" stroke="#D2D2D6"/>
            <line x1="304.5" y1="132" x2="304.5" y2="207" stroke="#D2D2D6"/>
            <line x1="307.5" y1="132" x2="307.5" y2="207" stroke="#D2D2D6"/>
            <line x1="310.5" y1="132" x2="310.5" y2="207" stroke="#D2D2D6"/>
            <line x1="313.5" y1="132" x2="313.5" y2="207" stroke="#D2D2D6"/>
            <line x1="316.5" y1="132" x2="316.5" y2="207" stroke="#D2D2D6"/>
            <line x1="319.5" y1="132" x2="319.5" y2="207" stroke="#D2D2D6"/>
            <line x1="322.5" y1="132" x2="322.5" y2="207" stroke="#D2D2D6"/>
        </g>
    </g>
    <defs>
        <clipPath id="clip0_2077_48515">
            <rect width="339" height="230" fill="white"/>
        </clipPath>
    </defs>
</svg>
