<svg width="36" height="36" viewBox="0 0 36 36" fill="none" xmlns="http://www.w3.org/2000/svg">
<path d="M18 0C27.9361 0 36 8.0597 36 17.9907C36 26.964 29.438 34.4038 20.8177 35.7349V23.1971H25.0072L25.8043 18.0093H25.7801L25.7858 17.9722H20.7992V14.6372C20.7992 13.2105 21.5221 11.8209 23.7467 11.8209H26.0082V7.41122C26.0082 7.41122 26.0019 7.41007 25.9897 7.40791V7.39269C25.9897 7.39269 23.9506 7.02213 21.9856 7.02213C17.8702 7.02213 15.2008 9.52342 15.2008 14.0257V17.9907H10.6035V23.1786H10.6221V23.1971H15.2008V35.7591C6.58084 34.4251 0 26.9768 0 17.9907C0 8.0597 8.06386 0 18 0Z" fill="#1877F2"/>
</svg>
