<svg width="25" height="24" viewBox="0 0 25 24" fill="none" xmlns="http://www.w3.org/2000/svg">
<g clip-path="url(#clip0_311_2453)">
<path d="M24.2391 12.2869C24.2391 11.4782 24.1608 10.6434 24.0304 9.86084H12.7347V14.4782H19.2043C18.9434 15.9652 18.0826 17.2695 16.8043 18.1043L20.6652 21.1043C22.9347 18.9913 24.2391 15.913 24.2391 12.2869Z" fill="#3B4EFF"/>
<path d="M12.7348 23.974C15.9696 23.974 18.6827 22.9044 20.6653 21.0783L16.8044 18.1044C15.7348 18.8348 14.3522 19.2522 12.7348 19.2522C9.6044 19.2522 6.96962 17.1392 6.0044 14.3218L2.03918 17.374C4.07397 21.4174 8.19571 23.974 12.7348 23.974Z" fill="#34A353"/>
<path d="M6.00429 14.2955C5.50864 12.8086 5.50864 11.1912 6.00429 9.70424L2.03907 6.62598C0.343421 10.0173 0.343421 14.0086 2.03907 17.3738L6.00429 14.2955Z" fill="#F6B704"/>
<path d="M12.7348 4.77392C14.4305 4.74783 16.1001 5.4 17.3261 6.57392L20.7435 3.13044C18.5783 1.09566 15.7087 3.1013e-06 12.7348 0.0260901C8.19571 0.0260901 4.07397 2.58261 2.03918 6.62609L6.0044 9.70435C6.96962 6.86087 9.6044 4.77392 12.7348 4.77392Z" fill="#E54335"/>
</g>
<defs>
<clipPath id="clip0_311_2453">
<rect width="24" height="24" fill="white" transform="translate(0.5)"/>
</clipPath>
</defs>
</svg>
