<svg width="36" height="36" viewBox="0 0 36 36" fill="none" xmlns="http://www.w3.org/2000/svg">
<g clip-path="url(#clip0_257_3296)">
<path d="M30.6743 30.6742H25.3401V22.3205C25.3401 20.3285 25.3045 17.7642 22.5657 17.7642C19.7874 17.7642 19.3624 19.9345 19.3624 22.1755V30.6736H14.0281V13.4951H19.149V15.8427H19.2207C19.7331 14.9665 20.4737 14.2457 21.3634 13.757C22.2532 13.2683 23.2588 13.0301 24.2732 13.0678C29.6797 13.0678 30.6765 16.624 30.6765 21.2503L30.6743 30.6742ZM8.00928 11.1469C7.39704 11.147 6.7985 10.9656 6.28938 10.6255C5.78027 10.2855 5.38345 9.80209 5.14905 9.2365C4.91466 8.67091 4.85323 8.04851 4.97256 7.44801C5.0919 6.84752 5.38663 6.2959 5.81947 5.8629C6.25231 5.4299 6.80383 5.13498 7.40428 5.01543C8.00474 4.89588 8.62714 4.95707 9.19282 5.19126C9.7585 5.42546 10.242 5.82213 10.5823 6.33113C10.9225 6.84013 11.1042 7.43859 11.1043 8.05082C11.1043 8.45734 11.0243 8.85988 10.8688 9.23548C10.7133 9.61107 10.4854 9.95236 10.198 10.2399C9.91061 10.5274 9.56938 10.7554 9.19384 10.9111C8.8183 11.0667 8.41579 11.1468 8.00928 11.1469ZM10.6764 30.6742H5.3366V13.4951H10.6764V30.6742ZM33.3337 0.0022086H2.65615C1.95985 -0.00564907 1.28889 0.263251 0.790759 0.749819C0.292626 1.23639 0.00807063 1.90082 -0.000427246 2.5971V33.4019C0.00777978 34.0985 0.292168 34.7634 0.790284 35.2505C1.2884 35.7375 1.95951 36.007 2.65615 35.9995H33.3337C34.0317 36.0083 34.7047 35.7396 35.2047 35.2526C35.7048 34.7655 35.9911 34.0999 36.0008 33.4019V2.59488C35.9908 1.89721 35.7043 1.23203 35.2042 0.745472C34.7041 0.258915 34.0313 -0.00921629 33.3337 -1.4908e-05" fill="#0A66C2"/>
</g>
<defs>
<clipPath id="clip0_257_3296">
<rect width="36" height="36" fill="white"/>
</clipPath>
</defs>
</svg>
