<svg width="36" height="36" viewBox="0 0 36 36" fill="none" xmlns="http://www.w3.org/2000/svg">
<g clip-path="url(#clip0_257_3294)">
<path d="M36 18C36 27.9422 27.9422 36 18 36C8.05781 36 0 27.9422 0 18C0 8.05781 8.05781 0 18 0C27.9422 0 36 8.05781 36 18Z" fill="#A6CE39"/>
<path d="M12.136 26.1842H9.97034V11.1233H12.136V17.9295V26.1842Z" fill="white"/>
<path d="M15.3141 11.1233H21.1641C26.7328 11.1233 29.1797 15.103 29.1797 18.6608C29.1797 22.528 26.1563 26.1983 21.1922 26.1983H15.3141V11.1233ZM17.4797 24.2436H20.925C25.8328 24.2436 26.9578 20.517 26.9578 18.6608C26.9578 15.6374 25.0313 13.078 20.8125 13.078H17.4797V24.2436Z" fill="white"/>
<path d="M12.4734 7.98745C12.4734 8.76089 11.8406 9.40776 11.0531 9.40776C10.2656 9.40776 9.63281 8.76089 9.63281 7.98745C9.63281 7.19995 10.2656 6.56714 11.0531 6.56714C11.8406 6.56714 12.4734 7.21401 12.4734 7.98745Z" fill="white"/>
</g>
<defs>
<clipPath id="clip0_257_3294">
<rect width="36" height="36" fill="white"/>
</clipPath>
</defs>
</svg>
