<svg width="198" height="30" viewBox="0 0 198 30" fill="none" xmlns="http://www.w3.org/2000/svg">
<path fill-rule="evenodd" clip-rule="evenodd" d="M0.306926 26.9679C0.325276 26.9794 0.342237 26.9901 0.354386 27C0.376076 26.9962 0.394202 26.9923 0.40977 26.9898C0.446819 26.9837 0.469384 26.98 0.491052 26.9735C0.542749 26.9589 0.594496 26.9445 0.646245 26.93C0.817368 26.8822 0.988529 26.8343 1.15809 26.7811C1.35831 26.7182 1.55876 26.6562 1.75918 26.5942C2.34334 26.4135 2.9272 26.2328 3.50404 26.0305C4.20999 25.7833 4.92681 25.5845 5.65901 25.4422C6.99496 25.1842 8.34975 25.1175 9.70364 25.0508C9.92005 25.0402 10.1364 25.0295 10.3527 25.0181C11.0379 24.9825 11.7257 24.9716 12.4118 24.9706C13.4435 24.9688 14.4762 24.9706 15.508 25.0007C16.3941 25.0272 17.2801 25.0728 18.1626 25.1503C19.0278 25.226 19.8913 25.3336 20.7502 25.4641C21.4892 25.5766 22.1956 25.817 22.9019 26.0573C23.02 26.0975 23.1381 26.1377 23.2563 26.1773C23.7955 26.3582 24.3397 26.5261 24.8831 26.6939C24.9536 26.7157 25.0241 26.7374 25.0945 26.7592C25.1938 26.7898 25.2946 26.8155 25.3953 26.8412C25.5194 26.8729 25.6434 26.9045 25.7643 26.9453C25.9363 27.0027 26.0621 26.9973 26.1245 26.8814C26.2023 26.7373 26.1435 26.6242 26.0313 26.523C25.6403 26.1709 25.2384 25.8325 24.7714 25.5845C24.5216 25.4522 24.2981 25.3045 24.2302 25.0026C24.2207 24.9602 24.1974 24.9208 24.1742 24.8815C24.1664 24.8684 24.1587 24.8553 24.1514 24.842C23.8012 24.1963 23.5007 23.5323 23.2871 22.8245C23.2006 22.539 23.0925 22.2599 22.9844 21.9808C22.8743 21.6967 22.7643 21.4125 22.6771 21.1217C22.2598 19.7326 22.0146 18.3043 21.8372 16.8678C21.7292 15.9892 21.682 15.1016 21.6351 14.2167C21.6324 14.1673 21.6298 14.118 21.6272 14.0687C21.5512 12.6449 21.629 11.2285 21.8987 9.8257C21.9425 9.5985 21.9856 9.37114 22.0287 9.14377C22.1649 8.42555 22.3011 7.70726 22.4572 6.99372C22.4856 6.86271 22.5106 6.73067 22.5356 6.59852C22.6125 6.19244 22.6896 5.78543 22.8672 5.40489C22.916 5.29909 22.973 5.23068 23.0771 5.17869C23.5948 4.92332 24.1134 4.66429 24.6248 4.39523C25.0973 4.14714 25.5009 3.80056 25.8937 3.44211C25.9978 3.34634 26.0331 3.23142 25.9589 3.10556C25.8946 2.99611 25.7869 2.98334 25.6729 3.01526C25.6212 3.02988 25.5694 3.04435 25.5176 3.05882C25.3465 3.10665 25.1754 3.15449 25.0058 3.20771C24.8021 3.27134 24.598 3.33384 24.3939 3.39633C23.8228 3.5712 23.2519 3.74601 22.6898 3.94557C21.9738 4.19913 21.248 4.40252 20.5049 4.54663C19.1683 4.80547 17.8129 4.87226 16.4583 4.93899C16.2426 4.94962 16.0268 4.96025 15.8112 4.97165C15.1261 5.00814 14.4382 5.01817 13.7522 5.01908C12.7204 5.01999 11.6877 5.01908 10.6559 4.98898C9.76985 4.96345 8.88379 4.91693 8.00134 4.8394C7.13519 4.76279 6.27175 4.65699 5.41283 4.52565C4.66196 4.41124 3.94427 4.16646 3.22696 3.9218C3.1151 3.88365 3.00326 3.8455 2.8913 3.80785C2.33798 3.62226 1.78017 3.45022 1.22196 3.27805C1.16567 3.26069 1.10939 3.24333 1.0531 3.22595C0.955845 3.19601 0.857125 3.17106 0.758422 3.1461C0.637595 3.11556 0.516794 3.08502 0.398734 3.04536C0.224961 2.98699 0.100966 2.99064 0.0376106 3.10465C-0.0429408 3.24875 0.0149838 3.36003 0.125403 3.46491C0.604186 3.92004 1.14813 4.28122 1.71742 4.60774C1.80522 4.6579 1.89572 4.7409 1.93645 4.8312C2.1591 5.32554 2.38175 5.82079 2.57634 6.32608C2.58257 6.34223 2.58881 6.35838 2.59505 6.37452C2.84138 7.01238 3.08818 7.65145 3.28591 8.30527C3.70677 9.69892 3.95114 11.1327 4.12854 12.5747C4.23655 13.4533 4.28367 14.3409 4.33065 15.2258C4.33327 15.2752 4.33588 15.3245 4.33851 15.3738C4.41273 16.793 4.3367 18.204 4.0679 19.6013C3.94056 20.2659 3.81011 20.9305 3.67967 21.5951C3.62376 21.88 3.56785 22.1648 3.51218 22.4497C3.50966 22.4628 3.50714 22.476 3.50461 22.4892C3.47552 22.6412 3.44634 22.7937 3.40719 22.9431C3.39514 22.9893 3.38317 23.0356 3.37121 23.0819C3.30055 23.3551 3.22985 23.6285 3.13929 23.8953C3.09445 24.0284 3.0386 24.1579 2.98278 24.2874C2.91355 24.4479 2.84437 24.6083 2.79627 24.7755C2.7483 24.9433 2.65508 25.0044 2.52294 25.0755C2.43997 25.1201 2.35678 25.1644 2.27357 25.2087C1.87474 25.4212 1.47514 25.6341 1.09473 25.8763C0.806204 26.0595 0.549637 26.2979 0.296958 26.5328C0.284112 26.5447 0.271277 26.5567 0.258448 26.5686C0.196903 26.6251 0.180612 26.7656 0.195998 26.8586C0.20317 26.9026 0.259656 26.9382 0.306926 26.9679ZM23.1972 24.5161C23.2462 24.6251 23.296 24.7357 23.3468 24.8484C23.25 24.8075 23.1555 24.7678 23.0625 24.7288C22.8842 24.654 22.7117 24.5816 22.5404 24.5073C21.2299 23.9364 19.8632 23.5597 18.4594 23.3061C18.2654 23.271 18.0741 23.2202 17.8828 23.1695C17.6716 23.1134 17.4604 23.0574 17.2457 23.0225C16.8095 22.9513 16.366 22.9094 15.9243 22.8939C15.8702 22.892 15.8161 22.8902 15.762 22.8883C14.7471 22.8535 13.7306 22.8187 12.715 22.8291C11.6461 22.84 10.5763 22.8957 9.50829 22.9613C9.21776 22.9791 8.92942 23.0458 8.64198 23.1124C8.55961 23.1315 8.4773 23.1505 8.39505 23.1684C8.29778 23.1894 8.20049 23.2104 8.10321 23.2314C7.49263 23.363 6.88221 23.4946 6.27718 23.6472C5.40107 23.8689 4.5503 24.1744 3.71944 24.531C3.68586 24.5454 3.65192 24.5586 3.61785 24.5719C3.59774 24.5798 3.57759 24.5877 3.55744 24.5958C3.55375 24.5924 3.55006 24.5889 3.54634 24.5853C3.5391 24.5784 3.53172 24.5714 3.52395 24.5648C3.68686 24.3231 3.84977 24.0814 4.01178 23.8397C4.03083 23.8113 4.05154 23.7834 4.07228 23.7555C4.12345 23.6866 4.1748 23.6175 4.20185 23.5396C4.50143 22.6777 4.79829 21.814 5.08248 20.9466C5.354 20.1175 5.52959 19.2656 5.64815 18.401C5.80111 17.291 5.80021 16.1755 5.75676 15.0592C5.74971 14.8781 5.74338 14.6969 5.73704 14.5157C5.7198 14.0225 5.70255 13.5291 5.67078 13.0362C5.58842 11.7648 5.39021 10.518 4.89785 9.33044C4.7921 9.07533 4.69707 8.81541 4.6021 8.55563C4.45972 8.16619 4.31747 7.77709 4.1394 7.40506C3.97285 7.05706 3.76395 6.7302 3.55491 6.40311C3.43906 6.22184 3.32317 6.0405 3.21441 5.85545C3.1336 5.71849 3.0677 5.57235 2.99625 5.41392C2.96208 5.33813 2.92663 5.25953 2.88768 5.17778C2.97113 5.21248 3.05081 5.24531 3.12779 5.27703C3.30378 5.34956 3.46566 5.41626 3.62622 5.48606C4.93224 6.05337 6.29347 6.42914 7.69181 6.6827C7.85646 6.71271 8.01852 6.75784 8.18042 6.80293C8.36292 6.85375 8.54522 6.90452 8.73083 6.93352C9.22681 7.01105 9.72731 7.07489 10.2278 7.09404C11.3184 7.136 12.4109 7.17066 13.5024 7.15971C14.4514 7.15062 15.4011 7.09883 16.3495 7.04711C16.4477 7.04176 16.5458 7.03641 16.6439 7.03111C16.9024 7.01673 17.1589 6.96032 17.4139 6.90424C17.4499 6.89632 17.4859 6.88841 17.5218 6.88062C17.6593 6.8507 17.7971 6.82117 17.9348 6.79163C18.4942 6.6717 19.0543 6.55161 19.6062 6.40452C20.0856 6.27591 20.5587 6.1244 21.0316 5.97299C21.2327 5.90858 21.4338 5.84418 21.6353 5.78157C21.6735 5.77023 21.7112 5.75629 21.7592 5.73852C21.7807 5.73057 21.8042 5.72185 21.8308 5.71226C21.7942 5.81079 21.7613 5.89837 21.7299 5.98159C21.7094 6.03626 21.6895 6.08905 21.6697 6.14184C21.0652 7.75347 20.5321 9.38426 20.3076 11.1017C20.1655 12.1916 20.1664 13.2852 20.2099 14.3797C20.2171 14.5639 20.2236 14.7482 20.23 14.9326C20.2471 15.4174 20.2641 15.9026 20.2949 16.3862C20.3755 17.664 20.5755 18.9154 21.0697 20.1084C21.1758 20.3649 21.2714 20.626 21.367 20.8869C21.511 21.2802 21.6549 21.6732 21.8345 22.0493C22.0096 22.4173 22.2325 22.763 22.4554 23.1086C22.5539 23.2614 22.6524 23.4141 22.7468 23.5688C22.7559 23.5839 22.7663 23.598 22.7767 23.6122C22.7921 23.6331 22.8075 23.6539 22.8183 23.6773C22.9436 23.953 23.0679 24.2291 23.1972 24.5161Z" fill="#040036"/>
<path d="M61.8051 22.1494C61.1154 21.8667 60.5543 21.4544 60.0366 20.9974C58.5083 19.5789 58.593 17.7266 58.6115 17.3238C58.6128 17.2946 58.6138 17.273 58.6138 17.2598L61.568 17.3036V17.2817C61.568 17.2817 61.568 18.0852 61.9128 18.6069C62.3436 19.259 63.1419 19.5846 64.3067 19.5846C66.2472 19.5846 67.1097 19.0848 67.1097 18.2594C67.1097 17.3902 66.0101 16.8475 64.2198 16.6514C63.1202 16.521 62.1499 16.282 61.3734 15.9564C60.6403 15.6518 60.0366 15.2395 59.5831 14.7397C58.936 14.0228 58.6129 13.1755 58.6129 12.2188C58.6129 10.8935 59.1306 10.0024 59.5831 9.48072C60.5751 8.35067 62.1707 7.76421 64.3701 7.76421C67.26 7.76421 68.6827 9.04658 69.3724 10.111C70.1055 11.2629 70.149 12.5882 70.149 12.8052H67.1951C67.1953 12.6901 67.18 12.1257 66.8717 11.718C66.4409 11.1097 65.5783 10.7403 64.371 10.7403C63.1202 10.7403 61.6757 11.0659 61.6757 12.0227C61.6757 12.9357 62.6242 13.4783 64.5438 13.6963C66.678 13.9353 68.2528 14.6093 69.2013 15.7175C69.8268 16.4562 70.1499 17.3254 70.1499 18.2594C70.1499 18.7164 70.1499 19.8674 69.2231 20.9108C68.7488 21.4544 68.1017 21.8667 67.3043 22.1494C66.4852 22.4321 65.4933 22.5626 64.3076 22.5626C63.3799 22.5626 62.5382 22.4321 61.8051 22.1494Z" fill="#040036"/>
<path fill-rule="evenodd" clip-rule="evenodd" d="M41.2598 18.4765C41.2598 22.2142 37.2277 22.5398 37.2277 22.5398H29.616V8.41547H36.1063C36.1063 8.41547 39.2976 8.41547 40.095 11.1754C40.6769 13.1528 39.5347 14.6303 39.5347 14.6303C39.5347 14.6303 41.2598 15.4129 41.2598 18.4765ZM37.0765 16.7819H32.9793V19.9331H37.0765C37.9391 19.9331 38.6296 19.2381 38.6296 18.368C38.6296 17.4988 37.9391 16.7819 37.0765 16.7819ZM32.9793 14.1962H35.9769C36.8394 14.1962 37.5508 13.5012 37.5508 12.632C37.5508 11.7409 36.8394 11.0459 35.9769 11.0459H32.9793V14.1962Z" fill="#040036"/>
<path fill-rule="evenodd" clip-rule="evenodd" d="M50.0013 23.0395C53.9899 23.0395 57.2246 19.7798 57.2246 15.7603C57.2246 11.7408 53.9899 8.48105 50.0013 8.48105C46.0126 8.48105 42.7779 11.7399 42.7779 15.7603C42.7779 19.7798 46.0117 23.0395 50.0013 23.0395ZM52.9762 12.7614C53.7745 13.5658 54.2053 14.6302 54.2053 15.7603C54.2053 16.8903 53.7736 17.9547 52.9762 18.7592C52.178 19.5417 51.1217 19.9978 50.0004 19.9978C48.879 19.9978 47.8227 19.5417 47.0245 18.7592C46.2262 17.9547 45.7954 16.8903 45.7954 15.7603C45.7954 14.6302 46.2271 13.5649 47.0245 12.7614C47.8227 11.9579 48.879 11.5228 50.0004 11.5228C51.1217 11.5228 52.178 11.9579 52.9762 12.7614Z" fill="#040036"/>
<path d="M78.5042 11.762V22.4971H75.141V11.762H71.4963V8.37275H82.149V11.762H78.5042Z" fill="#040036"/>
<path fill-rule="evenodd" clip-rule="evenodd" d="M96.5964 15.7603C96.5964 19.7798 93.3617 23.0395 89.373 23.0395C85.3844 23.0395 82.1496 19.7798 82.1496 15.7603C82.1496 11.7399 85.3844 8.48105 89.373 8.48105C93.3626 8.48105 96.5964 11.7408 96.5964 15.7603ZM93.5771 15.7603C93.5771 14.6302 93.1463 13.5658 92.348 12.7614C91.5497 11.9579 90.4935 11.5228 89.3721 11.5228C88.2507 11.5228 87.1945 11.9579 86.3962 12.7614C85.5989 13.5649 85.1672 14.6302 85.1672 15.7603C85.1672 16.8903 85.598 17.9547 86.3962 18.7592C87.1945 19.5417 88.2507 19.9978 89.3721 19.9978C90.4935 19.9978 91.5497 19.5417 92.348 18.7592C93.1454 17.9547 93.5771 16.8903 93.5771 15.7603Z" fill="#040036"/>
<path d="M110.891 8.41547V22.5398L101.598 15.6518V22.5398H98.2335V8.41547L107.528 15.63V8.41547H110.891Z" fill="#040036"/>
<path d="M134.232 8.41547V22.5398H130.868V14.6303L126.707 17.3036L122.674 14.6522V22.5398H119.31V8.41547L126.749 13.2613L134.232 8.41547Z" fill="#040036"/>
<path fill-rule="evenodd" clip-rule="evenodd" d="M146.144 20.5624H140.862L139.848 22.5398H135.966L143.514 8.41547L151.039 22.5398H147.157L146.144 20.5624ZM144.786 17.912L143.514 15.4348L142.22 17.912H144.786Z" fill="#040036"/>
<path d="M157.151 11.8056V22.5398H153.788V11.8056H150.143V8.41547H160.796V11.8056H157.151Z" fill="#040036"/>
<path fill-rule="evenodd" clip-rule="evenodd" d="M171.905 17.7159L174.924 22.5398H171.15L168.218 18.0415H166.622V22.5398H163.258V8.41547H169.965C173.415 8.41547 174.968 11.0669 174.968 13.2394C174.968 14.8255 174.126 16.9342 171.905 17.7159ZM166.622 14.9997H169.943C170.374 14.9997 170.762 14.935 171.043 14.8045C171.236 14.696 171.409 14.5875 171.539 14.4351C171.841 14.0658 171.949 13.5659 171.949 13.2394C171.949 12.8919 171.841 12.3921 171.496 12.0227C171.173 11.6314 170.677 11.4581 169.965 11.4581H166.622V14.9997Z" fill="#040036"/>
<path d="M181.3 22.5398H177.936V8.41547H181.3V22.5398Z" fill="#040036"/>
<path d="M193.364 15.4349L198 20.1065L195.607 22.4971L190.971 17.8245L186.335 22.4971L183.963 20.1065L188.599 15.4349L183.963 10.7633L186.357 8.37275L190.971 13.0225L195.607 8.37275L198 10.7633L193.364 15.4349Z" fill="#040036"/>
</svg>
