<svg width="149" height="30" viewBox="0 0 149 30" fill="none" xmlns="http://www.w3.org/2000/svg">
<path fill-rule="evenodd" clip-rule="evenodd" d="M10.1821 6.56488C10.1821 2.94838 13.1082 0 16.6982 0C20.2881 0 23.2148 2.94838 23.2148 6.56488C23.2148 8.66555 22.2264 10.5395 20.6951 11.7424L23.2807 17.2587C23.9692 17.0082 24.7107 16.8708 25.4834 16.8708C27.3274 16.8708 28.9964 17.6487 30.1836 18.8955L28.9046 19.7545C28.0115 18.912 26.8094 18.3977 25.4834 18.3977C22.7125 18.3977 20.4823 20.6443 20.4823 23.4357C20.4823 26.2272 22.7125 28.4732 25.4834 28.4732C28.0079 28.4732 30.0833 26.609 30.4328 24.1667H24.8165V22.5H31.934C31.9775 22.8057 32 23.1182 32 23.4357C32 27.0522 29.0733 30 25.4834 30C21.8934 30 18.9676 27.0522 18.9676 23.4357C18.9676 21.2892 19.9983 19.3782 21.587 18.1792L19.0175 12.6975C18.2962 12.9757 17.5146 13.1298 16.6982 13.1298C14.341 13.1298 12.2701 11.8584 11.1257 9.96162L7.48506 11.7495C7.52768 11.9769 7.55119 12.2108 7.55119 12.45C7.55117 14.5393 5.84891 16.253 3.775 16.253C1.70109 16.253 3.4743e-06 14.5393 0 12.45C0 10.3608 1.70109 8.6459 3.775 8.6459C4.92618 8.6459 5.96229 9.17468 6.65688 10.0022L10.381 8.1731C10.2515 7.65812 10.1821 7.11952 10.1821 6.56488ZM21.6993 6.56488C21.6993 3.77345 19.4692 1.5268 16.6982 1.5268C13.9272 1.5268 11.698 3.77345 11.698 6.56488C11.698 9.35632 13.9272 11.603 16.6982 11.603C19.4692 11.603 21.6993 9.35632 21.6993 6.56488Z" fill="#040036"/>
<path d="M145.465 17.5449C145.53 17.7148 145.562 17.9082 145.562 18.125C145.562 18.3828 145.497 18.6172 145.369 18.8281C145.24 19.0391 145.04 19.2061 144.771 19.3291C144.507 19.4463 144.162 19.5049 143.734 19.5049C143.365 19.5049 143.031 19.4697 142.732 19.3994C142.433 19.3291 142.178 19.2119 141.967 19.0479C141.762 18.8838 141.604 18.6699 141.493 18.4062C141.381 18.1367 141.326 17.8086 141.326 17.4219H138.46C138.46 18.1602 138.61 18.7988 138.909 19.3379C139.213 19.8711 139.618 20.3105 140.121 20.6562C140.631 21.002 141.2 21.2598 141.827 21.4297C142.454 21.5938 143.089 21.6758 143.734 21.6758C144.443 21.6758 145.084 21.5967 145.659 21.4385C146.233 21.2803 146.725 21.0488 147.135 20.7441C147.551 20.4336 147.868 20.0586 148.084 19.6191C148.307 19.1797 148.418 18.6758 148.418 18.1074C148.418 17.5742 148.325 17.0967 148.137 16.6748C147.955 16.2529 147.683 15.875 147.32 15.541C146.956 15.207 146.508 14.9082 145.975 14.6445C145.448 14.3809 144.841 14.1406 144.156 13.9238C143.763 13.8066 143.414 13.6836 143.11 13.5547C142.805 13.4258 142.547 13.291 142.336 13.1504C142.131 13.0039 141.973 12.8486 141.862 12.6846C141.756 12.5146 141.704 12.3271 141.704 12.1221C141.704 11.8643 141.774 11.627 141.914 11.4102C142.061 11.1934 142.275 11.0234 142.556 10.9004C142.843 10.7715 143.198 10.707 143.62 10.707C144.053 10.707 144.413 10.7832 144.701 10.9355C144.994 11.0879 145.21 11.2988 145.351 11.5684C145.497 11.832 145.571 12.1367 145.571 12.4824H148.418C148.418 11.6973 148.219 11.0088 147.821 10.417C147.422 9.81934 146.866 9.35645 146.151 9.02832C145.442 8.69434 144.619 8.52734 143.681 8.52734C142.978 8.52734 142.333 8.6123 141.747 8.78223C141.162 8.94629 140.652 9.18652 140.218 9.50293C139.785 9.81348 139.448 10.1885 139.207 10.6279C138.967 11.0674 138.847 11.5596 138.847 12.1045C138.847 12.667 138.961 13.1592 139.19 13.5811C139.424 14.0029 139.744 14.3721 140.148 14.6885C140.552 15.0049 141.012 15.2832 141.528 15.5234C142.049 15.7578 142.597 15.9688 143.171 16.1562C143.675 16.3145 144.082 16.4697 144.393 16.6221C144.704 16.7686 144.944 16.915 145.114 17.0615C145.284 17.208 145.401 17.3691 145.465 17.5449Z" fill="#040036"/>
<path d="M137.37 19.2852V21.5H128.669V8.70312H137.379V10.9268H131.534V13.8535H136.491V15.998H131.534V19.2852H137.37Z" fill="#040036"/>
<path d="M126.401 21.5V8.70312H123.553V16.9736L118.71 8.70312H115.845V21.5H118.71V13.2295L123.544 21.5H126.401Z" fill="#040036"/>
<path d="M114.289 19.2852V21.5H105.587V8.70312H114.297V10.9268H108.453V13.8535H113.41V15.998H108.453V19.2852H114.289Z" fill="#040036"/>
<path d="M103.478 19.9004V14.7412H98.3359V16.7363H100.612V18.8633C100.53 18.9453 100.407 19.0361 100.243 19.1357C100.079 19.2295 99.8682 19.3086 99.6104 19.373C99.3525 19.4316 99.0361 19.4609 98.6611 19.4609C98.1807 19.4609 97.7588 19.376 97.3955 19.2061C97.0381 19.0361 96.7422 18.7871 96.5078 18.459C96.2734 18.125 96.0947 17.709 95.9717 17.2109C95.8545 16.7129 95.7959 16.1357 95.7959 15.4795V14.7061C95.7959 14.0498 95.8545 13.4756 95.9717 12.9834C96.0889 12.4854 96.2588 12.0693 96.4814 11.7354C96.7041 11.4014 96.9766 11.1523 97.2988 10.9883C97.627 10.8184 97.9932 10.7334 98.3975 10.7334C98.9014 10.7334 99.3115 10.8184 99.6279 10.9883C99.9443 11.1523 100.188 11.3896 100.357 11.7002C100.533 12.0107 100.65 12.3799 100.709 12.8076H103.469C103.381 11.9697 103.146 11.2285 102.766 10.584C102.391 9.93945 101.84 9.43555 101.113 9.07227C100.387 8.70312 99.4521 8.51855 98.3096 8.51855C97.5068 8.51855 96.7744 8.65625 96.1123 8.93164C95.4502 9.20703 94.8789 9.61133 94.3984 10.1445C93.918 10.6719 93.5459 11.3193 93.2822 12.0869C93.0186 12.8545 92.8867 13.7334 92.8867 14.7236V15.4795C92.8867 16.4697 93.0186 17.3486 93.2822 18.1162C93.5518 18.8838 93.9326 19.5342 94.4248 20.0674C94.917 20.5947 95.5059 20.9961 96.1914 21.2715C96.877 21.541 97.6387 21.6758 98.4766 21.6758C99.4023 21.6758 100.199 21.5791 100.867 21.3857C101.535 21.1865 102.083 20.9492 102.511 20.6738C102.944 20.3984 103.267 20.1406 103.478 19.9004Z" fill="#040036"/>
<path d="M86.2674 8.70312V21.5H83.4109L78.577 13.2295V21.5H75.7117V8.70312H78.577L83.4197 16.9736V8.70312H86.2674Z" fill="#040036"/>
<path d="M74.1555 21.5V19.2852H68.3195V15.998H73.2766V13.8535H68.3195V10.9268H74.1643V8.70312H65.4543V21.5H74.1555Z" fill="#040036"/>
<path fill-rule="evenodd" clip-rule="evenodd" d="M58.6773 17.0527H56.4977V21.5H53.6324V8.70312H58.6773C59.6969 8.70312 60.5699 8.8877 61.2965 9.25684C62.0289 9.62598 62.5885 10.1328 62.9752 10.7773C63.3678 11.416 63.5641 12.1484 63.5641 12.9746C63.5641 13.8008 63.3678 14.5186 62.9752 15.1279C62.5885 15.7373 62.0289 16.2119 61.2965 16.5518C60.5699 16.8857 59.6969 17.0527 58.6773 17.0527ZM58.6773 14.8291H56.4977V10.9268H58.6773C59.152 10.9268 59.5328 11.0234 59.8199 11.2168C60.1129 11.4102 60.3268 11.665 60.4615 11.9814C60.6021 12.292 60.6725 12.6289 60.6725 12.9922C60.6725 13.3438 60.6021 13.6602 60.4615 13.9414C60.3268 14.2168 60.1129 14.4336 59.8199 14.5918C59.5328 14.75 59.152 14.8291 58.6773 14.8291Z" fill="#040036"/>
<path fill-rule="evenodd" clip-rule="evenodd" d="M51.7246 15.3916V14.8203C51.7246 13.8477 51.5898 12.9746 51.3203 12.2012C51.0508 11.4219 50.6699 10.7598 50.1777 10.2148C49.6914 9.66992 49.1113 9.25391 48.4375 8.9668C47.7637 8.67383 47.0195 8.52734 46.2051 8.52734C45.3906 8.52734 44.6465 8.67383 43.9727 8.9668C43.2988 9.25391 42.7158 9.66992 42.2236 10.2148C41.7373 10.7598 41.3594 11.4219 41.0898 12.2012C40.8203 12.9746 40.6855 13.8477 40.6855 14.8203V15.3916C40.6855 16.3643 40.8203 17.2373 41.0898 18.0107C41.3594 18.7842 41.7402 19.4434 42.2324 19.9883C42.7305 20.5332 43.3164 20.9521 43.9902 21.2451C44.6641 21.5322 45.4082 21.6758 46.2227 21.6758C47.0371 21.6758 47.7783 21.5322 48.4463 21.2451C49.1201 20.9521 49.7002 20.5332 50.1865 19.9883C50.6787 19.4434 51.0566 18.7842 51.3203 18.0107C51.5898 17.2373 51.7246 16.3643 51.7246 15.3916ZM48.833 14.8027V15.3916C48.833 16.0361 48.7744 16.6104 48.6572 17.1143C48.5459 17.6123 48.3789 18.0342 48.1562 18.3799C47.9336 18.7256 47.6582 18.9863 47.3301 19.1621C47.0078 19.3379 46.6387 19.4258 46.2227 19.4258C45.7891 19.4258 45.4082 19.3379 45.0801 19.1621C44.7578 18.9863 44.4854 18.7256 44.2627 18.3799C44.04 18.0342 43.8701 17.6123 43.7529 17.1143C43.6416 16.6104 43.5859 16.0361 43.5859 15.3916V14.8027C43.5859 14.1523 43.6416 13.5781 43.7529 13.0801C43.8701 12.5762 44.0371 12.1543 44.2539 11.8145C44.4766 11.4746 44.749 11.2197 45.0713 11.0498C45.3936 10.874 45.7715 10.7861 46.2051 10.7861C46.6211 10.7861 46.9932 10.874 47.3213 11.0498C47.6494 11.2197 47.9248 11.4746 48.1475 11.8145C48.3701 12.1543 48.54 12.5762 48.6572 13.0801C48.7744 13.5781 48.833 14.1523 48.833 14.8027Z" fill="#040036"/>
</svg>
