<svg width="190" height="30" viewBox="0 0 190 30" fill="none" xmlns="http://www.w3.org/2000/svg">
<path fill-rule="evenodd" clip-rule="evenodd" d="M16.7414 0C13.1421 0 10.2084 2.94839 10.2084 6.56489C10.2084 7.11953 10.2781 7.65813 10.4079 8.17311L6.6741 10.0022C5.97771 9.1747 4.93892 8.64591 3.78476 8.64591C1.70548 8.64591 0 10.3608 0 12.45C3.48329e-06 14.5394 1.70548 16.253 3.78476 16.253C5.86403 16.253 7.5707 14.5394 7.57071 12.45C7.57071 12.2108 7.54714 11.9769 7.50441 11.7496L11.1545 9.96163C12.3018 11.8585 14.378 13.1298 16.7414 13.1298C17.5599 13.1298 18.3435 12.9758 19.0667 12.6975L21.6358 18.1643C20.0454 19.3609 19.0151 21.2762 19.0151 23.4349C19.0151 27.0607 21.9219 30 25.5076 30C29.0932 30 32 27.0607 32 23.4349C32 19.8091 29.0932 16.8697 25.5076 16.8697C24.7456 16.8697 24.0143 17.0025 23.335 17.2463L20.7486 11.7424C22.2839 10.5395 23.2748 8.66556 23.2748 6.56489C23.2748 2.94839 20.3406 0 16.7414 0ZM16.7414 1.5268C19.5195 1.5268 21.7555 3.77346 21.7555 6.56489C21.7555 9.35633 19.5195 11.603 16.7414 11.603C13.9633 11.603 11.7282 9.35633 11.7282 6.56489C11.7282 3.77346 13.9633 1.5268 16.7414 1.5268ZM25.5076 28.4721C28.2587 28.4721 30.489 26.2169 30.489 23.4349C30.489 20.6529 28.2587 18.3977 25.5076 18.3977C22.7564 18.3977 20.5261 20.6529 20.5261 23.4349C20.5261 26.2169 22.7564 28.4721 25.5076 28.4721Z" fill="#040036"/>
<path d="M183.911 14.3984L181.406 8.70312H178.295L182.461 16.877V21.5H185.37V16.877L189.527 8.70312H186.433L183.911 14.3984Z" fill="#040036"/>
<path d="M173.759 10.9268V21.5H170.903V10.9268H167.088V8.70312H177.653V10.9268H173.759Z" fill="#040036"/>
<path d="M165.602 21.5V8.70312H162.746V21.5H165.602Z" fill="#040036"/>
<path d="M153.886 21.5H156.953L161.339 8.70312H158.148L155.424 18.2302L152.708 8.70312H149.526L153.886 21.5Z" fill="#040036"/>
<path d="M149.016 21.5V19.2852H143.18V15.998H148.137V13.8535H143.18V10.9268H149.025V8.70312H140.315V21.5H149.016Z" fill="#040036"/>
<path d="M138.205 14.7412V19.9004C137.994 20.1406 137.672 20.3984 137.238 20.6738C136.81 20.9492 136.262 21.1865 135.595 21.3857C134.927 21.5791 134.13 21.6758 133.204 21.6758C132.366 21.6758 131.604 21.541 130.919 21.2715C130.233 20.9961 129.644 20.5947 129.152 20.0674C128.66 19.5342 128.279 18.8838 128.01 18.1162C127.746 17.3486 127.614 16.4697 127.614 15.4795V14.7236C127.614 13.7334 127.746 12.8545 128.01 12.0869C128.273 11.3193 128.645 10.6719 129.126 10.1445C129.606 9.61133 130.178 9.20703 130.84 8.93164C131.502 8.65625 132.234 8.51855 133.037 8.51855C134.179 8.51855 135.114 8.70312 135.841 9.07227C136.567 9.43555 137.118 9.93945 137.493 10.584C137.874 11.2285 138.108 11.9697 138.196 12.8076H135.436C135.378 12.3799 135.261 12.0107 135.085 11.7002C134.915 11.3896 134.672 11.1523 134.355 10.9883C134.039 10.8184 133.629 10.7334 133.125 10.7334C132.721 10.7334 132.354 10.8184 132.026 10.9883C131.704 11.1523 131.431 11.4014 131.209 11.7354C130.986 12.0693 130.816 12.4854 130.699 12.9834C130.582 13.4756 130.523 14.0498 130.523 14.7061V15.4795C130.523 16.1357 130.582 16.7129 130.699 17.2109C130.822 17.709 131.001 18.125 131.235 18.459C131.47 18.7871 131.765 19.0361 132.123 19.2061C132.486 19.376 132.908 19.4609 133.388 19.4609C133.763 19.4609 134.08 19.4316 134.338 19.373C134.596 19.3086 134.806 19.2295 134.971 19.1357C135.135 19.0361 135.258 18.9453 135.34 18.8633V16.7363H133.063V14.7412H138.205Z" fill="#040036"/>
<path d="M125.627 21.5V8.70312H122.779V16.9736L117.937 8.70312H115.071V21.5H117.937V13.2295L122.771 21.5H125.627Z" fill="#040036"/>
<path fill-rule="evenodd" clip-rule="evenodd" d="M113.164 14.8203V15.3916C113.164 16.3643 113.029 17.2373 112.759 18.0107C112.496 18.7842 112.118 19.4434 111.626 19.9883C111.139 20.5332 110.559 20.9521 109.885 21.2451C109.217 21.5322 108.476 21.6758 107.662 21.6758C106.847 21.6758 106.103 21.5322 105.429 21.2451C104.755 20.9521 104.17 20.5332 103.671 19.9883C103.179 19.4434 102.798 18.7842 102.529 18.0107C102.259 17.2373 102.125 16.3643 102.125 15.3916V14.8203C102.125 13.8477 102.259 12.9746 102.529 12.2012C102.798 11.4219 103.176 10.7598 103.663 10.2148C104.155 9.66992 104.738 9.25391 105.412 8.9668C106.086 8.67383 106.83 8.52734 107.644 8.52734C108.459 8.52734 109.203 8.67383 109.877 8.9668C110.55 9.25391 111.13 9.66992 111.617 10.2148C112.109 10.7598 112.49 11.4219 112.759 12.2012C113.029 12.9746 113.164 13.8477 113.164 14.8203ZM110.272 15.3916V14.8027C110.272 14.1523 110.213 13.5781 110.096 13.0801C109.979 12.5762 109.809 12.1543 109.587 11.8145C109.364 11.4746 109.088 11.2197 108.76 11.0498C108.432 10.874 108.06 10.7861 107.644 10.7861C107.211 10.7861 106.833 10.874 106.51 11.0498C106.188 11.2197 105.916 11.4746 105.693 11.8145C105.476 12.1543 105.309 12.5762 105.192 13.0801C105.081 13.5781 105.025 14.1523 105.025 14.8027V15.3916C105.025 16.0361 105.081 16.6104 105.192 17.1143C105.309 17.6123 105.479 18.0342 105.702 18.3799C105.924 18.7256 106.197 18.9863 106.519 19.1621C106.847 19.3379 107.228 19.4258 107.662 19.4258C108.078 19.4258 108.447 19.3379 108.769 19.1621C109.097 18.9863 109.373 18.7256 109.595 18.3799C109.818 18.0342 109.985 17.6123 110.096 17.1143C110.213 16.6104 110.272 16.0361 110.272 15.3916Z" fill="#040036"/>
<path d="M101.518 21.5V19.2852H96.0332V8.70312H93.168V21.5H101.518Z" fill="#040036"/>
<path d="M86.2674 8.70312V21.5H83.4109L78.577 13.2295V21.5H75.7117V8.70312H78.577L83.4197 16.9736V8.70312H86.2674Z" fill="#040036"/>
<path d="M74.1555 21.5V19.2852H68.3195V15.998H73.2766V13.8535H68.3195V10.9268H74.1643V8.70312H65.4543V21.5H74.1555Z" fill="#040036"/>
<path fill-rule="evenodd" clip-rule="evenodd" d="M58.6773 17.0527H56.4977V21.5H53.6324V8.70312H58.6773C59.6969 8.70312 60.5699 8.8877 61.2965 9.25684C62.0289 9.62598 62.5885 10.1328 62.9752 10.7773C63.3678 11.416 63.5641 12.1484 63.5641 12.9746C63.5641 13.8008 63.3678 14.5186 62.9752 15.1279C62.5885 15.7373 62.0289 16.2119 61.2965 16.5518C60.5699 16.8857 59.6969 17.0527 58.6773 17.0527ZM56.4977 10.9268V14.8291H58.6773C59.152 14.8291 59.5328 14.75 59.8199 14.5918C60.1129 14.4336 60.3268 14.2168 60.4615 13.9414C60.6021 13.6602 60.6725 13.3438 60.6725 12.9922C60.6725 12.6289 60.6021 12.292 60.4615 11.9814C60.3268 11.665 60.1129 11.4102 59.8199 11.2168C59.5328 11.0234 59.152 10.9268 58.6773 10.9268H56.4977Z" fill="#040036"/>
<path fill-rule="evenodd" clip-rule="evenodd" d="M51.7246 15.3916V14.8203C51.7246 13.8477 51.5898 12.9746 51.3203 12.2012C51.0508 11.4219 50.6699 10.7598 50.1777 10.2148C49.6914 9.66992 49.1113 9.25391 48.4375 8.9668C47.7637 8.67383 47.0195 8.52734 46.2051 8.52734C45.3906 8.52734 44.6465 8.67383 43.9727 8.9668C43.2988 9.25391 42.7158 9.66992 42.2236 10.2148C41.7373 10.7598 41.3594 11.4219 41.0898 12.2012C40.8203 12.9746 40.6855 13.8477 40.6855 14.8203V15.3916C40.6855 16.3643 40.8203 17.2373 41.0898 18.0107C41.3594 18.7842 41.7402 19.4434 42.2324 19.9883C42.7305 20.5332 43.3164 20.9521 43.9902 21.2451C44.6641 21.5322 45.4082 21.6758 46.2227 21.6758C47.0371 21.6758 47.7783 21.5322 48.4463 21.2451C49.1201 20.9521 49.7002 20.5332 50.1865 19.9883C50.6787 19.4434 51.0566 18.7842 51.3203 18.0107C51.5898 17.2373 51.7246 16.3643 51.7246 15.3916ZM48.833 14.8027V15.3916C48.833 16.0361 48.7744 16.6104 48.6572 17.1143C48.5459 17.6123 48.3789 18.0342 48.1562 18.3799C47.9336 18.7256 47.6582 18.9863 47.3301 19.1621C47.0078 19.3379 46.6387 19.4258 46.2227 19.4258C45.7891 19.4258 45.4082 19.3379 45.0801 19.1621C44.7578 18.9863 44.4854 18.7256 44.2627 18.3799C44.04 18.0342 43.8701 17.6123 43.7529 17.1143C43.6416 16.6104 43.5859 16.0361 43.5859 15.3916V14.8027C43.5859 14.1523 43.6416 13.5781 43.7529 13.0801C43.8701 12.5762 44.0371 12.1543 44.2539 11.8145C44.4766 11.4746 44.749 11.2197 45.0713 11.0498C45.3936 10.874 45.7715 10.7861 46.2051 10.7861C46.6211 10.7861 46.9932 10.874 47.3213 11.0498C47.6494 11.2197 47.9248 11.4746 48.1475 11.8145C48.3701 12.1543 48.54 12.5762 48.6572 13.0801C48.7744 13.5781 48.833 14.1523 48.833 14.8027Z" fill="#040036"/>
</svg>
