<svg width="151" height="30" viewBox="0 0 151 30" fill="none" xmlns="http://www.w3.org/2000/svg">
<path fill-rule="evenodd" clip-rule="evenodd" d="M2.91992 17.0527H5.09961C6.11914 17.0527 6.99219 16.8857 7.71875 16.5518C8.45117 16.2119 9.01074 15.7373 9.39746 15.1279C9.79004 14.5186 9.98633 13.8008 9.98633 12.9746C9.98633 12.1484 9.79004 11.416 9.39746 10.7773C9.01074 10.1328 8.45117 9.62598 7.71875 9.25684C6.99219 8.8877 6.11914 8.70312 5.09961 8.70312H0.0546875V21.5H2.91992V17.0527ZM2.91992 14.8291V10.9268H5.09961C5.57422 10.9268 5.95508 11.0234 6.24219 11.2168C6.53516 11.4102 6.74902 11.665 6.88379 11.9814C7.02441 12.292 7.09473 12.6289 7.09473 12.9922C7.09473 13.3438 7.02441 13.6602 6.88379 13.9414C6.74902 14.2168 6.53516 14.4336 6.24219 14.5918C5.95508 14.75 5.57422 14.8291 5.09961 14.8291H2.91992Z" fill="#040036" fill-opacity="0.38"/>
<path fill-rule="evenodd" clip-rule="evenodd" d="M16.728 8.70312H14.0562L9.31885 21.5H12.3774L13.1903 18.9512H17.6093L18.4243 21.5H21.4829L16.728 8.70312ZM16.9011 16.7363H13.8966L15.3969 12.0322L16.9011 16.7363Z" fill="#040036" fill-opacity="0.38"/>
<path fill-rule="evenodd" clip-rule="evenodd" d="M27.6094 8.70312H22.6963V21.5H25.5615V16.877H27.4437L29.7803 21.5H32.8477V21.3682L30.1209 16.1692C30.4751 16.0043 30.7952 15.8096 31.0811 15.585C31.4971 15.2627 31.8193 14.8555 32.0479 14.3633C32.2764 13.8711 32.3906 13.2734 32.3906 12.5703C32.3906 11.7266 32.1973 11.0176 31.8105 10.4434C31.4238 9.86914 30.8701 9.43555 30.1494 9.14258C29.4346 8.84961 28.5879 8.70312 27.6094 8.70312ZM25.5615 14.6533H27.6182C28.0459 14.6533 28.4004 14.5771 28.6816 14.4248C28.9629 14.2725 29.1738 14.0586 29.3145 13.7832C29.4609 13.502 29.5342 13.1738 29.5342 12.7988C29.5342 12.4121 29.4609 12.0781 29.3145 11.7969C29.168 11.5156 28.9512 11.3018 28.6641 11.1553C28.3828 11.0029 28.0312 10.9268 27.6094 10.9268H25.5615V14.6533Z" fill="#040036" fill-opacity="0.38"/>
<path d="M39.9678 10.9268V21.5H37.1113V10.9268H33.2969V8.70312H43.8613V10.9268H39.9678Z" fill="#040036" fill-opacity="0.38"/>
<path d="M55.9819 21.5V8.70312H53.1343V16.9736L48.2915 8.70312H45.4263V21.5H48.2915V13.2295L53.1255 21.5H55.9819Z" fill="#040036" fill-opacity="0.38"/>
<path d="M66.9512 19.2852V21.5H58.25V8.70312H66.96V10.9268H61.1152V13.8535H66.0723V15.998H61.1152V19.2852H66.9512Z" fill="#040036" fill-opacity="0.38"/>
<path fill-rule="evenodd" clip-rule="evenodd" d="M73.4204 8.70312H68.5073V21.5H71.3726V16.877H73.2548L75.5913 21.5H78.6587V21.3682L75.9319 16.1692C76.2861 16.0043 76.6062 15.8096 76.8921 15.585C77.3081 15.2627 77.6304 14.8555 77.8589 14.3633C78.0874 13.8711 78.2017 13.2734 78.2017 12.5703C78.2017 11.7266 78.0083 11.0176 77.6216 10.4434C77.2349 9.86914 76.6812 9.43555 75.9604 9.14258C75.2456 8.84961 74.3989 8.70312 73.4204 8.70312ZM71.3726 14.6533H73.4292C73.8569 14.6533 74.2114 14.5771 74.4927 14.4248C74.7739 14.2725 74.9849 14.0586 75.1255 13.7832C75.272 13.502 75.3452 13.1738 75.3452 12.7988C75.3452 12.4121 75.272 12.0781 75.1255 11.7969C74.979 11.5156 74.7622 11.3018 74.4751 11.1553C74.1938 11.0029 73.8423 10.9268 73.4204 10.9268H71.3726V14.6533Z" fill="#040036" fill-opacity="0.38"/>
<path d="M88.9951 19.2852V21.5H80.2939V8.70312H89.0039V10.9268H83.1592V13.8535H88.1162V15.998H83.1592V19.2852H88.9951Z" fill="#040036" fill-opacity="0.38"/>
<path fill-rule="evenodd" clip-rule="evenodd" d="M94.6035 21.5C95.4648 21.5 96.2529 21.3535 96.9678 21.0605C97.6826 20.7676 98.3008 20.3516 98.8223 19.8125C99.3496 19.2676 99.7568 18.623 100.044 17.8789C100.331 17.1289 100.475 16.2998 100.475 15.3916V14.8203C100.475 13.9062 100.331 13.0771 100.044 12.333C99.7568 11.5889 99.3496 10.9443 98.8223 10.3994C98.3008 9.85449 97.6797 9.43555 96.959 9.14258C96.2441 8.84961 95.4531 8.70312 94.5859 8.70312H90.5518V21.5H94.6035ZM93.417 19.2852H94.6035C95.2422 19.2852 95.7812 19.1387 96.2207 18.8457C96.6602 18.5469 96.9941 18.1074 97.2227 17.5273C97.4512 16.9414 97.5654 16.2295 97.5654 15.3916V14.8027C97.5654 14.1699 97.501 13.6133 97.3721 13.1328C97.2432 12.6465 97.0527 12.2393 96.8008 11.9111C96.5488 11.583 96.2354 11.3369 95.8604 11.1729C95.4912 11.0088 95.0664 10.9268 94.5859 10.9268H93.417V19.2852Z" fill="#040036" fill-opacity="0.38"/>
<path d="M108.975 21.5H111.91L113.785 13.6229L115.689 21.5H118.607L121.385 8.70312H118.555L116.953 17.197L115.004 8.70312H112.578L110.647 17.1875L109.036 8.70312H106.197L108.975 21.5Z" fill="#040036" fill-opacity="0.38"/>
<path d="M125.903 21.5V8.70312H123.046V21.5H125.903Z" fill="#040036" fill-opacity="0.38"/>
<path d="M134.06 10.9268V21.5H131.203V10.9268H127.389V8.70312H137.953V10.9268H134.06Z" fill="#040036" fill-opacity="0.38"/>
<path d="M142.384 16.0684H147.227V21.5H150.083V8.70312H147.227V13.8535H142.384V8.70312H139.519V21.5H142.384V16.0684Z" fill="#040036" fill-opacity="0.38"/>
</svg>
