<svg width="24" height="24" viewBox="0 0 24 24" fill="none" xmlns="http://www.w3.org/2000/svg">
<path d="M4 5.5C4 5.77614 4.22386 6 4.5 6C4.77614 6 5 5.77614 5 5.5V1.5C5 1.22386 4.77614 1 4.5 1C4.22386 1 4 1.22386 4 1.5V5.5Z" fill="#040036"/>
<path d="M7 5.5C7 5.77614 7.22386 6 7.5 6C7.77614 6 8 5.77614 8 5.5V1.5C8 1.22386 7.77614 1 7.5 1C7.22386 1 7 1.22386 7 1.5V5.5Z" fill="#040036"/>
<path fill-rule="evenodd" clip-rule="evenodd" d="M5.43979 9.10744C4.9213 8.21619 3.9229 7.29641 2.00042 7.05877C1.69143 7.02057 1.35857 7 1 7C1 7.34268 1.03447 7.6773 1.10014 8.0006C1.56364 10.2825 3.58125 12 6 12C8.41875 12 10.4364 10.2825 10.8999 8.0006C10.9655 7.6773 11 7.34268 11 7C10.6414 7 10.3086 7.02057 9.99958 7.05877C8.0771 7.29641 7.0787 8.21619 6.56021 9.10744C6 10.0704 6 11 6 11C6 11 6 10.0704 5.43979 9.10744ZM7.01034 10.8713C8.38056 10.5147 9.46501 9.44986 9.84938 8.09106C8.47627 8.3271 7.81754 8.97873 7.473 9.53C7.23865 9.90497 7.11799 10.2867 7.05711 10.579C7.0325 10.6971 7.01838 10.7971 7.01034 10.8713ZM4.98966 10.8713C3.61943 10.5147 2.53499 9.44986 2.15061 8.09106C3.52373 8.3271 4.18246 8.97873 4.527 9.53C4.76135 9.90497 4.88201 10.2867 4.94289 10.579C4.9675 10.6971 4.98162 10.7971 4.98966 10.8713Z" fill="#040036"/>
<path fill-rule="evenodd" clip-rule="evenodd" d="M5.43979 14.1074C4.9213 13.2162 3.9229 12.2964 2.00042 12.0588C1.69143 12.0206 1.35857 12 1 12C1 12.3427 1.03447 12.6773 1.10014 13.0006C1.49802 14.9594 3.04107 16.5023 5 16.9V22C5 22.5523 5.44772 23 6 23C6.55228 23 7 22.5523 7 22V16.9C8.95893 16.5023 10.502 14.9594 10.8999 13.0006C10.9655 12.6773 11 12.3427 11 12C10.6414 12 10.3086 12.0206 9.99958 12.0588C8.0771 12.2964 7.0787 13.2162 6.56021 14.1074C6 15.0704 6 16 6 16C6 16 6 15.0704 5.43979 14.1074ZM7.01034 15.8713C8.38056 15.5147 9.46501 14.4499 9.84938 13.0911C8.47627 13.3271 7.81754 13.9787 7.473 14.53C7.23865 14.905 7.11799 15.2867 7.05711 15.579C7.0325 15.6971 7.01838 15.7971 7.01034 15.8713ZM4.98966 15.8713C3.61943 15.5147 2.53499 14.4499 2.15061 13.0911C3.52373 13.3271 4.18246 13.9787 4.527 14.53C4.76135 14.905 4.88201 15.2867 4.94289 15.579C4.9675 15.6971 4.98162 15.7971 4.98966 15.8713Z" fill="#040036"/>
<path d="M16 5.5C16 5.77614 16.2239 6 16.5 6C16.7761 6 17 5.77614 17 5.5V1.5C17 1.22386 16.7761 1 16.5 1C16.2239 1 16 1.22386 16 1.5V5.5Z" fill="#040036"/>
<path d="M19 5.5C19 5.77614 19.2239 6 19.5 6C19.7761 6 20 5.77614 20 5.5V1.5C20 1.22386 19.7761 1 19.5 1C19.2239 1 19 1.22386 19 1.5V5.5Z" fill="#040036"/>
<path fill-rule="evenodd" clip-rule="evenodd" d="M17.4398 9.10744C16.9213 8.21619 15.9229 7.29641 14.0004 7.05877C13.6914 7.02057 13.3586 7 13 7C13 7.34268 13.0345 7.6773 13.1001 8.0006C13.5636 10.2825 15.5813 12 18 12C20.4187 12 22.4364 10.2825 22.8999 8.0006C22.9655 7.6773 23 7.34268 23 7C22.6414 7 22.3086 7.02057 21.9996 7.05877C20.0771 7.29641 19.0787 8.21619 18.5602 9.10744C18 10.0704 18 11 18 11C18 11 18 10.0704 17.4398 9.10744ZM19.0103 10.8713C20.3806 10.5147 21.465 9.44986 21.8494 8.09106C20.4763 8.3271 19.8175 8.97873 19.473 9.53C19.2386 9.90497 19.118 10.2867 19.0571 10.579C19.0325 10.6971 19.0184 10.7971 19.0103 10.8713ZM16.9897 10.8713C15.6194 10.5147 14.535 9.44986 14.1506 8.09106C15.5237 8.3271 16.1825 8.97873 16.527 9.53C16.7614 9.90497 16.882 10.2867 16.9429 10.579C16.9675 10.6971 16.9816 10.7971 16.9897 10.8713Z" fill="#040036"/>
<path fill-rule="evenodd" clip-rule="evenodd" d="M17.4398 14.1074C16.9213 13.2162 15.9229 12.2964 14.0004 12.0588C13.6914 12.0206 13.3586 12 13 12C13 12.3427 13.0345 12.6773 13.1001 13.0006C13.498 14.9594 15.0411 16.5023 17 16.9V22C17 22.5523 17.4477 23 18 23C18.5523 23 19 22.5523 19 22V16.9C20.9589 16.5023 22.502 14.9594 22.8999 13.0006C22.9655 12.6773 23 12.3427 23 12C22.6414 12 22.3086 12.0206 21.9996 12.0588C20.0771 12.2964 19.0787 13.2162 18.5602 14.1074C18 15.0704 18 16 18 16C18 16 18 15.0704 17.4398 14.1074ZM19.0103 15.8713C20.3806 15.5147 21.465 14.4499 21.8494 13.0911C20.4763 13.3271 19.8175 13.9787 19.473 14.53C19.2386 14.905 19.118 15.2867 19.0571 15.579C19.0325 15.6971 19.0184 15.7971 19.0103 15.8713ZM16.9897 15.8713C15.6194 15.5147 14.535 14.4499 14.1506 13.0911C15.5237 13.3271 16.1825 13.9787 16.527 14.53C16.7614 14.905 16.882 15.2867 16.9429 15.579C16.9675 15.6971 16.9816 15.7971 16.9897 15.8713Z" fill="#040036"/>
</svg>
