<svg width="24" height="24" viewBox="0 0 24 24" fill="none" xmlns="http://www.w3.org/2000/svg">
<path d="M9.50824 8.99999H13.0675C13.4146 8.6668 13.7463 8.33458 14.0592 7.99999H8.5984C8.06019 7.3638 7.5821 6.7025 7.18743 5.99999H15.6475C15.8559 5.67484 16.0437 5.34235 16.2082 4.99999H6.69683C6.4334 4.37336 6.2359 3.71011 6.11964 2.99999L16.8657 2.99999C16.9253 2.67723 16.9658 2.34439 16.9857 1.99999L6.01283 1.99999C6.00434 1.83594 6 1.66932 6 1.5C6 1.22386 5.77614 1 5.5 1C5.22386 1 5 1.22386 5 1.5C5 1.85937 5.01775 2.20919 5.0521 2.55011C5.16825 3.70304 5.47352 4.74756 5.91672 5.70926C6.44577 6.85722 7.16857 7.88123 7.99105 8.82791C8.7565 9.70895 9.61654 10.5319 10.4955 11.3284C10.6081 11.2285 10.7202 11.1294 10.8315 11.031L11.249 10.6614C10.6443 10.1153 10.0578 9.56647 9.50824 8.99999Z" fill="#040036"/>
<path d="M12.751 13.3386C13.3557 13.8847 13.9422 14.4335 14.4918 15H10.9325C10.5854 15.3332 10.2537 15.6654 9.94079 16H15.4016C15.9398 16.6362 16.4179 17.2975 16.8126 18H8.35249C8.14407 18.3251 7.95635 18.6576 7.79177 19H17.3032C17.5666 19.6266 17.7641 20.2899 17.8804 21H7.13435C7.0747 21.3227 7.03421 21.6556 7.0143 22H17.9872C17.9957 22.164 18 22.3307 18 22.5C18 22.7761 18.2239 23 18.5 23C18.7761 23 19 22.7761 19 22.5C19 22.1406 18.9822 21.7908 18.9479 21.4499C18.8317 20.2969 18.5265 19.2524 18.0833 18.2907C17.5542 17.1428 16.8314 16.1187 16.0089 15.1721C15.2435 14.291 14.3835 13.4681 13.5045 12.6716C13.3921 12.7713 13.2802 12.8702 13.1691 12.9685L12.751 13.3386Z" fill="#040036"/>
<path d="M6 22.5C6 18.0087 9.05035 15.2769 12.3313 12.3745L12.395 12.3181C15.5957 9.48698 19 6.4757 19 1.5C19 1.22386 18.7761 1 18.5 1C18.2239 1 18 1.22386 18 1.5C18 5.99127 14.9497 8.72312 11.6687 11.6255L11.605 11.6818C8.40433 14.513 5 17.5243 5 22.5C5 22.7761 5.22386 23 5.5 23C5.77615 23 6 22.7761 6 22.5Z" fill="#040036"/>
</svg>
