<svg width="24" height="24" viewBox="0 0 24 24" fill="none" xmlns="http://www.w3.org/2000/svg">
<path fill-rule="evenodd" clip-rule="evenodd" d="M8.5 20.8662C9.61512 20.545 10.5926 20.1058 11.428 19.5667C11.1591 19.3503 10.9077 19.113 10.6765 18.8571C10.0462 19.2381 9.32155 19.564 8.5 19.822V17.2072L9.28798 16.4192C9.17188 16.043 9.08901 15.6521 9.04282 15.2501L8.5 15.793L8.5 11.2072L10.8536 8.85363C11.0488 8.65837 11.0488 8.34178 10.8536 8.14652C10.6583 7.95126 10.3417 7.95126 10.1464 8.14652L8.5 9.79297L8.5 2.79545C10.5464 4.74058 11.9796 6.69942 12.8688 8.5546C13.1733 8.41961 13.4902 8.30734 13.8172 8.21993C12.6994 5.84624 10.7771 3.37282 8 1C-1.5039 9.12038 -0.996098 18.419 7.5 20.8662V22.5C7.5 22.7761 7.72386 23 8 23C8.27614 23 8.5 22.7761 8.5 22.5V20.8662ZM7.5 2.79546C3.60316 6.49953 1.92981 10.2533 2.00227 13.2463C2.04152 14.8676 2.5887 16.2928 3.60175 17.4393C4.49556 18.4509 5.78714 19.2841 7.5 19.822V17.2072L3.64645 13.3536C3.45118 13.1584 3.45118 12.8418 3.64645 12.6465C3.84171 12.4513 4.15829 12.4513 4.35355 12.6465L7.5 15.793L7.5 11.2072L5.14645 8.85363C4.95118 8.65837 4.95118 8.34178 5.14645 8.14652C5.34171 7.95126 5.65829 7.95126 5.85355 8.14652L7.5 9.79297L7.5 2.79546Z" fill="#040036"/>
<path fill-rule="evenodd" clip-rule="evenodd" d="M15.5 20C16.1954 20 16.8607 19.8709 17.4732 19.6354L20.0969 22.4653C20.7075 23.1239 21.7582 23.1821 22.4435 22.5953C23.1289 22.0085 23.1895 20.9989 22.5789 20.3403L20.0414 17.6034C20.6462 16.7201 21 15.6514 21 14.5C21 11.4624 18.5376 9 15.5 9C12.4624 9 10 11.4624 10 14.5C10 17.5376 12.4624 20 15.5 20ZM15.5 19C16.502 19 17.4274 18.6725 18.1752 18.1188L18.6604 17.7034C19.4874 16.8875 20 15.7536 20 14.5C20 12.0147 17.9853 10 15.5 10C13.0147 10 11 12.0147 11 14.5C11 16.9853 13.0147 19 15.5 19Z" fill="#040036"/>
</svg>
