<svg width="24" height="24" viewBox="0 0 24 24" fill="none" xmlns="http://www.w3.org/2000/svg">
<path d="M12 8C11.7239 8 11.5 8.22386 11.5 8.5C11.5 8.77614 11.7239 9 12 9C13.6569 9 15 10.3431 15 12C15 12.2761 15.2239 12.5 15.5 12.5C15.7761 12.5 16 12.2761 16 12C16 9.79086 14.2091 8 12 8Z" fill="#040036"/>
<path fill-rule="evenodd" clip-rule="evenodd" d="M11.993 2.35416C12.0287 2.72078 11.9293 3.06941 11.7353 3.35063C11.4948 3.6994 11.2587 4.09872 11.3248 4.5172L11.418 5.10794C11.4991 5.62116 11.9614 5.97826 12.4794 6.0189C12.6079 6.02898 12.7354 6.04307 12.861 6.06112C14.2599 6.26214 15.503 6.94578 16.416 7.93788C16.7679 8.32025 17.3337 8.46492 17.788 8.21255L18.3864 7.88011C18.7853 7.6585 18.9568 7.18681 19.0176 6.73457C19.0969 6.1441 19.4382 5.59509 19.9927 5.27177C20.947 4.71544 22.1715 5.038 22.7278 5.99224C23.2842 6.94647 22.9616 8.17103 22.0074 8.72737C21.4273 9.06555 20.7474 9.07897 20.1784 8.82316C19.7622 8.63609 19.2712 8.5325 18.8724 8.75408L18.2755 9.08567C17.8208 9.3383 17.645 9.89593 17.7836 10.3973C17.9247 10.9074 18 11.4448 18 11.9998C18 13.4521 17.484 14.7839 16.6254 15.8219C16.294 16.2224 16.2275 16.8028 16.5394 17.2187L16.7729 17.5301C17.0467 17.8951 17.5373 18.0008 17.9936 17.9997C18.6103 17.9982 19.2194 18.2811 19.6123 18.8164C20.2659 19.7068 20.074 20.9585 19.1835 21.6121C18.2931 22.2657 17.0414 22.0738 16.3878 21.1833C16.0035 20.6599 15.9115 20.0116 16.0819 19.4333C16.2108 18.9956 16.2466 18.495 15.9728 18.13L15.7406 17.8203C15.4284 17.404 14.8518 17.3058 14.374 17.5119C13.6459 17.8259 12.8433 17.9998 12 17.9998C10.8534 17.9998 9.78189 17.6782 8.87081 17.1202C8.42723 16.8485 7.84282 16.8644 7.47502 17.2322L5.27132 19.4359C4.94873 19.7585 4.91331 20.2591 4.97903 20.7105C5.06492 21.3005 4.88725 21.9225 4.44219 22.3857C3.6769 23.1822 2.41082 23.2075 1.61432 22.4422C0.81783 21.6769 0.792535 20.4108 1.55783 19.6144C2.02272 19.1305 2.67241 18.9312 3.28937 19.0209C3.74097 19.0866 4.24171 19.0513 4.5644 18.7286L6.76784 16.5252C7.13566 16.1574 7.15153 15.5729 6.87983 15.1293C6.32174 14.2182 6.00003 13.1466 6.00003 11.9998C6.00003 11.5798 6.04319 11.1699 6.12531 10.7742C6.23099 10.265 6.01948 9.72012 5.54949 9.49749L4.20415 8.86021C3.82092 8.67868 3.37072 8.79305 2.9678 8.92521C2.58961 9.04926 2.16312 9.02346 1.78554 8.8189C1.05713 8.42429 0.786539 7.5139 1.18115 6.7855C1.57576 6.05709 2.48615 5.7865 3.21455 6.18111C3.54092 6.35792 3.77538 6.63828 3.89928 6.95942C4.05175 7.35463 4.24845 7.77468 4.63128 7.95602L5.97909 8.59447C6.44869 8.81692 7.00394 8.63597 7.3305 8.23179C7.95519 7.45861 8.76802 6.84372 9.69937 6.45672C10.1798 6.25708 10.511 5.77501 10.4298 5.26109L10.3371 4.67376C10.271 4.25496 9.92277 3.94765 9.58654 3.68937C9.2688 3.4453 9.04904 3.07531 9.00712 2.64508C8.92679 1.82056 9.53007 1.08703 10.3546 1.00669C11.1791 0.926352 11.9126 1.52963 11.993 2.35416ZM17 12C17 14.7614 14.7614 17 12 17C9.23858 17 7 14.7614 7 12C7 9.23858 9.23858 7 12 7C14.7614 7 17 9.23858 17 12Z" fill="#040036"/>
</svg>
