<svg width="24" height="24" viewBox="0 0 24 24" fill="none" xmlns="http://www.w3.org/2000/svg">
<path fill-rule="evenodd" clip-rule="evenodd" d="M8 6V5C8 3.89543 8.89543 3 10 3H14C15.1046 3 16 3.89543 16 5V6H21C22.1046 6 23 6.89543 23 8V11.3308C23 12.0621 22.6044 12.7141 22 13.0632V19C22 20.1046 21.1046 21 20 21H4C2.89543 21 2 20.1046 2 19V13.0632C1.39561 12.7141 1 12.0621 1 11.3308V8C1 6.89543 1.89543 6 3 6H8ZM10 4H14C14.5523 4 15 4.44772 15 5V6H9V5C9 4.44772 9.44772 4 10 4ZM14 14.6364L21 13.3636V19C21 19.5523 20.5523 20 20 20H4C3.44772 20 3 19.5523 3 19V13.3636L10 14.6364V16C10 16.5523 10.4477 17 11 17H13C13.5523 17 14 16.5523 14 16V14.6364ZM14 13.62L21.1789 12.3147C21.6544 12.2283 22 11.8141 22 11.3308V8C22 7.44771 21.5523 7 21 7H3C2.44772 7 2 7.44772 2 8V11.3308C2 11.8141 2.34562 12.2283 2.82112 12.3147L10 13.62V13C10 12.4477 10.4477 12 11 12H13C13.5523 12 14 12.4477 14 13V13.62Z" fill="#040036"/>
</svg>
