<svg width="24" height="24" viewBox="0 0 24 24" fill="none" xmlns="http://www.w3.org/2000/svg">
<path fill-rule="evenodd" clip-rule="evenodd" d="M16 12C16 14.2091 14.2091 16 12 16C9.79086 16 8 14.2091 8 12C8 12 8 10 10 10C11.1451 10 11.7657 10.4196 12.4384 10.8744C13.2343 11.4126 14.1031 12 16 12ZM11 12C11 12.5523 10.5523 13 10 13C9.44772 13 9 12.5523 9 12C9 11.4477 9.44772 11 10 11C10.5523 11 11 11.4477 11 12Z" fill="#040036"/>
<path fill-rule="evenodd" clip-rule="evenodd" d="M10 2C10 1.44772 10.4477 1 11 1H13C13.5523 1 14 1.44772 14 2V6.34141C16.3304 7.16508 18 9.38756 18 12C18 15.3137 15.3137 18 12 18C8.68629 18 6 15.3137 6 12C6 9.38756 7.66962 7.16508 10 6.34141V2ZM11 7.04859L10.3332 7.28425C8.38991 7.97112 7 9.82453 7 12C7 14.7614 9.23858 17 12 17C14.7614 17 17 14.7614 17 12C17 9.82453 15.6101 7.97112 13.6668 7.28425L13 7.04859V2H11V7.04859Z" fill="#040036"/>
<path d="M8 3.72871C7.9046 3.71265 7.80968 3.68228 7.71802 3.63645L6.42213 2.9885C6.03714 2.79601 5.57217 2.87146 5.26781 3.17582L3.17584 5.26779C2.87148 5.57215 2.79603 6.03712 2.98852 6.42211L3.63647 7.71801C3.90863 8.26231 3.6356 8.92146 3.05828 9.1139L1.68377 9.57207C1.27543 9.70819 1 10.0903 1 10.5208V13.4792C1 13.9097 1.27543 14.2918 1.68377 14.4279L3.05826 14.8861C3.63558 15.0785 3.90861 15.7377 3.63646 16.282L2.98852 17.5779C2.79603 17.9628 2.87148 18.4278 3.17584 18.7322L5.26781 20.8241C5.57217 21.1285 6.03714 21.204 6.42213 21.0115L7.71801 20.3635C8.26231 20.0914 8.92147 20.3644 9.11391 20.9417L9.57208 22.3162C9.70819 22.7246 10.0903 23 10.5208 23H13.4792C13.9097 23 14.2918 22.7246 14.4279 22.3162L14.8861 20.9417C15.0785 20.3644 15.7377 20.0914 16.282 20.3635L17.5779 21.0115C17.9629 21.204 18.4278 21.1285 18.7322 20.8241L20.8242 18.7322C21.1285 18.4278 21.204 17.9628 21.0115 17.5779L20.3635 16.282C20.0914 15.7377 20.3644 15.0785 20.9417 14.8861L22.3162 14.4279C22.7246 14.2918 23 13.9097 23 13.4792V10.5208C23 10.0903 22.7246 9.70819 22.3162 9.57207L20.9417 9.11391C20.3644 8.92147 20.0914 8.26231 20.3635 7.71801L21.0115 6.42211C21.204 6.03712 21.1285 5.57215 20.8242 5.26779L18.7322 3.17583C18.4278 2.87147 17.9629 2.79602 17.5779 2.98851L16.282 3.63645C16.1903 3.68229 16.0954 3.71266 16 3.72872V4.73611C16.246 4.71576 16.493 4.64899 16.7292 4.53088L18.0251 3.88294L20.117 5.9749L19.4691 7.2708C18.9248 8.3594 19.4709 9.67771 20.6255 10.0626L22 10.5208V13.4792L20.6255 13.9374C19.4709 14.3223 18.9248 15.6406 19.4691 16.7292L20.117 18.0251L18.0251 20.117L16.7292 19.4691C15.6406 18.9248 14.3223 19.4708 13.9374 20.6255L13.4792 22L10.5208 22L10.0626 20.6255C9.67771 19.4708 8.3594 18.9248 7.2708 19.4691L5.97491 20.117L3.88295 18.0251L4.53089 16.7292C5.07519 15.6406 4.52913 14.3223 3.37449 13.9374L2 13.4792V10.5208L3.3745 10.0626C4.52915 9.67771 5.0752 8.3594 4.5309 7.27079L3.88295 5.97489L5.97491 3.88293L7.2708 4.53088C7.50702 4.64898 7.75404 4.71575 8 4.7361V3.72871Z" fill="#040036"/>
</svg>
