<svg width="24" height="24" viewBox="0 0 24 24" fill="none" xmlns="http://www.w3.org/2000/svg">
<path d="M7.33325 7.3696L8 7.13394V4.1C8 3.47051 7.50333 3.05053 7 3V2L12 2L11.9999 3.00008C11.4966 3.05061 11 3.47051 11 4.1V7.13394L11.6668 7.3696C13.0553 7.86037 14.2266 8.8093 15 10.0342V8.40093C14.1828 7.51989 13.1565 6.83553 12 6.42676V4.1C12 4.04477 12.0449 4.00053 12.0999 3.99508C12.6053 3.94497 13 3.51858 13 3V2C13 1.44772 12.5523 1 12 1H7C6.44772 1 6 1.44772 6 2V3C6 3.51858 6.39474 3.94497 6.90014 3.99508C6.9551 4.00053 7 4.04477 7 4.1V6.42676C4.08702 7.45636 2 10.2345 2 13.5C2 17.6421 5.35786 21 9.5 21C11.6731 21 13.6303 20.0758 15 18.5991V16.9657C13.8487 18.789 11.8158 20 9.5 20C5.91015 20 3 17.0899 3 13.5C3 10.6714 4.80731 8.26239 7.33325 7.3696Z" fill="#040036"/>
<path d="M19 10H18V20.5C18 20.7761 18.2239 21 18.5 21C18.7761 21 19 20.7761 19 20.5V10Z" fill="#040036"/>
<path fill-rule="evenodd" clip-rule="evenodd" d="M16 4C15.4477 4 15 4.44772 15 5V6C15 6.51858 15.3947 6.94497 15.9001 6.99508C15.9551 7.00053 16 7.04477 16 7.1V20.5C16 21.8807 17.1193 23 18.5 23C19.8807 23 21 21.8807 21 20.5V7.1C21 7.04477 21.0449 7.00053 21.0999 6.99508C21.6053 6.94497 22 6.51858 22 6V5C22 4.44772 21.5523 4 21 4H16ZM16 6V5H21V6C20.4967 6.05053 20 6.47051 20 7.1V20.5C20 21.3284 19.3284 22 18.5 22C17.6716 22 17 21.3284 17 20.5V7.1C17 6.47052 16.5033 6.05053 16 6Z" fill="#040036"/>
<path fill-rule="evenodd" clip-rule="evenodd" d="M14.5827 15.6052C15.029 14.529 14.0028 13.6045 12.8389 13.5539C10.7888 13.4646 10.1191 12.9035 9.50653 12.3903C8.95177 11.9255 8.44393 11.5 7.00001 11.5C5.91285 11.5 4.71606 12.6923 4.22703 13.2357C4.07571 13.4039 3.99677 13.6237 4.01093 13.8495C4.19118 16.7242 6.57983 19 9.50001 19C11.7919 19 13.7563 17.5982 14.5827 15.6052ZM7 15C7.55228 15 8 14.5523 8 14C8 13.4477 7.55228 13 7 13C6.44771 13 6 13.4477 6 14C6 14.5523 6.44771 15 7 15ZM12 16C12 16.5523 11.5523 17 11 17C10.4477 17 10 16.5523 10 16C10 15.4477 10.4477 15 11 15C11.5523 15 12 15.4477 12 16Z" fill="#040036"/>
</svg>
