<svg width="24" height="24" viewBox="0 0 24 24" fill="none" xmlns="http://www.w3.org/2000/svg">
<path fill-rule="evenodd" clip-rule="evenodd" d="M9 10C9 9.44772 9.44772 9 10 9H14C14.5523 9 15 9.44772 15 10V14C15 14.5523 14.5523 15 14 15H10C9.44772 15 9 14.5523 9 14V10ZM14 10V14H10V10H14Z" fill="#040036"/>
<path fill-rule="evenodd" clip-rule="evenodd" d="M8.28328 3.7795C8.0553 3.91936 7.78707 4 7.5 4C6.67157 4 6 3.32843 6 2.5C6 1.67157 6.67157 1 7.5 1C8.32843 1 9 1.67157 9 2.5C9 2.66697 8.97272 2.82757 8.92237 2.97758L9.99999 4.32461V7H11.5V4.86622C11.2011 4.69331 11 4.37014 11 4C11 3.44772 11.4477 3 12 3C12.5523 3 13 3.44772 13 4C13 4.37014 12.7989 4.69331 12.5 4.86622V7H14L14 4.82461L15.226 3.29214C15.0827 3.06226 15 2.79079 15 2.5C15 1.67157 15.6716 1 16.5 1C17.3284 1 18 1.67157 18 2.5C18 3.32843 17.3284 4 16.5 4C16.3272 4 16.1612 3.97078 16.0067 3.917L15 5.17539V7.17071C16.1652 7.58255 17 8.69378 17 10H18.6338C18.8067 9.7011 19.1299 9.5 19.5 9.5C20.0523 9.5 20.5 9.94772 20.5 10.5C20.5 11.0523 20.0523 11.5 19.5 11.5C19.1299 11.5 18.8067 11.2989 18.6338 11H17V13H19.1754L20.7079 14.226C20.9377 14.0827 21.2092 14 21.5 14C22.3284 14 23 14.6716 23 15.5C23 16.3284 22.3284 17 21.5 17C20.6716 17 20 16.3284 20 15.5C20 15.3272 20.0292 15.1612 20.083 15.0067L18.8246 14L17 14C17 15.3062 16.1652 16.4175 15 16.8293V18.8246L16.0067 20.083C16.1612 20.0292 16.3272 20 16.5 20C17.3284 20 18 20.6716 18 21.5C18 22.3284 17.3284 23 16.5 23C15.6716 23 15 22.3284 15 21.5C15 21.2092 15.0827 20.9377 15.226 20.7079L14 19.1754L14 17H12.5V19.1338C12.7989 19.3067 13 19.6299 13 20C13 20.5523 12.5523 21 12 21C11.4477 21 11 20.5523 11 20C11 19.6299 11.2011 19.3067 11.5 19.1338V17H10L9.99999 19.1754L8.77402 20.7079C8.91725 20.9377 9 21.2092 9 21.5C9 22.3284 8.32843 23 7.5 23C6.67157 23 6 22.3284 6 21.5C6 20.6716 6.67157 20 7.5 20C7.67281 20 7.8388 20.0292 7.99328 20.083L8.99999 18.8246L8.99999 16.8293C7.83481 16.4175 7 15.3062 7 14H5.17539L3.917 15.0067C3.97078 15.1612 4 15.3272 4 15.5C4 16.3284 3.32843 17 2.5 17C1.67157 17 1 16.3284 1 15.5C1 14.6716 1.67157 14 2.5 14C2.79079 14 3.06226 14.0827 3.29214 14.226L4.82461 13H7V11H4.86622C4.69331 11.2989 4.37014 11.5 4 11.5C3.44772 11.5 3 11.0523 3 10.5C3 9.94772 3.44772 9.5 4 9.5C4.37014 9.5 4.69331 9.7011 4.86622 10H7C7 8.69378 7.8348 7.58255 8.99999 7.17071L8.99999 4.67539L8.28328 3.7795ZM14 8C15.1046 8 16 8.89543 16 10V14C16 15.1046 15.1046 16 14 16H10C8.89543 16 8 15.1046 8 14V10C8 8.89543 8.89543 8 10 8H14Z" fill="#040036"/>
</svg>
