<svg width="24" height="24" viewBox="0 0 24 24" fill="none" xmlns="http://www.w3.org/2000/svg">
<path fill-rule="evenodd" clip-rule="evenodd" d="M12.3322 1.29524C12.1427 1.12685 11.8573 1.12685 11.6678 1.29524L8.48291 4.12626C8.13928 4.43171 8.35533 4.99997 8.81509 4.99997H11.5V12.3687C11.7719 11.8791 12.1035 11.4365 12.5 11.0438L12.5 4.99997H15.1849C15.6447 4.99997 15.8607 4.43171 15.5171 4.12626L12.3322 1.29524ZM13.8698 3.99997L12 2.33792L10.1302 3.99997H13.8698Z" fill="#040036"/>
<path fill-rule="evenodd" clip-rule="evenodd" d="M10.5096 11.6784C10.8362 11.9535 11.1215 12.2677 11.3663 12.6227C11.1797 12.9976 11.0254 13.3981 10.9014 13.8229C10.6349 13.2482 10.2855 12.7971 9.86542 12.4433C8.81594 11.5596 7.21528 11.1859 5 11.1859L5 13.8708C5 14.3305 4.43174 14.5466 4.12629 14.203L1.29527 11.0181C1.12688 10.8286 1.12688 10.5431 1.29527 10.3537L4.12629 7.16879C4.43174 6.82516 5 7.04122 5 7.50097L5 10.1859C7.28471 10.1859 9.18404 10.5622 10.5096 11.6784ZM4 8.81607L2.33795 10.6859L4 12.5557V8.81607Z" fill="#040036"/>
<path d="M13 19C13 19.5523 12.5523 20 12 20C11.4477 20 11 19.5523 11 19C11 18.4477 11.4477 18 12 18C12.5523 18 13 18.4477 13 19Z" fill="#040036"/>
<path fill-rule="evenodd" clip-rule="evenodd" d="M22.7047 10.1678C22.8731 10.3572 22.8731 10.6427 22.7047 10.8322L19.8737 14.0171C19.5682 14.3607 19 14.1446 19 13.6849V11C16.7847 11 15.184 11.3737 14.1346 12.2574C13.4168 12.8618 12.9054 13.7503 12.6615 15.0544C14.5558 15.3697 16 17.0162 16 19C16 21.2091 14.2091 23 12 23C9.79086 23 8 21.2091 8 19C8 16.9077 9.60645 15.1906 11.6532 15.0148C11.9166 13.4682 12.5221 12.308 13.4904 11.4925C14.816 10.3763 16.7153 9.99997 19 9.99997V7.31507C19 6.85531 19.5682 6.63926 19.8737 6.98289L22.7047 10.1678ZM11.5327 16.0361C10.0978 16.2606 9 17.5021 9 19C9 20.6568 10.3431 22 12 22C13.6569 22 15 20.6568 15 19C15 17.5255 13.9363 16.2995 12.5344 16.0474C12.361 16.0162 12.1824 16 12 16C11.841 16 11.685 16.0123 11.5327 16.0361Z" fill="#040036"/>
</svg>
