<svg width="24" height="24" viewBox="0 0 24 24" fill="none" xmlns="http://www.w3.org/2000/svg">
<path d="M15.6171 4.45117C15.872 4.34496 15.9925 4.05223 15.8863 3.79732C15.7801 3.54242 15.4874 3.42189 15.2325 3.52809L13.7308 4.1538C13.1824 4.3823 12.5941 4.49995 12 4.49995C11.4059 4.49995 10.8176 4.3823 10.2692 4.1538L8.76754 3.52809C8.51264 3.42189 8.2199 3.54242 8.1137 3.79732C8.00749 4.05223 8.12803 4.34496 8.38293 4.45117L9.88462 5.07688C10.5549 5.35616 11.2739 5.49995 12 5.49995C12.7261 5.49995 13.4451 5.35616 14.1154 5.07688L15.6171 4.45117Z" fill="#040036"/>
<path fill-rule="evenodd" clip-rule="evenodd" d="M15.0402 1.06656L13.5385 1.69226C13.051 1.89538 12.5281 1.99995 12 1.99995C11.4719 1.99995 10.949 1.89538 10.4616 1.69226L8.95986 1.06656C7.00063 0.250212 5.06427 1.02438 3.87444 2.34366C2.68973 3.65728 2.09287 5.66778 2.90523 7.5663C3.7434 9.52514 4.42646 11.4884 4.72672 13.1752C4.93105 14.323 5.05195 15.4473 5.14915 16.5051C5.17429 16.7787 5.19805 17.0508 5.22145 17.3187C5.28693 18.0683 5.34957 18.7856 5.43169 19.4139C5.54096 20.25 5.70034 21.0806 6.02801 21.7193C6.19897 22.0525 6.43904 22.3813 6.7862 22.6259C7.14571 22.8792 7.56045 23 8.00001 23C8.68434 23 9.15425 22.605 9.43099 22.1844C9.68423 21.7996 9.82912 21.326 9.92772 20.8946C10.0671 20.2847 10.1618 19.5117 10.2537 18.7615C10.2903 18.462 10.3266 18.1662 10.365 17.8858C10.5109 16.8223 10.694 15.9056 11.0064 15.2683C11.1568 14.9616 11.312 14.774 11.4575 14.6647C11.5879 14.5668 11.7507 14.5 12 14.5C12.2493 14.5 12.4121 14.5668 12.5425 14.6647C12.688 14.774 12.8432 14.9616 12.9936 15.2683C13.306 15.9056 13.4892 16.8223 13.635 17.8858C13.6735 18.1662 13.7097 18.462 13.7464 18.7615C13.8382 19.5117 13.9329 20.2847 14.0723 20.8946C14.1709 21.326 14.3158 21.7996 14.569 22.1844C14.8458 22.605 15.3157 23 16 23C16.4396 23 16.8543 22.8792 17.2138 22.6259C17.561 22.3813 17.8011 22.0525 17.972 21.7193C18.2997 21.0806 18.4591 20.25 18.5683 19.4139C18.6505 18.7856 18.7131 18.0683 18.7786 17.3187L18.7787 17.3177L18.779 17.3138C18.8023 17.0477 18.8259 16.7769 18.8509 16.5051C18.9481 15.4473 19.069 14.323 19.2733 13.1752C19.5736 11.4884 20.2566 9.52514 21.0948 7.5663C21.9072 5.66778 21.3103 3.65728 20.1256 2.34366C18.9358 1.02438 16.9994 0.250212 15.0402 1.06656ZM3.8246 7.17291C2.56326 4.22511 5.61557 0.756435 8.57525 1.98963L10.0769 2.61534C10.6863 2.86924 11.3399 2.99995 12 2.99995C12.6601 2.99995 13.3137 2.86924 13.9231 2.61534L15.4248 1.98963C18.3845 0.756435 21.4368 4.22511 20.1754 7.17291C19.3247 9.16119 18.6084 11.2046 18.2888 13C18.0202 14.5089 17.8929 15.966 17.7805 17.2522C17.7319 17.8088 17.6861 18.3334 17.6328 18.8164L14.5571 17.2785C14.2529 15.3217 13.6984 13.5 12 13.5C9.91059 13.5 9.55243 16.2571 9.26176 18.6308L6.20648 17.1032C6.09715 15.8539 5.96953 14.451 5.71125 13C5.39166 11.2046 4.67537 9.16119 3.8246 7.17291Z" fill="#040036"/>
</svg>
