<svg width="24" height="24" viewBox="0 0 24 24" fill="none" xmlns="http://www.w3.org/2000/svg">
<path fill-rule="evenodd" clip-rule="evenodd" d="M5.64183 3.02263C5.47632 3.14006 5.3142 3.26195 5.15565 3.38813C3.1192 5.00878 1.67061 7.33656 1.18138 10C1.15042 10.1685 1.12331 10.3384 1.10013 10.5095C1.0341 10.9969 1 11.4945 1 12C1 16.4719 3.6685 20.3205 7.5 22.0404C7.66456 22.1143 7.83127 22.1842 8 22.2501C8.16477 22.3145 8.33148 22.375 8.5 22.4315C8.66496 22.4868 8.83166 22.5383 9 22.5859C9.95366 22.8557 10.96 23 12 23C15.026 23 17.7666 21.7781 19.7554 19.8009C19.8762 19.6808 19.9942 19.558 20.1093 19.4324C21.9044 17.4749 23 14.8654 23 12C23 10.7685 22.7976 9.58423 22.4243 8.47869C22.3699 8.31742 22.3118 8.15782 22.2501 8C21.4842 6.03886 20.1718 4.35142 18.5 3.12496C17.7358 2.56431 16.8965 2.09999 16 1.74988C15.5157 1.56077 15.0148 1.40498 14.5 1.28533C13.6969 1.09868 12.86 1 12 1C9.63112 1 7.43714 1.7488 5.64183 3.02263ZM10.5378 5.95761L10.0685 5.01903C10.0502 4.98228 10.0471 4.93974 10.0601 4.90076L10.0741 4.8587C10.3749 3.95653 9.60753 3.05852 8.66949 3.21485L7.30703 3.44193C7.15667 3.46699 7.00302 3.4603 6.85589 3.42261C8.35863 2.51921 10.1178 2 12 2C12.7832 2 13.5442 2.08985 14.2736 2.25938C14.7413 2.36806 15.1963 2.50958 15.6362 2.68137C16.4506 2.99941 17.2135 3.42138 17.9085 3.93125C19.3404 4.98174 20.4819 6.40361 21.1913 8.05324L20.7324 8.32914C20.1794 8.66168 19.4756 8.60322 18.985 8.18401L18.6114 7.86474C18.3548 7.64549 18.0433 7.50032 17.7104 7.44484L15.9441 7.15045C15.1924 7.02517 14.6137 7.79359 14.9303 8.47764L14.1124 9.8408C13.6874 10.5492 13.6538 11.4255 14.0232 12.1644L14.1056 12.3292C14.4644 13.0467 15.1977 13.5 16 13.5C16.4235 13.5 16.8106 13.7393 17 14.118L17.2311 14.5802C17.3778 14.8735 17.4019 15.2132 17.2982 15.5244C17.0771 16.1877 17.1789 16.9163 17.5733 17.4936L18.8181 19.3153C17.031 20.9818 14.6353 22 12 22C11.1356 22 10.2981 21.8905 9.5 21.6852V21.1409C9.5 20.8283 9.59768 20.5235 9.7794 20.2691L11.5343 17.8122C11.8372 17.3882 12 16.8801 12 16.3591V15.7135C12 15.6507 12.0146 15.5888 12.0427 15.5326C12.3896 14.8388 12.1084 13.9952 11.4146 13.6483L10.2408 13.0614L8.54603 12.0445C7.92022 11.669 7.16158 11.5858 6.46922 11.8165L6.31623 11.8675L6.29057 11.7906C6.0881 11.1832 5.59723 10.7316 5.00062 10.5675C5.01498 10.2516 5.27558 10 5.59495 10C5.97568 10 6.34386 9.8638 6.63293 9.61603L9.58174 7.08848C10.2335 7.29636 10.8632 6.60837 10.5378 5.95761ZM2 12C2 11.6356 2.01945 11.2761 2.05731 10.9223L2.92284 11.2956C3.2355 11.4304 3.57241 11.5 3.91291 11.5H4.5C4.88197 11.5 5.22109 11.7444 5.34189 12.1068L5.5 12.5811V14.1716C5.5 14.8346 5.76339 15.4705 6.23223 15.9393L6.56066 16.2678C6.84196 16.5491 7 16.9306 7 17.3284V18.1754C7 18.4442 7.04332 18.7111 7.12829 18.966L7.42302 19.8502C7.47401 20.0032 7.5 20.1633 7.5 20.3246V20.933C4.23618 19.2855 2 15.9029 2 12Z" fill="#040036"/>
</svg>
