<svg width="24" height="24" viewBox="0 0 24 24" fill="none" xmlns="http://www.w3.org/2000/svg">
<path fill-rule="evenodd" clip-rule="evenodd" d="M22 23C22.5523 23 23 22.5523 23 22V2C23 1.44772 22.5523 1 22 1H20C19.4477 1 19 1.44772 19 2V22C19 22.5523 19.4477 23 20 23H22ZM20 2H22V18H20V2Z" fill="#040036"/>
<path fill-rule="evenodd" clip-rule="evenodd" d="M16 23C16.5523 23 17 22.5523 17 22V10C17 9.44772 16.5523 9 16 9H14C13.4477 9 13 9.44772 13 10V22C13 22.5523 13.4477 23 14 23H16ZM14 10H16V19H14V10Z" fill="#040036"/>
<path fill-rule="evenodd" clip-rule="evenodd" d="M8 11C7.44772 11 7 11.4477 7 12V22C7 22.5523 7.44772 23 8 23H10C10.5523 23 11 22.5523 11 22V12C11 11.4477 10.5523 11 10 11H8ZM10 12H8V20H10V12Z" fill="#040036"/>
<path fill-rule="evenodd" clip-rule="evenodd" d="M1 15C1 14.4477 1.44772 14 2 14H4C4.55228 14 5 14.4477 5 15V22C5 22.5523 4.55228 23 4 23H2C1.44772 23 1 22.5523 1 22V15ZM2 15H4V21H2V15Z" fill="#040036"/>
<path d="M12 1C11.7239 1 11.5 1.22386 11.5 1.5C11.5 1.77614 11.7239 2 12 2H15.2929L11.9393 5.35355C11.8456 5.44732 11.7184 5.5 11.5858 5.5H6.44537C6.02014 5.5 5.61489 5.68048 5.33043 5.99655L1.12836 10.6655C0.943628 10.8708 0.960267 11.1869 1.16552 11.3716C1.37078 11.5564 1.68692 11.5397 1.87165 11.3345L6.07372 6.66552C6.16854 6.56016 6.30362 6.5 6.44537 6.5H11.5858C11.9836 6.5 12.3651 6.34197 12.6465 6.06066L16 2.70711V6C16 6.27614 16.2239 6.5 16.5 6.5C16.7761 6.5 17 6.27614 17 6V2C17 1.44772 16.5523 1 16 1H12Z" fill="#040036"/>
</svg>
