<svg width="24" height="24" viewBox="0 0 24 24" fill="none" xmlns="http://www.w3.org/2000/svg">
<path fill-rule="evenodd" clip-rule="evenodd" d="M11 1C10.4477 1 10 1.44772 10 2V16L11.0715 19.6788C11.4068 20.517 12.5932 20.517 12.9285 19.6788L14 16V2C14 1.44772 13.5523 1 13 1H11ZM13 15.5H11V4.5H13V15.5ZM13 3.5H11V2H13V3.5Z" fill="#040036"/>
<path fill-rule="evenodd" clip-rule="evenodd" d="M1 5.04721V20.5C1 21.8807 2.11929 23 3.5 23H20.5C21.8807 23 23 21.8807 23 20.5V5.04721C23 5.01616 22.9929 4.98573 22.9769 4.95915C22.8634 4.77135 22.3174 4 21 4C19.6826 4 19.1366 4.77135 19.0231 4.95915C19.0071 4.98573 19 5.01616 19 5.04721V8H15V9H19V19.3754C19 19.6112 19.5962 19.7514 19.7568 19.5787C19.8237 19.5067 19.8957 19.4383 19.973 19.3754L20 19.3538C20.268 19.1436 20.5981 19 21 19C21.4019 19 21.7321 19.1436 22 19.3538V20.5C22 21.3284 21.3284 22 20.5 22H3.5C2.67157 22 2 21.3284 2 20.5V19.3538C2.26795 19.1436 2.59808 19 3 19C3.40192 19 3.73229 19.1438 4.00024 19.354C4.00922 19.3611 4.01813 19.3682 4.02697 19.3754C4.10427 19.4383 4.17627 19.5067 4.24319 19.5787C4.40379 19.7514 5 19.6112 5 19.3754V9H9V8H5V5.04721C5 5.01616 4.99292 4.98573 4.97687 4.95915C4.86344 4.77135 4.31739 4 3 4C1.68261 4 1.13656 4.77135 1.02313 4.95915C1.00708 4.98573 1 5.01616 1 5.04721ZM4 5.33358C3.84971 5.19325 3.54411 5 3 5C2.45589 5 2.15029 5.19325 2 5.33358V18.2008C2.29251 18.0769 2.62558 18 3 18C3.37442 18 3.70749 18.0769 4 18.2008V5.33358ZM22 18.2008V5.33358C21.8497 5.19325 21.5441 5 21 5C20.4559 5 20.1503 5.19325 20 5.33358V18.2008C20.2925 18.0769 20.6256 18 21 18C21.3744 18 21.7075 18.0769 22 18.2008Z" fill="#040036"/>
</svg>
