<svg width="24" height="24" viewBox="0 0 24 24" fill="none" xmlns="http://www.w3.org/2000/svg">
<path d="M12.6078 11.8725C12.5896 11.9364 12.6376 12 12.704 12H15.1303C15.472 12 15.6564 12.4008 15.434 12.6603L9.99999 19L11.3921 14.1275C11.4104 14.0636 11.3624 14 11.296 14H8.86967C8.52793 14 8.34357 13.5992 8.56597 13.3397L14 7L12.6078 11.8725Z" fill="#040036"/>
<path fill-rule="evenodd" clip-rule="evenodd" d="M8 2V3H6C5.44772 3 5 3.44772 5 4V22C5 22.5523 5.44772 23 6 23H18C18.5523 23 19 22.5523 19 22V4C19 3.44772 18.5523 3 18 3H16V2C16 1.44772 15.5523 1 15 1H9C8.44772 1 8 1.44772 8 2ZM15 2H9V3H15V2ZM6 22V4H18V22H6Z" fill="#040036"/>
</svg>
