<svg width="24" height="24" viewBox="0 0 24 24" fill="none" xmlns="http://www.w3.org/2000/svg">
<path fill-rule="evenodd" clip-rule="evenodd" d="M10 3.76389V2C10 1.44772 10.4477 1 11 1H13C13.5523 1 14 1.44772 14 2V3.76389C14.6137 4.31321 15 5.1115 15 6C15 6.28955 14.959 6.56951 14.8824 6.8344L16.5474 10.467C18.1706 9.68589 19.5623 8.49941 20.5912 7.03828C20.7502 6.8125 21.0621 6.75836 21.2879 6.91735C21.5137 7.07634 21.5678 7.38826 21.4088 7.61404C20.2793 9.21806 18.7493 10.5206 16.9641 11.3763L20 18V22.5559C20 22.9616 19.4657 23.1095 19.257 22.7617L17 19L13.8354 12.3543C13.2377 12.4502 12.6247 12.5 12 12.5C11.3753 12.5 10.7623 12.4502 10.1646 12.3543L9.21369 14.3513C9.33378 14.6438 9.39999 14.9642 9.39999 15.3C9.39999 16.4298 8.65061 17.3845 7.6218 17.6942L7 19L4.743 22.7617C4.53427 23.1095 4 22.9616 4 22.5559V18L4.6961 16.4812C4.50717 16.1295 4.39999 15.7272 4.39999 15.3C4.39999 14.1061 5.23694 13.1076 6.35614 12.8593L7.03589 11.3762C5.2507 10.5206 3.72075 9.21805 2.5912 7.61404C2.43221 7.38826 2.48635 7.07634 2.71213 6.91735C2.93791 6.75836 3.24983 6.8125 3.40882 7.03828C4.43774 8.4994 5.82936 9.68588 7.45262 10.467L9.11756 6.8344C9.04102 6.56951 9 6.28955 9 6C9 5.1115 9.38625 4.31321 10 3.76389ZM11 2H13V3.17071C12.6872 3.06015 12.3506 3 12 3C11.6494 3 11.3128 3.06015 11 3.17071V2ZM14.2889 7.93944C13.9997 8.28041 13.6356 8.55591 13.2222 8.74059L14.4045 11.2235C14.8218 11.1257 15.2296 11.003 15.6261 10.8571L14.2889 7.93944ZM13.9122 6.58776C13.7183 7.21965 13.2197 7.71825 12.5878 7.91224C12.4019 7.96929 12.2045 8 12 8C11.7955 8 11.5981 7.96929 11.4122 7.91224C10.7803 7.71825 10.2818 7.21965 10.0878 6.58776C10.0307 6.40192 10 6.20454 10 6C10 5.79502 10.0308 5.59725 10.0881 5.41106C10.2377 4.92483 10.5677 4.51762 11 4.26756C11.2942 4.09739 11.6357 4 12 4C12.3643 4 12.7058 4.09739 13 4.26756C13.4323 4.51762 13.7623 4.92483 13.9119 5.41106C13.9692 5.59725 14 5.79502 14 6C14 6.20454 13.9693 6.40192 13.9122 6.58776ZM13.3854 11.4094L12.2338 8.99102C12.1567 8.99697 12.0787 9 12 9C11.9213 9 11.8433 8.99697 11.7662 8.99102L10.6146 11.4094C11.0679 11.4692 11.5304 11.5 12 11.5C12.4697 11.5 12.9321 11.4692 13.3854 11.4094ZM10.7778 8.74059C10.3644 8.55591 10.0003 8.28041 9.71112 7.93944L8.37385 10.8571C8.7704 11.003 9.17817 11.1257 9.59553 11.2235L10.7778 8.74059ZM7.95602 11.7687C8.34648 11.9155 8.74705 12.0415 9.15638 12.1457L8.54908 13.421C8.24182 13.1511 7.86781 12.9554 7.45503 12.8618L7.95602 11.7687ZM14.8436 12.1457L17.8822 18.5267L19 20.3897V18.2183L16.044 11.7688C15.6535 11.9155 15.253 12.0415 14.8436 12.1457ZM5 20.3897V18.2183L5.41549 17.3117C5.72388 17.5397 6.08654 17.6984 6.48052 17.765L6.11779 18.5267L5 20.3897Z" fill="#040036"/>
</svg>
