<svg width="24" height="24" viewBox="0 0 24 24" fill="none" xmlns="http://www.w3.org/2000/svg">
<path fill-rule="evenodd" clip-rule="evenodd" d="M14.5 7C14.5 7 14 1.5 8 3C8 5.76142 10.2386 8 13 8H14V10.0204C11.9637 10.1872 10.2475 11.3629 9.46078 12.9935C8.50683 12.9097 7.46272 13.1988 6.56629 13.5575C5.62667 13.9335 4.78423 14.413 4.26667 14.7318C3.98596 14.9047 3.67609 15 3.36927 15H2.5C1.67157 15 1 15.6716 1 16.5V20.5C1 21.3284 1.67157 22 2.5 22H5.67544C5.83667 22 5.99684 22.026 6.14979 22.077L8.53399 22.8717C8.7889 22.9567 9.05585 23 9.32456 23H16.4865C17.2829 23 18.0316 22.6206 18.5025 21.9784L22.6349 16.3433C23.2226 15.5419 23.0557 14.4168 22.2607 13.8205C21.5343 13.2757 20.5219 13.3543 19.8881 13.9915C19.4074 11.858 17.4319 10.2196 15 10.0204V8C18.866 8 22 4.86599 22 1C14.5 1 14.5 7 14.5 7ZM18.9999 14.9749C18.9848 12.8636 17.0669 11 14.5 11C12.6887 11 11.2007 11.9279 10.4762 13.2159C10.8659 13.3453 11.2494 13.5161 11.6031 13.6963C12.2421 14.0218 12.8217 14.3977 13.2234 14.6772C13.5213 14.8845 13.8605 15 14.1979 15H14.5C15.7843 15 16.8424 15.9684 16.9839 17.2149L18.9999 14.9749ZM16 17.5V18H10C9.72386 18 9.5 18.2239 9.5 18.5C9.5 18.7761 9.72386 19 10 19H16.7227L20.5683 14.7271C20.85 14.4141 21.3239 14.3679 21.6607 14.6205C22.0172 14.8879 22.0921 15.3925 21.8285 15.752L17.6961 21.387C17.4136 21.7724 16.9643 22 16.4865 22H9.32456C9.16333 22 9.00316 21.974 8.85021 21.923L6.46601 21.1283C6.2111 21.0433 5.94415 21 5.67544 21H2.5C2.22386 21 2 20.7761 2 20.5V16.5C2 16.2239 2.22386 16 2.5 16H3.36927C3.88349 16 4.37276 15.841 4.79112 15.5833C5.28293 15.2803 6.07148 14.8325 6.9378 14.4859C7.81697 14.1341 8.71322 13.9125 9.44269 13.9967C9.95584 14.0559 10.5574 14.2859 11.1491 14.5873C11.7334 14.885 12.2722 15.2336 12.6523 15.4981C13.0962 15.807 13.6315 16 14.1979 16H14.5C15.3284 16 16 16.6716 16 17.5Z" fill="#040036"/>
</svg>
