<svg width="24" height="24" viewBox="0 0 24 24" fill="none" xmlns="http://www.w3.org/2000/svg">
<path fill-rule="evenodd" clip-rule="evenodd" d="M17 6C17 7.63582 16.2144 9.08816 15 10.0004V12C18.866 12 22 15.134 22 19V21C22 22.1046 21.1046 23 20 23H4C2.89543 23 2 22.1046 2 21V19C2 15.134 5.13401 12 9 12V10.0004C7.78555 9.08816 7 7.63582 7 6C7 3.23858 9.23858 1 12 1C14.7614 1 17 3.23858 17 6ZM15.9961 5.82123C15.9987 5.88049 16 5.94009 16 6C16 8.20914 14.2091 10 12 10C9.79086 10 8 8.20914 8 6C8 5.99227 8.00002 5.98455 8.00007 5.97683C12.6845 5.75405 14 4 14 4C14 4 14.6654 5.33071 15.9961 5.82123ZM12 11C12.7111 11 13.3875 10.8516 14 10.584V12L12 14L10 12V10.584C10.6125 10.8516 11.2889 11 12 11ZM14.4142 13H15V17.05C13.8589 17.2816 13 18.2905 13 19.5C13 19.7761 13.2239 20 13.5 20C13.7761 20 14 19.7761 14 19.5C14 18.6716 14.6716 18 15.5 18C16.3284 18 17 18.6716 17 19.5C17 19.7761 17.2239 20 17.5 20C17.7761 20 18 19.7761 18 19.5C18 18.2905 17.1411 17.2816 16 17.05V13.083C18.8377 13.559 21 16.027 21 19V21C21 21.5523 20.5523 22 20 22H4C3.44772 22 3 21.5523 3 21V19C3 16.027 5.16229 13.559 8 13.083V17.0854C7.4174 17.2913 7 17.8469 7 18.5C7 19.3284 7.67157 20 8.5 20C9.32843 20 10 19.3284 10 18.5C10 17.8469 9.5826 17.2913 9 17.0854V13H9.58579L12 15.4142L14.4142 13ZM8.5 18C8.22386 18 8 18.2239 8 18.5C8 18.7761 8.22386 19 8.5 19C8.77614 19 9 18.7761 9 18.5C9 18.2239 8.77614 18 8.5 18Z" fill="#040036"/>
</svg>
