<svg width="24" height="24" viewBox="0 0 24 24" fill="none" xmlns="http://www.w3.org/2000/svg">
<path d="M5.5 4.5C5.5 4.22386 5.72386 4 6 4H13C13.2761 4 13.5 4.22386 13.5 4.5C13.5 4.77614 13.2761 5 13 5H12V10.619C12 11.0866 11.4153 11.2983 11.1159 10.9391L9.5 9L7.88411 10.9391C7.58473 11.2983 7 11.0866 7 10.619V5H6C5.72386 5 5.5 4.77614 5.5 4.5Z" fill="#040036"/>
<path fill-rule="evenodd" clip-rule="evenodd" d="M1 5C1 6.50601 1.83229 7.81764 3.062 8.5C1.83229 9.18236 1 10.494 1 12C1 13.506 1.83229 14.8176 3.062 15.5C1.83229 16.1824 1 17.494 1 19C1 21.2091 2.79086 23 5 23H22.0657C22.4651 23 22.705 22.5529 22.5053 22.2071C21.1649 19.8862 21.1649 18.1138 22.5053 15.7929C22.5595 15.6991 22.5813 15.5978 22.5764 15.5C22.5813 15.4022 22.5595 15.3009 22.5053 15.2071C21.1649 12.8862 21.1649 11.1138 22.5053 8.79289C22.5595 8.69906 22.5813 8.59778 22.5764 8.5C22.5813 8.40222 22.5595 8.30094 22.5053 8.20711C21.1649 5.88615 21.1649 4.11385 22.5053 1.79289C22.705 1.44707 22.4651 1 22.0657 1H5C2.79086 1 1 2.79086 1 5ZM21.2618 2H5C3.34315 2 2 3.34315 2 5C2 6.65685 3.34315 8 5 8H5.5C5.77614 8 6 8.22386 6 8.5C6 8.77614 5.77614 9 5.5 9H5C3.34315 9 2 10.3431 2 12C2 13.6569 3.34315 15 5 15H21.2618C21.0983 14.6649 20.959 14.3323 20.8459 14H19C18.7239 14 18.5 13.7761 18.5 13.5C18.5 13.2239 18.7239 13 19 13H20.5875C20.5299 12.6694 20.5 12.3368 20.5 12H19C18.7239 12 18.5 11.7761 18.5 11.5C18.5 11.2239 18.7239 11 19 11H20.5875C20.7041 10.3314 20.9345 9.67087 21.2618 9H13.5C13.2239 9 13 8.77614 13 8.5C13 8.22386 13.2239 8 13.5 8H21.2618C20.7727 6.99742 20.5 6.01795 20.5 5L19 5C18.7239 5 18.5 4.77614 18.5 4.5C18.5 4.22386 18.7239 4 19 4H20.5875C20.7041 3.33138 20.9345 2.67086 21.2618 2ZM21.2618 16H5C3.34315 16 2 17.3431 2 19C2 20.6569 3.34315 22 5 22H21.2618C21.0983 21.6649 20.959 21.3323 20.8459 21H14C13.7239 21 13.5 20.7761 13.5 20.5C13.5 20.2239 13.7239 20 14 20H20.5875C20.5299 19.6694 20.5 19.3368 20.5 19H19C18.7239 19 18.5 18.7761 18.5 18.5C18.5 18.2239 18.7239 18 19 18H20.5875C20.7041 17.3314 20.9345 16.6709 21.2618 16Z" fill="#040036"/>
</svg>
