<svg width="16" height="16" viewBox="0 0 16 16" fill="none" xmlns="http://www.w3.org/2000/svg">
<path d="M12.0001 5.33366H11.3334V4.00033C11.3334 2.16033 9.84008 0.666992 8.00008 0.666992C6.16008 0.666992 4.66675 2.16033 4.66675 4.00033V5.33366H4.00008C3.26675 5.33366 2.66675 5.93366 2.66675 6.66699V13.3337C2.66675 14.067 3.26675 14.667 4.00008 14.667H12.0001C12.7334 14.667 13.3334 14.067 13.3334 13.3337V6.66699C13.3334 5.93366 12.7334 5.33366 12.0001 5.33366ZM6.00008 4.00033C6.00008 2.89366 6.89341 2.00033 8.00008 2.00033C9.10675 2.00033 10.0001 2.89366 10.0001 4.00033V5.33366H6.00008V4.00033ZM12.0001 13.3337H4.00008V6.66699H12.0001V13.3337ZM8.00008 11.3337C8.73341 11.3337 9.33341 10.7337 9.33341 10.0003C9.33341 9.26699 8.73341 8.66699 8.00008 8.66699C7.26675 8.66699 6.66675 9.26699 6.66675 10.0003C6.66675 10.7337 7.26675 11.3337 8.00008 11.3337Z" fill="#040036" fill-opacity="0.38"/>
</svg>
