<svg width="24" height="24" viewBox="0 0 24 24" fill="none" xmlns="http://www.w3.org/2000/svg">
<path fill-rule="evenodd" clip-rule="evenodd" d="M11.8211 2.08947C11.9337 2.03316 12.0663 2.03316 12.1789 2.08947L22.2844 7.14226C22.5793 7.28967 22.5793 7.71039 22.2844 7.8578L12.1789 12.9106C12.0663 12.9669 11.9337 12.9669 11.8211 12.9106L1.71553 7.8578C1.42071 7.71039 1.42071 7.28967 1.71553 7.14226L11.8211 2.08947ZM20.7639 7.50003L12 11.882L3.23606 7.50003L12 3.11806L20.7639 7.50003Z" fill="#040036"/>
<path d="M4.99999 10.5L1.71553 12.1423C1.42071 12.2897 1.42071 12.7104 1.71553 12.8578L11.8211 17.9106C11.9337 17.9669 12.0663 17.9669 12.1789 17.9106L22.2844 12.8578C22.5793 12.7104 22.5793 12.2897 22.2844 12.1423L19 10.5L12.1789 13.9106C12.0663 13.9669 11.9337 13.9669 11.8211 13.9106L4.99999 10.5Z" fill="#040036"/>
<path d="M4.99999 15.5L1.71553 17.1423C1.42071 17.2897 1.42071 17.7104 1.71553 17.8578L11.8211 22.9106C11.9337 22.9669 12.0663 22.9669 12.1789 22.9106L22.2844 17.8578C22.5793 17.7104 22.5793 17.2897 22.2844 17.1423L19 15.5L17.882 16.0591L20.7639 17.5L12 21.882L3.23606 17.5L6.11802 16.059L4.99999 15.5Z" fill="#040036"/>
</svg>
