<svg width="24" height="24" viewBox="0 0 24 24" fill="none" xmlns="http://www.w3.org/2000/svg">
<path d="M15.5 5.5L20.5 5.5C20.7761 5.5 21 5.72386 21 6C21 6.27614 20.7761 6.5 20.5 6.5L15.5 6.5C15.2239 6.5 15 6.27614 15 6C15 5.72386 15.2239 5.5 15.5 5.5Z" fill="#040036"/>
<path d="M5.5 6.5L5.5 8.5C5.5 8.77614 5.72386 9 6 9C6.27614 9 6.5 8.77614 6.5 8.5L6.5 6.5H8.5C8.77614 6.5 9 6.27614 9 6C9 5.72386 8.77614 5.5 8.5 5.5H6.5L6.5 3.5C6.5 3.22386 6.27614 3 6 3C5.72386 3 5.5 3.22386 5.5 3.5L5.5 5.5H3.5C3.22386 5.5 3 5.72386 3 6C3 6.27614 3.22386 6.5 3.5 6.5H5.5Z" fill="#040036"/>
<path d="M7.41422 15.8787L6.00001 17.2929L4.58578 15.8787C4.39052 15.6834 4.07394 15.6834 3.87867 15.8787C3.68341 16.0739 3.68341 16.3905 3.87867 16.5858L5.2929 18L3.87869 19.4142C3.68343 19.6095 3.68343 19.9261 3.87869 20.1213C4.07395 20.3166 4.39053 20.3166 4.5858 20.1213L6.00001 18.7071L7.41421 20.1213C7.60947 20.3166 7.92605 20.3166 8.12132 20.1213C8.31658 19.9261 8.31658 19.6095 8.12132 19.4142L6.70711 18L8.12133 16.5858C8.31659 16.3905 8.31659 16.0739 8.12133 15.8787C7.92607 15.6834 7.60949 15.6834 7.41422 15.8787Z" fill="#040036"/>
<path d="M20.5 16H15.5C15.2239 16 15 16.2239 15 16.5C15 16.7761 15.2239 17 15.5 17H20.5C20.7761 17 21 16.7761 21 16.5C21 16.2239 20.7761 16 20.5 16Z" fill="#040036"/>
<path d="M20.5 19H15.5C15.2239 19 15 19.2239 15 19.5C15 19.7761 15.2239 20 15.5 20H20.5C20.7761 20 21 19.7761 21 19.5C21 19.2239 20.7761 19 20.5 19Z" fill="#040036"/>
<path fill-rule="evenodd" clip-rule="evenodd" d="M4 1C2.34315 1 1 2.34315 1 4V20C1 21.6569 2.34315 23 4 23H20C21.6569 23 23 21.6569 23 20V4C23 2.34315 21.6569 1 20 1H4ZM12.5 8.03095C14.3094 8.25657 15.7434 9.69064 15.9691 11.5H22V4C22 2.89543 21.1046 2 20 2H12.5V8.03095ZM11.5 8.03095V2H4C2.89543 2 2 2.89543 2 4V11.5H8.03095C8.25657 9.69064 9.69064 8.25657 11.5 8.03095ZM8.03095 12.5H2V20C2 21.1046 2.89543 22 4 22H11.5V15.9691C9.69064 15.7434 8.25657 14.3094 8.03095 12.5ZM12.5 15.9691V22H20C21.1046 22 22 21.1046 22 20V12.5H15.9691C15.7434 14.3094 14.3094 15.7434 12.5 15.9691ZM10 10C9.72386 10 9.5 10.2239 9.5 10.5C9.5 10.7761 9.72386 11 10 11V14C10 14.2761 10.2239 14.5 10.5 14.5C10.7761 14.5 11 14.2761 11 14V11H13V14C13 14.2761 13.2239 14.5 13.5 14.5C13.7761 14.5 14 14.2761 14 14V11C14.2761 11 14.5 10.7761 14.5 10.5C14.5 10.2239 14.2761 10 14 10H10Z" fill="#040036"/>
</svg>
