<svg width="24" height="24" viewBox="0 0 24 24" fill="none" xmlns="http://www.w3.org/2000/svg">
<path d="M15 4C15 5.4865 13.9189 6.72048 12.5 6.95852V13H13.5C14.8807 13 16 14.1193 16 15.5C16 16.0669 15.8107 16.591 15.4922 17.0105C15.3252 17.2305 15.0115 17.2734 14.7916 17.1065C14.5717 16.9395 14.5287 16.6258 14.6957 16.4059C14.8868 16.1542 15 15.841 15 15.5C15 14.6716 14.3284 14 13.5 14H12.5V17H13C14.1411 17.2316 15 18.2405 15 19.45C15 19.796 14.9294 20.1268 14.8014 20.4278C14.6933 20.6819 14.3997 20.8003 14.1456 20.6923C13.8915 20.5842 13.7731 20.2906 13.8812 20.0364C13.9575 19.8569 14 19.6591 14 19.45C14 18.7969 13.5826 18.2413 13 18.0353L12.5 18C12.5 21.1492 12.5 22.3156 12.5 22.5C12.5 22.7761 12.2761 23 12 23C11.7239 23 11.5 22.7761 11.5 22.5V21.9C10.3589 21.6684 9.5 20.6595 9.5 19.45C9.5 19.3372 9.50751 19.2259 9.5221 19.1166C9.55865 18.8428 9.81017 18.6506 10.0839 18.6871C10.3576 18.7237 10.5499 18.9752 10.5133 19.2489C10.5045 19.3145 10.5 19.3816 10.5 19.45C10.5 20.1031 10.9174 20.6587 11.5 20.8647V17.95H10.5C9.11929 17.95 8 16.8307 8 15.45C8 15.3277 8.00881 15.2073 8.02591 15.0892C8.06548 14.8159 8.31911 14.6264 8.5924 14.666C8.86569 14.7056 9.05516 14.9592 9.01558 15.2325C9.00534 15.3033 9 15.3759 9 15.45C9 16.2784 9.67157 16.95 10.5 16.95H11.5V14H8.5C7.11929 14 6 12.8807 6 11.5C6 11.2239 6.22386 11 6.5 11C6.77614 11 7 11.2239 7 11.5C7 12.3284 7.67157 13 8.5 13H11.5V6.95852C10.0811 6.72048 9 5.4865 9 4C9 2.34315 10.3431 1 12 1C13.6569 1 15 2.34315 15 4Z" fill="#040036"/>
<path d="M18 11C18 10.7239 17.7761 10.5 17.5 10.5C17.2239 10.5 17 10.7239 17 11C17 11.5546 16.6993 12.0395 16.2496 12.2996C16.0106 12.4379 15.9289 12.7438 16.0672 12.9828C16.2055 13.2218 16.5113 13.3035 16.7504 13.1652C17.4963 12.7337 18 11.926 18 11Z" fill="#040036"/>
<path d="M1.25 3H8.12602C8.04375 3.31962 8 3.6547 8 4H2.16841C2.44927 4.59124 3.0519 5 3.75 5H5.5C5.77614 5 6 5.22386 6 5.5C6 5.77614 5.77614 6 5.5 6H4.16841C4.44927 6.59124 5.0519 7 5.75 7H8.5C8.77614 7 9 7.22386 9 7.5C9 7.77614 8.77614 8 8.5 8H7.16841C7.44927 8.59124 8.0519 9 8.75 9H10C10.2761 9 10.5 9.22386 10.5 9.5C10.5 9.77614 10.2761 10 10 10H8.75C7.49122 10 6.42998 9.15425 6.10352 8H5.75C4.46169 8 3.38029 7.1141 3.08176 5.91824C1.8859 5.61971 1 4.53831 1 3.25C1 3.11193 1.11193 3 1.25 3Z" fill="#040036"/>
<path d="M21.8316 4H16C16 3.6547 15.9562 3.31962 15.874 3H22.75C22.8881 3 23 3.11193 23 3.25C23 4.53832 22.1141 5.61972 20.9182 5.91825C20.6197 7.1141 19.5383 8 18.25 8H17.8965C17.57 9.15425 16.5088 10 15.25 10H14C13.7239 10 13.5 9.77614 13.5 9.5C13.5 9.22386 13.7239 9 14 9H15.25C15.9481 9 16.5507 8.59124 16.8316 8H15.5C15.2239 8 15 7.77614 15 7.5C15 7.22386 15.2239 7 15.5 7H18.25C18.9481 7 19.5507 6.59124 19.8316 6H18.5C18.2239 6 18 5.77614 18 5.5C18 5.22386 18.2239 5 18.5 5H20.25C20.9481 5 21.5507 4.59124 21.8316 4Z" fill="#040036"/>
</svg>
