<svg width="24" height="24" viewBox="0 0 24 24" fill="none" xmlns="http://www.w3.org/2000/svg">
<path d="M9 5C9 4.72386 8.77614 4.5 8.5 4.5C8.22386 4.5 8 4.72386 8 5V6.05001C7.68081 6.1148 7.38371 6.2404 7.12131 6.4142L6.37869 5.67158C6.18343 5.47631 5.86685 5.47631 5.67158 5.67158C5.47632 5.86684 5.47632 6.18342 5.67158 6.37868L6.4142 7.1213C6.24041 7.3837 6.1148 7.68081 6.05001 8H5C4.72386 8 4.5 8.22386 4.5 8.5C4.5 8.77614 4.72386 9 5 9H6.05001C6.1148 9.31919 6.2404 9.61629 6.4142 9.87869L5.67157 10.6213C5.47631 10.8166 5.47631 11.1332 5.67157 11.3284C5.86683 11.5237 6.18341 11.5237 6.37867 11.3284L7.1213 10.5858C7.3837 10.7596 7.68081 10.8852 8 10.95V12C8 12.2761 8.22386 12.5 8.5 12.5C8.77614 12.5 9 12.2761 9 12V10.95C9.31919 10.8852 9.61629 10.7596 9.8787 10.5858L10.6213 11.3284C10.8166 11.5237 11.1332 11.5237 11.3284 11.3284C11.5237 11.1332 11.5237 10.8166 11.3284 10.6213L10.5858 9.87869C10.7596 9.61629 10.8852 9.31919 10.95 9H12C12.2761 9 12.5 8.77614 12.5 8.5C12.5 8.22386 12.2761 8 12 8H10.95C10.8852 7.68081 10.7596 7.3837 10.5858 7.1213L11.3284 6.37868C11.5237 6.18341 11.5237 5.86683 11.3284 5.67157C11.1332 5.47631 10.8166 5.47631 10.6213 5.67157L9.87869 6.4142C9.61629 6.2404 9.31919 6.1148 9 6.05001V5Z" fill="#040036"/>
<path d="M15 5C15 5.55228 14.5523 6 14 6C13.4477 6 13 5.55228 13 5C13 4.44772 13.4477 4 14 4C14.5523 4 15 4.44772 15 5Z" fill="#040036"/>
<path fill-rule="evenodd" clip-rule="evenodd" d="M17.9924 14.252C18.2142 14.0875 18.2606 13.7744 18.0961 13.5526C17.9316 13.3308 17.6185 13.2843 17.3967 13.4488L16.5429 14.0821C16.3686 13.9409 16.1742 13.8324 15.969 13.7579L15.9015 12.413C15.8876 12.1372 15.6528 11.9249 15.377 11.9387C15.1012 11.9526 14.8889 12.1874 14.9027 12.4632L14.9629 13.6632C14.6576 13.7127 14.3592 13.8341 14.0935 14.0311L13.4978 13.2279C13.3333 13.0061 13.0202 12.9597 12.7984 13.1242C12.5766 13.2887 12.5301 13.6018 12.6946 13.8236L13.2903 14.6268L12.4871 15.2225L11.8914 14.4193C11.7269 14.1975 11.4138 14.1511 11.192 14.3156C10.9702 14.4801 10.9237 14.7933 11.0882 15.015L11.6839 15.8183C11.4183 16.0153 11.2155 16.2656 11.0795 16.5434L9.94858 16.1375C9.68868 16.0442 9.40235 16.1792 9.30905 16.4391C9.21575 16.6991 9.35081 16.9854 9.61072 17.0787L10.8781 17.5336C10.8809 17.5856 10.8857 17.6376 10.8926 17.6893C10.9145 17.8548 10.9573 18.0187 11.0217 18.1769L10.1679 18.8102C9.94608 18.9747 9.89963 19.2878 10.0641 19.5096C10.2286 19.7314 10.5418 19.7779 10.7636 19.6134L11.6174 18.9801C11.7917 19.1213 11.9861 19.2298 12.1913 19.3043L12.2588 20.6491C12.2727 20.9249 12.5075 21.1373 12.7832 21.1235C13.059 21.1096 13.2714 20.8748 13.2576 20.599L13.1973 19.399C13.5027 19.3494 13.8011 19.2281 14.0668 19.0311L14.6625 19.8343C14.827 20.0561 15.1401 20.1025 15.3619 19.938C15.5837 19.7735 15.6302 19.4604 15.4657 19.2386L14.87 18.4354L15.6732 17.8396L16.2689 18.6428C16.4334 18.8646 16.7465 18.9111 16.9683 18.7466C17.1901 18.5821 17.2366 18.2689 17.0721 18.0471L16.4764 17.2439C16.742 17.0469 16.9448 16.7966 17.0808 16.5187L18.2117 16.9247C18.4716 17.018 18.7579 16.8829 18.8512 16.623C18.9445 16.3631 18.8095 16.0768 18.5496 15.9835L17.2822 15.5286C17.2705 15.3105 17.2231 15.093 17.1386 14.8853L17.9924 14.252ZM12.0721 18.0204C11.7431 17.5768 11.836 16.9505 12.2796 16.6215L14.6892 14.8343C15.1328 14.5053 15.7591 14.5982 16.0881 15.0418C16.4171 15.4854 16.3242 16.1117 15.8806 16.4407L13.471 18.2279C13.0274 18.5569 12.4011 18.464 12.0721 18.0204Z" fill="#040036"/>
<path d="M15.5 8C15.5 7.72386 15.7239 7.5 16 7.5C17.933 7.5 19.5 9.067 19.5 11C19.5 11.2761 19.2761 11.5 19 11.5C18.7239 11.5 18.5 11.2761 18.5 11C18.5 9.61929 17.3807 8.5 16 8.5C15.7239 8.5 15.5 8.27614 15.5 8Z" fill="#040036"/>
<path d="M5.04499 13.8124C4.94138 13.5564 4.64988 13.4329 4.39392 13.5365C4.13795 13.6401 4.01444 13.9316 4.11805 14.1876C4.66864 15.5478 5.56061 16.7323 6.68727 17.6355C6.90273 17.8082 7.21741 17.7736 7.39013 17.5581C7.56285 17.3426 7.5282 17.028 7.31274 16.8552C6.31758 16.0575 5.53045 15.0117 5.04499 13.8124Z" fill="#040036"/>
<path fill-rule="evenodd" clip-rule="evenodd" d="M23 12C23 18.0751 18.0751 23 12 23C5.92487 23 1 18.0751 1 12C1 5.92487 5.92487 1 12 1C18.0751 1 23 5.92487 23 12ZM22 12C22 17.5228 17.5228 22 12 22C6.47715 22 2 17.5228 2 12C2 6.47715 6.47715 2 12 2C17.5228 2 22 6.47715 22 12Z" fill="#040036"/>
</svg>
