<svg width="24" height="24" viewBox="0 0 24 24" fill="none" xmlns="http://www.w3.org/2000/svg">
<path fill-rule="evenodd" clip-rule="evenodd" d="M11.6667 17.5H11C9.69343 17.5 8.58276 16.6652 8.17086 15.5H7.5C6.54633 15.5 5.6813 15.118 5.05052 14.5H4.5C2.567 14.5 1 12.933 1 11C1 7.44508 3.8538 4.55669 7.39541 4.50082C8.41227 3.56952 9.88426 3 11.5 3C12.9075 3 14.2038 3.43185 15.1862 4.15689C15.6055 4.05446 16.0461 4 16.5 4C19.0355 4 21.2086 5.72134 21.4731 8.02889C22.3443 8.49708 23 9.27869 23 10.25C23 10.7462 22.825 11.1984 22.5393 11.5811C22.8317 12.0691 23 12.6403 23 13.25C23 14.6346 22.1341 15.817 20.9143 16.2852C20.9703 16.5143 21 16.7537 21 17C21 18.1046 18.5376 19 15.5 19L16 21H14L11.6667 17.5ZM7.94984 5.35391C8.76342 4.54199 10.0401 4 11.5 4C12.4353 4 13.2966 4.22265 14.009 4.59699C13.0387 5.09932 12.2653 5.88998 11.8448 6.85379C11.5814 6.94835 11.2972 7 11 7C10.6636 7 10.3438 6.93381 10.0522 6.81421C9.79668 6.70944 9.50463 6.83162 9.39985 7.08711C9.29508 7.34261 9.41726 7.63466 9.67275 7.73944C10.0827 7.90756 10.5312 8 11 8C11.182 8 11.361 7.98607 11.5358 7.95918C11.5122 8.13653 11.5 8.31702 11.5 8.5C11.5 8.97263 11.5811 9.42873 11.7312 9.85702C11.8226 10.1176 12.1079 10.2548 12.3685 10.1634C12.6291 10.0721 12.7663 9.78675 12.6749 9.52617C12.5611 9.20171 12.5 8.85735 12.5 8.5C12.5 8.12024 12.5691 7.75504 12.697 7.41276C13.0819 6.38315 14.0103 5.54163 15.2181 5.18379C15.6196 5.06484 16.0505 5 16.5 5C18.4027 5 19.9325 6.14446 20.3722 7.62352C20.0165 7.54293 19.6393 7.5 19.25 7.5C18.3945 7.5 17.5925 7.70764 16.9498 8.07105C16.6717 7.79842 16.5 7.41916 16.5 7C16.5 6.72386 16.2761 6.5 16 6.5C15.7239 6.5 15.5 6.72386 15.5 7C15.5 7.65054 15.7487 8.24282 16.1552 8.68717C15.7559 9.11417 15.5 9.6476 15.5 10.25C15.5 10.5261 15.7239 10.75 16 10.75C16.2761 10.75 16.5 10.5261 16.5 10.25C16.5 9.84677 16.7308 9.43031 17.2086 9.08971C17.7039 8.73666 18.4256 8.5 19.25 8.5C19.8273 8.5 20.3575 8.61629 20.7948 8.80967C21.5983 9.16494 22 9.72583 22 10.25C22 10.5714 21.8556 10.8958 21.5576 11.1884C21.2375 11.5027 20.7533 11.7636 20.1581 11.8996C19.8889 11.9612 19.7206 12.2293 19.7821 12.4985C19.8436 12.7677 20.1117 12.936 20.3809 12.8745C20.9001 12.7558 21.3796 12.5552 21.7835 12.2855C21.9224 12.5777 22 12.9045 22 13.25C22 14.4926 20.9926 15.5 19.75 15.5C18.5074 15.5 17.5 14.4926 17.5 13.25C17.5 12.8808 17.5885 12.5338 17.7451 12.2276C17.8707 11.9817 17.7733 11.6805 17.5274 11.5548C17.2816 11.4291 16.9803 11.5265 16.8547 11.7724C16.6278 12.2163 16.5 12.7189 16.5 13.25C16.5 13.9296 16.7086 14.5605 17.0653 15.0822C16.5692 15.0287 16.0438 15 15.5 15C13.0709 15 11.0096 15.5726 10.2812 16.3669C9.65257 16.1247 9.17675 15.5742 9.04002 14.9005C9.01383 14.7715 9 14.6376 9 14.5C9 13.6584 9.51998 12.9371 10.258 12.642C10.4868 12.5505 10.7369 12.5 11 12.5H14C14.2761 12.5 14.5 12.2761 14.5 12C14.5 11.7239 14.2761 11.5 14 11.5H11C10.9575 11.5 10.9152 11.5009 10.8732 11.5026C10.956 11.182 11 10.846 11 10.5C11 10.2239 10.7761 10 10.5 10C10.2239 10 10 10.2239 10 10.5C10 10.9632 9.89535 11.4008 9.70867 11.7915C8.69885 12.2738 8 13.3047 8 14.5H7.5C6.75963 14.5 6.09494 14.1788 5.63646 13.6665C5.2403 13.2239 5 12.6406 5 12C5 11.7239 4.77614 11.5 4.5 11.5C4.22386 11.5 4 11.7239 4 12C4 12.5344 4.12002 13.0413 4.3344 13.4946C3.03089 13.4094 2 12.3251 2 11C2 8.29758 3.94903 6.05038 6.5181 5.58739C6.18836 6.16305 6 6.81064 6 7.5C6 8.19505 5.71702 8.82309 5.25874 9.27675C5.06249 9.47102 5.06089 9.7876 5.25516 9.98385C5.44943 10.1801 5.76601 10.1817 5.96226 9.98743C6.15827 9.79338 6.33154 9.57618 6.47761 9.34026C6.71862 9.78113 7.04201 10.1814 7.42725 10.5281C7.63251 10.7128 7.94865 10.6962 8.13338 10.4909C8.31811 10.2856 8.30147 9.9695 8.09621 9.78477C7.39846 9.1568 7 8.35505 7 7.5C7 6.70596 7.34317 5.95935 7.94984 5.35391Z" fill="#040036"/>
</svg>
