<svg width="24" height="24" viewBox="0 0 24 24" fill="none" xmlns="http://www.w3.org/2000/svg">
<path d="M11.75 5.5C11.0596 5.5 10.5 4.94036 10.5 4.25C10.5 3.55964 11.0596 3 11.75 3H12.25C13.2165 3 14 3.7835 14 4.75V5C14 6.10457 13.1046 7 12 7C11.7239 7 11.5 6.77614 11.5 6.5C11.5 6.22386 11.7239 6 12 6C12.5523 6 13 5.55228 13 5V4.75C13 4.33579 12.6642 4 12.25 4H11.75C11.6119 4 11.5 4.11193 11.5 4.25C11.5 4.38807 11.6119 4.5 11.75 4.5H12C12.2761 4.5 12.5 4.72386 12.5 5C12.5 5.27614 12.2761 5.5 12 5.5H11.75Z" fill="#040036"/>
<path fill-rule="evenodd" clip-rule="evenodd" d="M3 7.5C3 3.91015 5.91015 1 9.5 1H14.5C18.0899 1 21 3.91015 21 7.5V7.9986L21 8L21 16.5C21 20.0899 18.0899 23 14.5 23H9.5C5.91015 23 3 20.0899 3 16.5V7.5ZM4.31648 11.9401L4 11.5L4 13.4098V16.5C4 19.5376 6.46243 22 9.5 22H14.5C17.5376 22 20 19.5376 20 16.5V11.4657C19.1275 12.8473 17.7488 13.8771 16.1246 14.2952C15.9468 14.341 15.766 14.3794 15.5827 14.4101C15.3104 14.4558 15.0526 14.2721 15.0069 13.9998C14.9612 13.7274 15.1449 13.4696 15.4173 13.4239C15.4442 13.4194 15.4712 13.4147 15.498 13.4098C15.4602 12.558 14.8893 11.844 14.1105 11.5947C13.5426 11.8283 12.9046 11.9692 12.2308 11.9955C12.1543 11.9985 12.0774 12 12 12C11.9244 12 11.8492 11.9986 11.7744 11.9957C11.0986 11.9699 10.4588 11.8289 9.88951 11.5947C9.09769 11.8481 8.52082 12.582 8.50055 13.4526C8.65745 13.4817 8.81687 13.5041 8.97855 13.5195L9.91888 13.6091C12.6104 13.8654 14.8622 15.7611 15.5736 18.3695L15.9824 19.8684C16.055 20.1349 15.898 20.4097 15.6316 20.4824C15.3651 20.555 15.0903 20.398 15.0176 20.1316L14.6088 18.6326C14.0069 16.4255 12.1015 14.8215 9.82407 14.6046L8.88374 14.515C8.53831 14.4821 8.20111 14.422 7.87416 14.337C6.42653 13.9605 5.18446 13.0963 4.31648 11.9401ZM14.4548 6.72503C13.9119 7.49619 13.0148 8.00002 12 8.00002C11.1716 8.00002 10.5 7.32845 10.5 6.50002C10.5 6.37887 10.5144 6.26108 10.5415 6.14825C10.2545 5.96517 10.0119 5.71879 9.83315 5.42881C9.48253 5.578 9.15919 5.76297 8.87157 5.97868C8.32934 6.38535 7.90364 6.91154 7.67801 7.51726C7.61106 7.50593 7.53107 7.5 7.43577 7.5C6.60734 7.5 5.93577 7.94772 5.93577 8.5C5.93577 9.05229 6.60734 9.5 7.43577 9.5C7.53074 9.5 7.61051 9.49411 7.67731 9.48286C7.89824 10.0768 8.31224 10.5932 8.84306 10.9988C8.11958 11.479 7.61638 12.2645 7.51772 13.1719C5.44692 12.3619 4 10.3236 4 8V7.5C4 4.46243 6.46243 2 9.5 2H14.5C17.5376 2 20 4.46243 20 7.5V8.00463C19.9981 10.3425 18.5371 12.34 16.4779 13.1338C16.3694 12.2425 15.8703 11.4723 15.1569 10.9988C15.6853 10.5951 16.0979 10.0817 16.3196 9.49125C16.3725 9.49702 16.4324 9.5 16.5 9.5C17.3284 9.5 18 9.05229 18 8.5C18 7.94772 17.3284 7.5 16.5 7.5C16.4321 7.5 16.372 7.50301 16.3188 7.50883C16.0924 6.90666 15.6681 6.38346 15.1284 5.97868C15.0511 5.9207 14.9712 5.86495 14.889 5.81151C14.7961 6.14273 14.6478 6.45079 14.4548 6.72503Z" fill="#040036"/>
</svg>
