<svg width="20" height="20" viewBox="0 0 20 20" fill="none" xmlns="http://www.w3.org/2000/svg">
<path d="M16.6667 1.66699H6.66675C5.75008 1.66699 5.00008 2.41699 5.00008 3.33366V13.3337C5.00008 14.2503 5.75008 15.0003 6.66675 15.0003H16.6667C17.5834 15.0003 18.3334 14.2503 18.3334 13.3337V3.33366C18.3334 2.41699 17.5834 1.66699 16.6667 1.66699ZM9.58342 7.91699C9.58342 8.60866 9.02508 9.16699 8.33342 9.16699H7.50008V10.8337H6.25008V5.83366H8.33342C9.02508 5.83366 9.58342 6.39199 9.58342 7.08366V7.91699ZM13.7501 9.58366C13.7501 10.2753 13.1917 10.8337 12.5001 10.8337H10.4167V5.83366H12.5001C13.1917 5.83366 13.7501 6.39199 13.7501 7.08366V9.58366ZM17.0834 7.08366H15.8334V7.91699H17.0834V9.16699H15.8334V10.8337H14.5834V5.83366H17.0834V7.08366ZM7.50008 7.91699H8.33342V7.08366H7.50008V7.91699ZM3.33341 5.00033H1.66675V16.667C1.66675 17.5837 2.41675 18.3337 3.33341 18.3337H15.0001V16.667H3.33341V5.00033ZM11.6667 9.58366H12.5001V7.08366H11.6667V9.58366Z" fill="#040036"/>
</svg>
