<svg width="24" height="24" viewBox="0 0 24 24" fill="none" xmlns="http://www.w3.org/2000/svg">
<path d="M8.5 12C8.77614 12 9 12.2239 9 12.5V14H10.5C10.7761 14 11 14.2239 11 14.5V15.5C11 15.7761 10.7761 16 10.5 16H9V17.5C9 17.7761 8.77614 18 8.5 18H7.5C7.22386 18 7 17.7761 7 17.5V16H5.5C5.22386 16 5 15.7761 5 15.5V14.5C5 14.2239 5.22386 14 5.5 14H7V12.5C7 12.2239 7.22386 12 7.5 12H8.5Z" fill="#040036"/>
<path fill-rule="evenodd" clip-rule="evenodd" d="M3 3C3 3.55228 3.44772 4 4 4L4 6.03162C4 6.3284 3.86818 6.60985 3.64018 6.79985L2.07945 8.10046C1.46766 8.61028 1.0867 9.3396 1.01309 10.125C1.00441 10.2177 1 10.3111 1 10.4051V20C1 21.6569 2.34315 23 4 23H20C21.6569 23 23 21.6569 23 20C23 18.3431 21.6569 17 20 17H19.2635L21.6066 14.6569C22.7782 13.4853 22.7782 11.5858 21.6066 10.4142C20.435 9.24266 18.5356 9.24266 17.364 10.4142L15 12.7782V10.4051C15 10.3111 14.9956 10.2177 14.9869 10.125C14.9133 9.3396 14.5323 8.61028 13.9206 8.10046L12.3598 6.79985C12.1318 6.60985 12 6.3284 12 6.03162V4C12.5523 4 13 3.55228 13 3V2C13 1.44772 12.5523 1 12 1H4C3.44772 1 3 1.44772 3 2V3ZM14 13.7782V11.125H2V19H10.1707C10.4151 18.3085 10.9058 17.7334 11.5374 17.3801C11.5629 16.6478 11.8552 15.923 12.4142 15.364L14 13.7782ZM10 20H2C2 21.1046 2.89543 22 4 22H10.7639C10.2889 21.4692 10 20.7684 10 20ZM12 2H4V3H12V2ZM5 6.03162V4H11V6.03162C11 6.62518 11.2636 7.18808 11.7196 7.56807L13.2804 8.86868C13.6639 9.18827 13.9113 9.63723 13.9803 10.125H2.0197C2.08868 9.63723 2.33613 9.18827 2.71963 8.86868L4.28037 7.56807C4.73635 7.18808 5 6.62518 5 6.03162ZM13 17C12.8603 17 12.7229 17.0095 12.5882 17.028C12.6702 16.6773 12.8479 16.3445 13.1213 16.0711L15.2427 13.9498L18.0711 16.7782L17.8493 17H13ZM18.0711 11.1213C18.8521 10.3403 20.1185 10.3403 20.8995 11.1213C21.6806 11.9024 21.6806 13.1687 20.8995 13.9498L18.7782 16.0711L15.9498 13.2427L18.0711 11.1213ZM22 20C22 18.8954 21.1046 18 20 18H17V22H20C21.1046 22 22 21.1046 22 20ZM16 18H13C11.8954 18 11 18.8954 11 20C11 21.1046 11.8954 22 13 22H16V18Z" fill="#040036"/>
</svg>
