<svg width="24" height="24" viewBox="0 0 24 24" fill="none" xmlns="http://www.w3.org/2000/svg">
<path d="M12 14C13.1046 14 14 13.1046 14 12C14 10.8954 13.1046 10 12 10C10.8954 10 10 10.8954 10 12C10 13.1046 10.8954 14 12 14Z" fill="#040036"/>
<path fill-rule="evenodd" clip-rule="evenodd" d="M7.06377 5.34454C7.46204 5.40866 7.87763 5.49533 8.30721 5.60388C8.42798 5.17759 8.56072 4.77434 8.70433 4.39738C9.07895 3.41401 9.5372 2.58374 10.0715 1.99052C10.6057 1.39742 11.2565 1 12 1C12.7435 1 13.3943 1.39742 13.9285 1.99052C14.4628 2.58374 14.9211 3.41401 15.2957 4.39738C15.4393 4.77434 15.572 5.17759 15.6928 5.60388C16.1224 5.49533 16.538 5.40866 16.9362 5.34454C17.9752 5.17729 18.9233 5.15901 19.7042 5.32512C19.7549 5.33591 19.8052 5.34754 19.8549 5.36003C20.1793 5.13312 20.5741 5 21 5C22.1046 5 23 5.89543 23 7C23 7.91774 22.3819 8.6911 21.5392 8.92647C21.2724 9.60948 20.8206 10.3295 20.2319 11.0528C19.9772 11.3657 19.6944 11.6822 19.3856 12C19.6944 12.3177 19.9772 12.6343 20.2319 12.9472C20.8962 13.7633 21.3861 14.5753 21.6327 15.3346C21.8793 16.0938 21.898 16.8561 21.5263 17.5C21.1545 18.1439 20.4849 18.5088 19.7042 18.6749C18.9233 18.841 17.9752 18.8227 16.9362 18.6554C16.538 18.5913 16.1224 18.5047 15.6928 18.3961C15.572 18.8224 15.4393 19.2256 15.2957 19.6026C14.9211 20.586 14.4628 21.4163 13.9285 22.0095C13.3943 22.6026 12.7435 23 12 23C11.2565 23 10.6057 22.6026 10.0715 22.0095C9.5372 21.4163 9.07895 20.586 8.70433 19.6026C8.56072 19.2256 8.42798 18.8224 8.3072 18.3961C7.87763 18.5047 7.46204 18.5913 7.06377 18.6554C6.02484 18.8227 5.07668 18.841 4.29578 18.6749C4.24507 18.6641 4.19482 18.6524 4.14509 18.64C3.82071 18.8669 3.42591 19 3 19C1.89543 19 1 18.1046 1 17C1 16.0823 1.61813 15.3089 2.46076 15.0735C2.72757 14.3905 3.17934 13.6705 3.7681 12.9472C4.02276 12.6343 4.30561 12.3177 4.6144 12C4.30561 11.6822 4.02276 11.3657 3.7681 11.0528C3.10379 10.2367 2.61388 9.42471 2.36728 8.66538C2.12073 7.9062 2.10197 7.14388 2.47372 6.49999C2.84547 5.8561 3.51505 5.49119 4.29579 5.32512C5.07668 5.15901 6.02484 5.17729 7.06377 5.34454ZM8.70054 8.73944C8.785 8.07451 8.89443 7.44145 9.02552 6.84804C9.60497 7.03122 10.2079 7.25298 10.826 7.51229C10.4681 7.69865 10.109 7.8956 9.75 8.10287C9.39098 8.31015 9.04086 8.52268 8.70054 8.73944ZM7.61488 9.46824C7.70992 8.44053 7.86174 7.46758 8.06218 6.57339C7.6602 6.47181 7.27332 6.39116 6.90483 6.33183C5.93627 6.1759 5.12179 6.17179 4.50384 6.30323C3.88574 6.43471 3.52028 6.68729 3.33974 6.99999C3.15921 7.31268 3.1232 7.75547 3.31839 8.35651C3.51352 8.95739 3.92433 9.66069 4.54364 10.4215C4.77927 10.711 5.04255 11.0057 5.33151 11.303C6.00568 10.6824 6.77238 10.0644 7.61488 9.46824ZM4.85298 17.754C4.94777 17.5213 5 17.2668 5 17C5 16.0868 4.38793 15.3165 3.55165 15.077C3.77838 14.616 4.10987 14.1114 4.54364 13.5785C4.77927 13.289 5.04255 12.9943 5.33151 12.6969C6.00568 13.3176 6.77238 13.9356 7.61488 14.5317C7.70991 15.5594 7.86174 16.5324 8.06218 17.4266C7.6602 17.5282 7.27332 17.6088 6.90483 17.6681C6.10901 17.7963 5.41721 17.8219 4.85298 17.754ZM17.0952 6.33183C17.891 6.20371 18.5828 6.17809 19.147 6.24594C19.0522 6.47864 19 6.73322 19 7C19 7.91321 19.6121 8.68348 20.4483 8.92295C20.2216 9.38397 19.8901 9.88863 19.4563 10.4215C19.2207 10.711 18.9574 11.0057 18.6685 11.303C17.9943 10.6824 17.2276 10.0644 16.3851 9.46824C16.2901 8.44054 16.1383 7.46758 15.9378 6.57339C16.3398 6.47181 16.7267 6.39116 17.0952 6.33183ZM12 6.93649C11.0625 6.50494 10.1439 6.14995 9.26934 5.87644C9.38236 5.47753 9.50595 5.10216 9.63882 4.75338C9.98806 3.83662 10.3917 3.1292 10.8145 2.65976C11.2375 2.19021 11.6389 2 12 2C12.3611 2 12.7625 2.19021 13.1855 2.65976C13.6083 3.1292 14.0119 3.83662 14.3612 4.75338C14.4941 5.10216 14.6176 5.47753 14.7307 5.87644C13.8561 6.14994 12.9375 6.50494 12 6.93649ZM10.25 8.9689C10.8373 8.62983 11.4227 8.3206 12 8.042C12.5773 8.3206 13.1627 8.62983 13.75 8.9689C14.3373 9.30797 14.8978 9.66038 15.4277 10.021C15.4751 10.6602 15.5 11.3218 15.5 12C15.5 12.6781 15.4751 13.3398 15.4277 13.979C14.8978 14.3396 14.3373 14.692 13.75 15.0311C13.1627 15.3702 12.5773 15.6794 12 15.958C11.4227 15.6794 10.8373 15.3702 10.25 15.0311C9.6627 14.692 9.10218 14.3396 8.57228 13.979C8.52492 13.3398 8.5 12.6781 8.5 12C8.5 11.3218 8.52492 10.6602 8.57228 10.021C9.10218 9.66037 9.66271 9.30797 10.25 8.9689ZM14.25 8.10287C14.609 8.31015 14.9591 8.52268 15.2995 8.73944C15.215 8.07451 15.1056 7.44145 14.9745 6.84804C14.395 7.03121 13.7921 7.25298 13.174 7.51229C13.5319 7.69865 13.891 7.8956 14.25 8.10287ZM16.5 12C16.5 11.5854 16.491 11.176 16.4735 10.7728C17.0071 11.1785 17.5006 11.5898 17.949 12C17.5006 12.4102 17.0071 12.8215 16.4735 13.2271C16.491 12.824 16.5 12.4146 16.5 12ZM16.3851 14.5317C17.2276 13.9356 17.9943 13.3176 18.6685 12.6969C18.9574 12.9943 19.2207 13.289 19.4563 13.5785C20.0757 14.3393 20.4865 15.0426 20.6816 15.6435C20.8768 16.2445 20.8408 16.6873 20.6602 17C20.4797 17.3127 20.1143 17.5653 19.4961 17.6967C18.8782 17.8282 18.0637 17.8241 17.0952 17.6681C16.7267 17.6088 16.3398 17.5282 15.9378 17.4266C16.1383 16.5324 16.2901 15.5594 16.3851 14.5317ZM15.2995 15.2605C15.215 15.9255 15.1056 16.5585 14.9745 17.1519C14.395 16.9688 13.7921 16.747 13.174 16.4877C13.5319 16.3013 13.891 16.1044 14.25 15.8971C14.609 15.6898 14.9591 15.4773 15.2995 15.2605ZM9.75 15.8971C10.109 16.1044 10.4681 16.3013 10.826 16.4877C10.2079 16.747 9.60497 16.9688 9.02552 17.1519C8.89443 16.5585 8.785 15.9255 8.70053 15.2605C9.04086 15.4773 9.39098 15.6898 9.75 15.8971ZM7.5 12C7.5 12.4146 7.509 12.824 7.52655 13.2271C6.99293 12.8215 6.4994 12.4102 6.05104 12C6.4994 11.5898 6.99293 11.1785 7.52655 10.7728C7.509 11.176 7.5 11.5854 7.5 12ZM14.7307 18.1235C13.8561 17.85 12.9375 17.495 12 17.0635C11.0625 17.495 10.1439 17.85 9.26933 18.1235C9.38235 18.5225 9.50594 18.8978 9.63882 19.2466C9.98806 20.1634 10.3917 20.8708 10.8145 21.3402C11.2375 21.8098 11.6389 22 12 22C12.3611 22 12.7625 21.8098 13.1855 21.3402C13.6083 20.8708 14.0119 20.1634 14.3612 19.2466C14.4941 18.8978 14.6176 18.5225 14.7307 18.1235Z" fill="#040036"/>
</svg>
