<svg width="24" height="24" viewBox="0 0 24 24" fill="none" xmlns="http://www.w3.org/2000/svg">
<path d="M12.5 1C12.2239 1 12 1.22386 12 1.5C12 1.77614 12.2239 2 12.5 2C16.2884 2 19.374 5.00956 19.4962 8.76799C19.5037 8.99769 19.5583 9.23422 19.6735 9.45257L22.0663 13.9846L22.076 14H21C20.4477 14 20 14.4477 20 15V18H16.9011C16.4324 18 16.0266 18.3255 15.9249 18.7831L15.283 21.6715C15.2135 21.9842 14.872 22.1517 14.5821 22.0153L7 18.6739V15.5C7 15.2239 6.77614 15 6.5 15C6.22386 15 6 15.2239 6 15.5V19.3261L14.1624 22.9231C15.0308 23.3271 16.0512 22.8245 16.2592 21.8884L16.9011 19H20C20.5523 19 21 18.5523 21 18V15H22.076C22.8544 15 23.3317 14.1515 22.935 13.488L20.5578 8.98567C20.5212 8.91621 20.4988 8.83107 20.4957 8.73549C20.356 4.43948 16.8298 1 12.5 1Z" fill="#040036"/>
<path d="M3 3C2.44772 3 2 3.44772 2 4V12C2 12.5523 2.44772 13 3 13H5V12C5 10.8954 5.89543 10 7 10C8.10457 10 9 10.8954 9 12V13H11C11.5523 13 12 12.5523 12 12V10H13C14.1046 10 15 9.10457 15 8C15 6.89543 14.1046 6 13 6H12V4C12 3.44772 11.5523 3 11 3H9V4C9 5.10457 8.10457 6 7 6C5.89543 6 5 5.10457 5 4V3H3Z" fill="#040036"/>
</svg>
