<svg width="24" height="24" viewBox="0 0 24 24" fill="none" xmlns="http://www.w3.org/2000/svg">
<path d="M7 8C5.89543 8 5 7.10457 5 6C5 4.89543 5.89543 4 7 4C8.10457 4 9 4.89543 9 6C9 7.10457 8.10457 8 7 8Z" fill="#040036"/>
<path fill-rule="evenodd" clip-rule="evenodd" d="M7 13C10.3137 13 13 10.3137 13 7C13 3.68629 10.3137 1 7 1C3.68629 1 1 3.68629 1 7C1 10.3137 3.68629 13 7 13ZM10.6668 10.3992C11.4942 9.50714 12 8.31264 12 7C12 4.23858 9.76142 2 7 2C4.23858 2 2 4.23858 2 7C2 8.31264 2.50582 9.50714 3.33318 10.3992C3.9506 8.98691 5.36005 8 7 8C8.63995 8 10.0494 8.98691 10.6668 10.3992ZM9.86264 11.1C9.48035 9.88284 8.34327 9 7 9C5.65673 9 4.51965 9.88285 4.13736 11.1C4.94828 11.6672 5.93527 12 7 12C8.06473 12 9.05172 11.6672 9.86264 11.1Z" fill="#040036"/>
<path d="M17 18C15.8954 18 15 17.1046 15 16C15 14.8954 15.8954 14 17 14C18.1046 14 19 14.8954 19 16C19 17.1046 18.1046 18 17 18Z" fill="#040036"/>
<path fill-rule="evenodd" clip-rule="evenodd" d="M17 23C20.3137 23 23 20.3137 23 17C23 13.6863 20.3137 11 17 11C13.6863 11 11 13.6863 11 17C11 20.3137 13.6863 23 17 23ZM20.6668 20.3992C21.4942 19.5071 22 18.3126 22 17C22 14.2386 19.7614 12 17 12C14.2386 12 12 14.2386 12 17C12 18.3126 12.5058 19.5071 13.3332 20.3992C13.9506 18.9869 15.36 18 17 18C18.6399 18 20.0494 18.9869 20.6668 20.3992ZM19.8626 21.1C19.4804 19.8828 18.3433 19 17 19C15.6567 19 14.5197 19.8828 14.1374 21.1C14.9483 21.6672 15.9353 22 17 22C18.0647 22 19.0517 21.6672 19.8626 21.1Z" fill="#040036"/>
<path d="M14.1106 2.73541C13.8413 2.6743 13.5735 2.84307 13.5124 3.11237C13.4513 3.38166 13.6201 3.64951 13.8893 3.71061C17.0664 4.43152 19.5685 6.93363 20.2894 10.1106C20.3505 10.3799 20.6183 10.5487 20.8876 10.4876C21.1569 10.4265 21.3257 10.1586 21.2646 9.88935C20.4585 6.33685 17.6631 3.54151 14.1106 2.73541Z" fill="#040036"/>
<path d="M3.71061 13.8893C3.64951 13.6201 3.38166 13.4513 3.11237 13.5124C2.84307 13.5735 2.6743 13.8413 2.73541 14.1106C3.54151 17.6631 6.33685 20.4585 9.88935 21.2646C10.1586 21.3257 10.4265 21.1569 10.4876 20.8876C10.5487 20.6183 10.3799 20.3505 10.1106 20.2894C6.93363 19.5685 4.43152 17.0664 3.71061 13.8893Z" fill="#040036"/>
</svg>
