<svg width="24" height="24" viewBox="0 0 24 24" fill="none" xmlns="http://www.w3.org/2000/svg">
<path d="M9 3C7.89543 3 7 3.89543 7 5V8C7 9.10457 7.89543 10 9 10C10.1046 10 11 9.10457 11 8V5C11 3.89543 10.1046 3 9 3Z" fill="#040036"/>
<path d="M3 10.5C3 9.67157 3.67157 9 4.5 9C5.32843 9 6 9.67157 6 10.5V11.5C6 12.3284 5.32843 13 4.5 13C3.67157 13 3 12.3284 3 11.5V10.5Z" fill="#040036"/>
<path d="M19.5 9C18.6716 9 18 9.67157 18 10.5V11.5C18 12.3284 18.6716 13 19.5 13C20.3284 13 21 12.3284 21 11.5V10.5C21 9.67157 20.3284 9 19.5 9Z" fill="#040036"/>
<path d="M13 5C13 3.89543 13.8954 3 15 3C16.1046 3 17 3.89543 17 5V8C17 9.10457 16.1046 10 15 10C13.8954 10 13 9.10457 13 8V5Z" fill="#040036"/>
<path fill-rule="evenodd" clip-rule="evenodd" d="M15.0349 14.0406C15.0149 14.0376 15 14.0203 15 14C15 12.3431 13.6569 11 12 11C10.3431 11 9 12.3431 9 14C9 14.0203 8.9851 14.0375 8.96507 14.0406C7.28598 14.2981 6 15.7489 6 17.5C6 19.433 7.567 21 9.5 21C10.1132 21 10.6895 20.8423 11.1907 20.5653C11.681 20.2943 12.319 20.2943 12.8093 20.5653C13.3105 20.8423 13.8868 21 14.5 21C16.433 21 18 19.433 18 17.5C18 15.7489 16.714 14.2981 15.0349 14.0406ZM12 12C13.1046 12 14 12.8954 14 14C14 14.5164 14.3776 14.9515 14.8833 15.0291C16.0818 15.2129 17 16.2501 17 17.5C17 18.8807 15.8807 20 14.5 20C14.0603 20 13.6499 19.8873 13.293 19.6901C12.5017 19.2527 11.4983 19.2527 10.707 19.6901C10.3501 19.8873 9.9397 20 9.5 20C8.11929 20 7 18.8807 7 17.5C7 16.2501 7.91818 15.2129 9.11666 15.0291C9.62238 14.9515 10 14.5164 10 14C10 12.8954 10.8954 12 12 12Z" fill="#040036"/>
<path fill-rule="evenodd" clip-rule="evenodd" d="M5 5C5 2.79086 6.79086 1 9 1C9.78767 1 10.5222 1.22767 11.1413 1.6208C11.6491 1.94327 12.3509 1.94327 12.8587 1.6208C13.4778 1.22767 14.2123 1 15 1C17.2091 1 19 2.79086 19 5V6.5C19 6.77614 19.2239 7 19.5 7C21.433 7 23 8.567 23 10.5V11.4419C23 12.4505 22.6567 13.4291 22.0266 14.2167L20.2207 16.4742C20.0518 16.6853 19.98 16.9556 19.9933 17.2257C19.9977 17.3166 20 17.408 20 17.5C20 20.5376 17.5376 23 14.5 23C13.7812 23 13.0947 22.8621 12.4654 22.6114C12.1671 22.4926 11.8329 22.4926 11.5346 22.6114C10.9053 22.8621 10.2188 23 9.5 23C6.46243 23 4 20.5376 4 17.5C4 17.408 4.00226 17.3166 4.00672 17.2257C4.01998 16.9556 3.94825 16.6853 3.77934 16.4742L1.97335 14.2167C1.34327 13.4291 1 12.4505 1 11.4419V10.5C1 8.567 2.567 7 4.5 7C4.77614 7 5 6.77614 5 6.5V5ZM6 5C6 3.34315 7.34315 2 9 2C9.59227 2 10.1416 2.17061 10.6052 2.46498C11.4402 2.99521 12.5598 2.99521 13.3948 2.46498C13.8584 2.17061 14.4077 2 15 2C16.6569 2 18 3.34315 18 5V6.5C18 7.32843 18.6716 8 19.5 8C20.8807 8 22 9.11929 22 10.5V11.4419C22 12.2234 21.734 12.9817 21.2458 13.592L19.4398 15.8495C19.0944 16.2812 18.9713 16.8025 18.9945 17.2748C18.9981 17.3493 19 17.4244 19 17.5C19 19.9853 16.9853 22 14.5 22C13.9101 22 13.349 21.887 12.8355 21.6824C12.2996 21.4689 11.7004 21.4689 11.1645 21.6824C10.651 21.887 10.0899 22 9.5 22C7.01472 22 5 19.9853 5 17.5C5 17.4244 5.00186 17.3493 5.00552 17.2747C5.02871 16.8025 4.90557 16.2812 4.56021 15.8495L2.75422 13.592C2.26599 12.9817 2 12.2234 2 11.4419V10.5C2 9.11929 3.11929 8 4.5 8C5.32843 8 6 7.32843 6 6.5V5Z" fill="#040036"/>
</svg>
