<svg width="413" height="273" viewBox="0 0 413 273" fill="none" xmlns="http://www.w3.org/2000/svg">
<g clip-path="url(#clip0_2600_19584)">
<rect x="134" y="189.426" width="161" height="84" fill="url(#paint0_linear_2600_19584)"/>
<path d="M296 237.426C296 247.919 259.511 256.426 214.5 256.426C169.489 256.426 133 247.919 133 237.426" stroke="black"/>
<path d="M296 213.426C296 223.919 259.511 232.426 214.5 232.426C169.489 232.426 133 223.919 133 213.426" stroke="black"/>
</g>
<ellipse cx="214.5" cy="189.426" rx="80.5" ry="19" fill="#020FC6"/>
<ellipse cx="214.5" cy="189.426" rx="80.5" ry="19" fill="#020FC6"/>
<g filter="url(#filter0_f_2600_19584)">
<path d="M284 187.426C284 194.605 252.884 200.426 214.5 200.426C176.116 200.426 145 194.605 145 187.426L89 11.4258H340L284 187.426Z" fill="url(#paint1_linear_2600_19584)"/>
</g>
<ellipse cx="214.5" cy="187.426" rx="69.5" ry="13" fill="white"/>
<path d="M183.305 14.9134C184.105 10.8494 188.049 8.20395 192.113 9.00463L258.633 22.1102L277.497 48.9766L258.788 143.938C257.987 148.002 254.043 150.647 249.979 149.847L167.564 133.609C163.5 132.809 160.854 128.865 161.655 124.801L183.305 14.9134Z" fill="white" fill-opacity="0.11" stroke="white"/>
<path d="M186.617 75.7001C186.884 74.3454 188.198 73.4636 189.553 73.7305L201.326 76.0501C202.681 76.317 203.563 77.6315 203.296 78.9862L191.601 138.345L174.922 135.059L186.617 75.7001Z" fill="white" fill-opacity="0.2" stroke="white"/>
<path d="M207.294 105.254C207.561 103.9 208.876 103.018 210.231 103.285L222.004 105.604C223.359 105.871 224.241 107.186 223.974 108.541L217.112 143.371L200.432 140.085L207.294 105.254Z" fill="white" fill-opacity="0.2" stroke="white"/>
<path d="M240.922 69.0722C241.189 67.7175 242.504 66.8357 243.858 67.1026L255.632 69.4222C256.987 69.6891 257.869 71.0036 257.602 72.3583L242.621 148.397L225.942 145.11L240.922 69.0722Z" fill="white" fill-opacity="0.2" stroke="white"/>
<path d="M211.518 39.8374C211.174 41.5838 210.32 43.189 209.064 44.45C207.807 45.711 206.205 46.5711 204.46 46.9215C202.715 47.272 200.905 47.097 199.259 46.4189C197.613 45.7407 196.206 44.5897 195.214 43.1114C194.222 41.6332 193.691 39.8941 193.688 38.1141C193.685 36.3341 194.21 34.593 195.196 33.1112C196.182 31.6294 197.586 30.4732 199.229 29.7891C200.872 29.1049 202.681 28.9233 204.428 29.2674L202.688 38.0977L211.518 39.8374Z" fill="white"/>
<path d="M297.507 118.573C297.276 119.045 296.628 119.445 295.305 119.608C294.013 119.767 292.231 119.678 289.992 119.339C285.521 118.663 279.354 117.011 271.92 114.52C257.06 109.539 237.214 101.23 215.909 90.772C194.604 80.3139 175.892 69.6953 162.862 60.985C156.344 56.6278 151.265 52.7595 147.995 49.6363C146.358 48.0722 145.197 46.7161 144.533 45.5967C143.853 44.4512 143.773 43.6937 144.004 43.2218C144.236 42.75 144.884 42.3499 146.206 42.1872C147.498 42.0281 149.281 42.117 151.52 42.4557C155.991 43.1318 162.158 44.7839 169.591 47.2754C184.452 52.2561 204.298 60.565 225.603 71.0231C246.908 81.4812 265.62 92.0999 278.65 100.81C285.168 105.167 290.247 109.036 293.517 112.159C295.154 113.723 296.315 115.079 296.979 116.198C297.659 117.344 297.739 118.101 297.507 118.573Z" stroke="url(#paint2_linear_2600_19584)"/>
<rect x="340" y="101" width="73" height="172" fill="url(#paint3_linear_2600_19584)"/>
<ellipse cx="376.5" cy="101" rx="36.5" ry="8" fill="#020FC6"/>
<ellipse cx="376.5" cy="101" rx="36.5" ry="8" fill="#020FC6"/>
<ellipse cx="376.5" cy="100" rx="31.5" ry="6" fill="url(#paint4_linear_2600_19584)"/>
<g filter="url(#filter1_d_2600_19584)">
<circle cx="388.5" cy="99.5" r="3.5" fill="white"/>
</g>
<g filter="url(#filter2_d_2600_19584)">
<circle cx="359.5" cy="93.5" r="3.5" fill="white"/>
</g>
<g filter="url(#filter3_d_2600_19584)">
<circle cx="376.5" cy="75.5" r="2.5" fill="white"/>
</g>
<rect y="222" width="93" height="51" fill="url(#paint5_linear_2600_19584)"/>
<ellipse cx="46.5" cy="222" rx="46.5" ry="8" fill="#020FC6"/>
<ellipse cx="46.5" cy="222" rx="46.5" ry="8" fill="#020FC6"/>
<ellipse cx="46.5" cy="221" rx="35.5" ry="4" fill="url(#paint6_linear_2600_19584)"/>
<g filter="url(#filter4_d_2600_19584)">
<circle cx="61.5" cy="213.5" r="4.5" fill="white"/>
</g>
<g filter="url(#filter5_d_2600_19584)">
<circle cx="40.5" cy="194.5" r="3.5" fill="white"/>
</g>
<g filter="url(#filter6_d_2600_19584)">
<circle cx="28.5" cy="219.5" r="5.5" fill="white"/>
</g>
<g filter="url(#filter7_d_2600_19584)">
<circle cx="50.5" cy="170.5" r="2.5" fill="white"/>
</g>
<defs>
<filter id="filter0_f_2600_19584" x="80" y="2.42578" width="269" height="207" filterUnits="userSpaceOnUse" color-interpolation-filters="sRGB">
<feFlood flood-opacity="0" result="BackgroundImageFix"/>
<feBlend mode="normal" in="SourceGraphic" in2="BackgroundImageFix" result="shape"/>
<feGaussianBlur stdDeviation="4.5" result="effect1_foregroundBlur_2600_19584"/>
</filter>
<filter id="filter1_d_2600_19584" x="377" y="88" width="23" height="23" filterUnits="userSpaceOnUse" color-interpolation-filters="sRGB">
<feFlood flood-opacity="0" result="BackgroundImageFix"/>
<feColorMatrix in="SourceAlpha" type="matrix" values="0 0 0 0 0 0 0 0 0 0 0 0 0 0 0 0 0 0 127 0" result="hardAlpha"/>
<feOffset/>
<feGaussianBlur stdDeviation="4"/>
<feComposite in2="hardAlpha" operator="out"/>
<feColorMatrix type="matrix" values="0 0 0 0 1 0 0 0 0 1 0 0 0 0 1 0 0 0 0.65 0"/>
<feBlend mode="normal" in2="BackgroundImageFix" result="effect1_dropShadow_2600_19584"/>
<feBlend mode="normal" in="SourceGraphic" in2="effect1_dropShadow_2600_19584" result="shape"/>
</filter>
<filter id="filter2_d_2600_19584" x="348" y="82" width="23" height="23" filterUnits="userSpaceOnUse" color-interpolation-filters="sRGB">
<feFlood flood-opacity="0" result="BackgroundImageFix"/>
<feColorMatrix in="SourceAlpha" type="matrix" values="0 0 0 0 0 0 0 0 0 0 0 0 0 0 0 0 0 0 127 0" result="hardAlpha"/>
<feOffset/>
<feGaussianBlur stdDeviation="4"/>
<feComposite in2="hardAlpha" operator="out"/>
<feColorMatrix type="matrix" values="0 0 0 0 1 0 0 0 0 1 0 0 0 0 1 0 0 0 0.65 0"/>
<feBlend mode="normal" in2="BackgroundImageFix" result="effect1_dropShadow_2600_19584"/>
<feBlend mode="normal" in="SourceGraphic" in2="effect1_dropShadow_2600_19584" result="shape"/>
</filter>
<filter id="filter3_d_2600_19584" x="366" y="65" width="21" height="21" filterUnits="userSpaceOnUse" color-interpolation-filters="sRGB">
<feFlood flood-opacity="0" result="BackgroundImageFix"/>
<feColorMatrix in="SourceAlpha" type="matrix" values="0 0 0 0 0 0 0 0 0 0 0 0 0 0 0 0 0 0 127 0" result="hardAlpha"/>
<feOffset/>
<feGaussianBlur stdDeviation="4"/>
<feComposite in2="hardAlpha" operator="out"/>
<feColorMatrix type="matrix" values="0 0 0 0 1 0 0 0 0 1 0 0 0 0 1 0 0 0 0.65 0"/>
<feBlend mode="normal" in2="BackgroundImageFix" result="effect1_dropShadow_2600_19584"/>
<feBlend mode="normal" in="SourceGraphic" in2="effect1_dropShadow_2600_19584" result="shape"/>
</filter>
<filter id="filter4_d_2600_19584" x="49" y="201" width="25" height="25" filterUnits="userSpaceOnUse" color-interpolation-filters="sRGB">
<feFlood flood-opacity="0" result="BackgroundImageFix"/>
<feColorMatrix in="SourceAlpha" type="matrix" values="0 0 0 0 0 0 0 0 0 0 0 0 0 0 0 0 0 0 127 0" result="hardAlpha"/>
<feOffset/>
<feGaussianBlur stdDeviation="4"/>
<feComposite in2="hardAlpha" operator="out"/>
<feColorMatrix type="matrix" values="0 0 0 0 1 0 0 0 0 1 0 0 0 0 1 0 0 0 1 0"/>
<feBlend mode="normal" in2="BackgroundImageFix" result="effect1_dropShadow_2600_19584"/>
<feBlend mode="normal" in="SourceGraphic" in2="effect1_dropShadow_2600_19584" result="shape"/>
</filter>
<filter id="filter5_d_2600_19584" x="29" y="183" width="23" height="23" filterUnits="userSpaceOnUse" color-interpolation-filters="sRGB">
<feFlood flood-opacity="0" result="BackgroundImageFix"/>
<feColorMatrix in="SourceAlpha" type="matrix" values="0 0 0 0 0 0 0 0 0 0 0 0 0 0 0 0 0 0 127 0" result="hardAlpha"/>
<feOffset/>
<feGaussianBlur stdDeviation="4"/>
<feComposite in2="hardAlpha" operator="out"/>
<feColorMatrix type="matrix" values="0 0 0 0 1 0 0 0 0 1 0 0 0 0 1 0 0 0 1 0"/>
<feBlend mode="normal" in2="BackgroundImageFix" result="effect1_dropShadow_2600_19584"/>
<feBlend mode="normal" in="SourceGraphic" in2="effect1_dropShadow_2600_19584" result="shape"/>
</filter>
<filter id="filter6_d_2600_19584" x="15" y="206" width="27" height="27" filterUnits="userSpaceOnUse" color-interpolation-filters="sRGB">
<feFlood flood-opacity="0" result="BackgroundImageFix"/>
<feColorMatrix in="SourceAlpha" type="matrix" values="0 0 0 0 0 0 0 0 0 0 0 0 0 0 0 0 0 0 127 0" result="hardAlpha"/>
<feOffset/>
<feGaussianBlur stdDeviation="4"/>
<feComposite in2="hardAlpha" operator="out"/>
<feColorMatrix type="matrix" values="0 0 0 0 1 0 0 0 0 1 0 0 0 0 1 0 0 0 1 0"/>
<feBlend mode="normal" in2="BackgroundImageFix" result="effect1_dropShadow_2600_19584"/>
<feBlend mode="normal" in="SourceGraphic" in2="effect1_dropShadow_2600_19584" result="shape"/>
</filter>
<filter id="filter7_d_2600_19584" x="40" y="160" width="21" height="21" filterUnits="userSpaceOnUse" color-interpolation-filters="sRGB">
<feFlood flood-opacity="0" result="BackgroundImageFix"/>
<feColorMatrix in="SourceAlpha" type="matrix" values="0 0 0 0 0 0 0 0 0 0 0 0 0 0 0 0 0 0 127 0" result="hardAlpha"/>
<feOffset/>
<feGaussianBlur stdDeviation="4"/>
<feComposite in2="hardAlpha" operator="out"/>
<feColorMatrix type="matrix" values="0 0 0 0 1 0 0 0 0 1 0 0 0 0 1 0 0 0 1 0"/>
<feBlend mode="normal" in2="BackgroundImageFix" result="effect1_dropShadow_2600_19584"/>
<feBlend mode="normal" in="SourceGraphic" in2="effect1_dropShadow_2600_19584" result="shape"/>
</filter>
<linearGradient id="paint0_linear_2600_19584" x1="134" y1="189" x2="295" y2="273" gradientUnits="userSpaceOnUse">
<stop stop-color="#000659"/>
<stop offset="1" stop-color="#0310C6"/>
</linearGradient>
<linearGradient id="paint1_linear_2600_19584" x1="214.5" y1="11.4258" x2="214.5" y2="200.426" gradientUnits="userSpaceOnUse">
<stop offset="0.151042" stop-color="white" stop-opacity="0"/>
<stop offset="1" stop-color="white" stop-opacity="0.65"/>
</linearGradient>
<linearGradient id="paint2_linear_2600_19584" x1="224.501" y1="73.2673" x2="215.688" y2="91.2209" gradientUnits="userSpaceOnUse">
<stop stop-color="white" stop-opacity="0"/>
<stop offset="0.572917" stop-color="white"/>
</linearGradient>
<linearGradient id="paint3_linear_2600_19584" x1="340" y1="100.128" x2="431.648" y2="110.716" gradientUnits="userSpaceOnUse">
<stop stop-color="#000659"/>
<stop offset="1" stop-color="#0310C6"/>
</linearGradient>
<linearGradient id="paint4_linear_2600_19584" x1="376.5" y1="94" x2="376.5" y2="151.5" gradientUnits="userSpaceOnUse">
<stop stop-color="#040036"/>
<stop offset="1" stop-color="white" stop-opacity="0"/>
</linearGradient>
<linearGradient id="paint5_linear_2600_19584" x1="1.09729e-06" y1="221.741" x2="94.926" y2="268.861" gradientUnits="userSpaceOnUse">
<stop stop-color="#000659"/>
<stop offset="1" stop-color="#0310C6"/>
</linearGradient>
<linearGradient id="paint6_linear_2600_19584" x1="46.5" y1="217" x2="46.5" y2="255.333" gradientUnits="userSpaceOnUse">
<stop stop-color="#040036"/>
<stop offset="1" stop-color="white" stop-opacity="0"/>
</linearGradient>
<clipPath id="clip0_2600_19584">
<rect width="161" height="84" fill="white" transform="translate(134 189)"/>
</clipPath>
</defs>
</svg>
