<svg width="64" height="64" viewBox="0 0 64 64" fill="none" xmlns="http://www.w3.org/2000/svg">
<rect x="6.21289" y="6.5" width="51" height="51" rx="25.5" fill="#040036" stroke="#040036"/>
<path d="M4.00016 16.0001C6.52512 11.6267 10.0493 7.91301 14.2845 5.16262C18.5197 2.41223 23.3458 0.703241 28.3681 0.175378C33.3903 -0.352481 38.4662 0.315773 43.1807 2.12551C47.8953 3.93524 52.1145 6.83507 55.4936 10.5879C58.8727 14.3407 61.3156 18.84 62.6226 23.7179C63.9296 28.5957 64.0636 33.7137 63.0137 38.6533C61.9637 43.5928 59.7597 48.2138 56.5816 52.1383C53.4036 56.0629 49.3419 59.1795 44.7285 61.2335L31.713 32.0001L4.00016 16.0001Z" fill="#EF5350"/>
</svg>
