<svg width="88" height="88" viewBox="0 0 88 88" fill="none" xmlns="http://www.w3.org/2000/svg">
<path d="M0 33C0 43.0139 7.13655 51.361 16.6011 53.2327C13.9852 59.0558 10.346 64.1865 7.14134 68.0625C6.96317 68.278 6.78364 68.5104 6.60756 68.7491C5.45697 70.3087 5.76569 72.4532 7.13618 73.8237C8.24622 74.9337 9.87458 75.348 11.377 74.8928C12.0332 74.6939 12.7605 74.472 13.4777 74.25C24.0816 70.9681 41.25 60.7678 41.25 33C41.25 21.6091 32.0159 12.375 20.625 12.375C9.23413 12.375 0 21.6091 0 33Z" fill="#EBEBED"/>
<path d="M46.75 33C46.75 43.0139 53.8865 51.361 63.3511 53.2327C60.7352 59.0558 57.096 64.1865 53.8913 68.0625C53.7132 68.278 53.5336 68.5104 53.3576 68.7491C52.207 70.3087 52.5157 72.4532 53.8862 73.8237C54.9962 74.9337 56.6246 75.348 58.127 74.8928C58.7832 74.6939 59.5105 74.472 60.2277 74.25C70.8316 70.9681 88 60.7678 88 33C88 21.6091 78.7659 12.375 67.375 12.375C55.9841 12.375 46.75 21.6091 46.75 33Z" fill="#EBEBED"/>
</svg>
