<svg width="130" height="130" viewBox="0 0 130 130" fill="none" xmlns="http://www.w3.org/2000/svg">
<path d="M64.5001 5.49982C49.2393 5.49982 34.5519 11.315 23.4273 21.7617C12.3026 32.2084 5.57673 46.5017 4.61849 61.7324C3.66025 76.9631 8.54169 91.9866 18.2693 103.745C27.9969 115.504 41.8396 123.114 56.9801 125.027C72.1206 126.939 87.4209 123.011 99.7672 114.041C112.113 105.071 120.578 91.7332 123.437 76.7427C126.297 61.7522 123.337 46.2354 115.16 33.3502C106.983 20.4651 94.2029 11.18 79.4215 7.38484" stroke="#040036" stroke-linecap="round"/>
<path d="M64.5 10.5C51.5529 10.5 39.0208 15.0675 29.1099 23.3984C19.1991 31.7293 12.545 43.2896 10.319 56.0439C8.093 68.7982 10.4379 81.929 16.9408 93.1246C23.4437 104.32 33.6877 112.863 45.8694 117.248C58.0511 121.634 71.3895 121.582 83.5364 117.101C95.6833 112.619 105.86 103.997 112.275 92.7502C118.69 81.504 120.931 68.3552 118.605 55.6187C116.279 42.8822 111.476 34.7528 101.5 26.5" stroke="#040036" stroke-linecap="round"/>
<path d="M64.5 15.5C53.8068 15.5 43.3953 18.9282 34.794 25.2812C26.1926 31.6343 19.8546 40.5775 16.7104 50.798C13.5661 61.0185 13.7813 71.9777 17.3244 82.0669C20.8675 92.1561 27.5517 100.844 36.3958 106.854C45.24 112.864 55.7781 115.881 66.463 115.461C77.1479 115.042 87.4169 111.207 95.7621 104.522C104.107 97.8357 110.089 88.6505 112.83 78.3145C115.571 67.9784 114.925 57.0361 110.989 47.0938" stroke="#040036" stroke-linecap="round"/>
<path d="M64.5 20.5C55.8405 20.5 47.365 22.9985 40.0902 27.6958C32.8154 32.3931 27.0504 39.0896 23.4869 46.9819C19.9234 54.8741 18.7127 63.627 20.0001 72.1903C21.2876 80.7535 25.0184 88.7635 30.745 95.259C36.4717 101.755 43.9508 106.46 52.2852 108.81C60.6196 111.161 69.4552 111.057 77.7318 108.511C86.0085 105.964 93.3748 101.084 98.9468 94.4555C104.519 87.8268 108.06 79.7312 109.145 71.14" stroke="#040036" stroke-linecap="round"/>
<path d="M64.5 25.5C57.656 25.5 50.9265 27.256 44.9552 30.6002C38.9838 33.9443 33.9704 38.7646 30.3944 44.6C26.8184 50.4355 24.7995 57.0909 24.5308 63.9296C24.2622 70.7683 25.7526 77.5616 28.8597 83.6596C31.9669 89.7576 36.5866 94.9565 42.2772 98.7588C47.9678 102.561 54.5388 104.84 61.3616 105.377C68.1845 105.914 75.0311 104.691 81.2464 101.826C87.4617 98.9604 92.8379 94.5483 96.8607 89.0114" stroke="#040036" stroke-linecap="round"/>
<path d="M64.5 30.5C59.348 30.5 54.2594 31.6374 49.5977 33.8311C44.936 36.0247 40.8161 39.2204 37.532 43.1902C34.248 47.1599 31.8809 51.8057 30.5996 56.7958C29.3183 61.786 29.1546 66.9976 30.12 72.0583C31.0853 77.1191 33.1561 81.9044 36.1844 86.0725C39.2127 90.2406 43.1238 93.6887 47.6386 96.1707C52.1534 98.6528 57.1604 100.107 62.3023 100.431C67.4442 100.754 72.5941 99.9388 77.3844 98.0422" stroke="#040036" stroke-linecap="round"/>
<path d="M64.5001 35.5011C57.1948 35.5011 50.1405 38.1667 44.6607 42.9978C39.1809 47.8288 35.6522 54.4934 34.7366 61.7411C33.821 68.9888 35.5815 76.3215 39.6877 82.3636C43.7938 88.4057 49.9636 92.7418 57.0394 94.5586" stroke="#040036" stroke-linecap="round"/>
<path d="M64.5 40.4999C59.756 40.4999 55.1099 41.8498 51.1043 44.3917C47.0988 46.9337 43.8993 50.5629 41.8793 54.8555C39.8594 59.148 39.1026 63.9266 39.6971 68.6333C40.2917 73.3399 42.2132 77.7802 45.2372 81.4355" stroke="#040036" stroke-linecap="round"/>
<path d="M64.5 45.5C61.8736 45.5 59.2728 46.0173 56.8463 47.0224C54.4198 48.0275 52.215 49.5007 50.3579 51.3579C48.5007 53.215 47.0275 55.4198 46.0224 57.8463C45.0173 60.2728 44.5 62.8736 44.5 65.5" stroke="#040036" stroke-linecap="round"/>
<path d="M64.4991 50.4989C62.2911 50.4989 60.1103 50.9863 58.1124 51.9265C56.1145 52.8666 54.3489 54.2362 52.9414 55.9375" stroke="#040036" stroke-linecap="round"/>
<circle cx="79.5" cy="7.5" r="3.5" fill="#040036"/>
</svg>
